<!--
Created with Chapman Taylor Dynamo SVG exporter
byabear@chapmantaylor.com

Revit Source File:
C:\Users\KH5970\DC\ACCDocs\Engie Solutions\Grand Pavois\Fichiers de projet\GP_ARC_MT.rvt

Date:
15/12/2023 20:17:44
-->

<svg xmlns="http://www.w3.org/2000/svg" class="gen-by-CTA-dyn-Synoptic-for-PowerBI" viewBox=" 1.0 -1.0 0.0 1.0 " transform="scale( 0.95 )">

<style>
polygon {
fill: gainsboro;
stroke: blue;
stroke-width: 0.0001px;
}
</style>

<polygon id="4569" points="+0000.035,-0000.690,+0000.035,-0000.659,+0000.071,-0000.659,+0000.071,-0000.669,+0000.071,-0000.703,+0000.048,-0000.703" />
<polygon id="4570" points="+0000.439,-0000.566,+0000.439,-0000.542,+0000.466,-0000.542,+0000.466,-0000.556,+0000.466,-0000.566" />
<polygon id="4571" points="+0000.448,-0000.615,+0000.439,-0000.615,+0000.439,-0000.592,+0000.466,-0000.592,+0000.466,-0000.615" />
<polygon id="4572" points="+0000.439,-0000.590,+0000.439,-0000.568,+0000.466,-0000.568,+0000.466,-0000.588,+0000.466,-0000.590" />
<polygon id="4573" points="+0000.135,-0000.615,+0000.108,-0000.615,+0000.108,-0000.592,+0000.135,-0000.592" />
<polygon id="4574" points="+0000.135,-0000.568,+0000.135,-0000.590,+0000.108,-0000.590,+0000.108,-0000.588,+0000.108,-0000.568" />
<polygon id="4575" points="+0000.108,-0000.542,+0000.135,-0000.542,+0000.135,-0000.566,+0000.108,-0000.566,+0000.108,-0000.566,+0000.108,-0000.546" />
<polygon id="4576" points="+0000.247,-0000.595,+0000.247,-0000.599,+0000.243,-0000.599,+0000.243,-0000.595" />
<polygon id="4577" points="+0000.148,-0000.615,+0000.137,-0000.615,+0000.137,-0000.591,+0000.137,-0000.567,+0000.137,-0000.542,+0000.148,-0000.542,+0000.148,-0000.547,+0000.163,-0000.547,+0000.164,-0000.547,+0000.174,-0000.547,+0000.175,-0000.547,+0000.190,-0000.547,+0000.190,-0000.542,+0000.228,-0000.542,+0000.242,-0000.542,+0000.242,-0000.558,+0000.242,-0000.563,+0000.247,-0000.563,+0000.247,-0000.594,+0000.242,-0000.594,+0000.242,-0000.600,+0000.242,-0000.615,+0000.228,-0000.615,+0000.190,-0000.615,+0000.190,-0000.611,+0000.175,-0000.611,+0000.174,-0000.611,+0000.164,-0000.611,+0000.163,-0000.611,+0000.148,-0000.611" />
<polygon id="4578" points="+0000.248,-0000.615,+0000.243,-0000.615,+0000.243,-0000.600,+0000.248,-0000.600,+0000.259,-0000.600,+0000.264,-0000.600,+0000.269,-0000.600,+0000.269,-0000.615" />
<polygon id="4579" points="+0000.263,-0000.599,+0000.259,-0000.599,+0000.259,-0000.595,+0000.263,-0000.595" />
<polygon id="4580" points="+0000.243,-0000.562,+0000.243,-0000.558,+0000.247,-0000.558,+0000.247,-0000.562" />
<polygon id="4581" points="+0000.269,-0000.563,+0000.269,-0000.599,+0000.264,-0000.599,+0000.264,-0000.594,+0000.258,-0000.594,+0000.258,-0000.599,+0000.248,-0000.599,+0000.248,-0000.595,+0000.248,-0000.563,+0000.248,-0000.558,+0000.258,-0000.558,+0000.258,-0000.563,+0000.264,-0000.563" />
<polygon id="4582" points="+0000.268,-0000.542,+0000.269,-0000.542,+0000.269,-0000.557,+0000.264,-0000.557,+0000.259,-0000.557,+0000.248,-0000.557,+0000.243,-0000.557,+0000.243,-0000.542,+0000.249,-0000.542" />
<polygon id="4583" points="+0000.259,-0000.562,+0000.259,-0000.558,+0000.263,-0000.558,+0000.263,-0000.562" />
<polygon id="4584" points="+0000.269,-0000.558,+0000.269,-0000.562,+0000.264,-0000.562,+0000.264,-0000.558" />
<polygon id="4585" points="+0000.287,-0000.615,+0000.270,-0000.615,+0000.270,-0000.600,+0000.270,-0000.563,+0000.270,-0000.558,+0000.270,-0000.542,+0000.287,-0000.542,+0000.303,-0000.542,+0000.303,-0000.558,+0000.303,-0000.563,+0000.303,-0000.600,+0000.303,-0000.615" />
<polygon id="4586" points="+0000.324,-0000.615,+0000.304,-0000.615,+0000.304,-0000.600,+0000.310,-0000.600,+0000.326,-0000.600,+0000.331,-0000.600,+0000.331,-0000.615,+0000.327,-0000.615" />
<polygon id="4587" points="+0000.342,-0000.600,+0000.369,-0000.600,+0000.369,-0000.557,+0000.342,-0000.557,+0000.342,-0000.594,+0000.331,-0000.594,+0000.327,-0000.594,+0000.327,-0000.563,+0000.332,-0000.563,+0000.332,-0000.558,+0000.332,-0000.542,+0000.346,-0000.542,+0000.384,-0000.542,+0000.384,-0000.547,+0000.398,-0000.547,+0000.398,-0000.547,+0000.409,-0000.547,+0000.409,-0000.547,+0000.426,-0000.547,+0000.426,-0000.542,+0000.437,-0000.542,+0000.437,-0000.567,+0000.437,-0000.591,+0000.437,-0000.615,+0000.426,-0000.615,+0000.426,-0000.611,+0000.409,-0000.611,+0000.409,-0000.611,+0000.398,-0000.611,+0000.398,-0000.611,+0000.384,-0000.611,+0000.384,-0000.615,+0000.346,-0000.615,+0000.332,-0000.615,+0000.332,-0000.600,+0000.332,-0000.595,+0000.342,-0000.595" />
<polygon id="4588" points="+0000.327,-0000.599,+0000.327,-0000.595,+0000.331,-0000.595,+0000.331,-0000.599" />
<polygon id="4589" points="+0000.326,-0000.595,+0000.326,-0000.599,+0000.311,-0000.599,+0000.311,-0000.595" />
<polygon id="4590" points="+0000.326,-0000.542,+0000.331,-0000.542,+0000.331,-0000.557,+0000.326,-0000.557,+0000.315,-0000.557,+0000.310,-0000.557,+0000.304,-0000.557,+0000.304,-0000.542,+0000.306,-0000.542" />
<polygon id="4591" points="+0000.331,-0000.558,+0000.331,-0000.562,+0000.327,-0000.562,+0000.327,-0000.558" />
<polygon id="4592" points="+0000.304,-0000.599,+0000.304,-0000.563,+0000.310,-0000.563,+0000.316,-0000.563,+0000.316,-0000.558,+0000.326,-0000.558,+0000.326,-0000.563,+0000.326,-0000.594,+0000.310,-0000.594,+0000.310,-0000.599" />
<polygon id="4593" points="+0000.304,-0000.562,+0000.304,-0000.558,+0000.310,-0000.558,+0000.310,-0000.562" />
<polygon id="4594" points="+0000.311,-0000.558,+0000.315,-0000.558,+0000.315,-0000.562,+0000.311,-0000.562" />
<polygon id="4595" points="+0000.104,-0000.629,+0000.104,-0000.642,+0000.096,-0000.642,+0000.096,-0000.629" />
<polygon id="4596" points="+0000.104,-0000.646,+0000.104,-0000.649,+0000.083,-0000.649,+0000.083,-0000.643,+0000.096,-0000.643,+0000.104,-0000.643" />
<polygon id="4597" points="+0000.072,-0000.669,+0000.072,-0000.659,+0000.072,-0000.630,+0000.084,-0000.630,+0000.084,-0000.629,+0000.095,-0000.629,+0000.095,-0000.642,+0000.082,-0000.642,+0000.082,-0000.650,+0000.082,-0000.669" />
<polygon id="4598" points="+0000.104,-0000.650,+0000.104,-0000.669,+0000.083,-0000.669,+0000.083,-0000.650" />
<polygon id="4599" points="+0000.035,-0000.466,+0000.046,-0000.455,+0000.073,-0000.455,+0000.073,-0000.491,+0000.064,-0000.491,+0000.035,-0000.491" />
<polygon id="4600" points="+0000.152,-0000.540,+0000.148,-0000.540,+0000.136,-0000.540,+0000.108,-0000.540,+0000.108,-0000.527,+0000.108,-0000.519,+0000.152,-0000.519" />
<polygon id="4601" points="+0000.170,-0000.540,+0000.164,-0000.540,+0000.163,-0000.540,+0000.153,-0000.540,+0000.153,-0000.518,+0000.153,-0000.464,+0000.168,-0000.464,+0000.170,-0000.464" />
<polygon id="4602" points="+0000.189,-0000.540,+0000.175,-0000.540,+0000.174,-0000.540,+0000.172,-0000.540,+0000.172,-0000.464,+0000.173,-0000.464,+0000.189,-0000.464,+0000.189,-0000.522" />
<polygon id="4603" points="+0000.226,-0000.540,+0000.190,-0000.540,+0000.190,-0000.522,+0000.226,-0000.522,+0000.226,-0000.532" />
<polygon id="4604" points="+0000.230,-0000.518,+0000.230,-0000.499,+0000.248,-0000.499,+0000.248,-0000.505,+0000.248,-0000.518" />
<polygon id="4605" points="+0000.286,-0000.540,+0000.270,-0000.540,+0000.268,-0000.540,+0000.268,-0000.532,+0000.268,-0000.505,+0000.268,-0000.500,+0000.286,-0000.500" />
<polygon id="4606" points="+0000.230,-0000.531,+0000.230,-0000.522,+0000.230,-0000.519,+0000.248,-0000.519,+0000.248,-0000.506,+0000.258,-0000.506,+0000.268,-0000.506,+0000.268,-0000.531,+0000.249,-0000.531" />
<polygon id="4607" points="+0000.248,-0000.540,+0000.243,-0000.540,+0000.230,-0000.540,+0000.230,-0000.532,+0000.248,-0000.532" />
<polygon id="4608" points="+0000.268,-0000.540,+0000.249,-0000.540,+0000.249,-0000.532,+0000.268,-0000.532" />
<polygon id="4609" points="+0000.306,-0000.540,+0000.304,-0000.540,+0000.288,-0000.540,+0000.288,-0000.500,+0000.306,-0000.500,+0000.306,-0000.505,+0000.306,-0000.532" />
<polygon id="4610" points="+0000.344,-0000.499,+0000.344,-0000.518,+0000.326,-0000.518,+0000.326,-0000.505,+0000.326,-0000.499" />
<polygon id="4611" points="+0000.344,-0000.522,+0000.344,-0000.531,+0000.326,-0000.531,+0000.306,-0000.531,+0000.306,-0000.506,+0000.316,-0000.506,+0000.326,-0000.506,+0000.326,-0000.519,+0000.344,-0000.519" />
<polygon id="4612" points="+0000.326,-0000.540,+0000.306,-0000.540,+0000.306,-0000.532,+0000.326,-0000.532" />
<polygon id="4613" points="+0000.344,-0000.540,+0000.331,-0000.540,+0000.326,-0000.540,+0000.326,-0000.532,+0000.344,-0000.532" />
<polygon id="4614" points="+0000.426,-0000.540,+0000.425,-0000.540,+0000.409,-0000.540,+0000.409,-0000.540,+0000.404,-0000.540,+0000.404,-0000.465,+0000.406,-0000.465,+0000.426,-0000.465,+0000.426,-0000.517" />
<polygon id="4615" points="+0000.466,-0000.540,+0000.438,-0000.540,+0000.428,-0000.540,+0000.427,-0000.540,+0000.427,-0000.517,+0000.466,-0000.517,+0000.466,-0000.530" />
<polygon id="4616" points="+0000.384,-0000.540,+0000.383,-0000.540,+0000.348,-0000.540,+0000.348,-0000.532,+0000.348,-0000.522,+0000.384,-0000.522" />
<polygon id="4617" points="+0000.402,-0000.540,+0000.398,-0000.540,+0000.398,-0000.540,+0000.386,-0000.540,+0000.384,-0000.540,+0000.384,-0000.522,+0000.384,-0000.465,+0000.400,-0000.465,+0000.402,-0000.465" />
<polygon id="4618" points="+0000.526,-0000.455,+0000.539,-0000.468,+0000.539,-0000.492,+0000.509,-0000.492,+0000.499,-0000.492,+0000.499,-0000.455" />
<polygon id="4619" points="+0000.470,-0000.492,+0000.470,-0000.464,+0000.470,-0000.455,+0000.482,-0000.455,+0000.496,-0000.455,+0000.498,-0000.455,+0000.498,-0000.492" />
<polygon id="4620" points="+0000.470,-0000.530,+0000.470,-0000.517,+0000.470,-0000.493,+0000.499,-0000.493,+0000.508,-0000.493,+0000.508,-0000.508,+0000.490,-0000.508,+0000.479,-0000.508,+0000.479,-0000.530" />
<polygon id="4621" points="+0000.508,-0000.509,+0000.508,-0000.530,+0000.490,-0000.530,+0000.490,-0000.509" />
<polygon id="4622" points="+0000.489,-0000.530,+0000.480,-0000.530,+0000.480,-0000.509,+0000.489,-0000.509" />
<polygon id="4623" points="+0000.527,-0000.566,+0000.490,-0000.566,+0000.490,-0000.556,+0000.490,-0000.530,+0000.509,-0000.530,+0000.539,-0000.530,+0000.539,-0000.565,+0000.539,-0000.566,+0000.539,-0000.566" />
<polygon id="4624" points="+0000.470,-0000.556,+0000.470,-0000.541,+0000.470,-0000.530,+0000.480,-0000.530,+0000.489,-0000.530,+0000.489,-0000.556" />
<polygon id="4625" points="+0000.470,-0000.566,+0000.470,-0000.556,+0000.489,-0000.556,+0000.489,-0000.566" />
<polygon id="4626" points="+0000.539,-0000.690,+0000.526,-0000.703,+0000.503,-0000.703,+0000.503,-0000.668,+0000.503,-0000.659,+0000.539,-0000.659" />
<polygon id="4627" points="+0000.470,-0000.627,+0000.470,-0000.620,+0000.478,-0000.620,+0000.478,-0000.627" />
<polygon id="4628" points="+0000.470,-0000.649,+0000.470,-0000.646,+0000.470,-0000.628,+0000.478,-0000.628,+0000.478,-0000.649" />
<polygon id="4629" points="+0000.470,-0000.668,+0000.470,-0000.650,+0000.479,-0000.650,+0000.492,-0000.650,+0000.492,-0000.668" />
<polygon id="4630" points="+0000.479,-0000.628,+0000.489,-0000.628,+0000.489,-0000.630,+0000.502,-0000.630,+0000.502,-0000.659,+0000.502,-0000.668,+0000.493,-0000.668,+0000.493,-0000.649,+0000.479,-0000.649" />
<polygon id="4631" points="+0000.404,-0000.693,+0000.404,-0000.638,+0000.426,-0000.638,+0000.437,-0000.638,+0000.437,-0000.646,+0000.437,-0000.693,+0000.406,-0000.693" />
<polygon id="4632" points="+0000.427,-0000.617,+0000.437,-0000.617,+0000.437,-0000.628,+0000.437,-0000.637,+0000.427,-0000.637" />
<polygon id="4633" points="+0000.404,-0000.617,+0000.409,-0000.617,+0000.409,-0000.617,+0000.426,-0000.617,+0000.426,-0000.637,+0000.404,-0000.637" />
<polygon id="4634" points="+0000.448,-0000.617,+0000.466,-0000.617,+0000.466,-0000.619,+0000.466,-0000.628,+0000.466,-0000.646,+0000.448,-0000.646,+0000.448,-0000.628" />
<polygon id="4635" points="+0000.466,-0000.668,+0000.466,-0000.693,+0000.459,-0000.693,+0000.438,-0000.693,+0000.438,-0000.647,+0000.448,-0000.647,+0000.466,-0000.647,+0000.466,-0000.650" />
<polygon id="4636" points="+0000.438,-0000.617,+0000.447,-0000.617,+0000.447,-0000.628,+0000.438,-0000.628" />
<polygon id="4637" points="+0000.438,-0000.637,+0000.438,-0000.629,+0000.447,-0000.629,+0000.447,-0000.646,+0000.438,-0000.646" />
<polygon id="4638" points="+0000.348,-0000.617,+0000.384,-0000.617,+0000.384,-0000.637,+0000.348,-0000.637,+0000.348,-0000.627" />
<polygon id="4639" points="+0000.385,-0000.617,+0000.398,-0000.617,+0000.398,-0000.617,+0000.402,-0000.617,+0000.402,-0000.637,+0000.402,-0000.693,+0000.400,-0000.693,+0000.385,-0000.693,+0000.385,-0000.637" />
<polygon id="4640" points="+0000.344,-0000.640,+0000.344,-0000.659,+0000.326,-0000.659,+0000.326,-0000.652,+0000.326,-0000.640" />
<polygon id="4641" points="+0000.326,-0000.617,+0000.331,-0000.617,+0000.344,-0000.617,+0000.344,-0000.626,+0000.326,-0000.626" />
<polygon id="4642" points="+0000.344,-0000.627,+0000.344,-0000.637,+0000.344,-0000.639,+0000.326,-0000.639,+0000.326,-0000.652,+0000.316,-0000.652,+0000.306,-0000.652,+0000.306,-0000.627,+0000.325,-0000.627" />
<polygon id="4643" points="+0000.288,-0000.617,+0000.304,-0000.617,+0000.325,-0000.617,+0000.325,-0000.626,+0000.306,-0000.626,+0000.306,-0000.623,+0000.288,-0000.623" />
<polygon id="4644" points="+0000.288,-0000.652,+0000.288,-0000.624,+0000.306,-0000.624,+0000.306,-0000.627,+0000.306,-0000.652" />
<polygon id="4645" points="+0000.230,-0000.659,+0000.230,-0000.640,+0000.248,-0000.640,+0000.248,-0000.652,+0000.248,-0000.659" />
<polygon id="4646" points="+0000.230,-0000.639,+0000.230,-0000.637,+0000.230,-0000.627,+0000.248,-0000.627,+0000.268,-0000.627,+0000.268,-0000.652,+0000.258,-0000.652,+0000.248,-0000.652,+0000.248,-0000.639" />
<polygon id="4647" points="+0000.286,-0000.624,+0000.286,-0000.652,+0000.268,-0000.652,+0000.268,-0000.627,+0000.268,-0000.624" />
<polygon id="4648" points="+0000.249,-0000.617,+0000.270,-0000.617,+0000.286,-0000.617,+0000.286,-0000.623,+0000.268,-0000.623,+0000.268,-0000.626,+0000.249,-0000.626" />
<polygon id="4649" points="+0000.230,-0000.617,+0000.243,-0000.617,+0000.248,-0000.617,+0000.248,-0000.626,+0000.230,-0000.626" />
<polygon id="4650" points="+0000.172,-0000.617,+0000.174,-0000.617,+0000.175,-0000.617,+0000.189,-0000.617,+0000.189,-0000.637,+0000.189,-0000.693,+0000.173,-0000.693,+0000.172,-0000.693,+0000.172,-0000.637" />
<polygon id="4651" points="+0000.190,-0000.617,+0000.226,-0000.617,+0000.226,-0000.627,+0000.226,-0000.636,+0000.190,-0000.636" />
<polygon id="4652" points="+0000.170,-0000.638,+0000.170,-0000.693,+0000.168,-0000.693,+0000.137,-0000.693,+0000.137,-0000.646,+0000.137,-0000.638,+0000.148,-0000.638" />
<polygon id="4653" points="+0000.137,-0000.617,+0000.148,-0000.617,+0000.148,-0000.637,+0000.137,-0000.637,+0000.137,-0000.628" />
<polygon id="4654" points="+0000.149,-0000.617,+0000.163,-0000.617,+0000.164,-0000.617,+0000.170,-0000.617,+0000.170,-0000.637,+0000.149,-0000.637" />
<polygon id="4655" points="+0000.108,-0000.617,+0000.136,-0000.617,+0000.136,-0000.628,+0000.126,-0000.628,+0000.126,-0000.623,+0000.108,-0000.623" />
<polygon id="4656" points="+0000.108,-0000.646,+0000.108,-0000.643,+0000.108,-0000.628,+0000.108,-0000.624,+0000.125,-0000.624,+0000.125,-0000.628,+0000.125,-0000.646" />
<polygon id="4657" points="+0000.136,-0000.629,+0000.136,-0000.637,+0000.136,-0000.646,+0000.126,-0000.646,+0000.126,-0000.629" />
<polygon id="4658" points="+0000.104,-0000.541,+0000.104,-0000.545,+0000.078,-0000.545,+0000.078,-0000.528,+0000.084,-0000.528,+0000.093,-0000.528,+0000.104,-0000.528" />
<polygon id="4659" points="+0000.047,-0000.565,+0000.035,-0000.565,+0000.035,-0000.530,+0000.035,-0000.529,+0000.035,-0000.528,+0000.046,-0000.528,+0000.064,-0000.528,+0000.077,-0000.528,+0000.077,-0000.546,+0000.077,-0000.565" />
<polygon id="4660" points="+0000.064,-0000.527,+0000.064,-0000.507,+0000.083,-0000.507,+0000.083,-0000.527,+0000.077,-0000.527" />
<polygon id="4661" points="+0000.084,-0000.507,+0000.092,-0000.507,+0000.092,-0000.527,+0000.084,-0000.527" />
<polygon id="4662" points="+0000.104,-0000.518,+0000.104,-0000.527,+0000.093,-0000.527,+0000.093,-0000.506,+0000.084,-0000.506,+0000.064,-0000.506,+0000.064,-0000.492,+0000.074,-0000.492,+0000.104,-0000.492" />
<polygon id="4663" points="+0000.232,-0000.466,+0000.232,-0000.454,+0000.232,-0000.454,+0000.246,-0000.454,+0000.258,-0000.454,+0000.258,-0000.505,+0000.248,-0000.505,+0000.248,-0000.498,+0000.230,-0000.498,+0000.230,-0000.466" />
<polygon id="4664" points="+0000.290,-0000.463,+0000.290,-0000.454,+0000.290,-0000.454,+0000.304,-0000.454,+0000.316,-0000.454,+0000.316,-0000.505,+0000.306,-0000.505,+0000.306,-0000.499,+0000.288,-0000.499,+0000.288,-0000.463" />
<polygon id="4665" points="+0000.284,-0000.454,+0000.284,-0000.463,+0000.286,-0000.463,+0000.286,-0000.499,+0000.268,-0000.499,+0000.268,-0000.505,+0000.258,-0000.505,+0000.258,-0000.454,+0000.260,-0000.454,+0000.274,-0000.454" />
<polygon id="4666" points="+0000.286,-0000.694,+0000.284,-0000.694,+0000.284,-0000.703,+0000.279,-0000.703,+0000.265,-0000.703,+0000.258,-0000.703,+0000.258,-0000.653,+0000.268,-0000.653,+0000.286,-0000.653" />
<polygon id="4667" points="+0000.290,-0000.703,+0000.290,-0000.694,+0000.288,-0000.694,+0000.288,-0000.653,+0000.306,-0000.653,+0000.316,-0000.653,+0000.316,-0000.703,+0000.308,-0000.703,+0000.295,-0000.703" />
<polygon id="4668" points="+0000.342,-0000.454,+0000.342,-0000.464,+0000.341,-0000.464,+0000.341,-0000.465,+0000.342,-0000.465,+0000.342,-0000.466,+0000.344,-0000.466,+0000.344,-0000.498,+0000.326,-0000.498,+0000.326,-0000.505,+0000.316,-0000.505,+0000.316,-0000.454,+0000.319,-0000.454,+0000.332,-0000.454" />
<polygon id="4669" points="+0000.232,-0000.703,+0000.232,-0000.691,+0000.230,-0000.691,+0000.230,-0000.660,+0000.248,-0000.660,+0000.248,-0000.653,+0000.258,-0000.653,+0000.258,-0000.703,+0000.250,-0000.703,+0000.237,-0000.703" />
<polygon id="4670" points="+0000.344,-0000.691,+0000.342,-0000.691,+0000.342,-0000.703,+0000.337,-0000.703,+0000.323,-0000.703,+0000.316,-0000.703,+0000.316,-0000.653,+0000.326,-0000.653,+0000.326,-0000.660,+0000.344,-0000.660" />
<polygon id="4671" points="+0000.104,-0000.455,+0000.104,-0000.463,+0000.104,-0000.463,+0000.104,-0000.464,+0000.104,-0000.491,+0000.074,-0000.491,+0000.074,-0000.455,+0000.076,-0000.455,+0000.090,-0000.455" />
<polygon id="4672" points="+0000.104,-0000.694,+0000.104,-0000.694,+0000.104,-0000.703,+0000.087,-0000.703,+0000.073,-0000.703,+0000.072,-0000.703,+0000.072,-0000.669,+0000.081,-0000.669,+0000.084,-0000.669,+0000.104,-0000.669,+0000.104,-0000.693" />
<polygon id="4673" points="+0000.502,-0000.703,+0000.492,-0000.703,+0000.479,-0000.703,+0000.470,-0000.703,+0000.470,-0000.694,+0000.470,-0000.694,+0000.470,-0000.693,+0000.470,-0000.669,+0000.492,-0000.669,+0000.502,-0000.669" />
<polygon id="4674" points="+0000.035,-0000.570,+0000.047,-0000.570,+0000.047,-0000.566,+0000.077,-0000.566,+0000.104,-0000.566,+0000.104,-0000.567,+0000.104,-0000.587,+0000.084,-0000.587,+0000.047,-0000.587,+0000.035,-0000.587,+0000.035,-0000.572" />
<polygon id="4675" points="+0000.046,-0000.527,+0000.046,-0000.522,+0000.035,-0000.522,+0000.035,-0000.515,+0000.035,-0000.503,+0000.035,-0000.492,+0000.063,-0000.492,+0000.063,-0000.507,+0000.063,-0000.527" />
<polygon id="4676" points="+0000.035,-0000.593,+0000.047,-0000.593,+0000.047,-0000.588,+0000.083,-0000.588,+0000.083,-0000.628,+0000.083,-0000.629,+0000.072,-0000.629,+0000.046,-0000.629,+0000.046,-0000.628,+0000.035,-0000.628,+0000.035,-0000.593" />
<polygon id="4677" points="+0000.035,-0000.659,+0000.035,-0000.653,+0000.035,-0000.642,+0000.035,-0000.633,+0000.046,-0000.633,+0000.046,-0000.630,+0000.071,-0000.630,+0000.071,-0000.659" />
<polygon id="4678" points="+0000.527,-0000.572,+0000.539,-0000.572,+0000.539,-0000.573,+0000.539,-0000.586,+0000.539,-0000.587,+0000.539,-0000.588,+0000.527,-0000.588,+0000.490,-0000.588,+0000.470,-0000.588,+0000.470,-0000.568,+0000.490,-0000.568,+0000.527,-0000.568" />
<polygon id="4679" points="+0000.527,-0000.527,+0000.539,-0000.527,+0000.539,-0000.529,+0000.539,-0000.530,+0000.509,-0000.530,+0000.509,-0000.508,+0000.509,-0000.493,+0000.539,-0000.493,+0000.539,-0000.503,+0000.539,-0000.515,+0000.539,-0000.522,+0000.527,-0000.522" />
<polygon id="4680" points="+0000.527,-0000.633,+0000.539,-0000.633,+0000.539,-0000.642,+0000.539,-0000.653,+0000.539,-0000.659,+0000.503,-0000.659,+0000.503,-0000.630,+0000.527,-0000.630" />
<polygon id="4681" points="+0000.527,-0000.593,+0000.539,-0000.593,+0000.539,-0000.627,+0000.539,-0000.627,+0000.527,-0000.627,+0000.527,-0000.629,+0000.502,-0000.629,+0000.490,-0000.629,+0000.490,-0000.628,+0000.490,-0000.588,+0000.527,-0000.588" />
<polygon id="4682" points="+0000.348,-0000.693,+0000.348,-0000.691,+0000.348,-0000.691,+0000.348,-0000.659,+0000.348,-0000.639,+0000.348,-0000.638,+0000.384,-0000.638,+0000.384,-0000.693" />
<polygon id="4683" points="+0000.226,-0000.691,+0000.226,-0000.691,+0000.226,-0000.693,+0000.190,-0000.693,+0000.190,-0000.637,+0000.226,-0000.637,+0000.226,-0000.639,+0000.226,-0000.659" />
<polygon id="4684" points="+0000.226,-0000.464,+0000.226,-0000.466,+0000.226,-0000.466,+0000.226,-0000.499,+0000.226,-0000.519,+0000.226,-0000.521,+0000.190,-0000.521,+0000.190,-0000.464" />
<polygon id="4685" points="+0000.348,-0000.466,+0000.348,-0000.465,+0000.384,-0000.465,+0000.384,-0000.521,+0000.348,-0000.521,+0000.348,-0000.519,+0000.348,-0000.499,+0000.348,-0000.466" />
<polygon id="4686" points="+0000.466,-0000.492,+0000.466,-0000.516,+0000.427,-0000.516,+0000.427,-0000.465,+0000.458,-0000.465,+0000.466,-0000.465" />
<polygon id="4687" points="+0000.108,-0000.693,+0000.108,-0000.669,+0000.108,-0000.650,+0000.108,-0000.647,+0000.126,-0000.647,+0000.136,-0000.647,+0000.136,-0000.693,+0000.115,-0000.693" />
<polygon id="4688" points="+0000.366,-0000.598,+0000.344,-0000.598,+0000.344,-0000.595,+0000.344,-0000.559,+0000.366,-0000.559" />
<polygon id="4689" points="+0000.229,-0000.598,+0000.208,-0000.598,+0000.208,-0000.559,+0000.229,-0000.559" />
<polygon id="4690" points="+0000.108,-0000.518,+0000.108,-0000.492,+0000.108,-0000.464,+0000.115,-0000.464,+0000.152,-0000.464,+0000.152,-0000.518" />

</svg>