<!--
Created with Chapman Taylor Dynamo SVG exporter
byabear@chapmantaylor.com

Revit Source File:
C:\Users\KH5970\DC\ACCDocs\Engie Solutions\Grand Pavois\Fichiers de projet\GP_ARC_MT.rvt

Date:
15/12/2023 20:17:04
-->

<svg xmlns="http://www.w3.org/2000/svg" class="gen-by-CTA-dyn-Synoptic-for-PowerBI" viewBox=" -1.0 -2.0 2.0 3.0 " transform="scale( 0.95 )">

<style>
polygon {
fill: gainsboro;
stroke: blue;
stroke-width: 0.0001px;
}
</style>

<polygon id="608" points="+0000.108,-0000.453,+0000.108,-0000.449,+0000.104,-0000.449,+0000.047,-0000.449,+0000.034,-0000.449,-0000.081,-0000.449,-0000.286,+0000.051,-0000.145,+0000.102,-0000.148,+0000.112,-0000.084,+0000.135,-0000.017,+0000.135,+0000.550,+0000.135,+0000.550,+0000.046,+0000.545,+0000.046,+0000.545,+0000.042,+0000.550,+0000.042,+0000.550,-0000.043,+0000.545,-0000.043,+0000.545,-0000.047,+0000.550,-0000.047,+0000.550,-0000.134,+0000.545,-0000.134,+0000.545,-0000.138,+0000.550,-0000.138,+0000.550,-0000.224,+0000.545,-0000.224,+0000.545,-0000.228,+0000.550,-0000.228,+0000.550,-0000.315,+0000.545,-0000.315,+0000.545,-0000.319,+0000.550,-0000.319,+0000.550,-0000.402,+0000.545,-0000.402,+0000.545,-0000.406,+0000.550,-0000.406,+0000.550,-0000.423,+0000.548,-0000.425,+0000.528,-0000.445,+0000.528,-0000.456,+0000.528,-0000.460,+0000.540,-0000.471,+0000.545,-0000.471,+0000.545,-0000.692,+0000.540,-0000.692,+0000.528,-0000.703,+0000.528,-0000.709,+0000.556,-0000.738,+0000.556,-0001.073,+0000.476,-0001.140,+0000.395,-0001.085,+0000.180,-0001.085,+0000.026,-0000.709,+0000.050,-0000.709,+0000.037,-0000.717,+0000.040,-0000.739,+0000.041,-0000.738,+0000.038,-0000.718,+0000.054,-0000.708,+0000.055,-0000.709,+0000.104,-0000.709,+0000.112,-0000.709,+0000.112,-0000.705,+0000.115,-0000.705,+0000.115,-0000.694,+0000.112,-0000.694,+0000.112,-0000.463,+0000.115,-0000.463,+0000.115,-0000.453" />

</svg>