<?xml version="1.0" encoding="UTF-8" standalone="no"?>
<!--
Created with Chapman Taylor Dynamo SVG exporter
byabear@chapmantaylor.com

Revit Source File:
C:\Users\KH5970\DC\ACCDocs\Engie Solutions\Grand Pavois\Fichiers de projet\GP_ARC_MT.rvt

Date:
15/12/2023 20:18:12
-->

<svg
   class="gen-by-CTA-dyn-Synoptic-for-PowerBI"
   viewBox=" 1.0 -1.0 0.0 1.0 "
   transform="scale( 0.95 )"
   version="1.1"
   id="svg134"
   sodipodi:docname="1330351001_TB_N01.svg"
   inkscape:version="1.2.1 (9c6d41e410, 2022-07-14)"
   xmlns:inkscape="http://www.inkscape.org/namespaces/inkscape"
   xmlns:sodipodi="http://sodipodi.sourceforge.net/DTD/sodipodi-0.dtd"
   xmlns="http://www.w3.org/2000/svg"
   xmlns:svg="http://www.w3.org/2000/svg">
  <defs
     id="defs138" />
  <sodipodi:namedview
     id="namedview136"
     pagecolor="#ffffff"
     bordercolor="#000000"
     borderopacity="0.25"
     inkscape:showpageshadow="2"
     inkscape:pageopacity="0.0"
     inkscape:pagecheckerboard="0"
     inkscape:deskcolor="#d1d1d1"
     showgrid="false"
     inkscape:zoom="256"
     inkscape:cx="1.2441406"
     inkscape:cy="0.28515625"
     inkscape:window-width="1920"
     inkscape:window-height="1017"
     inkscape:window-x="-8"
     inkscape:window-y="-8"
     inkscape:window-maximized="1"
     inkscape:current-layer="svg134" />
  <style
     id="style2">
polygon {
fill: gainsboro;
stroke: blue;
stroke-width: 0.0001px;
}
</style>
  <polygon
     id="0"
     points="0.047,-0.566 0.077,-0.566 0.104,-0.566 0.104,-0.567 0.104,-0.587 0.084,-0.587 0.047,-0.587 0.035,-0.587 0.035,-0.572 0.035,-0.57 0.047,-0.57 "
     transform="matrix(4.4095148,0,0,4.6851977,-0.11524951,3.3330587)" />
  <polygon
     id="polygon5"
     points="0.047,-0.588 0.083,-0.588 0.083,-0.628 0.083,-0.629 0.072,-0.629 0.046,-0.629 0.046,-0.628 0.035,-0.628 0.035,-0.593 0.047,-0.593 "
     transform="matrix(4.4095148,0,0,4.6851977,-0.11524951,3.3330587)" />
  <polygon
     id="polygon7"
     points="0.035,-0.642 0.035,-0.633 0.046,-0.633 0.046,-0.63 0.071,-0.63 0.071,-0.659 0.035,-0.659 0.035,-0.653 "
     transform="matrix(4.4095148,0,0,4.6851977,-0.11524951,3.3330587)" />
  <polygon
     id="polygon9"
     points="0.071,-0.659 0.071,-0.669 0.071,-0.703 0.048,-0.703 0.035,-0.69 0.035,-0.659 "
     transform="matrix(4.4095148,0,0,4.6851977,-0.11524951,3.3330587)" />
  <polygon
     id="polygon11"
     points="0.072,-0.63 0.084,-0.63 0.084,-0.629 0.095,-0.629 0.095,-0.642 0.082,-0.642 0.082,-0.65 0.082,-0.669 0.072,-0.669 0.072,-0.659 "
     transform="matrix(4.4095148,0,0,4.6851977,-0.11524951,3.3330587)" />
  <polygon
     id="polygon13"
     points="0.096,-0.642 0.096,-0.629 0.104,-0.629 0.104,-0.642 "
     transform="matrix(4.4095148,0,0,4.6851977,-0.11524951,3.3330587)" />
  <polygon
     id="polygon15"
     points="0.083,-0.649 0.083,-0.643 0.096,-0.643 0.104,-0.643 0.104,-0.646 0.104,-0.649 "
     transform="matrix(4.4095148,0,0,4.6851977,-0.11524951,3.3330587)" />
  <polygon
     id="polygon17"
     points="0.083,-0.669 0.083,-0.65 0.104,-0.65 0.104,-0.669 "
     transform="matrix(4.4095148,0,0,4.6851977,-0.11524951,3.3330587)" />
  <polygon
     id="polygon19"
     points="0.104,-0.703 0.087,-0.703 0.073,-0.703 0.072,-0.703 0.072,-0.669 0.081,-0.669 0.084,-0.669 0.104,-0.669 0.104,-0.693 0.104,-0.694 "
     transform="matrix(4.4095148,0,0,4.6851977,-0.11524951,3.3330587)" />
  <polygon
     id="1"
     points="0.348,-0.691 0.348,-0.659 0.348,-0.639 0.348,-0.638 0.384,-0.638 0.384,-0.693 0.348,-0.693 0.348,-0.691 "
     transform="matrix(4.4095148,0,0,4.6851977,-0.11524951,3.3330587)" />
  <polygon
     id="655"
     points="0.466,-0.542 0.466,-0.556 0.466,-0.566 0.439,-0.566 0.439,-0.542 "
     transform="matrix(4.4095148,0,0,4.6851977,-0.11524951,3.3330587)" />
  <polygon
     id="656"
     points="0.439,-0.592 0.466,-0.592 0.466,-0.601 0.47,-0.601 0.47,-0.591 0.47,-0.588 0.489,-0.588 0.489,-0.627 0.479,-0.627 0.479,-0.619 0.47,-0.619 0.47,-0.616 0.47,-0.612 0.466,-0.612 0.466,-0.615 0.448,-0.615 0.439,-0.615 "
     transform="matrix(4.4095148,0,0,4.6851977,-0.11524951,3.3330587)" />
  <polygon
     id="657"
     points="0.466,-0.568 0.466,-0.588 0.466,-0.59 0.439,-0.59 0.439,-0.568 "
     transform="matrix(4.4095148,0,0,4.6851977,-0.11524951,3.3330587)" />
  <polygon
     id="658"
     points="0.108,-0.612 0.104,-0.612 0.104,-0.616 0.104,-0.624 0.104,-0.628 0.096,-0.628 0.084,-0.628 0.084,-0.588 0.104,-0.588 0.104,-0.591 0.104,-0.6 0.108,-0.6 0.108,-0.592 0.135,-0.592 0.135,-0.615 0.108,-0.615 "
     transform="matrix(4.4095148,0,0,4.6851977,-0.11524951,3.3330587)" />
  <polygon
     id="659"
     points="0.108,-0.59 0.108,-0.588 0.108,-0.568 0.135,-0.568 0.135,-0.59 "
     transform="matrix(4.4095148,0,0,4.6851977,-0.11524951,3.3330587)" />
  <polygon
     id="660"
     points="0.135,-0.566 0.108,-0.566 0.108,-0.566 0.108,-0.557 0.104,-0.557 0.104,-0.565 0.078,-0.565 0.078,-0.546 0.108,-0.546 0.108,-0.542 0.135,-0.542 "
     transform="matrix(4.4095148,0,0,4.6851977,-0.11524951,3.3330587)" />
  <polygon
     id="661"
     points="0.243,-0.599 0.243,-0.595 0.247,-0.595 0.247,-0.599 "
     transform="matrix(4.4095148,0,0,4.6851977,-0.11524951,3.3330587)" />
  <polygon
     id="662"
     points="0.137,-0.591 0.137,-0.567 0.137,-0.542 0.148,-0.542 0.148,-0.547 0.163,-0.547 0.164,-0.547 0.174,-0.547 0.175,-0.547 0.19,-0.547 0.19,-0.542 0.228,-0.542 0.242,-0.542 0.242,-0.558 0.242,-0.563 0.247,-0.563 0.247,-0.594 0.242,-0.594 0.242,-0.6 0.242,-0.615 0.228,-0.615 0.19,-0.615 0.19,-0.611 0.175,-0.611 0.174,-0.611 0.164,-0.611 0.163,-0.611 0.148,-0.611 0.148,-0.615 0.137,-0.615 "
     transform="matrix(4.4095148,0,0,4.6851977,-0.11524951,3.3330587)" />
  <polygon
     id="663"
     points="0.243,-0.6 0.248,-0.6 0.259,-0.6 0.264,-0.6 0.269,-0.6 0.269,-0.615 0.248,-0.615 0.243,-0.615 "
     transform="matrix(4.4095148,0,0,4.6851977,-0.11524951,3.3330587)" />
  <polygon
     id="664"
     points="0.259,-0.595 0.263,-0.595 0.263,-0.599 0.259,-0.599 "
     transform="matrix(4.4095148,0,0,4.6851977,-0.11524951,3.3330587)" />
  <polygon
     id="665"
     points="0.247,-0.558 0.247,-0.562 0.243,-0.562 0.243,-0.558 "
     transform="matrix(4.4095148,0,0,4.6851977,-0.11524951,3.3330587)" />
  <polygon
     id="666"
     points="0.264,-0.599 0.264,-0.594 0.258,-0.594 0.258,-0.599 0.248,-0.599 0.248,-0.595 0.248,-0.563 0.248,-0.558 0.258,-0.558 0.258,-0.563 0.264,-0.563 0.269,-0.563 0.269,-0.599 "
     transform="matrix(4.4095148,0,0,4.6851977,-0.11524951,3.3330587)" />
  <polygon
     id="667"
     points="0.269,-0.557 0.264,-0.557 0.259,-0.557 0.248,-0.557 0.243,-0.557 0.243,-0.542 0.249,-0.542 0.268,-0.542 0.269,-0.542 "
     transform="matrix(4.4095148,0,0,4.6851977,-0.11524951,3.3330587)" />
  <polygon
     id="668"
     points="0.263,-0.558 0.263,-0.562 0.259,-0.562 0.259,-0.558 "
     transform="matrix(4.4095148,0,0,4.6851977,-0.11524951,3.3330587)" />
  <polygon
     id="669"
     points="0.264,-0.562 0.264,-0.558 0.269,-0.558 0.269,-0.562 "
     transform="matrix(4.4095148,0,0,4.6851977,-0.11524951,3.3330587)" />
  <polygon
     id="670"
     points="0.27,-0.6 0.27,-0.563 0.27,-0.558 0.27,-0.542 0.287,-0.542 0.303,-0.542 0.303,-0.558 0.303,-0.563 0.303,-0.6 0.303,-0.615 0.287,-0.615 0.27,-0.615 "
     transform="matrix(4.4095148,0,0,4.6851977,-0.11524951,3.3330587)" />
  <polygon
     id="671"
     points="0.304,-0.6 0.31,-0.6 0.326,-0.6 0.331,-0.6 0.331,-0.615 0.327,-0.615 0.324,-0.615 0.304,-0.615 "
     transform="matrix(4.4095148,0,0,4.6851977,-0.11524951,3.3330587)" />
  <polygon
     id="672"
     points="0.369,-0.557 0.342,-0.557 0.342,-0.594 0.331,-0.594 0.327,-0.594 0.327,-0.563 0.332,-0.563 0.332,-0.558 0.332,-0.542 0.346,-0.542 0.384,-0.542 0.384,-0.547 0.398,-0.547 0.398,-0.547 0.409,-0.547 0.409,-0.547 0.426,-0.547 0.426,-0.542 0.437,-0.542 0.437,-0.567 0.437,-0.591 0.437,-0.615 0.426,-0.615 0.426,-0.611 0.409,-0.611 0.409,-0.611 0.398,-0.611 0.398,-0.611 0.384,-0.611 0.384,-0.615 0.346,-0.615 0.332,-0.615 0.332,-0.6 0.332,-0.595 0.342,-0.595 0.342,-0.6 0.369,-0.6 "
     transform="matrix(4.4095148,0,0,4.6851977,-0.11524951,3.3330587)" />
  <polygon
     id="673"
     points="0.331,-0.595 0.331,-0.599 0.327,-0.599 0.327,-0.595 "
     transform="matrix(4.4095148,0,0,4.6851977,-0.11524951,3.3330587)" />
  <polygon
     id="674"
     points="0.311,-0.599 0.311,-0.595 0.326,-0.595 0.326,-0.599 "
     transform="matrix(4.4095148,0,0,4.6851977,-0.11524951,3.3330587)" />
  <polygon
     id="675"
     points="0.331,-0.557 0.326,-0.557 0.315,-0.557 0.31,-0.557 0.304,-0.557 0.304,-0.542 0.306,-0.542 0.326,-0.542 0.331,-0.542 "
     transform="matrix(4.4095148,0,0,4.6851977,-0.11524951,3.3330587)" />
  <polygon
     id="676"
     points="0.327,-0.562 0.327,-0.558 0.331,-0.558 0.331,-0.562 "
     transform="matrix(4.4095148,0,0,4.6851977,-0.11524951,3.3330587)" />
  <polygon
     id="677"
     points="0.31,-0.563 0.316,-0.563 0.316,-0.558 0.326,-0.558 0.326,-0.563 0.326,-0.594 0.31,-0.594 0.31,-0.599 0.304,-0.599 0.304,-0.563 "
     transform="matrix(4.4095148,0,0,4.6851977,-0.11524951,3.3330587)" />
  <polygon
     id="678"
     points="0.31,-0.558 0.31,-0.562 0.304,-0.562 0.304,-0.558 "
     transform="matrix(4.4095148,0,0,4.6851977,-0.11524951,3.3330587)" />
  <polygon
     id="679"
     points="0.315,-0.562 0.311,-0.562 0.311,-0.558 0.315,-0.558 "
     transform="matrix(4.4095148,0,0,4.6851977,-0.11524951,3.3330587)" />
  <polygon
     id="680"
     points="0.226,-0.693 0.19,-0.693 0.19,-0.637 0.226,-0.637 0.226,-0.639 0.226,-0.659 0.226,-0.691 "
     transform="matrix(4.4095148,0,0,4.6851977,-0.11524951,3.3330587)" />
  <polygon
     id="682"
     points="0.226,-0.466 0.226,-0.499 0.226,-0.519 0.226,-0.521 0.19,-0.521 0.19,-0.464 0.226,-0.464 0.226,-0.466 "
     transform="matrix(4.4095148,0,0,4.6851977,-0.11524951,3.3330587)" />
  <polygon
     id="683"
     points="0.384,-0.465 0.384,-0.521 0.348,-0.521 0.348,-0.519 0.348,-0.499 0.348,-0.466 0.348,-0.465 "
     transform="matrix(4.4095148,0,0,4.6851977,-0.11524951,3.3330587)" />
  <polygon
     id="684"
     points="0.458,-0.465 0.466,-0.465 0.466,-0.492 0.466,-0.516 0.427,-0.516 0.427,-0.465 "
     transform="matrix(4.4095148,0,0,4.6851977,-0.11524951,3.3330587)" />
  <polygon
     id="686"
     points="0.073,-0.455 0.073,-0.491 0.064,-0.491 0.035,-0.491 0.035,-0.466 0.046,-0.455 "
     transform="matrix(4.4095148,0,0,4.6851977,-0.11524951,3.3330587)" />
  <polygon
     id="687"
     points="0.136,-0.54 0.108,-0.54 0.108,-0.529 0.108,-0.519 0.152,-0.519 0.152,-0.54 0.148,-0.54 "
     transform="matrix(4.4095148,0,0,4.6851977,-0.11524951,3.3330587)" />
  <polygon
     id="688"
     points="0.163,-0.54 0.153,-0.54 0.153,-0.518 0.153,-0.464 0.168,-0.464 0.17,-0.464 0.17,-0.54 0.164,-0.54 "
     transform="matrix(4.4095148,0,0,4.6851977,-0.11524951,3.3330587)" />
  <polygon
     id="690"
     points="0.174,-0.54 0.172,-0.54 0.172,-0.464 0.173,-0.464 0.189,-0.464 0.189,-0.522 0.189,-0.54 0.175,-0.54 "
     transform="matrix(4.4095148,0,0,4.6851977,-0.11524951,3.3330587)" />
  <polygon
     id="691"
     points="0.19,-0.522 0.226,-0.522 0.226,-0.532 0.226,-0.54 0.19,-0.54 "
     transform="matrix(4.4095148,0,0,4.6851977,-0.11524951,3.3330587)" />
  <polygon
     id="692"
     points="0.248,-0.499 0.248,-0.505 0.248,-0.518 0.23,-0.518 0.23,-0.499 "
     transform="matrix(4.4095148,0,0,4.6851977,-0.11524951,3.3330587)" />
  <polygon
     id="693"
     points="0.268,-0.54 0.268,-0.532 0.268,-0.505 0.268,-0.5 0.286,-0.5 0.286,-0.54 0.27,-0.54 "
     transform="matrix(4.4095148,0,0,4.6851977,-0.11524951,3.3330587)" />
  <polygon
     id="694"
     points="0.23,-0.519 0.248,-0.519 0.248,-0.506 0.258,-0.506 0.268,-0.506 0.268,-0.531 0.249,-0.531 0.23,-0.531 0.23,-0.522 "
     transform="matrix(4.4095148,0,0,4.6851977,-0.11524951,3.3330587)" />
  <polygon
     id="695"
     points="0.23,-0.54 0.23,-0.532 0.248,-0.532 0.248,-0.54 0.243,-0.54 "
     transform="matrix(4.4095148,0,0,4.6851977,-0.11524951,3.3330587)" />
  <polygon
     id="696"
     points="0.249,-0.532 0.268,-0.532 0.268,-0.54 0.249,-0.54 "
     transform="matrix(4.4095148,0,0,4.6851977,-0.11524951,3.3330587)" />
  <polygon
     id="697"
     points="0.288,-0.54 0.288,-0.5 0.306,-0.5 0.306,-0.505 0.306,-0.532 0.306,-0.54 0.304,-0.54 "
     transform="matrix(4.4095148,0,0,4.6851977,-0.11524951,3.3330587)" />
  <polygon
     id="698"
     points="0.326,-0.518 0.326,-0.505 0.326,-0.499 0.344,-0.499 0.344,-0.518 "
     transform="matrix(4.4095148,0,0,4.6851977,-0.11524951,3.3330587)" />
  <polygon
     id="699"
     points="0.326,-0.531 0.306,-0.531 0.306,-0.506 0.316,-0.506 0.326,-0.506 0.326,-0.519 0.344,-0.519 0.344,-0.522 0.344,-0.531 "
     transform="matrix(4.4095148,0,0,4.6851977,-0.11524951,3.3330587)" />
  <polygon
     id="700"
     points="0.306,-0.532 0.326,-0.532 0.326,-0.54 0.306,-0.54 "
     transform="matrix(4.4095148,0,0,4.6851977,-0.11524951,3.3330587)" />
  <polygon
     id="701"
     points="0.326,-0.54 0.326,-0.532 0.344,-0.532 0.344,-0.54 0.331,-0.54 "
     transform="matrix(4.4095148,0,0,4.6851977,-0.11524951,3.3330587)" />
  <polygon
     id="702"
     points="0.409,-0.54 0.409,-0.54 0.404,-0.54 0.404,-0.465 0.406,-0.465 0.426,-0.465 0.426,-0.517 0.426,-0.54 0.425,-0.54 "
     transform="matrix(4.4095148,0,0,4.6851977,-0.11524951,3.3330587)" />
  <polygon
     id="704"
     points="0.428,-0.54 0.427,-0.54 0.427,-0.517 0.466,-0.517 0.466,-0.53 0.466,-0.54 0.438,-0.54 "
     transform="matrix(4.4095148,0,0,4.6851977,-0.11524951,3.3330587)" />
  <polygon
     id="705"
     points="0.348,-0.54 0.348,-0.532 0.348,-0.522 0.384,-0.522 0.384,-0.54 0.383,-0.54 "
     transform="matrix(4.4095148,0,0,4.6851977,-0.11524951,3.3330587)" />
  <polygon
     id="706"
     points="0.398,-0.54 0.386,-0.54 0.384,-0.54 0.384,-0.522 0.384,-0.465 0.4,-0.465 0.402,-0.465 0.402,-0.54 0.398,-0.54 "
     transform="matrix(4.4095148,0,0,4.6851977,-0.11524951,3.3330587)" />
  <polygon
     id="707"
     points="0.539,-0.492 0.509,-0.492 0.499,-0.492 0.499,-0.455 0.526,-0.455 0.539,-0.468 "
     transform="matrix(4.4095148,0,0,4.6851977,-0.11524951,3.3330587)" />
  <polygon
     id="708"
     points="0.47,-0.464 0.47,-0.455 0.482,-0.455 0.496,-0.455 0.498,-0.455 0.498,-0.492 0.47,-0.492 "
     transform="matrix(4.4095148,0,0,4.6851977,-0.11524951,3.3330587)" />
  <polygon
     id="709"
     points="0.508,-0.493 0.508,-0.508 0.49,-0.508 0.479,-0.508 0.479,-0.53 0.47,-0.53 0.47,-0.517 0.47,-0.493 0.499,-0.493 "
     transform="matrix(4.4095148,0,0,4.6851977,-0.11524951,3.3330587)" />
  <polygon
     id="710"
     points="0.49,-0.53 0.49,-0.509 0.508,-0.509 0.508,-0.53 "
     transform="matrix(4.4095148,0,0,4.6851977,-0.11524951,3.3330587)" />
  <polygon
     id="711"
     points="0.48,-0.509 0.489,-0.509 0.489,-0.53 0.48,-0.53 "
     transform="matrix(4.4095148,0,0,4.6851977,-0.11524951,3.3330587)" />
  <polygon
     id="712"
     points="0.49,-0.556 0.49,-0.53 0.509,-0.53 0.539,-0.53 0.539,-0.565 0.539,-0.566 0.539,-0.566 0.527,-0.566 0.49,-0.566 "
     transform="matrix(4.4095148,0,0,4.6851977,-0.11524951,3.3330587)" />
  <polygon
     id="713"
     points="0.489,-0.556 0.47,-0.556 0.47,-0.541 0.47,-0.53 0.48,-0.53 0.489,-0.53 "
     transform="matrix(4.4095148,0,0,4.6851977,-0.11524951,3.3330587)" />
  <polygon
     id="714"
     points="0.47,-0.556 0.489,-0.556 0.489,-0.566 0.47,-0.566 "
     transform="matrix(4.4095148,0,0,4.6851977,-0.11524951,3.3330587)" />
  <polygon
     id="715"
     points="0.503,-0.703 0.503,-0.668 0.503,-0.659 0.539,-0.659 0.539,-0.69 0.526,-0.703 "
     transform="matrix(4.4095148,0,0,4.6851977,-0.11524951,3.3330587)" />
  <polygon
     id="717"
     points="0.478,-0.62 0.478,-0.627 0.47,-0.627 0.47,-0.62 "
     transform="matrix(4.4095148,0,0,4.6851977,-0.11524951,3.3330587)" />
  <polygon
     id="718"
     points="0.47,-0.628 0.478,-0.628 0.478,-0.649 0.47,-0.649 0.47,-0.646 "
     transform="matrix(4.4095148,0,0,4.6851977,-0.11524951,3.3330587)" />
  <polygon
     id="719"
     points="0.479,-0.65 0.492,-0.65 0.492,-0.668 0.47,-0.668 0.47,-0.65 "
     transform="matrix(4.4095148,0,0,4.6851977,-0.11524951,3.3330587)" />
  <polygon
     id="720"
     points="0.489,-0.63 0.502,-0.63 0.502,-0.659 0.502,-0.668 0.493,-0.668 0.493,-0.649 0.479,-0.649 0.479,-0.628 0.489,-0.628 "
     transform="matrix(4.4095148,0,0,4.6851977,-0.11524951,3.3330587)" />
  <polygon
     id="721"
     points="0.426,-0.638 0.437,-0.638 0.437,-0.646 0.437,-0.693 0.406,-0.693 0.404,-0.693 0.404,-0.638 "
     transform="matrix(4.4095148,0,0,4.6851977,-0.11524951,3.3330587)" />
  <polygon
     id="722"
     points="0.437,-0.628 0.437,-0.637 0.427,-0.637 0.427,-0.617 0.437,-0.617 "
     transform="matrix(4.4095148,0,0,4.6851977,-0.11524951,3.3330587)" />
  <polygon
     id="723"
     points="0.409,-0.617 0.426,-0.617 0.426,-0.637 0.404,-0.637 0.404,-0.617 0.409,-0.617 "
     transform="matrix(4.4095148,0,0,4.6851977,-0.11524951,3.3330587)" />
  <polygon
     id="724"
     points="0.466,-0.619 0.466,-0.628 0.466,-0.646 0.448,-0.646 0.448,-0.628 0.448,-0.617 0.466,-0.617 "
     transform="matrix(4.4095148,0,0,4.6851977,-0.11524951,3.3330587)" />
  <polygon
     id="725"
     points="0.459,-0.693 0.438,-0.693 0.438,-0.647 0.448,-0.647 0.466,-0.647 0.466,-0.65 0.466,-0.668 0.466,-0.693 "
     transform="matrix(4.4095148,0,0,4.6851977,-0.11524951,3.3330587)" />
  <polygon
     id="726"
     points="0.447,-0.628 0.438,-0.628 0.438,-0.617 0.447,-0.617 "
     transform="matrix(4.4095148,0,0,4.6851977,-0.11524951,3.3330587)" />
  <polygon
     id="727"
     points="0.447,-0.629 0.447,-0.646 0.438,-0.646 0.438,-0.637 0.438,-0.629 "
     transform="matrix(4.4095148,0,0,4.6851977,-0.11524951,3.3330587)" />
  <polygon
     id="728"
     points="0.384,-0.637 0.348,-0.637 0.348,-0.627 0.348,-0.617 0.384,-0.617 "
     transform="matrix(4.4095148,0,0,4.6851977,-0.11524951,3.3330587)" />
  <polygon
     id="729"
     points="0.398,-0.617 0.402,-0.617 0.402,-0.637 0.402,-0.693 0.4,-0.693 0.385,-0.693 0.385,-0.637 0.385,-0.617 0.398,-0.617 "
     transform="matrix(4.4095148,0,0,4.6851977,-0.11524951,3.3330587)" />
  <polygon
     id="730"
     points="0.326,-0.659 0.326,-0.652 0.326,-0.64 0.344,-0.64 0.344,-0.659 "
     transform="matrix(4.4095148,0,0,4.6851977,-0.11524951,3.3330587)" />
  <polygon
     id="731"
     points="0.344,-0.617 0.344,-0.626 0.326,-0.626 0.326,-0.617 0.331,-0.617 "
     transform="matrix(4.4095148,0,0,4.6851977,-0.11524951,3.3330587)" />
  <polygon
     id="732"
     points="0.344,-0.639 0.326,-0.639 0.326,-0.652 0.316,-0.652 0.306,-0.652 0.306,-0.627 0.325,-0.627 0.344,-0.627 0.344,-0.637 "
     transform="matrix(4.4095148,0,0,4.6851977,-0.11524951,3.3330587)" />
  <polygon
     id="733"
     points="0.325,-0.617 0.325,-0.626 0.306,-0.626 0.306,-0.623 0.288,-0.623 0.288,-0.617 0.304,-0.617 "
     transform="matrix(4.4095148,0,0,4.6851977,-0.11524951,3.3330587)" />
  <polygon
     id="734"
     points="0.306,-0.624 0.306,-0.627 0.306,-0.652 0.288,-0.652 0.288,-0.624 "
     transform="matrix(4.4095148,0,0,4.6851977,-0.11524951,3.3330587)" />
  <polygon
     id="735"
     points="0.248,-0.64 0.248,-0.652 0.248,-0.659 0.23,-0.659 0.23,-0.64 "
     transform="matrix(4.4095148,0,0,4.6851977,-0.11524951,3.3330587)" />
  <polygon
     id="736"
     points="0.23,-0.627 0.248,-0.627 0.268,-0.627 0.268,-0.652 0.258,-0.652 0.248,-0.652 0.248,-0.639 0.23,-0.639 0.23,-0.637 "
     transform="matrix(4.4095148,0,0,4.6851977,-0.11524951,3.3330587)" />
  <polygon
     id="737"
     points="0.268,-0.652 0.268,-0.627 0.268,-0.624 0.286,-0.624 0.286,-0.652 "
     transform="matrix(4.4095148,0,0,4.6851977,-0.11524951,3.3330587)" />
  <polygon
     id="738"
     points="0.286,-0.617 0.286,-0.623 0.268,-0.623 0.268,-0.626 0.249,-0.626 0.249,-0.617 0.27,-0.617 "
     transform="matrix(4.4095148,0,0,4.6851977,-0.11524951,3.3330587)" />
  <polygon
     id="739"
     points="0.248,-0.617 0.248,-0.626 0.23,-0.626 0.23,-0.617 0.243,-0.617 "
     transform="matrix(4.4095148,0,0,4.6851977,-0.11524951,3.3330587)" />
  <polygon
     id="740"
     points="0.175,-0.617 0.189,-0.617 0.189,-0.637 0.189,-0.693 0.173,-0.693 0.172,-0.693 0.172,-0.637 0.172,-0.617 0.174,-0.617 "
     transform="matrix(4.4095148,0,0,4.6851977,-0.11524951,3.3330587)" />
  <polygon
     id="741"
     points="0.226,-0.627 0.226,-0.636 0.19,-0.636 0.19,-0.617 0.226,-0.617 "
     transform="matrix(4.4095148,0,0,4.6851977,-0.11524951,3.3330587)" />
  <polygon
     id="742"
     points="0.168,-0.693 0.137,-0.693 0.137,-0.646 0.137,-0.638 0.148,-0.638 0.17,-0.638 0.17,-0.693 "
     transform="matrix(4.4095148,0,0,4.6851977,-0.11524951,3.3330587)" />
  <polygon
     id="743"
     points="0.148,-0.637 0.137,-0.637 0.137,-0.628 0.137,-0.617 0.148,-0.617 "
     transform="matrix(4.4095148,0,0,4.6851977,-0.11524951,3.3330587)" />
  <polygon
     id="744"
     points="0.164,-0.617 0.17,-0.617 0.17,-0.637 0.149,-0.637 0.149,-0.617 0.163,-0.617 "
     transform="matrix(4.4095148,0,0,4.6851977,-0.11524951,3.3330587)" />
  <polygon
     id="745"
     points="0.136,-0.628 0.126,-0.628 0.126,-0.623 0.108,-0.623 0.108,-0.617 0.136,-0.617 "
     transform="matrix(4.4095148,0,0,4.6851977,-0.11524951,3.3330587)" />
  <polygon
     id="747"
     points="0.108,-0.628 0.108,-0.624 0.125,-0.624 0.125,-0.628 0.125,-0.646 0.108,-0.646 0.108,-0.643 "
     transform="matrix(4.4095148,0,0,4.6851977,-0.11524951,3.3330587)" />
  <polygon
     id="748"
     points="0.136,-0.646 0.126,-0.646 0.126,-0.629 0.136,-0.629 0.136,-0.637 "
     transform="matrix(4.4095148,0,0,4.6851977,-0.11524951,3.3330587)" />
  <polygon
     id="749"
     points="0.084,-0.53 0.093,-0.53 0.104,-0.53 0.104,-0.541 0.104,-0.545 0.078,-0.545 0.078,-0.53 "
     transform="matrix(4.4095148,0,0,4.6851977,-0.11524951,3.3330587)" />
  <polygon
     id="750"
     points="0.035,-0.53 0.035,-0.53 0.064,-0.53 0.077,-0.53 0.077,-0.546 0.077,-0.565 0.047,-0.565 0.035,-0.565 "
     transform="matrix(4.4095148,0,0,4.6851977,-0.11524951,3.3330587)" />
  <polygon
     id="751"
     points="0.083,-0.507 0.083,-0.528 0.077,-0.528 0.064,-0.528 0.064,-0.507 "
     transform="matrix(4.4095148,0,0,4.6851977,-0.11524951,3.3330587)" />
  <polygon
     id="752"
     points="0.092,-0.528 0.084,-0.528 0.084,-0.507 0.092,-0.507 "
     transform="matrix(4.4095148,0,0,4.6851977,-0.11524951,3.3330587)" />
  <polygon
     id="753"
     points="0.074,-0.492 0.104,-0.492 0.104,-0.518 0.104,-0.528 0.093,-0.528 0.093,-0.506 0.084,-0.506 0.064,-0.506 0.064,-0.492 "
     transform="matrix(4.4095148,0,0,4.6851977,-0.11524951,3.3330587)" />
  <polygon
     id="754"
     points="0.232,-0.454 0.246,-0.454 0.258,-0.454 0.258,-0.505 0.248,-0.505 0.248,-0.498 0.23,-0.498 0.23,-0.466 0.232,-0.466 0.232,-0.454 "
     transform="matrix(4.4095148,0,0,4.6851977,-0.11524951,3.3330587)" />
  <polygon
     id="757"
     points="0.29,-0.454 0.304,-0.454 0.316,-0.454 0.316,-0.505 0.306,-0.505 0.306,-0.499 0.288,-0.499 0.288,-0.463 0.29,-0.463 0.29,-0.454 "
     transform="matrix(4.4095148,0,0,4.6851977,-0.11524951,3.3330587)" />
  <polygon
     id="758"
     points="0.286,-0.463 0.286,-0.499 0.268,-0.499 0.268,-0.505 0.258,-0.505 0.258,-0.454 0.26,-0.454 0.274,-0.454 0.284,-0.454 0.284,-0.463 "
     transform="matrix(4.4095148,0,0,4.6851977,-0.11524951,3.3330587)" />
  <polygon
     id="759"
     points="0.284,-0.703 0.279,-0.703 0.265,-0.703 0.258,-0.703 0.258,-0.653 0.268,-0.653 0.286,-0.653 0.286,-0.694 0.284,-0.694 "
     transform="matrix(4.4095148,0,0,4.6851977,-0.11524951,3.3330587)" />
  <polygon
     id="760"
     points="0.288,-0.694 0.288,-0.653 0.306,-0.653 0.316,-0.653 0.316,-0.703 0.308,-0.703 0.295,-0.703 0.29,-0.703 0.29,-0.694 "
     transform="matrix(4.4095148,0,0,4.6851977,-0.11524951,3.3330587)" />
  <polygon
     id="762"
     points="0.341,-0.464 0.341,-0.465 0.342,-0.465 0.342,-0.466 0.344,-0.466 0.344,-0.498 0.326,-0.498 0.326,-0.505 0.316,-0.505 0.316,-0.454 0.319,-0.454 0.332,-0.454 0.342,-0.454 0.342,-0.464 "
     transform="matrix(4.4095148,0,0,4.6851977,-0.11524951,3.3330587)" />
  <polygon
     id="766"
     points="0.23,-0.691 0.23,-0.66 0.248,-0.66 0.248,-0.653 0.258,-0.653 0.258,-0.703 0.25,-0.703 0.237,-0.703 0.232,-0.703 0.232,-0.691 "
     transform="matrix(4.4095148,0,0,4.6851977,-0.11524951,3.3330587)" />
  <polygon
     id="767"
     points="0.342,-0.703 0.337,-0.703 0.323,-0.703 0.316,-0.703 0.316,-0.653 0.326,-0.653 0.326,-0.66 0.344,-0.66 0.344,-0.691 0.342,-0.691 "
     transform="matrix(4.4095148,0,0,4.6851977,-0.11524951,3.3330587)" />
  <polygon
     id="770"
     points="0.104,-0.463 0.104,-0.464 0.104,-0.491 0.074,-0.491 0.074,-0.455 0.076,-0.455 0.09,-0.455 0.104,-0.455 0.104,-0.463 "
     transform="matrix(4.4095148,0,0,4.6851977,-0.11524951,3.3330587)" />
  <polygon
     id="773"
     points="0.108,-0.65 0.108,-0.647 0.126,-0.647 0.136,-0.647 0.136,-0.693 0.115,-0.693 0.108,-0.693 0.108,-0.669 "
     transform="matrix(4.4095148,0,0,4.6851977,-0.11524951,3.3330587)" />
  <polygon
     id="776"
     points="0.479,-0.703 0.47,-0.703 0.47,-0.694 0.47,-0.694 0.47,-0.693 0.47,-0.669 0.492,-0.669 0.502,-0.669 0.502,-0.703 0.492,-0.703 "
     transform="matrix(4.4095148,0,0,4.6851977,-0.11524951,3.3330587)" />
  <polygon
     id="777"
     points="0.344,-0.595 0.344,-0.559 0.366,-0.559 0.366,-0.598 0.344,-0.598 "
     transform="matrix(4.4095148,0,0,4.6851977,-0.11524951,3.3330587)" />
  <polygon
     id="778"
     points="0.046,-0.522 0.035,-0.522 0.035,-0.515 0.035,-0.503 0.035,-0.492 0.063,-0.492 0.063,-0.507 0.063,-0.528 0.035,-0.528 0.035,-0.527 0.046,-0.527 "
     transform="matrix(4.4095148,0,0,4.6851977,-0.11524951,3.3330587)" />
  <polygon
     id="779"
     points="0.208,-0.559 0.229,-0.559 0.229,-0.598 0.208,-0.598 "
     transform="matrix(4.4095148,0,0,4.6851977,-0.11524951,3.3330587)" />
  <polygon
     id="780"
     points="0.108,-0.492 0.108,-0.464 0.115,-0.464 0.152,-0.464 0.152,-0.518 0.108,-0.518 "
     transform="matrix(4.4095148,0,0,4.6851977,-0.11524951,3.3330587)" />
  <polygon
     id="781"
     points="0.539,-0.573 0.539,-0.586 0.539,-0.587 0.539,-0.588 0.527,-0.588 0.49,-0.588 0.47,-0.588 0.47,-0.568 0.49,-0.568 0.527,-0.568 0.527,-0.572 0.539,-0.572 "
     transform="matrix(4.4095148,0,0,4.6851977,-0.11524951,3.3330587)" />
  <polygon
     id="782"
     points="0.539,-0.529 0.539,-0.53 0.509,-0.53 0.509,-0.508 0.509,-0.493 0.539,-0.493 0.539,-0.503 0.539,-0.515 0.539,-0.522 0.527,-0.522 0.527,-0.527 0.539,-0.527 "
     transform="matrix(4.4095148,0,0,4.6851977,-0.11524951,3.3330587)" />
  <polygon
     id="783"
     points="0.539,-0.642 0.539,-0.653 0.539,-0.659 0.503,-0.659 0.503,-0.63 0.527,-0.63 0.527,-0.633 0.539,-0.633 "
     transform="matrix(4.4095148,0,0,4.6851977,-0.11524951,3.3330587)" />
  <polygon
     id="784"
     points="0.539,-0.627 0.539,-0.627 0.527,-0.627 0.527,-0.629 0.502,-0.629 0.49,-0.629 0.49,-0.628 0.49,-0.588 0.527,-0.588 0.527,-0.593 0.539,-0.593 "
     transform="matrix(4.4095148,0,0,4.6851977,-0.11524951,3.3330587)" />
</svg>
