<!--
Created with Chapman Taylor Dynamo SVG exporter
byabear@chapmantaylor.com

Revit Source File:
C:\Users\KH5970\DC\ACCDocs\Engie Solutions\Grand Pavois\Fichiers de projet\GP_ARC_MT.rvt

Date:
15/12/2023 20:18:07
-->

<svg xmlns="http://www.w3.org/2000/svg" class="gen-by-CTA-dyn-Synoptic-for-PowerBI" viewBox=" -1.0 -1.0 2.0 2.0 " transform="scale( 0.95 )">

<style>
polygon {
fill: gainsboro;
stroke: blue;
stroke-width: 0.0001px;
}
</style>

<polygon id="8235" points="-0000.073,-0000.426,-0000.244,+0000.066,-0000.145,+0000.102,-0000.148,+0000.112,-0000.084,+0000.135,-0000.017,+0000.135,+0000.550,+0000.135,+0000.550,+0000.046,+0000.545,+0000.046,+0000.545,+0000.042,+0000.550,+0000.042,+0000.550,-0000.043,+0000.545,-0000.043,+0000.545,-0000.047,+0000.550,-0000.047,+0000.550,-0000.134,+0000.545,-0000.134,+0000.545,-0000.138,+0000.550,-0000.138,+0000.550,-0000.224,+0000.545,-0000.224,+0000.545,-0000.228,+0000.550,-0000.228,+0000.550,-0000.315,+0000.545,-0000.315,+0000.545,-0000.319,+0000.550,-0000.319,+0000.550,-0000.402,+0000.545,-0000.402,+0000.545,-0000.406,+0000.550,-0000.406,+0000.550,-0000.423,+0000.548,-0000.425,+0000.528,-0000.445,+0000.528,-0000.448,+0000.464,-0000.448,+0000.464,-0000.454,+0000.458,-0000.454,+0000.458,-0000.465,+0000.464,-0000.465,+0000.464,-0000.538,+0000.441,-0000.538,+0000.295,-0000.538,+0000.287,-0000.538,+0000.136,-0000.538,+0000.114,-0000.538,+0000.114,-0000.463,+0000.115,-0000.463,+0000.115,-0000.453,+0000.110,-0000.453,+0000.110,-0000.449,+0000.104,-0000.449,+0000.040,-0000.449,+0000.016,-0000.426" />

</svg>