<!--
Created with Chapman Taylor Dynamo SVG exporter
byabear@chapmantaylor.com

Revit Source File:
C:\Users\KH5970\DC\ACCDocs\Engie Solutions\Grand Pavois\Fichiers de projet\GP_ARC_MT.rvt

Date:
15/12/2023 20:17:07
-->

<svg xmlns="http://www.w3.org/2000/svg" class="gen-by-CTA-dyn-Synoptic-for-PowerBI" viewBox=" 1.0 -1.0 0.0 1.0 " transform="scale( 0.95 )">

<style>
polygon {
fill: gainsboro;
stroke: blue;
stroke-width: 0.0001px;
}
</style>

<polygon id="785" points="+0000.035,-0000.690,+0000.035,-0000.653,+0000.035,-0000.642,+0000.035,-0000.633,+0000.046,-0000.633,+0000.046,-0000.628,+0000.035,-0000.628,+0000.035,-0000.593,+0000.047,-0000.593,+0000.047,-0000.587,+0000.035,-0000.587,+0000.035,-0000.586,+0000.035,-0000.572,+0000.035,-0000.570,+0000.047,-0000.570,+0000.047,-0000.565,+0000.035,-0000.565,+0000.035,-0000.527,+0000.046,-0000.527,+0000.046,-0000.522,+0000.035,-0000.522,+0000.035,-0000.515,+0000.035,-0000.503,+0000.035,-0000.466,+0000.046,-0000.455,+0000.046,-0000.455,+0000.076,-0000.455,+0000.090,-0000.455,+0000.104,-0000.455,+0000.104,-0000.463,+0000.104,-0000.463,+0000.104,-0000.464,+0000.104,-0000.541,+0000.104,-0000.546,+0000.108,-0000.546,+0000.108,-0000.542,+0000.138,-0000.542,+0000.138,-0000.540,+0000.108,-0000.540,+0000.108,-0000.464,+0000.115,-0000.464,+0000.168,-0000.464,+0000.170,-0000.464,+0000.170,-0000.540,+0000.148,-0000.540,+0000.148,-0000.542,+0000.171,-0000.542,+0000.190,-0000.542,+0000.190,-0000.540,+0000.172,-0000.540,+0000.172,-0000.464,+0000.173,-0000.464,+0000.226,-0000.464,+0000.226,-0000.466,+0000.226,-0000.466,+0000.226,-0000.522,+0000.230,-0000.522,+0000.230,-0000.466,+0000.232,-0000.466,+0000.232,-0000.454,+0000.232,-0000.454,+0000.246,-0000.454,+0000.260,-0000.454,+0000.274,-0000.454,+0000.284,-0000.454,+0000.284,-0000.463,+0000.286,-0000.463,+0000.286,-0000.540,+0000.269,-0000.540,+0000.269,-0000.540,+0000.230,-0000.540,+0000.230,-0000.531,+0000.226,-0000.531,+0000.226,-0000.540,+0000.200,-0000.540,+0000.200,-0000.542,+0000.228,-0000.542,+0000.268,-0000.542,+0000.268,-0000.615,+0000.228,-0000.615,+0000.200,-0000.615,+0000.200,-0000.617,+0000.226,-0000.617,+0000.226,-0000.627,+0000.230,-0000.627,+0000.230,-0000.617,+0000.269,-0000.617,+0000.286,-0000.617,+0000.286,-0000.694,+0000.284,-0000.694,+0000.284,-0000.703,+0000.279,-0000.703,+0000.265,-0000.703,+0000.250,-0000.703,+0000.237,-0000.703,+0000.232,-0000.703,+0000.232,-0000.691,+0000.230,-0000.691,+0000.230,-0000.637,+0000.226,-0000.637,+0000.226,-0000.691,+0000.226,-0000.691,+0000.226,-0000.693,+0000.173,-0000.693,+0000.172,-0000.693,+0000.172,-0000.617,+0000.190,-0000.617,+0000.190,-0000.615,+0000.171,-0000.615,+0000.148,-0000.615,+0000.148,-0000.617,+0000.170,-0000.617,+0000.170,-0000.693,+0000.168,-0000.693,+0000.115,-0000.693,+0000.108,-0000.693,+0000.108,-0000.617,+0000.138,-0000.617,+0000.138,-0000.615,+0000.108,-0000.615,+0000.108,-0000.612,+0000.104,-0000.612,+0000.104,-0000.616,+0000.104,-0000.693,+0000.104,-0000.694,+0000.104,-0000.694,+0000.104,-0000.703,+0000.087,-0000.703,+0000.073,-0000.703,+0000.058,-0000.703,+0000.048,-0000.703" />
<polygon id="8237" points="+0000.539,-0000.690,+0000.526,-0000.703,+0000.526,-0000.703,+0000.492,-0000.703,+0000.479,-0000.703,+0000.470,-0000.703,+0000.470,-0000.694,+0000.470,-0000.694,+0000.470,-0000.693,+0000.470,-0000.616,+0000.470,-0000.612,+0000.466,-0000.612,+0000.466,-0000.615,+0000.436,-0000.615,+0000.436,-0000.617,+0000.466,-0000.617,+0000.466,-0000.693,+0000.459,-0000.693,+0000.406,-0000.693,+0000.404,-0000.693,+0000.404,-0000.617,+0000.427,-0000.617,+0000.427,-0000.615,+0000.403,-0000.615,+0000.384,-0000.615,+0000.384,-0000.617,+0000.402,-0000.617,+0000.402,-0000.693,+0000.400,-0000.693,+0000.348,-0000.693,+0000.348,-0000.691,+0000.348,-0000.691,+0000.348,-0000.637,+0000.344,-0000.637,+0000.344,-0000.691,+0000.342,-0000.691,+0000.342,-0000.703,+0000.337,-0000.703,+0000.323,-0000.703,+0000.308,-0000.703,+0000.295,-0000.703,+0000.290,-0000.703,+0000.290,-0000.694,+0000.288,-0000.694,+0000.288,-0000.617,+0000.306,-0000.617,+0000.344,-0000.617,+0000.344,-0000.627,+0000.348,-0000.627,+0000.348,-0000.617,+0000.374,-0000.617,+0000.374,-0000.615,+0000.346,-0000.615,+0000.307,-0000.615,+0000.307,-0000.542,+0000.346,-0000.542,+0000.375,-0000.542,+0000.375,-0000.540,+0000.348,-0000.540,+0000.348,-0000.532,+0000.344,-0000.532,+0000.344,-0000.540,+0000.306,-0000.540,+0000.306,-0000.540,+0000.288,-0000.540,+0000.288,-0000.463,+0000.290,-0000.463,+0000.290,-0000.454,+0000.290,-0000.454,+0000.304,-0000.454,+0000.319,-0000.454,+0000.332,-0000.454,+0000.342,-0000.454,+0000.342,-0000.464,+0000.341,-0000.464,+0000.341,-0000.465,+0000.342,-0000.465,+0000.342,-0000.466,+0000.344,-0000.466,+0000.344,-0000.522,+0000.348,-0000.522,+0000.348,-0000.466,+0000.348,-0000.466,+0000.348,-0000.465,+0000.400,-0000.465,+0000.402,-0000.465,+0000.402,-0000.540,+0000.384,-0000.540,+0000.384,-0000.542,+0000.403,-0000.542,+0000.426,-0000.542,+0000.426,-0000.540,+0000.404,-0000.540,+0000.404,-0000.465,+0000.406,-0000.465,+0000.458,-0000.465,+0000.466,-0000.465,+0000.466,-0000.519,+0000.470,-0000.519,+0000.470,-0000.464,+0000.470,-0000.455,+0000.482,-0000.455,+0000.496,-0000.455,+0000.526,-0000.455,+0000.526,-0000.455,+0000.539,-0000.468,+0000.539,-0000.503,+0000.539,-0000.515,+0000.539,-0000.522,+0000.527,-0000.522,+0000.527,-0000.527,+0000.539,-0000.527,+0000.539,-0000.566,+0000.527,-0000.566,+0000.470,-0000.566,+0000.470,-0000.557,+0000.466,-0000.557,+0000.466,-0000.557,+0000.466,-0000.565,+0000.439,-0000.565,+0000.439,-0000.557,+0000.437,-0000.557,+0000.437,-0000.567,+0000.437,-0000.592,+0000.437,-0000.601,+0000.439,-0000.601,+0000.439,-0000.593,+0000.466,-0000.593,+0000.466,-0000.601,+0000.470,-0000.601,+0000.470,-0000.568,+0000.527,-0000.568,+0000.527,-0000.572,+0000.539,-0000.572,+0000.539,-0000.573,+0000.539,-0000.586,+0000.539,-0000.587,+0000.527,-0000.587,+0000.527,-0000.593,+0000.539,-0000.593,+0000.539,-0000.627,+0000.527,-0000.627,+0000.527,-0000.633,+0000.539,-0000.633,+0000.539,-0000.642,+0000.539,-0000.653" />

</svg>