<!--
Created with Chapman Taylor Dynamo SVG exporter
byabear@chapmantaylor.com

Revit Source File:
C:\Users\KH5970\DC\ACCDocs\Engie Solutions\Grand Pavois\Fichiers de projet\GP_ARC_MT.rvt

Date:
15/12/2023 20:17:48
-->

<svg xmlns="http://www.w3.org/2000/svg" class="gen-by-CTA-dyn-Synoptic-for-PowerBI" viewBox=" 1.0 -1.0 0.0 1.0 " transform="scale( 0.95 )">

<style>
polygon {
fill: gainsboro;
stroke: blue;
stroke-width: 0.0001px;
}
</style>

<polygon id="2" points="+0000.075,-0000.492,+0000.116,-0000.492,+0000.170,-0000.492,+0000.170,-0000.542,+0000.170,-0000.564,+0000.160,-0000.564,+0000.160,-0000.564,+0000.106,-0000.564,+0000.106,-0000.596,+0000.159,-0000.596,+0000.159,-0000.628,+0000.112,-0000.628,+0000.112,-0000.667,+0000.090,-0000.667,+0000.090,-0000.655,+0000.075,-0000.655" />
<polygon id="3" points="+0000.159,-0000.566,+0000.159,-0000.594,+0000.108,-0000.594,+0000.108,-0000.566" />
<polygon id="4" points="+0000.159,-0000.667,+0000.114,-0000.667,+0000.114,-0000.630,+0000.159,-0000.630" />
<polygon id="5" points="+0000.172,-0000.667,+0000.171,-0000.667,+0000.161,-0000.667,+0000.161,-0000.629,+0000.161,-0000.595,+0000.161,-0000.566,+0000.171,-0000.566,+0000.182,-0000.566,+0000.182,-0000.616,+0000.172,-0000.616" />
<polygon id="7986" points="+0000.172,-0000.492,+0000.228,-0000.492,+0000.228,-0000.541,+0000.183,-0000.541,+0000.172,-0000.541" />
<polygon id="7987" points="+0000.230,-0000.492,+0000.346,-0000.492,+0000.346,-0000.524,+0000.346,-0000.541,+0000.230,-0000.541" />
<polygon id="8232" points="+0000.465,-0000.517,+0000.465,-0000.563,+0000.435,-0000.563,+0000.435,-0000.595,+0000.453,-0000.595,+0000.453,-0000.595,+0000.465,-0000.595,+0000.465,-0000.625,+0000.465,-0000.642,+0000.432,-0000.642,+0000.398,-0000.642,+0000.398,-0000.519,+0000.398,-0000.519,+0000.446,-0000.516,+0000.446,-0000.517" />
<polygon id="8233" points="+0000.495,-0000.595,+0000.495,-0000.624,+0000.467,-0000.624,+0000.467,-0000.595,+0000.478,-0000.595,+0000.478,-0000.595" />
<polygon id="8234" points="+0000.495,-0000.517,+0000.495,-0000.563,+0000.467,-0000.563,+0000.467,-0000.517" />

</svg>