<!--
Created with Chapman Taylor Dynamo SVG exporter
byabear@chapmantaylor.com

Revit Source File:
C:\Users\KH5970\DC\ACCDocs\Engie Solutions\Grand Pavois\Fichiers de projet\GP_ARC_MT.rvt

Date:
15/12/2023 20:17:37
-->

<svg xmlns="http://www.w3.org/2000/svg" class="gen-by-CTA-dyn-Synoptic-for-PowerBI" viewBox=" 1.0 -1.0 0.0 1.0 " transform="scale( 0.95 )">

<style>
polygon {
fill: gainsboro;
stroke: blue;
stroke-width: 0.0001px;
}
</style>

<polygon id="7253" points="+0000.035,-0000.690,+0000.035,-0000.659,+0000.071,-0000.659,+0000.071,-0000.669,+0000.071,-0000.703,+0000.048,-0000.703" />
<polygon id="7254" points="+0000.439,-0000.566,+0000.439,-0000.542,+0000.466,-0000.542,+0000.466,-0000.556,+0000.466,-0000.566" />
<polygon id="7255" points="+0000.448,-0000.615,+0000.439,-0000.615,+0000.439,-0000.592,+0000.466,-0000.592,+0000.466,-0000.615" />
<polygon id="7256" points="+0000.439,-0000.590,+0000.439,-0000.568,+0000.466,-0000.568,+0000.466,-0000.588,+0000.466,-0000.590" />
<polygon id="7257" points="+0000.135,-0000.615,+0000.108,-0000.615,+0000.108,-0000.592,+0000.135,-0000.592" />
<polygon id="7258" points="+0000.135,-0000.568,+0000.135,-0000.590,+0000.108,-0000.590,+0000.108,-0000.588,+0000.108,-0000.568" />
<polygon id="7259" points="+0000.108,-0000.542,+0000.135,-0000.542,+0000.135,-0000.566,+0000.108,-0000.566,+0000.108,-0000.566,+0000.108,-0000.546" />
<polygon id="7260" points="+0000.247,-0000.595,+0000.247,-0000.599,+0000.243,-0000.599,+0000.243,-0000.595" />
<polygon id="7261" points="+0000.148,-0000.615,+0000.137,-0000.615,+0000.137,-0000.591,+0000.137,-0000.567,+0000.137,-0000.542,+0000.148,-0000.542,+0000.148,-0000.547,+0000.163,-0000.547,+0000.164,-0000.547,+0000.174,-0000.547,+0000.175,-0000.547,+0000.190,-0000.547,+0000.190,-0000.542,+0000.228,-0000.542,+0000.242,-0000.542,+0000.242,-0000.558,+0000.242,-0000.563,+0000.247,-0000.563,+0000.247,-0000.594,+0000.242,-0000.594,+0000.242,-0000.600,+0000.242,-0000.615,+0000.228,-0000.615,+0000.190,-0000.615,+0000.190,-0000.611,+0000.175,-0000.611,+0000.174,-0000.611,+0000.164,-0000.611,+0000.163,-0000.611,+0000.148,-0000.611" />
<polygon id="7262" points="+0000.248,-0000.615,+0000.243,-0000.615,+0000.243,-0000.600,+0000.248,-0000.600,+0000.259,-0000.600,+0000.264,-0000.600,+0000.269,-0000.600,+0000.269,-0000.615" />
<polygon id="7263" points="+0000.263,-0000.599,+0000.259,-0000.599,+0000.259,-0000.595,+0000.263,-0000.595" />
<polygon id="7264" points="+0000.243,-0000.562,+0000.243,-0000.558,+0000.247,-0000.558,+0000.247,-0000.562" />
<polygon id="7265" points="+0000.269,-0000.563,+0000.269,-0000.599,+0000.264,-0000.599,+0000.264,-0000.594,+0000.258,-0000.594,+0000.258,-0000.599,+0000.248,-0000.599,+0000.248,-0000.595,+0000.248,-0000.563,+0000.248,-0000.558,+0000.258,-0000.558,+0000.258,-0000.563,+0000.264,-0000.563" />
<polygon id="7266" points="+0000.268,-0000.542,+0000.269,-0000.542,+0000.269,-0000.557,+0000.264,-0000.557,+0000.259,-0000.557,+0000.248,-0000.557,+0000.243,-0000.557,+0000.243,-0000.542,+0000.249,-0000.542" />
<polygon id="7267" points="+0000.259,-0000.562,+0000.259,-0000.558,+0000.263,-0000.558,+0000.263,-0000.562" />
<polygon id="7268" points="+0000.269,-0000.558,+0000.269,-0000.562,+0000.264,-0000.562,+0000.264,-0000.558" />
<polygon id="7269" points="+0000.287,-0000.615,+0000.270,-0000.615,+0000.270,-0000.600,+0000.270,-0000.563,+0000.270,-0000.558,+0000.270,-0000.542,+0000.287,-0000.542,+0000.303,-0000.542,+0000.303,-0000.558,+0000.303,-0000.563,+0000.303,-0000.600,+0000.303,-0000.615" />
<polygon id="7270" points="+0000.324,-0000.615,+0000.304,-0000.615,+0000.304,-0000.600,+0000.310,-0000.600,+0000.326,-0000.600,+0000.331,-0000.600,+0000.331,-0000.615,+0000.327,-0000.615" />
<polygon id="7271" points="+0000.342,-0000.600,+0000.369,-0000.600,+0000.369,-0000.557,+0000.342,-0000.557,+0000.342,-0000.594,+0000.331,-0000.594,+0000.327,-0000.594,+0000.327,-0000.563,+0000.332,-0000.563,+0000.332,-0000.558,+0000.332,-0000.542,+0000.346,-0000.542,+0000.384,-0000.542,+0000.384,-0000.547,+0000.398,-0000.547,+0000.398,-0000.547,+0000.409,-0000.547,+0000.409,-0000.547,+0000.426,-0000.547,+0000.426,-0000.542,+0000.437,-0000.542,+0000.437,-0000.567,+0000.437,-0000.591,+0000.437,-0000.615,+0000.426,-0000.615,+0000.426,-0000.611,+0000.409,-0000.611,+0000.409,-0000.611,+0000.398,-0000.611,+0000.398,-0000.611,+0000.384,-0000.611,+0000.384,-0000.615,+0000.346,-0000.615,+0000.332,-0000.615,+0000.332,-0000.600,+0000.332,-0000.595,+0000.342,-0000.595" />
<polygon id="7272" points="+0000.327,-0000.599,+0000.327,-0000.595,+0000.331,-0000.595,+0000.331,-0000.599" />
<polygon id="7273" points="+0000.326,-0000.595,+0000.326,-0000.599,+0000.311,-0000.599,+0000.311,-0000.595" />
<polygon id="7274" points="+0000.326,-0000.542,+0000.331,-0000.542,+0000.331,-0000.557,+0000.326,-0000.557,+0000.315,-0000.557,+0000.310,-0000.557,+0000.304,-0000.557,+0000.304,-0000.542,+0000.306,-0000.542" />
<polygon id="7275" points="+0000.331,-0000.558,+0000.331,-0000.562,+0000.327,-0000.562,+0000.327,-0000.558" />
<polygon id="7276" points="+0000.304,-0000.599,+0000.304,-0000.563,+0000.310,-0000.563,+0000.316,-0000.563,+0000.316,-0000.558,+0000.326,-0000.558,+0000.326,-0000.563,+0000.326,-0000.594,+0000.310,-0000.594,+0000.310,-0000.599" />
<polygon id="7277" points="+0000.304,-0000.562,+0000.304,-0000.558,+0000.310,-0000.558,+0000.310,-0000.562" />
<polygon id="7278" points="+0000.311,-0000.558,+0000.315,-0000.558,+0000.315,-0000.562,+0000.311,-0000.562" />
<polygon id="7279" points="+0000.104,-0000.629,+0000.104,-0000.642,+0000.096,-0000.642,+0000.096,-0000.629" />
<polygon id="7280" points="+0000.104,-0000.646,+0000.104,-0000.649,+0000.083,-0000.649,+0000.083,-0000.643,+0000.096,-0000.643,+0000.104,-0000.643" />
<polygon id="7281" points="+0000.072,-0000.669,+0000.072,-0000.659,+0000.072,-0000.630,+0000.084,-0000.630,+0000.084,-0000.629,+0000.095,-0000.629,+0000.095,-0000.642,+0000.082,-0000.642,+0000.082,-0000.650,+0000.082,-0000.669" />
<polygon id="7282" points="+0000.104,-0000.650,+0000.104,-0000.669,+0000.083,-0000.669,+0000.083,-0000.650" />
<polygon id="7283" points="+0000.035,-0000.466,+0000.046,-0000.455,+0000.073,-0000.455,+0000.073,-0000.491,+0000.064,-0000.491,+0000.035,-0000.491" />
<polygon id="7284" points="+0000.152,-0000.540,+0000.148,-0000.540,+0000.136,-0000.540,+0000.108,-0000.540,+0000.108,-0000.527,+0000.108,-0000.519,+0000.152,-0000.519" />
<polygon id="7285" points="+0000.170,-0000.540,+0000.164,-0000.540,+0000.163,-0000.540,+0000.153,-0000.540,+0000.153,-0000.518,+0000.153,-0000.464,+0000.168,-0000.464,+0000.170,-0000.464" />
<polygon id="7286" points="+0000.189,-0000.540,+0000.175,-0000.540,+0000.174,-0000.540,+0000.172,-0000.540,+0000.172,-0000.464,+0000.173,-0000.464,+0000.189,-0000.464,+0000.189,-0000.522" />
<polygon id="7287" points="+0000.226,-0000.540,+0000.190,-0000.540,+0000.190,-0000.522,+0000.226,-0000.522,+0000.226,-0000.532" />
<polygon id="7288" points="+0000.230,-0000.518,+0000.230,-0000.499,+0000.248,-0000.499,+0000.248,-0000.505,+0000.248,-0000.518" />
<polygon id="7289" points="+0000.286,-0000.540,+0000.270,-0000.540,+0000.268,-0000.540,+0000.268,-0000.532,+0000.268,-0000.505,+0000.268,-0000.500,+0000.286,-0000.500" />
<polygon id="7290" points="+0000.230,-0000.531,+0000.230,-0000.522,+0000.230,-0000.519,+0000.248,-0000.519,+0000.248,-0000.506,+0000.258,-0000.506,+0000.268,-0000.506,+0000.268,-0000.531,+0000.249,-0000.531" />
<polygon id="7291" points="+0000.248,-0000.540,+0000.243,-0000.540,+0000.230,-0000.540,+0000.230,-0000.532,+0000.248,-0000.532" />
<polygon id="7292" points="+0000.268,-0000.540,+0000.249,-0000.540,+0000.249,-0000.532,+0000.268,-0000.532" />
<polygon id="7293" points="+0000.306,-0000.540,+0000.304,-0000.540,+0000.288,-0000.540,+0000.288,-0000.500,+0000.306,-0000.500,+0000.306,-0000.505,+0000.306,-0000.532" />
<polygon id="7294" points="+0000.344,-0000.499,+0000.344,-0000.518,+0000.326,-0000.518,+0000.326,-0000.505,+0000.326,-0000.499" />
<polygon id="7295" points="+0000.344,-0000.522,+0000.344,-0000.531,+0000.326,-0000.531,+0000.306,-0000.531,+0000.306,-0000.506,+0000.316,-0000.506,+0000.326,-0000.506,+0000.326,-0000.519,+0000.344,-0000.519" />
<polygon id="7296" points="+0000.326,-0000.540,+0000.306,-0000.540,+0000.306,-0000.532,+0000.326,-0000.532" />
<polygon id="7297" points="+0000.344,-0000.540,+0000.331,-0000.540,+0000.326,-0000.540,+0000.326,-0000.532,+0000.344,-0000.532" />
<polygon id="7298" points="+0000.426,-0000.540,+0000.425,-0000.540,+0000.409,-0000.540,+0000.409,-0000.540,+0000.404,-0000.540,+0000.404,-0000.465,+0000.406,-0000.465,+0000.426,-0000.465,+0000.426,-0000.517" />
<polygon id="7299" points="+0000.466,-0000.540,+0000.438,-0000.540,+0000.428,-0000.540,+0000.427,-0000.540,+0000.427,-0000.517,+0000.466,-0000.517,+0000.466,-0000.530" />
<polygon id="7300" points="+0000.384,-0000.540,+0000.383,-0000.540,+0000.348,-0000.540,+0000.348,-0000.532,+0000.348,-0000.522,+0000.384,-0000.522" />
<polygon id="7301" points="+0000.402,-0000.540,+0000.398,-0000.540,+0000.398,-0000.540,+0000.386,-0000.540,+0000.384,-0000.540,+0000.384,-0000.522,+0000.384,-0000.465,+0000.400,-0000.465,+0000.402,-0000.465" />
<polygon id="7302" points="+0000.526,-0000.455,+0000.539,-0000.468,+0000.539,-0000.492,+0000.509,-0000.492,+0000.499,-0000.492,+0000.499,-0000.455" />
<polygon id="7303" points="+0000.470,-0000.492,+0000.470,-0000.464,+0000.470,-0000.455,+0000.482,-0000.455,+0000.496,-0000.455,+0000.498,-0000.455,+0000.498,-0000.492" />
<polygon id="7304" points="+0000.470,-0000.530,+0000.470,-0000.517,+0000.470,-0000.493,+0000.499,-0000.493,+0000.508,-0000.493,+0000.508,-0000.508,+0000.490,-0000.508,+0000.479,-0000.508,+0000.479,-0000.530" />
<polygon id="7305" points="+0000.508,-0000.509,+0000.508,-0000.530,+0000.490,-0000.530,+0000.490,-0000.509" />
<polygon id="7306" points="+0000.489,-0000.530,+0000.480,-0000.530,+0000.480,-0000.509,+0000.489,-0000.509" />
<polygon id="7307" points="+0000.527,-0000.566,+0000.490,-0000.566,+0000.490,-0000.556,+0000.490,-0000.530,+0000.509,-0000.530,+0000.539,-0000.530,+0000.539,-0000.565,+0000.539,-0000.566,+0000.539,-0000.566" />
<polygon id="7308" points="+0000.470,-0000.556,+0000.470,-0000.541,+0000.470,-0000.530,+0000.480,-0000.530,+0000.489,-0000.530,+0000.489,-0000.556" />
<polygon id="7309" points="+0000.470,-0000.566,+0000.470,-0000.556,+0000.489,-0000.556,+0000.489,-0000.566" />
<polygon id="7310" points="+0000.539,-0000.690,+0000.526,-0000.703,+0000.503,-0000.703,+0000.503,-0000.668,+0000.503,-0000.659,+0000.539,-0000.659" />
<polygon id="7311" points="+0000.470,-0000.627,+0000.470,-0000.620,+0000.478,-0000.620,+0000.478,-0000.627" />
<polygon id="7312" points="+0000.470,-0000.649,+0000.470,-0000.646,+0000.470,-0000.628,+0000.478,-0000.628,+0000.478,-0000.649" />
<polygon id="7313" points="+0000.470,-0000.668,+0000.470,-0000.650,+0000.479,-0000.650,+0000.492,-0000.650,+0000.492,-0000.668" />
<polygon id="7314" points="+0000.479,-0000.628,+0000.489,-0000.628,+0000.489,-0000.630,+0000.502,-0000.630,+0000.502,-0000.659,+0000.502,-0000.668,+0000.493,-0000.668,+0000.493,-0000.649,+0000.479,-0000.649" />
<polygon id="7315" points="+0000.404,-0000.693,+0000.404,-0000.638,+0000.426,-0000.638,+0000.437,-0000.638,+0000.437,-0000.646,+0000.437,-0000.693,+0000.406,-0000.693" />
<polygon id="7316" points="+0000.427,-0000.617,+0000.437,-0000.617,+0000.437,-0000.628,+0000.437,-0000.637,+0000.427,-0000.637" />
<polygon id="7317" points="+0000.404,-0000.617,+0000.409,-0000.617,+0000.409,-0000.617,+0000.426,-0000.617,+0000.426,-0000.637,+0000.404,-0000.637" />
<polygon id="7318" points="+0000.448,-0000.617,+0000.466,-0000.617,+0000.466,-0000.619,+0000.466,-0000.628,+0000.466,-0000.646,+0000.448,-0000.646,+0000.448,-0000.628" />
<polygon id="7319" points="+0000.466,-0000.668,+0000.466,-0000.693,+0000.459,-0000.693,+0000.438,-0000.693,+0000.438,-0000.647,+0000.448,-0000.647,+0000.466,-0000.647,+0000.466,-0000.650" />
<polygon id="7320" points="+0000.438,-0000.617,+0000.447,-0000.617,+0000.447,-0000.628,+0000.438,-0000.628" />
<polygon id="7321" points="+0000.438,-0000.637,+0000.438,-0000.629,+0000.447,-0000.629,+0000.447,-0000.646,+0000.438,-0000.646" />
<polygon id="7322" points="+0000.348,-0000.617,+0000.384,-0000.617,+0000.384,-0000.637,+0000.348,-0000.637,+0000.348,-0000.627" />
<polygon id="7323" points="+0000.385,-0000.617,+0000.398,-0000.617,+0000.398,-0000.617,+0000.402,-0000.617,+0000.402,-0000.637,+0000.402,-0000.693,+0000.400,-0000.693,+0000.385,-0000.693,+0000.385,-0000.637" />
<polygon id="7324" points="+0000.344,-0000.640,+0000.344,-0000.659,+0000.326,-0000.659,+0000.326,-0000.652,+0000.326,-0000.640" />
<polygon id="7325" points="+0000.326,-0000.617,+0000.331,-0000.617,+0000.344,-0000.617,+0000.344,-0000.626,+0000.326,-0000.626" />
<polygon id="7326" points="+0000.344,-0000.627,+0000.344,-0000.637,+0000.344,-0000.639,+0000.326,-0000.639,+0000.326,-0000.652,+0000.316,-0000.652,+0000.306,-0000.652,+0000.306,-0000.627,+0000.325,-0000.627" />
<polygon id="7327" points="+0000.288,-0000.617,+0000.304,-0000.617,+0000.325,-0000.617,+0000.325,-0000.626,+0000.306,-0000.626,+0000.306,-0000.623,+0000.288,-0000.623" />
<polygon id="7328" points="+0000.288,-0000.652,+0000.288,-0000.624,+0000.306,-0000.624,+0000.306,-0000.627,+0000.306,-0000.652" />
<polygon id="7329" points="+0000.230,-0000.659,+0000.230,-0000.640,+0000.248,-0000.640,+0000.248,-0000.652,+0000.248,-0000.659" />
<polygon id="7330" points="+0000.230,-0000.639,+0000.230,-0000.637,+0000.230,-0000.627,+0000.248,-0000.627,+0000.268,-0000.627,+0000.268,-0000.652,+0000.258,-0000.652,+0000.248,-0000.652,+0000.248,-0000.639" />
<polygon id="7331" points="+0000.286,-0000.624,+0000.286,-0000.652,+0000.268,-0000.652,+0000.268,-0000.627,+0000.268,-0000.624" />
<polygon id="7332" points="+0000.249,-0000.617,+0000.270,-0000.617,+0000.286,-0000.617,+0000.286,-0000.623,+0000.268,-0000.623,+0000.268,-0000.626,+0000.249,-0000.626" />
<polygon id="7333" points="+0000.230,-0000.617,+0000.243,-0000.617,+0000.248,-0000.617,+0000.248,-0000.626,+0000.230,-0000.626" />
<polygon id="7334" points="+0000.172,-0000.617,+0000.174,-0000.617,+0000.175,-0000.617,+0000.189,-0000.617,+0000.189,-0000.637,+0000.189,-0000.693,+0000.173,-0000.693,+0000.172,-0000.693,+0000.172,-0000.637" />
<polygon id="7335" points="+0000.190,-0000.617,+0000.226,-0000.617,+0000.226,-0000.627,+0000.226,-0000.636,+0000.190,-0000.636" />
<polygon id="7336" points="+0000.170,-0000.638,+0000.170,-0000.693,+0000.168,-0000.693,+0000.137,-0000.693,+0000.137,-0000.646,+0000.137,-0000.638,+0000.148,-0000.638" />
<polygon id="7337" points="+0000.137,-0000.617,+0000.148,-0000.617,+0000.148,-0000.637,+0000.137,-0000.637,+0000.137,-0000.628" />
<polygon id="7338" points="+0000.149,-0000.617,+0000.163,-0000.617,+0000.164,-0000.617,+0000.170,-0000.617,+0000.170,-0000.637,+0000.149,-0000.637" />
<polygon id="7339" points="+0000.108,-0000.617,+0000.136,-0000.617,+0000.136,-0000.628,+0000.126,-0000.628,+0000.126,-0000.623,+0000.108,-0000.623" />
<polygon id="7340" points="+0000.108,-0000.646,+0000.108,-0000.643,+0000.108,-0000.628,+0000.108,-0000.624,+0000.125,-0000.624,+0000.125,-0000.628,+0000.125,-0000.646" />
<polygon id="7341" points="+0000.136,-0000.629,+0000.136,-0000.637,+0000.136,-0000.646,+0000.126,-0000.646,+0000.126,-0000.629" />
<polygon id="7342" points="+0000.104,-0000.541,+0000.104,-0000.545,+0000.078,-0000.545,+0000.078,-0000.528,+0000.084,-0000.528,+0000.093,-0000.528,+0000.104,-0000.528" />
<polygon id="7343" points="+0000.047,-0000.565,+0000.035,-0000.565,+0000.035,-0000.530,+0000.035,-0000.529,+0000.035,-0000.528,+0000.046,-0000.528,+0000.064,-0000.528,+0000.077,-0000.528,+0000.077,-0000.546,+0000.077,-0000.565" />
<polygon id="7344" points="+0000.064,-0000.527,+0000.064,-0000.507,+0000.083,-0000.507,+0000.083,-0000.527,+0000.077,-0000.527" />
<polygon id="7345" points="+0000.084,-0000.507,+0000.092,-0000.507,+0000.092,-0000.527,+0000.084,-0000.527" />
<polygon id="7346" points="+0000.104,-0000.518,+0000.104,-0000.527,+0000.093,-0000.527,+0000.093,-0000.506,+0000.084,-0000.506,+0000.064,-0000.506,+0000.064,-0000.492,+0000.074,-0000.492,+0000.104,-0000.492" />
<polygon id="7347" points="+0000.232,-0000.466,+0000.232,-0000.454,+0000.232,-0000.454,+0000.246,-0000.454,+0000.258,-0000.454,+0000.258,-0000.505,+0000.248,-0000.505,+0000.248,-0000.498,+0000.230,-0000.498,+0000.230,-0000.466" />
<polygon id="7348" points="+0000.290,-0000.463,+0000.290,-0000.454,+0000.290,-0000.454,+0000.304,-0000.454,+0000.316,-0000.454,+0000.316,-0000.505,+0000.306,-0000.505,+0000.306,-0000.499,+0000.288,-0000.499,+0000.288,-0000.463" />
<polygon id="7349" points="+0000.284,-0000.454,+0000.284,-0000.463,+0000.286,-0000.463,+0000.286,-0000.499,+0000.268,-0000.499,+0000.268,-0000.505,+0000.258,-0000.505,+0000.258,-0000.454,+0000.260,-0000.454,+0000.274,-0000.454" />
<polygon id="7350" points="+0000.286,-0000.694,+0000.284,-0000.694,+0000.284,-0000.703,+0000.279,-0000.703,+0000.265,-0000.703,+0000.258,-0000.703,+0000.258,-0000.653,+0000.268,-0000.653,+0000.286,-0000.653" />
<polygon id="7351" points="+0000.290,-0000.703,+0000.290,-0000.694,+0000.288,-0000.694,+0000.288,-0000.653,+0000.306,-0000.653,+0000.316,-0000.653,+0000.316,-0000.703,+0000.308,-0000.703,+0000.295,-0000.703" />
<polygon id="7352" points="+0000.342,-0000.454,+0000.342,-0000.464,+0000.341,-0000.464,+0000.341,-0000.465,+0000.342,-0000.465,+0000.342,-0000.466,+0000.344,-0000.466,+0000.344,-0000.498,+0000.326,-0000.498,+0000.326,-0000.505,+0000.316,-0000.505,+0000.316,-0000.454,+0000.319,-0000.454,+0000.332,-0000.454" />
<polygon id="7353" points="+0000.232,-0000.703,+0000.232,-0000.691,+0000.230,-0000.691,+0000.230,-0000.660,+0000.248,-0000.660,+0000.248,-0000.653,+0000.258,-0000.653,+0000.258,-0000.703,+0000.250,-0000.703,+0000.237,-0000.703" />
<polygon id="7354" points="+0000.344,-0000.691,+0000.342,-0000.691,+0000.342,-0000.703,+0000.337,-0000.703,+0000.323,-0000.703,+0000.316,-0000.703,+0000.316,-0000.653,+0000.326,-0000.653,+0000.326,-0000.660,+0000.344,-0000.660" />
<polygon id="7355" points="+0000.104,-0000.455,+0000.104,-0000.463,+0000.104,-0000.463,+0000.104,-0000.464,+0000.104,-0000.491,+0000.074,-0000.491,+0000.074,-0000.455,+0000.076,-0000.455,+0000.090,-0000.455" />
<polygon id="7356" points="+0000.104,-0000.694,+0000.104,-0000.694,+0000.104,-0000.703,+0000.087,-0000.703,+0000.073,-0000.703,+0000.072,-0000.703,+0000.072,-0000.669,+0000.081,-0000.669,+0000.084,-0000.669,+0000.104,-0000.669,+0000.104,-0000.693" />
<polygon id="7357" points="+0000.502,-0000.703,+0000.492,-0000.703,+0000.479,-0000.703,+0000.470,-0000.703,+0000.470,-0000.694,+0000.470,-0000.694,+0000.470,-0000.693,+0000.470,-0000.669,+0000.492,-0000.669,+0000.502,-0000.669" />
<polygon id="7358" points="+0000.035,-0000.570,+0000.047,-0000.570,+0000.047,-0000.566,+0000.077,-0000.566,+0000.104,-0000.566,+0000.104,-0000.567,+0000.104,-0000.587,+0000.084,-0000.587,+0000.047,-0000.587,+0000.035,-0000.587,+0000.035,-0000.572" />
<polygon id="7359" points="+0000.046,-0000.527,+0000.046,-0000.522,+0000.035,-0000.522,+0000.035,-0000.515,+0000.035,-0000.503,+0000.035,-0000.492,+0000.063,-0000.492,+0000.063,-0000.507,+0000.063,-0000.527" />
<polygon id="7360" points="+0000.035,-0000.593,+0000.047,-0000.593,+0000.047,-0000.588,+0000.083,-0000.588,+0000.083,-0000.628,+0000.083,-0000.629,+0000.072,-0000.629,+0000.046,-0000.629,+0000.046,-0000.628,+0000.035,-0000.628,+0000.035,-0000.593" />
<polygon id="7361" points="+0000.035,-0000.659,+0000.035,-0000.653,+0000.035,-0000.642,+0000.035,-0000.633,+0000.046,-0000.633,+0000.046,-0000.630,+0000.071,-0000.630,+0000.071,-0000.659" />
<polygon id="7362" points="+0000.527,-0000.572,+0000.539,-0000.572,+0000.539,-0000.573,+0000.539,-0000.586,+0000.539,-0000.587,+0000.539,-0000.588,+0000.527,-0000.588,+0000.490,-0000.588,+0000.470,-0000.588,+0000.470,-0000.568,+0000.490,-0000.568,+0000.527,-0000.568" />
<polygon id="7363" points="+0000.527,-0000.527,+0000.539,-0000.527,+0000.539,-0000.529,+0000.539,-0000.530,+0000.509,-0000.530,+0000.509,-0000.508,+0000.509,-0000.493,+0000.539,-0000.493,+0000.539,-0000.503,+0000.539,-0000.515,+0000.539,-0000.522,+0000.527,-0000.522" />
<polygon id="7364" points="+0000.527,-0000.633,+0000.539,-0000.633,+0000.539,-0000.642,+0000.539,-0000.653,+0000.539,-0000.659,+0000.503,-0000.659,+0000.503,-0000.630,+0000.527,-0000.630" />
<polygon id="7365" points="+0000.527,-0000.593,+0000.539,-0000.593,+0000.539,-0000.627,+0000.539,-0000.627,+0000.527,-0000.627,+0000.527,-0000.629,+0000.502,-0000.629,+0000.490,-0000.629,+0000.490,-0000.628,+0000.490,-0000.588,+0000.527,-0000.588" />
<polygon id="7366" points="+0000.348,-0000.693,+0000.348,-0000.691,+0000.348,-0000.691,+0000.348,-0000.659,+0000.348,-0000.639,+0000.348,-0000.638,+0000.384,-0000.638,+0000.384,-0000.693" />
<polygon id="7367" points="+0000.226,-0000.691,+0000.226,-0000.691,+0000.226,-0000.693,+0000.190,-0000.693,+0000.190,-0000.637,+0000.226,-0000.637,+0000.226,-0000.639,+0000.226,-0000.659" />
<polygon id="7368" points="+0000.226,-0000.464,+0000.226,-0000.466,+0000.226,-0000.466,+0000.226,-0000.499,+0000.226,-0000.519,+0000.226,-0000.521,+0000.190,-0000.521,+0000.190,-0000.464" />
<polygon id="7369" points="+0000.348,-0000.466,+0000.348,-0000.465,+0000.384,-0000.465,+0000.384,-0000.521,+0000.348,-0000.521,+0000.348,-0000.519,+0000.348,-0000.499,+0000.348,-0000.466" />
<polygon id="7370" points="+0000.466,-0000.492,+0000.466,-0000.516,+0000.427,-0000.516,+0000.427,-0000.465,+0000.458,-0000.465,+0000.466,-0000.465" />
<polygon id="7371" points="+0000.108,-0000.693,+0000.108,-0000.669,+0000.108,-0000.650,+0000.108,-0000.647,+0000.126,-0000.647,+0000.136,-0000.647,+0000.136,-0000.693,+0000.115,-0000.693" />
<polygon id="7372" points="+0000.366,-0000.598,+0000.344,-0000.598,+0000.344,-0000.595,+0000.344,-0000.559,+0000.366,-0000.559" />
<polygon id="7373" points="+0000.229,-0000.598,+0000.208,-0000.598,+0000.208,-0000.559,+0000.229,-0000.559" />
<polygon id="7374" points="+0000.108,-0000.518,+0000.108,-0000.492,+0000.108,-0000.464,+0000.115,-0000.464,+0000.152,-0000.464,+0000.152,-0000.518" />

</svg>