<!--
Created with Chapman Taylor Dynamo SVG exporter
byabear@chapmantaylor.com

Revit Source File:
C:\Users\KH5970\DC\ACCDocs\Engie Solutions\Tour Incity\Fichiers de projet\INCITY_EXP_ARC_ME_03112020.rvt

Date:
18/12/2023 16:10:51
-->

<svg xmlns="http://www.w3.org/2000/svg" class="gen-by-CTA-dyn-Synoptic-for-PowerBI" viewBox=" -1.0 -1.0 2.0 2.0 " transform="scale( 0.95 )">

<style>
polygon {
fill: gainsboro;
stroke: blue;
stroke-width: 0.0001px;
}
</style>

<polygon id="1769" points="+0000.114,-0000.162,+0000.114,-0000.133,+0000.143,-0000.133,+0000.174,-0000.133,+0000.204,-0000.133,+0000.233,-0000.133,+0000.233,-0000.162,+0000.204,-0000.162,+0000.174,-0000.162,+0000.143,-0000.162" />
<polygon id="1770" points="+0000.114,-0000.183,+0000.114,-0000.164,+0000.141,-0000.164,+0000.141,-0000.189,+0000.141,-0000.203,+0000.114,-0000.203" />
<polygon id="1771" points="+0000.284,-0000.206,+0000.260,-0000.206,+0000.260,-0000.186,+0000.284,-0000.186,+0000.284,-0000.196" />
<polygon id="1772" points="+0000.310,-0000.212,+0000.310,-0000.224,+0000.260,-0000.224,+0000.260,-0000.212,+0000.285,-0000.212,+0000.296,-0000.212" />
<polygon id="1773" points="+0000.310,-0000.070,+0000.310,-0000.082,+0000.260,-0000.083,+0000.260,-0000.071" />
<polygon id="1774" points="+0000.257,-0000.209,+0000.257,-0000.224,+0000.237,-0000.224,+0000.236,-0000.224,+0000.236,-0000.223,+0000.236,-0000.200,+0000.236,-0000.189,+0000.236,-0000.163,+0000.236,-0000.132,+0000.236,-0000.106,+0000.236,-0000.094,+0000.236,-0000.072,+0000.236,-0000.071,+0000.257,-0000.071,+0000.257,-0000.086,+0000.257,-0000.117,+0000.257,-0000.132,+0000.257,-0000.141,+0000.257,-0000.157,+0000.257,-0000.186" />
<polygon id="1775" points="+0000.114,-0000.071,+0000.141,-0000.071,+0000.141,-0000.072,+0000.141,-0000.089,+0000.114,-0000.089" />
<polygon id="1776" points="+0000.114,-0000.212,+0000.114,-0000.209,+0000.141,-0000.209,+0000.141,-0000.223,+0000.141,-0000.224,+0000.114,-0000.224,+0000.114,-0000.224" />
<polygon id="1777" points="+0000.295,-0000.206,+0000.285,-0000.206,+0000.285,-0000.197,+0000.295,-0000.197" />
<polygon id="1778" points="+0000.285,-0000.195,+0000.285,-0000.186,+0000.295,-0000.186,+0000.295,-0000.195" />
<polygon id="1779" points="+0000.114,-0000.162,+0000.114,-0000.133,+0000.143,-0000.133,+0000.174,-0000.133,+0000.204,-0000.133,+0000.233,-0000.133,+0000.233,-0000.162,+0000.204,-0000.162,+0000.174,-0000.162,+0000.143,-0000.162" />
<polygon id="1779" points="+0000.310,-0000.186,+0000.310,-0000.206,+0000.297,-0000.206,+0000.297,-0000.196,+0000.297,-0000.186,+0000.301,-0000.186" />
<polygon id="1780" points="+0000.114,-0000.183,+0000.114,-0000.164,+0000.141,-0000.164,+0000.141,-0000.189,+0000.141,-0000.203,+0000.114,-0000.203" />
<polygon id="1780" points="+0000.310,-0000.179,+0000.310,-0000.185,+0000.302,-0000.185,+0000.302,-0000.179" />
<polygon id="1781" points="+0000.233,-0000.190,+0000.233,-0000.200,+0000.230,-0000.200,+0000.230,-0000.190" />
<polygon id="1781" points="+0000.284,-0000.206,+0000.260,-0000.206,+0000.260,-0000.186,+0000.284,-0000.186,+0000.284,-0000.196" />
<polygon id="1782" points="+0000.207,-0000.220,+0000.144,-0000.220,+0000.144,-0000.206,+0000.144,-0000.190,+0000.174,-0000.190,+0000.204,-0000.190,+0000.207,-0000.190" />
<polygon id="1782" points="+0000.310,-0000.212,+0000.310,-0000.224,+0000.260,-0000.224,+0000.260,-0000.212,+0000.285,-0000.212,+0000.296,-0000.212" />
<polygon id="1783" points="+0000.227,-0000.220,+0000.209,-0000.220,+0000.209,-0000.190,+0000.228,-0000.190,+0000.228,-0000.201,+0000.233,-0000.201,+0000.233,-0000.220" />
<polygon id="1783" points="+0000.310,-0000.070,+0000.310,-0000.082,+0000.260,-0000.083,+0000.260,-0000.071" />
<polygon id="1784" points="+0000.144,-0000.075,+0000.198,-0000.075,+0000.207,-0000.075,+0000.207,-0000.105,+0000.203,-0000.105,+0000.174,-0000.105,+0000.144,-0000.105,+0000.144,-0000.092" />
<polygon id="1784" points="+0000.257,-0000.209,+0000.257,-0000.224,+0000.237,-0000.224,+0000.236,-0000.224,+0000.236,-0000.223,+0000.236,-0000.200,+0000.236,-0000.189,+0000.236,-0000.163,+0000.236,-0000.132,+0000.236,-0000.106,+0000.236,-0000.094,+0000.236,-0000.072,+0000.236,-0000.071,+0000.257,-0000.071,+0000.257,-0000.086,+0000.257,-0000.117,+0000.257,-0000.132,+0000.257,-0000.141,+0000.257,-0000.157,+0000.257,-0000.186" />
<polygon id="1785" points="+0000.114,-0000.071,+0000.141,-0000.071,+0000.141,-0000.072,+0000.141,-0000.089,+0000.114,-0000.089" />
<polygon id="1785" points="+0000.233,-0000.095,+0000.233,-0000.105,+0000.230,-0000.105,+0000.230,-0000.095" />
<polygon id="1786" points="+0000.114,-0000.212,+0000.114,-0000.209,+0000.141,-0000.209,+0000.141,-0000.223,+0000.141,-0000.224,+0000.114,-0000.224,+0000.114,-0000.224" />
<polygon id="1786" points="+0000.208,-0000.075,+0000.233,-0000.075,+0000.233,-0000.094,+0000.228,-0000.094,+0000.228,-0000.105,+0000.209,-0000.105" />
<polygon id="1787" points="+0000.295,-0000.206,+0000.285,-0000.206,+0000.285,-0000.197,+0000.295,-0000.197" />
<polygon id="1787" points="+0000.310,-0000.088,+0000.310,-0000.097,+0000.310,-0000.116,+0000.287,-0000.116,+0000.278,-0000.116,+0000.269,-0000.116,+0000.260,-0000.116,+0000.260,-0000.089" />
<polygon id="1788" points="+0000.285,-0000.195,+0000.285,-0000.186,+0000.295,-0000.186,+0000.295,-0000.195" />
<polygon id="1788" points="+0000.310,-0000.133,+0000.310,-0000.141,+0000.287,-0000.141,+0000.278,-0000.141,+0000.269,-0000.141,+0000.260,-0000.141,+0000.260,-0000.133,+0000.269,-0000.133,+0000.278,-0000.133,+0000.287,-0000.133" />
<polygon id="1789" points="+0000.310,-0000.157,+0000.310,-0000.177,+0000.302,-0000.177,+0000.302,-0000.176,+0000.301,-0000.176,+0000.301,-0000.178,+0000.301,-0000.185,+0000.296,-0000.185,+0000.285,-0000.185,+0000.260,-0000.185,+0000.260,-0000.157,+0000.269,-0000.157,+0000.278,-0000.157,+0000.287,-0000.157" />
<polygon id="1789" points="+0000.310,-0000.186,+0000.310,-0000.206,+0000.297,-0000.206,+0000.297,-0000.196,+0000.297,-0000.186,+0000.301,-0000.186" />
<polygon id="1790" points="+0000.310,-0000.179,+0000.310,-0000.185,+0000.302,-0000.185,+0000.302,-0000.179" />
<polygon id="1791" points="+0000.233,-0000.190,+0000.233,-0000.200,+0000.230,-0000.200,+0000.230,-0000.190" />
<polygon id="1792" points="+0000.207,-0000.220,+0000.144,-0000.220,+0000.144,-0000.206,+0000.144,-0000.190,+0000.174,-0000.190,+0000.204,-0000.190,+0000.207,-0000.190" />
<polygon id="1792" points="+0000.260,-0000.132,+0000.260,-0000.117,+0000.269,-0000.117,+0000.269,-0000.132" />
<polygon id="1793" points="+0000.227,-0000.220,+0000.209,-0000.220,+0000.209,-0000.190,+0000.228,-0000.190,+0000.228,-0000.201,+0000.233,-0000.201,+0000.233,-0000.220" />
<polygon id="1793" points="+0000.269,-0000.117,+0000.278,-0000.117,+0000.278,-0000.132,+0000.269,-0000.132" />
<polygon id="1794" points="+0000.144,-0000.075,+0000.198,-0000.075,+0000.207,-0000.075,+0000.207,-0000.105,+0000.203,-0000.105,+0000.174,-0000.105,+0000.144,-0000.105,+0000.144,-0000.092" />
<polygon id="1794" points="+0000.278,-0000.117,+0000.287,-0000.117,+0000.287,-0000.132,+0000.279,-0000.132" />
<polygon id="1795" points="+0000.233,-0000.095,+0000.233,-0000.105,+0000.230,-0000.105,+0000.230,-0000.095" />
<polygon id="1795" points="+0000.310,-0000.117,+0000.310,-0000.132,+0000.288,-0000.132,+0000.288,-0000.117" />
<polygon id="1796" points="+0000.208,-0000.075,+0000.233,-0000.075,+0000.233,-0000.094,+0000.228,-0000.094,+0000.228,-0000.105,+0000.209,-0000.105" />
<polygon id="1796" points="+0000.260,-0000.157,+0000.260,-0000.141,+0000.269,-0000.141,+0000.269,-0000.156" />
<polygon id="1797" points="+0000.278,-0000.156,+0000.269,-0000.156,+0000.269,-0000.141,+0000.278,-0000.141" />
<polygon id="1797" points="+0000.310,-0000.088,+0000.310,-0000.097,+0000.310,-0000.116,+0000.287,-0000.116,+0000.278,-0000.116,+0000.269,-0000.116,+0000.260,-0000.116,+0000.260,-0000.089" />
<polygon id="1798" points="+0000.310,-0000.133,+0000.310,-0000.141,+0000.287,-0000.141,+0000.278,-0000.141,+0000.269,-0000.141,+0000.260,-0000.141,+0000.260,-0000.133,+0000.269,-0000.133,+0000.278,-0000.133,+0000.287,-0000.133" />
<polygon id="1798" points="+0000.310,-0000.141,+0000.310,-0000.154,+0000.310,-0000.156,+0000.288,-0000.156,+0000.288,-0000.141" />
<polygon id="1799" points="+0000.287,-0000.156,+0000.279,-0000.156,+0000.279,-0000.141,+0000.287,-0000.141" />
<polygon id="1799" points="+0000.310,-0000.157,+0000.310,-0000.177,+0000.302,-0000.177,+0000.302,-0000.176,+0000.301,-0000.176,+0000.301,-0000.178,+0000.301,-0000.185,+0000.296,-0000.185,+0000.285,-0000.185,+0000.260,-0000.185,+0000.260,-0000.157,+0000.269,-0000.157,+0000.278,-0000.157,+0000.287,-0000.157" />
<polygon id="1800" points="+0000.260,-0000.132,+0000.260,-0000.117,+0000.269,-0000.117,+0000.269,-0000.132" />
<polygon id="1800" points="+0000.315,-0000.157,+0000.315,-0000.154,+0000.355,-0000.154,+0000.355,-0000.136,+0000.355,-0000.136,+0000.355,-0000.126,+0000.355,-0000.121,+0000.355,-0000.111,+0000.355,-0000.097,+0000.355,-0000.097,+0000.355,-0000.096,+0000.355,-0000.069,+0000.327,-0000.069,+0000.316,-0000.069,+0000.313,-0000.068,+0000.259,-0000.069,+0000.236,-0000.069,+0000.233,-0000.069,+0000.208,-0000.069,+0000.198,-0000.069,+0000.198,-0000.065,+0000.198,-0000.065,+0000.198,-0000.048,+0000.203,-0000.048,+0000.212,-0000.048,+0000.212,-0000.048,+0000.238,-0000.048,+0000.238,-0000.048,+0000.254,-0000.048,+0000.254,-0000.048,+0000.254,-0000.048,+0000.310,-0000.048,+0000.311,-0000.048,+0000.311,-0000.047,+0000.353,-0000.047,+0000.355,-0000.047,+0000.355,-0000.047,+0000.365,-0000.047,+0000.370,-0000.047,+0000.370,-0000.110,+0000.370,-0000.111,+0000.370,-0000.112,+0000.370,-0000.113,+0000.370,-0000.154,+0000.370,-0000.154,+0000.370,-0000.167,+0000.370,-0000.170,+0000.370,-0000.183,+0000.370,-0000.183,+0000.370,-0000.244,+0000.369,-0000.246,+0000.368,-0000.246,+0000.367,-0000.246,+0000.327,-0000.246,+0000.326,-0000.246,+0000.326,-0000.247,+0000.326,-0000.247,+0000.312,-0000.247,+0000.302,-0000.247,+0000.299,-0000.247,+0000.298,-0000.247,+0000.296,-0000.247,+0000.283,-0000.247,+0000.283,-0000.247,+0000.241,-0000.247,+0000.241,-0000.247,+0000.227,-0000.247,+0000.227,-0000.226,+0000.233,-0000.226,+0000.237,-0000.226,+0000.258,-0000.226,+0000.317,-0000.226,+0000.317,-0000.226,+0000.315,-0000.225,+0000.315,-0000.209,+0000.315,-0000.186,+0000.315,-0000.178" />
<polygon id="1801" points="+0000.269,-0000.117,+0000.278,-0000.117,+0000.278,-0000.132,+0000.269,-0000.132" />
<polygon id="1802" points="+0000.278,-0000.117,+0000.287,-0000.117,+0000.287,-0000.132,+0000.279,-0000.132" />
<polygon id="1802" points="+0000.315,-0000.069,+0000.315,-0000.069,+0000.327,-0000.069,+0000.355,-0000.069,+0000.355,-0000.097,+0000.346,-0000.097,+0000.346,-0000.097,+0000.337,-0000.097,+0000.315,-0000.097,+0000.315,-0000.085" />
<polygon id="1803" points="+0000.310,-0000.117,+0000.310,-0000.132,+0000.288,-0000.132,+0000.288,-0000.117" />
<polygon id="1803" points="+0000.315,-0000.117,+0000.315,-0000.097,+0000.337,-0000.097,+0000.346,-0000.097,+0000.346,-0000.097,+0000.353,-0000.097,+0000.355,-0000.097,+0000.355,-0000.111,+0000.355,-0000.121,+0000.355,-0000.126,+0000.355,-0000.136,+0000.355,-0000.136,+0000.355,-0000.154,+0000.353,-0000.154,+0000.315,-0000.154,+0000.315,-0000.141,+0000.315,-0000.132" />
<polygon id="1804" points="+0000.260,-0000.157,+0000.260,-0000.141,+0000.269,-0000.141,+0000.269,-0000.156" />
<polygon id="1804" points="+0000.311,+0000.005,+0000.347,+0000.005,+0000.347,-0000.006,+0000.347,-0000.008,+0000.348,-0000.008,+0000.354,-0000.009,+0000.354,-0000.010,+0000.354,-0000.046,+0000.354,-0000.047,+0000.311,-0000.047,+0000.311,-0000.046" />
<polygon id="1805" points="+0000.197,+0000.004,+0000.197,-0000.048,+0000.193,-0000.048,+0000.184,-0000.048,+0000.175,-0000.048,+0000.166,-0000.048,+0000.166,-0000.048,+0000.157,-0000.048,+0000.148,-0000.048,+0000.141,-0000.048,+0000.141,-0000.047,+0000.141,-0000.012,+0000.141,+0000.004" />
<polygon id="1805" points="+0000.278,-0000.156,+0000.269,-0000.156,+0000.269,-0000.141,+0000.278,-0000.141" />
<polygon id="1806" points="+0000.109,-0000.069,+0000.109,-0000.092,+0000.109,-0000.098,+0000.099,-0000.098,+0000.090,-0000.098,+0000.084,-0000.098,+0000.084,-0000.088,+0000.084,-0000.079,+0000.084,-0000.069,+0000.094,-0000.069,+0000.107,-0000.069" />
<polygon id="1806" points="+0000.310,-0000.141,+0000.310,-0000.154,+0000.310,-0000.156,+0000.288,-0000.156,+0000.288,-0000.141" />
<polygon id="1807" points="+0000.063,-0000.089,+0000.063,-0000.069,+0000.074,-0000.069,+0000.084,-0000.069,+0000.084,-0000.079,+0000.084,-0000.088,+0000.084,-0000.098,+0000.063,-0000.098" />
<polygon id="1807" points="+0000.287,-0000.156,+0000.279,-0000.156,+0000.279,-0000.141,+0000.287,-0000.141" />
<polygon id="1808" points="+0000.315,-0000.157,+0000.315,-0000.154,+0000.355,-0000.154,+0000.355,-0000.136,+0000.355,-0000.136,+0000.355,-0000.126,+0000.355,-0000.121,+0000.355,-0000.111,+0000.355,-0000.097,+0000.355,-0000.097,+0000.355,-0000.096,+0000.355,-0000.069,+0000.327,-0000.069,+0000.316,-0000.069,+0000.313,-0000.068,+0000.259,-0000.069,+0000.236,-0000.069,+0000.233,-0000.069,+0000.208,-0000.069,+0000.198,-0000.069,+0000.198,-0000.065,+0000.198,-0000.065,+0000.198,-0000.048,+0000.203,-0000.048,+0000.212,-0000.048,+0000.212,-0000.048,+0000.238,-0000.048,+0000.238,-0000.048,+0000.254,-0000.048,+0000.254,-0000.048,+0000.254,-0000.048,+0000.310,-0000.048,+0000.311,-0000.048,+0000.311,-0000.047,+0000.353,-0000.047,+0000.355,-0000.047,+0000.355,-0000.047,+0000.365,-0000.047,+0000.370,-0000.047,+0000.370,-0000.110,+0000.370,-0000.111,+0000.370,-0000.112,+0000.370,-0000.113,+0000.370,-0000.154,+0000.370,-0000.154,+0000.370,-0000.167,+0000.370,-0000.170,+0000.370,-0000.183,+0000.370,-0000.183,+0000.370,-0000.244,+0000.369,-0000.246,+0000.368,-0000.246,+0000.367,-0000.246,+0000.327,-0000.246,+0000.326,-0000.246,+0000.326,-0000.247,+0000.326,-0000.247,+0000.312,-0000.247,+0000.302,-0000.247,+0000.299,-0000.247,+0000.298,-0000.247,+0000.296,-0000.247,+0000.283,-0000.247,+0000.283,-0000.247,+0000.241,-0000.247,+0000.241,-0000.247,+0000.227,-0000.247,+0000.227,-0000.226,+0000.233,-0000.226,+0000.237,-0000.226,+0000.258,-0000.226,+0000.317,-0000.226,+0000.317,-0000.226,+0000.315,-0000.225,+0000.315,-0000.209,+0000.315,-0000.186,+0000.315,-0000.178" />
<polygon id="1808" points="+0000.326,-0000.289,+0000.326,-0000.295,+0000.326,-0000.299,+0000.298,-0000.299,+0000.298,-0000.292,+0000.298,-0000.283,+0000.298,-0000.274,+0000.298,-0000.248,+0000.298,-0000.247,+0000.302,-0000.247,+0000.312,-0000.247,+0000.326,-0000.247,+0000.326,-0000.248,+0000.326,-0000.265,+0000.326,-0000.265" />
<polygon id="1809" points="+0000.315,-0000.069,+0000.315,-0000.069,+0000.327,-0000.069,+0000.355,-0000.069,+0000.355,-0000.097,+0000.346,-0000.097,+0000.346,-0000.097,+0000.337,-0000.097,+0000.315,-0000.097,+0000.315,-0000.085" />
<polygon id="1809" points="+0000.385,-0000.035,+0000.386,-0000.037,+0000.376,-0000.047,+0000.371,-0000.047,+0000.368,-0000.047,+0000.365,-0000.047,+0000.354,-0000.047,+0000.354,-0000.009,+0000.369,-0000.013,+0000.382,-0000.020,+0000.393,-0000.030,+0000.390,-0000.032" />
<polygon id="1810" points="+0000.114,-0000.098,+0000.114,-0000.095,+0000.141,-0000.095,+0000.141,-0000.106,+0000.141,-0000.107,+0000.135,-0000.107,+0000.135,-0000.102,+0000.121,-0000.102,+0000.114,-0000.102" />
<polygon id="1810" points="+0000.315,-0000.117,+0000.315,-0000.097,+0000.337,-0000.097,+0000.346,-0000.097,+0000.346,-0000.097,+0000.353,-0000.097,+0000.355,-0000.097,+0000.355,-0000.111,+0000.355,-0000.121,+0000.355,-0000.126,+0000.355,-0000.136,+0000.355,-0000.136,+0000.355,-0000.154,+0000.353,-0000.154,+0000.315,-0000.154,+0000.315,-0000.141,+0000.315,-0000.132" />
<polygon id="1811" points="+0000.109,-0000.069,+0000.109,-0000.092,+0000.109,-0000.098,+0000.099,-0000.098,+0000.090,-0000.098,+0000.084,-0000.098,+0000.084,-0000.088,+0000.084,-0000.079,+0000.084,-0000.069,+0000.094,-0000.069,+0000.107,-0000.069" />
<polygon id="1811" points="+0000.141,-0000.113,+0000.141,-0000.118,+0000.135,-0000.118,+0000.135,-0000.113" />
<polygon id="1812" points="+0000.063,-0000.089,+0000.063,-0000.069,+0000.074,-0000.069,+0000.084,-0000.069,+0000.084,-0000.079,+0000.084,-0000.088,+0000.084,-0000.098,+0000.063,-0000.098" />
<polygon id="1812" points="+0000.141,-0000.107,+0000.141,-0000.112,+0000.135,-0000.112,+0000.135,-0000.107" />
<polygon id="1813" points="+0000.114,-0000.098,+0000.114,-0000.095,+0000.141,-0000.095,+0000.141,-0000.106,+0000.141,-0000.107,+0000.135,-0000.107,+0000.135,-0000.102,+0000.121,-0000.102,+0000.114,-0000.102" />
<polygon id="1814" points="+0000.000,-0000.183,+0000.003,-0000.186,+0000.006,-0000.183,+0000.046,-0000.183,+0000.046,-0000.191,+0000.046,-0000.192,+0000.046,-0000.194,+0000.046,-0000.212,+0000.046,-0000.212,+0000.046,-0000.247,+0000.055,-0000.247,+0000.055,-0000.247,+0000.070,-0000.247,+0000.071,-0000.275,+0000.071,-0000.284,+0000.071,-0000.293,+0000.071,-0000.299,+0000.014,-0000.300,+0000.002,-0000.295,-0000.003,-0000.283,-0000.003,-0000.183" />
<polygon id="1814" points="+0000.141,-0000.113,+0000.141,-0000.118,+0000.135,-0000.118,+0000.135,-0000.113" />
<polygon id="1815" points="+0000.141,-0000.107,+0000.141,-0000.112,+0000.135,-0000.112,+0000.135,-0000.107" />
<polygon id="1815" points="+0000.226,-0000.247,+0000.226,-0000.299,+0000.071,-0000.299,+0000.071,-0000.293,+0000.071,-0000.284,+0000.071,-0000.275,+0000.070,-0000.247,+0000.085,-0000.247,+0000.085,-0000.247,+0000.212,-0000.247,+0000.212,-0000.247,+0000.223,-0000.247" />
<polygon id="1816" points="+0000.144,-0000.188,+0000.144,-0000.164,+0000.174,-0000.164,+0000.174,-0000.188" />
<polygon id="1816" points="+0000.326,-0000.295,+0000.326,-0000.289,+0000.326,-0000.265,+0000.326,-0000.265,+0000.326,-0000.246,+0000.369,-0000.246,+0000.369,-0000.274,+0000.369,-0000.283,+0000.369,-0000.292,+0000.369,-0000.299,+0000.326,-0000.299" />
<polygon id="1817" points="+0000.233,-0000.164,+0000.233,-0000.188,+0000.229,-0000.188,+0000.208,-0000.188,+0000.204,-0000.188,+0000.204,-0000.164" />
<polygon id="1817" points="+0000.409,-0000.111,+0000.415,-0000.111,+0000.419,-0000.111,+0000.426,-0000.168,+0000.388,-0000.168,+0000.370,-0000.168,+0000.370,-0000.154,+0000.370,-0000.154,+0000.370,-0000.112,+0000.388,-0000.111" />
<polygon id="1818" points="+0000.174,-0000.164,+0000.204,-0000.164,+0000.204,-0000.188,+0000.174,-0000.188" />
<polygon id="1818" points="+0000.386,-0000.037,+0000.391,-0000.034,+0000.390,-0000.032,+0000.393,-0000.030,+0000.393,-0000.030,+0000.403,-0000.041,+0000.409,-0000.055,+0000.414,-0000.069,+0000.415,-0000.083,+0000.419,-0000.111,+0000.415,-0000.111,+0000.409,-0000.111,+0000.388,-0000.111,+0000.370,-0000.112,+0000.370,-0000.047,+0000.376,-0000.047" />
<polygon id="1819" points="+0000.144,-0000.107,+0000.174,-0000.107,+0000.174,-0000.131,+0000.144,-0000.131,+0000.144,-0000.118,+0000.144,-0000.113" />
<polygon id="1819" points="+0000.198,+0000.004,+0000.311,+0000.005,+0000.311,-0000.048,+0000.254,-0000.048,+0000.254,-0000.048,+0000.254,-0000.048,+0000.238,-0000.048,+0000.238,-0000.048,+0000.212,-0000.048,+0000.212,-0000.048,+0000.203,-0000.048,+0000.198,-0000.048" />
<polygon id="1820" points="+0000.013,+0000.004,+0000.141,+0000.004,+0000.141,-0000.012,+0000.141,-0000.048,+0000.046,-0000.048,+0000.046,-0000.056,+0000.045,-0000.056,+0000.045,-0000.070,+0000.009,-0000.070,-0000.004,-0000.070,-0000.004,-0000.013,+0000.001,-0000.001" />
<polygon id="1820" points="+0000.174,-0000.107,+0000.203,-0000.107,+0000.204,-0000.131,+0000.174,-0000.131" />
<polygon id="1821" points="+0000.144,-0000.188,+0000.144,-0000.164,+0000.174,-0000.164,+0000.174,-0000.188" />
<polygon id="1821" points="+0000.233,-0000.107,+0000.233,-0000.131,+0000.204,-0000.131,+0000.203,-0000.107,+0000.208,-0000.107,+0000.229,-0000.107" />
<polygon id="1822" points="+0000.114,-0000.131,+0000.114,-0000.122,+0000.121,-0000.122,+0000.121,-0000.112,+0000.121,-0000.103,+0000.134,-0000.103,+0000.134,-0000.107,+0000.134,-0000.113,+0000.134,-0000.119,+0000.141,-0000.119,+0000.141,-0000.131" />
<polygon id="1822" points="+0000.233,-0000.164,+0000.233,-0000.188,+0000.229,-0000.188,+0000.208,-0000.188,+0000.204,-0000.188,+0000.204,-0000.164" />
<polygon id="1823" points="+0000.114,-0000.112,+0000.114,-0000.103,+0000.120,-0000.103,+0000.120,-0000.112" />
<polygon id="1823" points="+0000.174,-0000.164,+0000.204,-0000.164,+0000.204,-0000.188,+0000.174,-0000.188" />
<polygon id="1824" points="+0000.114,-0000.121,+0000.114,-0000.112,+0000.120,-0000.112,+0000.120,-0000.121" />
<polygon id="1824" points="+0000.144,-0000.107,+0000.174,-0000.107,+0000.174,-0000.131,+0000.144,-0000.131,+0000.144,-0000.118,+0000.144,-0000.113" />
<polygon id="1825" points="+0000.109,-0000.183,+0000.109,-0000.206,+0000.109,-0000.212,+0000.085,-0000.212,+0000.085,-0000.226,+0000.075,-0000.226,+0000.075,-0000.226,+0000.064,-0000.226,+0000.064,-0000.194,+0000.064,-0000.192,+0000.064,-0000.191,+0000.064,-0000.183" />
<polygon id="1825" points="+0000.174,-0000.107,+0000.203,-0000.107,+0000.204,-0000.131,+0000.174,-0000.131" />
<polygon id="1826" points="+0000.109,-0000.212,+0000.109,-0000.226,+0000.085,-0000.226,+0000.085,-0000.212" />
<polygon id="1826" points="+0000.233,-0000.107,+0000.233,-0000.131,+0000.204,-0000.131,+0000.203,-0000.107,+0000.208,-0000.107,+0000.229,-0000.107" />
<polygon id="1827" points="+0000.114,-0000.131,+0000.114,-0000.122,+0000.121,-0000.122,+0000.121,-0000.112,+0000.121,-0000.103,+0000.134,-0000.103,+0000.134,-0000.107,+0000.134,-0000.113,+0000.134,-0000.119,+0000.141,-0000.119,+0000.141,-0000.131" />
<polygon id="1827" points="+0000.144,-0000.226,+0000.208,-0000.226,+0000.226,-0000.226,+0000.226,-0000.247,+0000.223,-0000.247,+0000.212,-0000.247,+0000.212,-0000.247,+0000.085,-0000.247,+0000.085,-0000.247,+0000.070,-0000.247,+0000.055,-0000.247,+0000.055,-0000.247,+0000.046,-0000.247,+0000.046,-0000.212,+0000.046,-0000.212,+0000.046,-0000.192,+0000.064,-0000.192,+0000.064,-0000.226,+0000.075,-0000.226,+0000.085,-0000.226,+0000.095,-0000.226,+0000.108,-0000.226,+0000.108,-0000.226,+0000.112,-0000.226" />
<polygon id="1828" points="+0000.114,-0000.112,+0000.114,-0000.103,+0000.120,-0000.103,+0000.120,-0000.112" />
<polygon id="1828" points="+0000.197,-0000.069,+0000.144,-0000.069,+0000.112,-0000.069,+0000.112,-0000.069,+0000.110,-0000.069,+0000.108,-0000.069,+0000.094,-0000.069,+0000.086,-0000.069,+0000.085,-0000.069,+0000.084,-0000.069,+0000.083,-0000.069,+0000.074,-0000.069,+0000.063,-0000.069,+0000.063,-0000.089,+0000.045,-0000.089,+0000.045,-0000.071,+0000.045,-0000.068,+0000.045,-0000.056,+0000.046,-0000.056,+0000.046,-0000.048,+0000.140,-0000.048,+0000.141,-0000.048,+0000.141,-0000.048,+0000.148,-0000.048,+0000.157,-0000.048,+0000.166,-0000.048,+0000.166,-0000.048,+0000.175,-0000.048,+0000.184,-0000.048,+0000.193,-0000.048,+0000.197,-0000.048,+0000.197,-0000.065" />
<polygon id="1829" points="+0000.114,-0000.121,+0000.114,-0000.112,+0000.120,-0000.112,+0000.120,-0000.121" />
<polygon id="1829" points="+0000.198,+0000.004,+0000.311,+0000.005,+0000.311,-0000.048,+0000.254,-0000.048,+0000.254,-0000.048,+0000.254,-0000.048,+0000.238,-0000.048,+0000.238,-0000.048,+0000.212,-0000.048,+0000.212,-0000.048,+0000.203,-0000.048,+0000.198,-0000.048" />
<polygon id="1830" points="+0000.109,-0000.183,+0000.109,-0000.206,+0000.109,-0000.212,+0000.085,-0000.212,+0000.085,-0000.226,+0000.075,-0000.226,+0000.075,-0000.226,+0000.064,-0000.226,+0000.064,-0000.194,+0000.064,-0000.192,+0000.064,-0000.191,+0000.064,-0000.183" />
<polygon id="1830" points="+0000.197,+0000.004,+0000.197,-0000.048,+0000.193,-0000.048,+0000.184,-0000.048,+0000.175,-0000.048,+0000.166,-0000.048,+0000.166,-0000.048,+0000.157,-0000.048,+0000.148,-0000.048,+0000.141,-0000.048,+0000.141,-0000.047,+0000.141,-0000.012,+0000.141,+0000.004" />
<polygon id="1831" points="+0000.109,-0000.212,+0000.109,-0000.226,+0000.085,-0000.226,+0000.085,-0000.212" />
<polygon id="1831" points="+0000.226,-0000.247,+0000.226,-0000.299,+0000.071,-0000.299,+0000.071,-0000.293,+0000.071,-0000.284,+0000.071,-0000.275,+0000.070,-0000.247,+0000.085,-0000.247,+0000.085,-0000.247,+0000.212,-0000.247,+0000.212,-0000.247,+0000.223,-0000.247" />
<polygon id="1832" points="+0000.144,-0000.226,+0000.208,-0000.226,+0000.226,-0000.226,+0000.226,-0000.247,+0000.223,-0000.247,+0000.212,-0000.247,+0000.212,-0000.247,+0000.085,-0000.247,+0000.085,-0000.247,+0000.070,-0000.247,+0000.055,-0000.247,+0000.055,-0000.247,+0000.046,-0000.247,+0000.046,-0000.212,+0000.046,-0000.212,+0000.046,-0000.192,+0000.064,-0000.192,+0000.064,-0000.226,+0000.075,-0000.226,+0000.085,-0000.226,+0000.095,-0000.226,+0000.108,-0000.226,+0000.108,-0000.226,+0000.112,-0000.226" />
<polygon id="1832" points="+0000.311,+0000.005,+0000.347,+0000.005,+0000.347,-0000.006,+0000.347,-0000.008,+0000.348,-0000.008,+0000.354,-0000.009,+0000.354,-0000.010,+0000.354,-0000.046,+0000.354,-0000.047,+0000.311,-0000.047,+0000.311,-0000.046" />
<polygon id="1833" points="+0000.013,+0000.004,+0000.141,+0000.004,+0000.141,-0000.012,+0000.141,-0000.048,+0000.046,-0000.048,+0000.046,-0000.056,+0000.045,-0000.056,+0000.045,-0000.070,+0000.009,-0000.070,-0000.004,-0000.070,-0000.004,-0000.013,+0000.001,-0000.001" />
<polygon id="1833" points="+0000.197,-0000.069,+0000.144,-0000.069,+0000.112,-0000.069,+0000.112,-0000.069,+0000.110,-0000.069,+0000.108,-0000.069,+0000.094,-0000.069,+0000.086,-0000.069,+0000.085,-0000.069,+0000.084,-0000.069,+0000.083,-0000.069,+0000.074,-0000.069,+0000.063,-0000.069,+0000.063,-0000.089,+0000.045,-0000.089,+0000.045,-0000.071,+0000.045,-0000.068,+0000.045,-0000.056,+0000.046,-0000.056,+0000.046,-0000.048,+0000.140,-0000.048,+0000.141,-0000.048,+0000.141,-0000.048,+0000.148,-0000.048,+0000.157,-0000.048,+0000.166,-0000.048,+0000.166,-0000.048,+0000.175,-0000.048,+0000.184,-0000.048,+0000.193,-0000.048,+0000.197,-0000.048,+0000.197,-0000.065" />
<polygon id="1834" points="+0000.326,-0000.289,+0000.326,-0000.295,+0000.326,-0000.299,+0000.298,-0000.299,+0000.298,-0000.292,+0000.298,-0000.283,+0000.298,-0000.274,+0000.298,-0000.248,+0000.298,-0000.247,+0000.302,-0000.247,+0000.312,-0000.247,+0000.326,-0000.247,+0000.326,-0000.248,+0000.326,-0000.265,+0000.326,-0000.265" />
<polygon id="1835" points="+0000.227,-0000.299,+0000.227,-0000.247,+0000.241,-0000.247,+0000.241,-0000.247,+0000.283,-0000.247,+0000.283,-0000.247,+0000.298,-0000.247,+0000.298,-0000.274,+0000.298,-0000.283,+0000.298,-0000.292,+0000.298,-0000.299" />
<polygon id="1835" points="+0000.419,-0000.299,+0000.369,-0000.299,+0000.369,-0000.292,+0000.369,-0000.283,+0000.369,-0000.274,+0000.369,-0000.248,+0000.369,-0000.246,+0000.370,-0000.244,+0000.370,-0000.183,+0000.370,-0000.183,+0000.370,-0000.168,+0000.388,-0000.168,+0000.424,-0000.168,+0000.426,-0000.168,+0000.440,-0000.282,+0000.441,-0000.287,+0000.427,-0000.287,+0000.420,-0000.287,+0000.419,-0000.287,+0000.419,-0000.288" />
<polygon id="1836" points="+0000.000,-0000.183,+0000.003,-0000.186,+0000.006,-0000.183,+0000.046,-0000.183,+0000.046,-0000.191,+0000.046,-0000.192,+0000.046,-0000.194,+0000.046,-0000.212,+0000.046,-0000.212,+0000.046,-0000.247,+0000.055,-0000.247,+0000.055,-0000.247,+0000.070,-0000.247,+0000.071,-0000.275,+0000.071,-0000.284,+0000.071,-0000.293,+0000.071,-0000.299,+0000.014,-0000.300,+0000.002,-0000.295,-0000.003,-0000.283,-0000.003,-0000.183" />
<polygon id="1837" points="+0000.003,-0000.180,+0000.000,-0000.183,-0000.003,-0000.183,-0000.003,-0000.112,+0000.000,-0000.112,+0000.003,-0000.115,+0000.006,-0000.112,+0000.018,-0000.112,+0000.044,-0000.112,+0000.045,-0000.112,+0000.045,-0000.111,+0000.045,-0000.101,+0000.045,-0000.089,+0000.063,-0000.089,+0000.063,-0000.097,+0000.063,-0000.098,+0000.065,-0000.098,+0000.083,-0000.098,+0000.086,-0000.098,+0000.090,-0000.098,+0000.099,-0000.098,+0000.109,-0000.098,+0000.109,-0000.102,+0000.109,-0000.112,+0000.109,-0000.122,+0000.109,-0000.132,+0000.109,-0000.163,+0000.109,-0000.183,+0000.064,-0000.183,+0000.064,-0000.192,+0000.046,-0000.192,+0000.046,-0000.183,+0000.006,-0000.183" />
<polygon id="1837" points="+0000.419,-0000.299,+0000.369,-0000.299,+0000.369,-0000.292,+0000.369,-0000.283,+0000.369,-0000.274,+0000.369,-0000.248,+0000.369,-0000.246,+0000.370,-0000.244,+0000.370,-0000.183,+0000.370,-0000.183,+0000.370,-0000.168,+0000.388,-0000.168,+0000.424,-0000.168,+0000.426,-0000.168,+0000.440,-0000.282,+0000.441,-0000.287,+0000.427,-0000.287,+0000.420,-0000.287,+0000.419,-0000.287,+0000.419,-0000.288" />
<polygon id="1838" points="+0000.003,-0000.109,+0000.000,-0000.112,-0000.003,-0000.112,-0000.004,-0000.070,+0000.009,-0000.070,+0000.045,-0000.070,+0000.045,-0000.088,+0000.045,-0000.091,+0000.045,-0000.101,+0000.045,-0000.112,+0000.018,-0000.112,+0000.006,-0000.112" />
<polygon id="1838" points="+0000.003,-0000.109,+0000.000,-0000.112,-0000.003,-0000.112,-0000.004,-0000.070,+0000.009,-0000.070,+0000.045,-0000.070,+0000.045,-0000.088,+0000.045,-0000.091,+0000.045,-0000.101,+0000.045,-0000.112,+0000.018,-0000.112,+0000.006,-0000.112" />
<polygon id="1839" points="+0000.003,-0000.180,+0000.000,-0000.183,-0000.003,-0000.183,-0000.003,-0000.112,+0000.000,-0000.112,+0000.003,-0000.115,+0000.006,-0000.112,+0000.018,-0000.112,+0000.044,-0000.112,+0000.045,-0000.112,+0000.045,-0000.111,+0000.045,-0000.101,+0000.045,-0000.089,+0000.063,-0000.089,+0000.063,-0000.097,+0000.063,-0000.098,+0000.065,-0000.098,+0000.083,-0000.098,+0000.086,-0000.098,+0000.090,-0000.098,+0000.099,-0000.098,+0000.109,-0000.098,+0000.109,-0000.102,+0000.109,-0000.112,+0000.109,-0000.122,+0000.109,-0000.132,+0000.109,-0000.163,+0000.109,-0000.183,+0000.064,-0000.183,+0000.064,-0000.192,+0000.046,-0000.192,+0000.046,-0000.183,+0000.006,-0000.183" />
<polygon id="1839" points="+0000.326,-0000.295,+0000.326,-0000.289,+0000.326,-0000.265,+0000.326,-0000.265,+0000.326,-0000.246,+0000.369,-0000.246,+0000.369,-0000.274,+0000.369,-0000.283,+0000.369,-0000.292,+0000.369,-0000.299,+0000.326,-0000.299" />
<polygon id="1840" points="+0000.227,-0000.299,+0000.227,-0000.247,+0000.241,-0000.247,+0000.241,-0000.247,+0000.283,-0000.247,+0000.283,-0000.247,+0000.298,-0000.247,+0000.298,-0000.274,+0000.298,-0000.283,+0000.298,-0000.292,+0000.298,-0000.299" />
<polygon id="1841" points="+0000.409,-0000.111,+0000.415,-0000.111,+0000.419,-0000.111,+0000.426,-0000.168,+0000.388,-0000.168,+0000.370,-0000.168,+0000.370,-0000.154,+0000.370,-0000.154,+0000.370,-0000.112,+0000.388,-0000.111" />
<polygon id="1842" points="+0000.385,-0000.035,+0000.386,-0000.037,+0000.376,-0000.047,+0000.371,-0000.047,+0000.368,-0000.047,+0000.365,-0000.047,+0000.354,-0000.047,+0000.354,-0000.009,+0000.369,-0000.013,+0000.382,-0000.020,+0000.393,-0000.030,+0000.390,-0000.032" />
<polygon id="1843" points="+0000.386,-0000.037,+0000.391,-0000.034,+0000.390,-0000.032,+0000.393,-0000.030,+0000.393,-0000.030,+0000.403,-0000.041,+0000.409,-0000.055,+0000.414,-0000.069,+0000.415,-0000.083,+0000.419,-0000.111,+0000.415,-0000.111,+0000.409,-0000.111,+0000.388,-0000.111,+0000.370,-0000.112,+0000.370,-0000.047,+0000.376,-0000.047" />

</svg>