<!--
Created with Chapman Taylor Dynamo SVG exporter
byabear@chapmantaylor.com

Revit Source File:
C:\Users\KH5970\DC\ACCDocs\Engie Solutions\Tour Incity\Fichiers de projet\INCITY_EXP_ARC_ME_03112020.rvt

Date:
18/12/2023 16:10:14
-->

<svg xmlns="http://www.w3.org/2000/svg" class="gen-by-CTA-dyn-Synoptic-for-PowerBI" viewBox=" -1.0 -1.0 2.0 2.0 " transform="scale( 0.95 )">

<style>
polygon {
fill: gainsboro;
stroke: blue;
stroke-width: 0.0001px;
}
</style>

<polygon id="278" points="+0000.114,-0000.162,+0000.114,-0000.133,+0000.143,-0000.133,+0000.174,-0000.133,+0000.204,-0000.133,+0000.233,-0000.133,+0000.233,-0000.162,+0000.204,-0000.162,+0000.174,-0000.162,+0000.143,-0000.162" />
<polygon id="279" points="+0000.114,-0000.183,+0000.114,-0000.164,+0000.141,-0000.164,+0000.141,-0000.189,+0000.141,-0000.203,+0000.114,-0000.203" />
<polygon id="280" points="+0000.284,-0000.206,+0000.260,-0000.206,+0000.260,-0000.186,+0000.284,-0000.186,+0000.284,-0000.196" />
<polygon id="281" points="+0000.310,-0000.212,+0000.310,-0000.224,+0000.260,-0000.224,+0000.260,-0000.212,+0000.285,-0000.212,+0000.296,-0000.212" />
<polygon id="282" points="+0000.310,-0000.070,+0000.310,-0000.082,+0000.260,-0000.083,+0000.260,-0000.071" />
<polygon id="283" points="+0000.257,-0000.209,+0000.257,-0000.224,+0000.237,-0000.224,+0000.236,-0000.224,+0000.236,-0000.223,+0000.236,-0000.200,+0000.236,-0000.189,+0000.236,-0000.163,+0000.236,-0000.132,+0000.236,-0000.106,+0000.236,-0000.094,+0000.236,-0000.072,+0000.236,-0000.071,+0000.257,-0000.071,+0000.257,-0000.086,+0000.257,-0000.117,+0000.257,-0000.132,+0000.257,-0000.141,+0000.257,-0000.157,+0000.257,-0000.186" />
<polygon id="284" points="+0000.114,-0000.071,+0000.141,-0000.071,+0000.141,-0000.072,+0000.141,-0000.089,+0000.114,-0000.089" />
<polygon id="285" points="+0000.114,-0000.212,+0000.114,-0000.209,+0000.141,-0000.209,+0000.141,-0000.223,+0000.141,-0000.224,+0000.114,-0000.224" />
<polygon id="286" points="+0000.295,-0000.206,+0000.285,-0000.206,+0000.285,-0000.197,+0000.295,-0000.197" />
<polygon id="287" points="+0000.285,-0000.195,+0000.285,-0000.186,+0000.295,-0000.186,+0000.295,-0000.195" />
<polygon id="288" points="+0000.310,-0000.186,+0000.310,-0000.206,+0000.297,-0000.206,+0000.297,-0000.196,+0000.297,-0000.186,+0000.301,-0000.186" />
<polygon id="289" points="+0000.310,-0000.179,+0000.310,-0000.185,+0000.302,-0000.185,+0000.302,-0000.179" />
<polygon id="290" points="+0000.233,-0000.190,+0000.233,-0000.200,+0000.230,-0000.200,+0000.230,-0000.190" />
<polygon id="291" points="+0000.207,-0000.220,+0000.144,-0000.220,+0000.144,-0000.206,+0000.144,-0000.190,+0000.174,-0000.190,+0000.204,-0000.190,+0000.207,-0000.190" />
<polygon id="292" points="+0000.227,-0000.220,+0000.209,-0000.220,+0000.209,-0000.190,+0000.228,-0000.190,+0000.228,-0000.201,+0000.233,-0000.201,+0000.233,-0000.220" />
<polygon id="293" points="+0000.144,-0000.075,+0000.198,-0000.075,+0000.207,-0000.075,+0000.207,-0000.105,+0000.203,-0000.105,+0000.174,-0000.105,+0000.144,-0000.105,+0000.144,-0000.092" />
<polygon id="294" points="+0000.233,-0000.095,+0000.233,-0000.105,+0000.230,-0000.105,+0000.230,-0000.095" />
<polygon id="295" points="+0000.233,-0000.075,+0000.233,-0000.094,+0000.228,-0000.094,+0000.228,-0000.105,+0000.209,-0000.105,+0000.208,-0000.075" />
<polygon id="296" points="+0000.310,-0000.088,+0000.310,-0000.097,+0000.310,-0000.116,+0000.287,-0000.116,+0000.278,-0000.116,+0000.269,-0000.116,+0000.260,-0000.116,+0000.260,-0000.089" />
<polygon id="297" points="+0000.310,-0000.133,+0000.310,-0000.141,+0000.287,-0000.141,+0000.278,-0000.141,+0000.269,-0000.141,+0000.260,-0000.141,+0000.260,-0000.133,+0000.269,-0000.133,+0000.278,-0000.133,+0000.287,-0000.133" />
<polygon id="298" points="+0000.310,-0000.157,+0000.310,-0000.177,+0000.302,-0000.177,+0000.302,-0000.176,+0000.301,-0000.176,+0000.301,-0000.178,+0000.301,-0000.185,+0000.296,-0000.185,+0000.285,-0000.185,+0000.260,-0000.185,+0000.260,-0000.157,+0000.269,-0000.157,+0000.278,-0000.157,+0000.287,-0000.157" />
<polygon id="301" points="+0000.260,-0000.132,+0000.260,-0000.117,+0000.269,-0000.117,+0000.269,-0000.132" />
<polygon id="302" points="+0000.269,-0000.117,+0000.278,-0000.117,+0000.278,-0000.132,+0000.269,-0000.132" />
<polygon id="303" points="+0000.287,-0000.117,+0000.287,-0000.132,+0000.279,-0000.132,+0000.278,-0000.117" />
<polygon id="304" points="+0000.310,-0000.117,+0000.310,-0000.132,+0000.288,-0000.132,+0000.288,-0000.117" />
<polygon id="305" points="+0000.260,-0000.157,+0000.260,-0000.141,+0000.269,-0000.141,+0000.269,-0000.156" />
<polygon id="306" points="+0000.278,-0000.156,+0000.269,-0000.156,+0000.269,-0000.141,+0000.278,-0000.141" />
<polygon id="307" points="+0000.310,-0000.141,+0000.310,-0000.154,+0000.310,-0000.156,+0000.288,-0000.156,+0000.288,-0000.141" />
<polygon id="308" points="+0000.287,-0000.141,+0000.287,-0000.156,+0000.279,-0000.156,+0000.279,-0000.141" />
<polygon id="309" points="+0000.317,-0000.157,+0000.317,-0000.154,+0000.355,-0000.154,+0000.355,-0000.136,+0000.355,-0000.136,+0000.355,-0000.126,+0000.355,-0000.121,+0000.355,-0000.111,+0000.355,-0000.097,+0000.355,-0000.097,+0000.355,-0000.096,+0000.355,-0000.069,+0000.327,-0000.069,+0000.315,-0000.069,+0000.314,-0000.069,+0000.314,-0000.068,+0000.259,-0000.069,+0000.236,-0000.069,+0000.233,-0000.069,+0000.208,-0000.069,+0000.198,-0000.069,+0000.198,-0000.065,+0000.198,-0000.065,+0000.198,-0000.049,+0000.198,-0000.048,+0000.203,-0000.048,+0000.212,-0000.048,+0000.212,-0000.048,+0000.238,-0000.048,+0000.238,-0000.048,+0000.254,-0000.048,+0000.254,-0000.048,+0000.254,-0000.048,+0000.310,-0000.048,+0000.311,-0000.048,+0000.311,-0000.047,+0000.353,-0000.047,+0000.355,-0000.047,+0000.355,-0000.047,+0000.365,-0000.047,+0000.370,-0000.047,+0000.370,-0000.110,+0000.370,-0000.111,+0000.370,-0000.112,+0000.370,-0000.113,+0000.370,-0000.154,+0000.370,-0000.154,+0000.370,-0000.167,+0000.370,-0000.170,+0000.370,-0000.183,+0000.370,-0000.183,+0000.370,-0000.244,+0000.369,-0000.246,+0000.368,-0000.246,+0000.367,-0000.246,+0000.327,-0000.246,+0000.326,-0000.246,+0000.326,-0000.247,+0000.326,-0000.247,+0000.312,-0000.247,+0000.312,-0000.226,+0000.317,-0000.226,+0000.317,-0000.225,+0000.317,-0000.225,+0000.317,-0000.209,+0000.317,-0000.186,+0000.317,-0000.178" />
<polygon id="311" points="+0000.317,-0000.085,+0000.317,-0000.069,+0000.327,-0000.069,+0000.355,-0000.069,+0000.355,-0000.097,+0000.346,-0000.097,+0000.346,-0000.097,+0000.337,-0000.097,+0000.317,-0000.097" />
<polygon id="312" points="+0000.317,-0000.117,+0000.317,-0000.097,+0000.337,-0000.097,+0000.346,-0000.097,+0000.346,-0000.097,+0000.353,-0000.097,+0000.355,-0000.097,+0000.355,-0000.111,+0000.355,-0000.121,+0000.355,-0000.126,+0000.355,-0000.136,+0000.355,-0000.136,+0000.355,-0000.154,+0000.353,-0000.154,+0000.317,-0000.154,+0000.317,-0000.141,+0000.317,-0000.132" />
<polygon id="313" points="+0000.311,+0000.005,+0000.347,+0000.005,+0000.347,-0000.006,+0000.347,-0000.008,+0000.348,-0000.008,+0000.354,-0000.009,+0000.354,-0000.010,+0000.354,-0000.046,+0000.354,-0000.047,+0000.311,-0000.047,+0000.311,-0000.046" />
<polygon id="314" points="+0000.141,+0000.004,+0000.197,+0000.004,+0000.197,-0000.048,+0000.193,-0000.048,+0000.184,-0000.048,+0000.175,-0000.048,+0000.166,-0000.048,+0000.166,-0000.048,+0000.157,-0000.048,+0000.148,-0000.048,+0000.141,-0000.048,+0000.141,-0000.047,+0000.141,-0000.012" />
<polygon id="315" points="+0000.107,-0000.069,+0000.107,-0000.092,+0000.107,-0000.098,+0000.099,-0000.098,+0000.090,-0000.098,+0000.084,-0000.098,+0000.084,-0000.088,+0000.084,-0000.079,+0000.084,-0000.069,+0000.094,-0000.069" />
<polygon id="316" points="+0000.063,-0000.089,+0000.063,-0000.069,+0000.074,-0000.069,+0000.084,-0000.069,+0000.084,-0000.079,+0000.084,-0000.088,+0000.084,-0000.098,+0000.063,-0000.098" />
<polygon id="317" points="+0000.326,-0000.285,+0000.326,-0000.295,+0000.326,-0000.299,+0000.312,-0000.299,+0000.312,-0000.295,+0000.313,-0000.295,+0000.312,-0000.247,+0000.326,-0000.247,+0000.326,-0000.248,+0000.326,-0000.265,+0000.326,-0000.265" />
<polygon id="318" points="+0000.382,-0000.036,+0000.383,-0000.039,+0000.376,-0000.047,+0000.371,-0000.047,+0000.368,-0000.047,+0000.365,-0000.047,+0000.354,-0000.047,+0000.354,-0000.009,+0000.369,-0000.013,+0000.381,-0000.020,+0000.382,-0000.020,+0000.392,-0000.029,+0000.393,-0000.030,+0000.390,-0000.032" />
<polygon id="319" points="+0000.114,-0000.098,+0000.114,-0000.095,+0000.141,-0000.095,+0000.141,-0000.106,+0000.141,-0000.107,+0000.135,-0000.107,+0000.135,-0000.102,+0000.121,-0000.102,+0000.114,-0000.102" />
<polygon id="320" points="+0000.141,-0000.113,+0000.141,-0000.118,+0000.135,-0000.118,+0000.135,-0000.113" />
<polygon id="321" points="+0000.141,-0000.107,+0000.141,-0000.112,+0000.135,-0000.112,+0000.135,-0000.107" />
<polygon id="323" points="+0000.000,-0000.183,+0000.005,-0000.188,+0000.010,-0000.183,+0000.046,-0000.183,+0000.046,-0000.191,+0000.046,-0000.192,+0000.046,-0000.194,+0000.046,-0000.212,+0000.046,-0000.212,+0000.046,-0000.247,+0000.055,-0000.247,+0000.055,-0000.247,+0000.070,-0000.247,+0000.071,-0000.275,+0000.071,-0000.284,+0000.071,-0000.293,+0000.071,-0000.299,+0000.014,-0000.300,+0000.002,-0000.295,-0000.003,-0000.283,-0000.003,-0000.183" />
<polygon id="324" points="+0000.226,-0000.299,+0000.071,-0000.299,+0000.071,-0000.293,+0000.071,-0000.284,+0000.071,-0000.275,+0000.070,-0000.247,+0000.085,-0000.247,+0000.085,-0000.247,+0000.212,-0000.247,+0000.212,-0000.247,+0000.223,-0000.247,+0000.226,-0000.247" />
<polygon id="325" points="+0000.326,-0000.295,+0000.326,-0000.285,+0000.326,-0000.265,+0000.326,-0000.265,+0000.326,-0000.246,+0000.369,-0000.246,+0000.369,-0000.274,+0000.369,-0000.283,+0000.369,-0000.292,+0000.369,-0000.299,+0000.326,-0000.299" />
<polygon id="326" points="+0000.405,-0000.111,+0000.415,-0000.111,+0000.419,-0000.111,+0000.426,-0000.168,+0000.388,-0000.168,+0000.370,-0000.168,+0000.370,-0000.154,+0000.370,-0000.154,+0000.370,-0000.112,+0000.388,-0000.111" />
<polygon id="327" points="+0000.383,-0000.039,+0000.392,-0000.036,+0000.390,-0000.032,+0000.393,-0000.030,+0000.393,-0000.030,+0000.403,-0000.041,+0000.409,-0000.055,+0000.414,-0000.069,+0000.415,-0000.083,+0000.419,-0000.111,+0000.415,-0000.111,+0000.405,-0000.111,+0000.388,-0000.111,+0000.370,-0000.112,+0000.370,-0000.047,+0000.376,-0000.047" />
<polygon id="328" points="+0000.198,+0000.004,+0000.311,+0000.005,+0000.311,-0000.048,+0000.254,-0000.048,+0000.254,-0000.048,+0000.254,-0000.048,+0000.238,-0000.048,+0000.238,-0000.048,+0000.212,-0000.048,+0000.212,-0000.048,+0000.203,-0000.048,+0000.198,-0000.048,+0000.198,-0000.046" />
<polygon id="329" points="+0000.107,-0000.005,+0000.112,-0000.010,+0000.112,-0000.048,+0000.046,-0000.048,+0000.046,-0000.056,+0000.045,-0000.056,+0000.045,-0000.070,+0000.009,-0000.070,-0000.004,-0000.070,-0000.004,-0000.013,+0000.001,-0000.001,+0000.013,+0000.004,+0000.112,+0000.004,+0000.112,+0000.000" />
<polygon id="330" points="+0000.144,-0000.188,+0000.144,-0000.164,+0000.174,-0000.164,+0000.174,-0000.188" />
<polygon id="331" points="+0000.233,-0000.164,+0000.233,-0000.188,+0000.229,-0000.188,+0000.208,-0000.188,+0000.204,-0000.188,+0000.204,-0000.164" />
<polygon id="332" points="+0000.174,-0000.164,+0000.204,-0000.164,+0000.204,-0000.188,+0000.174,-0000.188" />
<polygon id="333" points="+0000.144,-0000.107,+0000.174,-0000.107,+0000.174,-0000.131,+0000.144,-0000.131,+0000.144,-0000.118,+0000.144,-0000.113" />
<polygon id="334" points="+0000.174,-0000.107,+0000.203,-0000.107,+0000.204,-0000.131,+0000.174,-0000.131" />
<polygon id="335" points="+0000.233,-0000.107,+0000.233,-0000.131,+0000.204,-0000.131,+0000.203,-0000.107,+0000.208,-0000.107,+0000.229,-0000.107" />
<polygon id="336" points="+0000.114,-0000.131,+0000.114,-0000.122,+0000.121,-0000.122,+0000.121,-0000.112,+0000.121,-0000.103,+0000.134,-0000.103,+0000.134,-0000.107,+0000.134,-0000.113,+0000.134,-0000.119,+0000.141,-0000.119,+0000.141,-0000.131" />
<polygon id="337" points="+0000.114,-0000.112,+0000.114,-0000.103,+0000.120,-0000.103,+0000.120,-0000.112" />
<polygon id="338" points="+0000.114,-0000.121,+0000.114,-0000.112,+0000.120,-0000.112,+0000.120,-0000.121" />
<polygon id="339" points="+0000.107,-0000.183,+0000.107,-0000.206,+0000.107,-0000.212,+0000.085,-0000.212,+0000.085,-0000.226,+0000.075,-0000.226,+0000.075,-0000.226,+0000.064,-0000.226,+0000.064,-0000.194,+0000.064,-0000.192,+0000.064,-0000.191,+0000.064,-0000.183" />
<polygon id="340" points="+0000.107,-0000.212,+0000.107,-0000.226,+0000.108,-0000.226,+0000.108,-0000.225,+0000.085,-0000.226,+0000.085,-0000.212" />
<polygon id="341" points="+0000.144,-0000.226,+0000.208,-0000.226,+0000.226,-0000.226,+0000.226,-0000.247,+0000.223,-0000.247,+0000.212,-0000.247,+0000.212,-0000.247,+0000.085,-0000.247,+0000.085,-0000.247,+0000.070,-0000.247,+0000.055,-0000.247,+0000.055,-0000.247,+0000.046,-0000.247,+0000.046,-0000.212,+0000.046,-0000.212,+0000.046,-0000.192,+0000.064,-0000.192,+0000.064,-0000.226,+0000.075,-0000.226,+0000.085,-0000.226,+0000.095,-0000.226,+0000.108,-0000.226,+0000.108,-0000.226,+0000.111,-0000.226" />
<polygon id="342" points="+0000.198,-0000.069,+0000.144,-0000.069,+0000.113,-0000.069,+0000.113,-0000.048,+0000.140,-0000.048,+0000.141,-0000.048,+0000.141,-0000.048,+0000.148,-0000.048,+0000.157,-0000.048,+0000.166,-0000.048,+0000.166,-0000.048,+0000.175,-0000.048,+0000.184,-0000.048,+0000.193,-0000.048,+0000.197,-0000.048,+0000.197,-0000.065,+0000.198,-0000.065" />
<polygon id="344" points="+0000.298,-0000.299,+0000.227,-0000.299,+0000.227,-0000.247,+0000.241,-0000.247,+0000.241,-0000.247,+0000.283,-0000.247,+0000.283,-0000.247,+0000.298,-0000.247,+0000.298,-0000.274,+0000.298,-0000.283,+0000.298,-0000.292" />
<polygon id="346" points="+0000.426,-0000.168,+0000.440,-0000.282,+0000.441,-0000.287,+0000.427,-0000.287,+0000.420,-0000.287,+0000.419,-0000.287,+0000.419,-0000.288,+0000.419,-0000.299,+0000.369,-0000.299,+0000.369,-0000.292,+0000.369,-0000.283,+0000.369,-0000.274,+0000.369,-0000.248,+0000.369,-0000.246,+0000.370,-0000.244,+0000.370,-0000.183,+0000.370,-0000.183,+0000.370,-0000.168,+0000.388,-0000.168,+0000.424,-0000.168" />
<polygon id="347" points="+0000.005,-0000.107,+0000.000,-0000.112,-0000.003,-0000.112,-0000.004,-0000.070,+0000.009,-0000.070,+0000.045,-0000.070,+0000.045,-0000.088,+0000.045,-0000.091,+0000.045,-0000.101,+0000.045,-0000.112,+0000.018,-0000.112,+0000.010,-0000.112" />
<polygon id="348" points="+0000.005,-0000.178,+0000.000,-0000.183,-0000.003,-0000.183,-0000.003,-0000.112,+0000.000,-0000.112,+0000.005,-0000.117,+0000.010,-0000.112,+0000.018,-0000.112,+0000.044,-0000.112,+0000.045,-0000.112,+0000.045,-0000.111,+0000.045,-0000.101,+0000.045,-0000.089,+0000.063,-0000.089,+0000.063,-0000.097,+0000.063,-0000.098,+0000.065,-0000.098,+0000.083,-0000.098,+0000.086,-0000.098,+0000.090,-0000.098,+0000.099,-0000.098,+0000.107,-0000.098,+0000.107,-0000.102,+0000.107,-0000.112,+0000.107,-0000.122,+0000.107,-0000.132,+0000.107,-0000.163,+0000.107,-0000.183,+0000.064,-0000.183,+0000.064,-0000.192,+0000.046,-0000.192,+0000.046,-0000.183,+0000.010,-0000.183" />
<polygon id="479" points="+0000.114,-0000.162,+0000.114,-0000.133,+0000.143,-0000.133,+0000.174,-0000.133,+0000.204,-0000.133,+0000.233,-0000.133,+0000.233,-0000.162,+0000.204,-0000.162,+0000.174,-0000.162,+0000.143,-0000.162" />
<polygon id="480" points="+0000.114,-0000.183,+0000.114,-0000.164,+0000.141,-0000.164,+0000.141,-0000.189,+0000.141,-0000.203,+0000.114,-0000.203" />
<polygon id="481" points="+0000.284,-0000.206,+0000.260,-0000.206,+0000.260,-0000.186,+0000.284,-0000.186,+0000.284,-0000.196" />
<polygon id="482" points="+0000.310,-0000.212,+0000.310,-0000.224,+0000.260,-0000.224,+0000.260,-0000.212,+0000.285,-0000.212,+0000.296,-0000.212" />
<polygon id="483" points="+0000.310,-0000.070,+0000.310,-0000.082,+0000.260,-0000.083,+0000.260,-0000.071" />
<polygon id="484" points="+0000.257,-0000.209,+0000.257,-0000.224,+0000.237,-0000.224,+0000.236,-0000.224,+0000.236,-0000.223,+0000.236,-0000.200,+0000.236,-0000.189,+0000.236,-0000.163,+0000.236,-0000.132,+0000.236,-0000.106,+0000.236,-0000.094,+0000.236,-0000.072,+0000.236,-0000.071,+0000.257,-0000.071,+0000.257,-0000.086,+0000.257,-0000.117,+0000.257,-0000.132,+0000.257,-0000.141,+0000.257,-0000.157,+0000.257,-0000.186" />
<polygon id="485" points="+0000.114,-0000.071,+0000.141,-0000.071,+0000.141,-0000.072,+0000.141,-0000.089,+0000.114,-0000.089" />
<polygon id="486" points="+0000.114,-0000.212,+0000.114,-0000.209,+0000.141,-0000.209,+0000.141,-0000.223,+0000.141,-0000.224,+0000.114,-0000.224" />
<polygon id="487" points="+0000.295,-0000.206,+0000.285,-0000.206,+0000.285,-0000.197,+0000.295,-0000.197" />
<polygon id="488" points="+0000.285,-0000.195,+0000.285,-0000.186,+0000.295,-0000.186,+0000.295,-0000.195" />
<polygon id="489" points="+0000.310,-0000.186,+0000.310,-0000.206,+0000.297,-0000.206,+0000.297,-0000.196,+0000.297,-0000.186,+0000.301,-0000.186" />
<polygon id="490" points="+0000.310,-0000.179,+0000.310,-0000.185,+0000.302,-0000.185,+0000.302,-0000.179" />
<polygon id="491" points="+0000.233,-0000.190,+0000.233,-0000.200,+0000.230,-0000.200,+0000.230,-0000.190" />
<polygon id="492" points="+0000.207,-0000.220,+0000.144,-0000.220,+0000.144,-0000.206,+0000.144,-0000.190,+0000.174,-0000.190,+0000.204,-0000.190,+0000.207,-0000.190" />
<polygon id="493" points="+0000.227,-0000.220,+0000.209,-0000.220,+0000.209,-0000.190,+0000.228,-0000.190,+0000.228,-0000.201,+0000.233,-0000.201,+0000.233,-0000.220" />
<polygon id="494" points="+0000.144,-0000.075,+0000.198,-0000.075,+0000.207,-0000.075,+0000.207,-0000.105,+0000.203,-0000.105,+0000.174,-0000.105,+0000.144,-0000.105,+0000.144,-0000.092" />
<polygon id="495" points="+0000.233,-0000.095,+0000.233,-0000.105,+0000.230,-0000.105,+0000.230,-0000.095" />
<polygon id="496" points="+0000.233,-0000.075,+0000.233,-0000.094,+0000.228,-0000.094,+0000.228,-0000.105,+0000.209,-0000.105,+0000.208,-0000.075" />
<polygon id="497" points="+0000.310,-0000.088,+0000.310,-0000.097,+0000.310,-0000.116,+0000.287,-0000.116,+0000.278,-0000.116,+0000.269,-0000.116,+0000.260,-0000.116,+0000.260,-0000.089" />
<polygon id="498" points="+0000.310,-0000.133,+0000.310,-0000.141,+0000.287,-0000.141,+0000.278,-0000.141,+0000.269,-0000.141,+0000.260,-0000.141,+0000.260,-0000.133,+0000.269,-0000.133,+0000.278,-0000.133,+0000.287,-0000.133" />
<polygon id="499" points="+0000.310,-0000.157,+0000.310,-0000.177,+0000.302,-0000.177,+0000.302,-0000.176,+0000.301,-0000.176,+0000.301,-0000.178,+0000.301,-0000.185,+0000.296,-0000.185,+0000.285,-0000.185,+0000.260,-0000.185,+0000.260,-0000.157,+0000.269,-0000.157,+0000.278,-0000.157,+0000.287,-0000.157" />
<polygon id="500" points="+0000.260,-0000.132,+0000.260,-0000.117,+0000.269,-0000.117,+0000.269,-0000.132" />
<polygon id="501" points="+0000.269,-0000.117,+0000.278,-0000.117,+0000.278,-0000.132,+0000.269,-0000.132" />
<polygon id="502" points="+0000.287,-0000.117,+0000.287,-0000.132,+0000.279,-0000.132,+0000.278,-0000.117" />
<polygon id="503" points="+0000.310,-0000.117,+0000.310,-0000.132,+0000.288,-0000.132,+0000.288,-0000.117" />
<polygon id="504" points="+0000.260,-0000.157,+0000.260,-0000.141,+0000.269,-0000.141,+0000.269,-0000.156" />
<polygon id="505" points="+0000.278,-0000.156,+0000.269,-0000.156,+0000.269,-0000.141,+0000.278,-0000.141" />
<polygon id="506" points="+0000.310,-0000.141,+0000.310,-0000.154,+0000.310,-0000.156,+0000.288,-0000.156,+0000.288,-0000.141" />
<polygon id="507" points="+0000.287,-0000.141,+0000.287,-0000.156,+0000.279,-0000.156,+0000.279,-0000.141" />
<polygon id="508" points="+0000.317,-0000.157,+0000.317,-0000.154,+0000.355,-0000.154,+0000.355,-0000.136,+0000.355,-0000.136,+0000.355,-0000.126,+0000.355,-0000.121,+0000.355,-0000.111,+0000.355,-0000.097,+0000.355,-0000.097,+0000.355,-0000.096,+0000.355,-0000.069,+0000.327,-0000.069,+0000.315,-0000.069,+0000.314,-0000.069,+0000.314,-0000.068,+0000.259,-0000.069,+0000.236,-0000.069,+0000.233,-0000.069,+0000.208,-0000.069,+0000.198,-0000.069,+0000.198,-0000.065,+0000.198,-0000.065,+0000.198,-0000.049,+0000.198,-0000.048,+0000.203,-0000.048,+0000.212,-0000.048,+0000.212,-0000.048,+0000.238,-0000.048,+0000.238,-0000.048,+0000.254,-0000.048,+0000.254,-0000.048,+0000.254,-0000.048,+0000.310,-0000.048,+0000.311,-0000.048,+0000.311,-0000.047,+0000.353,-0000.047,+0000.355,-0000.047,+0000.355,-0000.047,+0000.365,-0000.047,+0000.370,-0000.047,+0000.370,-0000.110,+0000.370,-0000.111,+0000.370,-0000.112,+0000.370,-0000.113,+0000.370,-0000.154,+0000.370,-0000.154,+0000.370,-0000.167,+0000.370,-0000.170,+0000.370,-0000.183,+0000.370,-0000.183,+0000.370,-0000.244,+0000.369,-0000.246,+0000.368,-0000.246,+0000.367,-0000.246,+0000.327,-0000.246,+0000.326,-0000.246,+0000.326,-0000.247,+0000.326,-0000.247,+0000.312,-0000.247,+0000.312,-0000.226,+0000.317,-0000.226,+0000.317,-0000.225,+0000.317,-0000.225,+0000.317,-0000.209,+0000.317,-0000.186,+0000.317,-0000.178" />
<polygon id="509" points="+0000.317,-0000.085,+0000.317,-0000.069,+0000.327,-0000.069,+0000.355,-0000.069,+0000.355,-0000.097,+0000.346,-0000.097,+0000.346,-0000.097,+0000.337,-0000.097,+0000.317,-0000.097" />
<polygon id="510" points="+0000.317,-0000.117,+0000.317,-0000.097,+0000.337,-0000.097,+0000.346,-0000.097,+0000.346,-0000.097,+0000.353,-0000.097,+0000.355,-0000.097,+0000.355,-0000.111,+0000.355,-0000.121,+0000.355,-0000.126,+0000.355,-0000.136,+0000.355,-0000.136,+0000.355,-0000.154,+0000.353,-0000.154,+0000.317,-0000.154,+0000.317,-0000.141,+0000.317,-0000.132" />
<polygon id="511" points="+0000.107,-0000.069,+0000.107,-0000.092,+0000.107,-0000.098,+0000.099,-0000.098,+0000.090,-0000.098,+0000.084,-0000.098,+0000.084,-0000.088,+0000.084,-0000.079,+0000.084,-0000.069,+0000.094,-0000.069" />
<polygon id="512" points="+0000.063,-0000.089,+0000.063,-0000.069,+0000.074,-0000.069,+0000.084,-0000.069,+0000.084,-0000.079,+0000.084,-0000.088,+0000.084,-0000.098,+0000.063,-0000.098" />
<polygon id="513" points="+0000.114,-0000.098,+0000.114,-0000.095,+0000.141,-0000.095,+0000.141,-0000.106,+0000.141,-0000.107,+0000.135,-0000.107,+0000.135,-0000.102,+0000.121,-0000.102,+0000.114,-0000.102" />
<polygon id="514" points="+0000.141,-0000.113,+0000.141,-0000.118,+0000.135,-0000.118,+0000.135,-0000.113" />
<polygon id="515" points="+0000.141,-0000.107,+0000.141,-0000.112,+0000.135,-0000.112,+0000.135,-0000.107" />
<polygon id="516" points="+0000.144,-0000.188,+0000.144,-0000.164,+0000.174,-0000.164,+0000.174,-0000.188" />
<polygon id="517" points="+0000.233,-0000.164,+0000.233,-0000.188,+0000.229,-0000.188,+0000.208,-0000.188,+0000.204,-0000.188,+0000.204,-0000.164" />
<polygon id="518" points="+0000.174,-0000.164,+0000.204,-0000.164,+0000.204,-0000.188,+0000.174,-0000.188" />
<polygon id="519" points="+0000.144,-0000.107,+0000.174,-0000.107,+0000.174,-0000.131,+0000.144,-0000.131,+0000.144,-0000.118,+0000.144,-0000.113" />
<polygon id="520" points="+0000.174,-0000.107,+0000.203,-0000.107,+0000.204,-0000.131,+0000.174,-0000.131" />
<polygon id="521" points="+0000.233,-0000.107,+0000.233,-0000.131,+0000.204,-0000.131,+0000.203,-0000.107,+0000.208,-0000.107,+0000.229,-0000.107" />
<polygon id="522" points="+0000.114,-0000.131,+0000.114,-0000.122,+0000.121,-0000.122,+0000.121,-0000.112,+0000.121,-0000.103,+0000.134,-0000.103,+0000.134,-0000.107,+0000.134,-0000.113,+0000.134,-0000.119,+0000.141,-0000.119,+0000.141,-0000.131" />
<polygon id="523" points="+0000.114,-0000.112,+0000.114,-0000.103,+0000.120,-0000.103,+0000.120,-0000.112" />
<polygon id="524" points="+0000.114,-0000.121,+0000.114,-0000.112,+0000.120,-0000.112,+0000.120,-0000.121" />
<polygon id="525" points="+0000.107,-0000.183,+0000.107,-0000.206,+0000.107,-0000.212,+0000.085,-0000.212,+0000.085,-0000.226,+0000.075,-0000.226,+0000.075,-0000.226,+0000.064,-0000.226,+0000.064,-0000.194,+0000.064,-0000.192,+0000.064,-0000.191,+0000.064,-0000.183" />
<polygon id="526" points="+0000.107,-0000.212,+0000.107,-0000.226,+0000.108,-0000.226,+0000.108,-0000.225,+0000.085,-0000.226,+0000.085,-0000.212" />
<polygon id="527" points="+0000.144,-0000.226,+0000.208,-0000.226,+0000.226,-0000.226,+0000.226,-0000.247,+0000.223,-0000.247,+0000.212,-0000.247,+0000.212,-0000.247,+0000.085,-0000.247,+0000.085,-0000.247,+0000.070,-0000.247,+0000.055,-0000.247,+0000.055,-0000.247,+0000.046,-0000.247,+0000.046,-0000.212,+0000.046,-0000.212,+0000.046,-0000.192,+0000.064,-0000.192,+0000.064,-0000.226,+0000.075,-0000.226,+0000.085,-0000.226,+0000.095,-0000.226,+0000.108,-0000.226,+0000.108,-0000.226,+0000.111,-0000.226" />
<polygon id="528" points="+0000.198,-0000.069,+0000.144,-0000.069,+0000.113,-0000.069,+0000.113,-0000.048,+0000.140,-0000.048,+0000.141,-0000.048,+0000.141,-0000.048,+0000.148,-0000.048,+0000.157,-0000.048,+0000.166,-0000.048,+0000.166,-0000.048,+0000.175,-0000.048,+0000.184,-0000.048,+0000.193,-0000.048,+0000.197,-0000.048,+0000.197,-0000.065,+0000.198,-0000.065" />
<polygon id="529" points="+0000.198,+0000.004,+0000.311,+0000.005,+0000.311,-0000.048,+0000.254,-0000.048,+0000.254,-0000.048,+0000.254,-0000.048,+0000.238,-0000.048,+0000.238,-0000.048,+0000.212,-0000.048,+0000.212,-0000.048,+0000.203,-0000.048,+0000.198,-0000.048,+0000.198,-0000.046" />
<polygon id="530" points="+0000.141,+0000.004,+0000.197,+0000.004,+0000.197,-0000.048,+0000.193,-0000.048,+0000.184,-0000.048,+0000.175,-0000.048,+0000.166,-0000.048,+0000.166,-0000.048,+0000.157,-0000.048,+0000.148,-0000.048,+0000.141,-0000.048,+0000.141,-0000.047,+0000.141,-0000.012" />
<polygon id="531" points="+0000.226,-0000.299,+0000.071,-0000.299,+0000.071,-0000.293,+0000.071,-0000.284,+0000.071,-0000.275,+0000.070,-0000.247,+0000.085,-0000.247,+0000.085,-0000.247,+0000.212,-0000.247,+0000.212,-0000.247,+0000.223,-0000.247,+0000.226,-0000.247" />
<polygon id="532" points="+0000.311,+0000.005,+0000.347,+0000.005,+0000.347,-0000.006,+0000.347,-0000.008,+0000.348,-0000.008,+0000.354,-0000.009,+0000.354,-0000.010,+0000.354,-0000.046,+0000.354,-0000.047,+0000.311,-0000.047,+0000.311,-0000.046" />
<polygon id="533" points="+0000.107,-0000.005,+0000.112,-0000.010,+0000.112,-0000.048,+0000.046,-0000.048,+0000.046,-0000.056,+0000.045,-0000.056,+0000.045,-0000.070,+0000.009,-0000.070,-0000.004,-0000.070,-0000.004,-0000.013,+0000.001,-0000.001,+0000.013,+0000.004,+0000.112,+0000.004,+0000.112,+0000.000" />
<polygon id="534" points="+0000.326,-0000.285,+0000.326,-0000.295,+0000.326,-0000.299,+0000.312,-0000.299,+0000.312,-0000.295,+0000.313,-0000.295,+0000.312,-0000.247,+0000.326,-0000.247,+0000.326,-0000.248,+0000.326,-0000.265,+0000.326,-0000.265" />
<polygon id="535" points="+0000.426,-0000.168,+0000.440,-0000.282,+0000.441,-0000.287,+0000.427,-0000.287,+0000.420,-0000.287,+0000.419,-0000.287,+0000.419,-0000.288,+0000.419,-0000.299,+0000.369,-0000.299,+0000.369,-0000.292,+0000.369,-0000.283,+0000.369,-0000.274,+0000.369,-0000.248,+0000.369,-0000.246,+0000.370,-0000.244,+0000.370,-0000.183,+0000.370,-0000.183,+0000.370,-0000.168,+0000.388,-0000.168,+0000.424,-0000.168" />
<polygon id="536" points="+0000.000,-0000.183,+0000.005,-0000.188,+0000.010,-0000.183,+0000.046,-0000.183,+0000.046,-0000.191,+0000.046,-0000.192,+0000.046,-0000.194,+0000.046,-0000.212,+0000.046,-0000.212,+0000.046,-0000.247,+0000.055,-0000.247,+0000.055,-0000.247,+0000.070,-0000.247,+0000.071,-0000.275,+0000.071,-0000.284,+0000.071,-0000.293,+0000.071,-0000.299,+0000.014,-0000.300,+0000.002,-0000.295,-0000.003,-0000.283,-0000.003,-0000.183" />
<polygon id="537" points="+0000.005,-0000.178,+0000.000,-0000.183,-0000.003,-0000.183,-0000.003,-0000.112,+0000.000,-0000.112,+0000.005,-0000.117,+0000.010,-0000.112,+0000.018,-0000.112,+0000.044,-0000.112,+0000.045,-0000.112,+0000.045,-0000.111,+0000.045,-0000.101,+0000.045,-0000.089,+0000.063,-0000.089,+0000.063,-0000.097,+0000.063,-0000.098,+0000.065,-0000.098,+0000.083,-0000.098,+0000.086,-0000.098,+0000.090,-0000.098,+0000.099,-0000.098,+0000.107,-0000.098,+0000.107,-0000.102,+0000.107,-0000.112,+0000.107,-0000.122,+0000.107,-0000.132,+0000.107,-0000.163,+0000.107,-0000.183,+0000.064,-0000.183,+0000.064,-0000.192,+0000.046,-0000.192,+0000.046,-0000.183,+0000.010,-0000.183" />
<polygon id="538" points="+0000.005,-0000.107,+0000.000,-0000.112,-0000.003,-0000.112,-0000.004,-0000.070,+0000.009,-0000.070,+0000.045,-0000.070,+0000.045,-0000.088,+0000.045,-0000.091,+0000.045,-0000.101,+0000.045,-0000.112,+0000.018,-0000.112,+0000.010,-0000.112" />
<polygon id="539" points="+0000.326,-0000.295,+0000.326,-0000.285,+0000.326,-0000.265,+0000.326,-0000.265,+0000.326,-0000.246,+0000.369,-0000.246,+0000.369,-0000.274,+0000.369,-0000.283,+0000.369,-0000.292,+0000.369,-0000.299,+0000.326,-0000.299" />
<polygon id="540" points="+0000.298,-0000.299,+0000.227,-0000.299,+0000.227,-0000.247,+0000.241,-0000.247,+0000.241,-0000.247,+0000.283,-0000.247,+0000.283,-0000.247,+0000.298,-0000.247,+0000.298,-0000.274,+0000.298,-0000.283,+0000.298,-0000.292" />
<polygon id="541" points="+0000.405,-0000.111,+0000.415,-0000.111,+0000.419,-0000.111,+0000.426,-0000.168,+0000.388,-0000.168,+0000.370,-0000.168,+0000.370,-0000.154,+0000.370,-0000.154,+0000.370,-0000.112,+0000.388,-0000.111" />
<polygon id="542" points="+0000.382,-0000.036,+0000.383,-0000.039,+0000.376,-0000.047,+0000.371,-0000.047,+0000.368,-0000.047,+0000.365,-0000.047,+0000.354,-0000.047,+0000.354,-0000.009,+0000.369,-0000.013,+0000.381,-0000.020,+0000.382,-0000.020,+0000.392,-0000.029,+0000.393,-0000.030,+0000.390,-0000.032" />
<polygon id="543" points="+0000.383,-0000.039,+0000.392,-0000.036,+0000.390,-0000.032,+0000.393,-0000.030,+0000.393,-0000.030,+0000.403,-0000.041,+0000.409,-0000.055,+0000.414,-0000.069,+0000.415,-0000.083,+0000.419,-0000.111,+0000.415,-0000.111,+0000.405,-0000.111,+0000.388,-0000.111,+0000.370,-0000.112,+0000.370,-0000.047,+0000.376,-0000.047" />

</svg>