<!--
Created with Chapman Taylor Dynamo SVG exporter
byabear@chapmantaylor.com

Revit Source File:
C:\Users\KH5970\DC\ACCDocs\Engie Solutions\Tour Incity\Fichiers de projet\INCITY_EXP_ARC_ME_03112020.rvt

Date:
18/12/2023 16:10:12
-->

<svg xmlns="http://www.w3.org/2000/svg" class="gen-by-CTA-dyn-Synoptic-for-PowerBI" viewBox=" 1.0 -1.0 0.0 1.0 " transform="scale( 0.95 )">

<style>
polygon {
fill: gainsboro;
stroke: blue;
stroke-width: 0.0001px;
}
</style>

<polygon id="207" points="+0000.114,-0000.137,+0000.114,-0000.133,+0000.143,-0000.133,+0000.174,-0000.133,+0000.204,-0000.133,+0000.233,-0000.133,+0000.233,-0000.162,+0000.204,-0000.162,+0000.174,-0000.162,+0000.143,-0000.162,+0000.114,-0000.162,+0000.114,-0000.158" />
<polygon id="208" points="+0000.114,-0000.183,+0000.114,-0000.164,+0000.141,-0000.164,+0000.141,-0000.189,+0000.141,-0000.203,+0000.114,-0000.203" />
<polygon id="209" points="+0000.284,-0000.206,+0000.260,-0000.206,+0000.260,-0000.186,+0000.284,-0000.186,+0000.284,-0000.196" />
<polygon id="210" points="+0000.310,-0000.212,+0000.310,-0000.224,+0000.285,-0000.224,+0000.260,-0000.224,+0000.260,-0000.212,+0000.285,-0000.212,+0000.296,-0000.212" />
<polygon id="211" points="+0000.310,-0000.070,+0000.310,-0000.082,+0000.260,-0000.083,+0000.260,-0000.071" />
<polygon id="212" points="+0000.257,-0000.209,+0000.257,-0000.224,+0000.236,-0000.224,+0000.236,-0000.223,+0000.236,-0000.200,+0000.236,-0000.189,+0000.236,-0000.163,+0000.236,-0000.132,+0000.236,-0000.106,+0000.236,-0000.094,+0000.236,-0000.072,+0000.236,-0000.071,+0000.257,-0000.071,+0000.257,-0000.071,+0000.257,-0000.086,+0000.257,-0000.117,+0000.257,-0000.132,+0000.257,-0000.141,+0000.257,-0000.157,+0000.257,-0000.186" />
<polygon id="213" points="+0000.114,-0000.071,+0000.141,-0000.071,+0000.141,-0000.072,+0000.141,-0000.089,+0000.114,-0000.089" />
<polygon id="214" points="+0000.114,-0000.212,+0000.114,-0000.209,+0000.141,-0000.209,+0000.141,-0000.223,+0000.141,-0000.224,+0000.114,-0000.224" />
<polygon id="215" points="+0000.295,-0000.206,+0000.285,-0000.206,+0000.285,-0000.197,+0000.295,-0000.197" />
<polygon id="216" points="+0000.285,-0000.195,+0000.285,-0000.186,+0000.295,-0000.186,+0000.295,-0000.195" />
<polygon id="217" points="+0000.310,-0000.186,+0000.310,-0000.206,+0000.297,-0000.206,+0000.297,-0000.196,+0000.297,-0000.186,+0000.301,-0000.186" />
<polygon id="218" points="+0000.310,-0000.179,+0000.310,-0000.185,+0000.302,-0000.185,+0000.302,-0000.179" />
<polygon id="219" points="+0000.233,-0000.190,+0000.233,-0000.200,+0000.230,-0000.200,+0000.230,-0000.190" />
<polygon id="220" points="+0000.207,-0000.220,+0000.144,-0000.220,+0000.144,-0000.206,+0000.144,-0000.190,+0000.174,-0000.190,+0000.204,-0000.190,+0000.207,-0000.190" />
<polygon id="221" points="+0000.227,-0000.220,+0000.209,-0000.220,+0000.209,-0000.190,+0000.228,-0000.190,+0000.228,-0000.201,+0000.233,-0000.201,+0000.233,-0000.220" />
<polygon id="222" points="+0000.144,-0000.075,+0000.198,-0000.075,+0000.207,-0000.075,+0000.207,-0000.105,+0000.203,-0000.105,+0000.174,-0000.105,+0000.144,-0000.105,+0000.144,-0000.092" />
<polygon id="223" points="+0000.233,-0000.095,+0000.233,-0000.105,+0000.230,-0000.105,+0000.230,-0000.095" />
<polygon id="224" points="+0000.233,-0000.075,+0000.233,-0000.094,+0000.228,-0000.094,+0000.228,-0000.105,+0000.209,-0000.105,+0000.208,-0000.075" />
<polygon id="225" points="+0000.310,-0000.088,+0000.310,-0000.097,+0000.310,-0000.105,+0000.310,-0000.116,+0000.287,-0000.116,+0000.278,-0000.116,+0000.269,-0000.116,+0000.260,-0000.116,+0000.260,-0000.089" />
<polygon id="226" points="+0000.310,-0000.133,+0000.310,-0000.141,+0000.287,-0000.141,+0000.278,-0000.141,+0000.269,-0000.141,+0000.260,-0000.141,+0000.260,-0000.133,+0000.269,-0000.133,+0000.278,-0000.133,+0000.287,-0000.133" />
<polygon id="227" points="+0000.310,-0000.157,+0000.310,-0000.177,+0000.302,-0000.177,+0000.302,-0000.176,+0000.301,-0000.176,+0000.301,-0000.178,+0000.301,-0000.185,+0000.296,-0000.185,+0000.285,-0000.185,+0000.260,-0000.185,+0000.260,-0000.157,+0000.269,-0000.157,+0000.278,-0000.157,+0000.287,-0000.157" />
<polygon id="230" points="+0000.260,-0000.132,+0000.260,-0000.117,+0000.269,-0000.117,+0000.269,-0000.132" />
<polygon id="231" points="+0000.269,-0000.117,+0000.278,-0000.117,+0000.278,-0000.132,+0000.269,-0000.132" />
<polygon id="232" points="+0000.278,-0000.117,+0000.287,-0000.117,+0000.287,-0000.132,+0000.279,-0000.132" />
<polygon id="233" points="+0000.310,-0000.117,+0000.310,-0000.132,+0000.288,-0000.132,+0000.288,-0000.117" />
<polygon id="234" points="+0000.260,-0000.157,+0000.260,-0000.141,+0000.269,-0000.141,+0000.269,-0000.156" />
<polygon id="235" points="+0000.278,-0000.156,+0000.269,-0000.156,+0000.269,-0000.141,+0000.278,-0000.141" />
<polygon id="236" points="+0000.310,-0000.141,+0000.310,-0000.154,+0000.310,-0000.156,+0000.288,-0000.156,+0000.288,-0000.141" />
<polygon id="237" points="+0000.287,-0000.156,+0000.279,-0000.156,+0000.279,-0000.141,+0000.287,-0000.141" />
<polygon id="238" points="+0000.317,-0000.157,+0000.317,-0000.154,+0000.355,-0000.154,+0000.355,-0000.136,+0000.355,-0000.136,+0000.355,-0000.126,+0000.355,-0000.121,+0000.355,-0000.111,+0000.355,-0000.106,+0000.360,-0000.106,+0000.360,-0000.123,+0000.370,-0000.123,+0000.370,-0000.154,+0000.370,-0000.154,+0000.370,-0000.167,+0000.370,-0000.170,+0000.370,-0000.183,+0000.370,-0000.183,+0000.370,-0000.244,+0000.369,-0000.246,+0000.368,-0000.246,+0000.367,-0000.246,+0000.327,-0000.246,+0000.326,-0000.246,+0000.326,-0000.247,+0000.326,-0000.247,+0000.317,-0000.247,+0000.317,-0000.225,+0000.317,-0000.209,+0000.317,-0000.186,+0000.317,-0000.178" />
<polygon id="240" points="+0000.317,-0000.069,+0000.317,-0000.069,+0000.327,-0000.069,+0000.355,-0000.069,+0000.355,-0000.097,+0000.346,-0000.097,+0000.346,-0000.097,+0000.337,-0000.097,+0000.317,-0000.097,+0000.317,-0000.085" />
<polygon id="241" points="+0000.317,-0000.117,+0000.317,-0000.106,+0000.355,-0000.106,+0000.355,-0000.111,+0000.355,-0000.121,+0000.355,-0000.126,+0000.355,-0000.136,+0000.355,-0000.136,+0000.355,-0000.154,+0000.353,-0000.154,+0000.317,-0000.154,+0000.317,-0000.141,+0000.317,-0000.132" />
<polygon id="242" points="+0000.317,-0000.020,+0000.325,-0000.020,+0000.354,-0000.028,+0000.354,-0000.046,+0000.354,-0000.047,+0000.317,-0000.047,+0000.317,-0000.036" />
<polygon id="243" points="+0000.141,-0000.020,+0000.197,-0000.020,+0000.197,-0000.048,+0000.193,-0000.048,+0000.184,-0000.048,+0000.175,-0000.048,+0000.166,-0000.048,+0000.166,-0000.048,+0000.157,-0000.048,+0000.148,-0000.048,+0000.141,-0000.048,+0000.141,-0000.047,+0000.141,-0000.037" />
<polygon id="244" points="+0000.107,-0000.069,+0000.107,-0000.092,+0000.107,-0000.098,+0000.099,-0000.098,+0000.090,-0000.098,+0000.084,-0000.098,+0000.084,-0000.088,+0000.084,-0000.079,+0000.084,-0000.069,+0000.094,-0000.069" />
<polygon id="245" points="+0000.063,-0000.089,+0000.063,-0000.069,+0000.074,-0000.069,+0000.084,-0000.069,+0000.084,-0000.079,+0000.084,-0000.088,+0000.084,-0000.098,+0000.063,-0000.098" />
<polygon id="246" points="+0000.326,-0000.275,+0000.298,-0000.275,+0000.298,-0000.259,+0000.317,-0000.259,+0000.317,-0000.247,+0000.326,-0000.247,+0000.326,-0000.248,+0000.326,-0000.265,+0000.326,-0000.265" />
<polygon id="248" points="+0000.114,-0000.098,+0000.114,-0000.095,+0000.141,-0000.095,+0000.141,-0000.106,+0000.141,-0000.107,+0000.135,-0000.107,+0000.135,-0000.102,+0000.121,-0000.102,+0000.114,-0000.102" />
<polygon id="249" points="+0000.141,-0000.113,+0000.141,-0000.118,+0000.135,-0000.118,+0000.135,-0000.113" />
<polygon id="250" points="+0000.141,-0000.107,+0000.141,-0000.112,+0000.135,-0000.112,+0000.135,-0000.107" />
<polygon id="252" points="+0000.071,-0000.275,+0000.021,-0000.275,+0000.021,-0000.227,+0000.046,-0000.227,+0000.046,-0000.247,+0000.055,-0000.247,+0000.055,-0000.247,+0000.070,-0000.247" />
<polygon id="253" points="+0000.204,-0000.275,+0000.141,-0000.275,+0000.140,-0000.258,+0000.109,-0000.258,+0000.109,-0000.247,+0000.212,-0000.247,+0000.212,-0000.247,+0000.223,-0000.247,+0000.226,-0000.247,+0000.226,-0000.257,+0000.204,-0000.257" />
<polygon id="254" points="+0000.369,-0000.274,+0000.326,-0000.275,+0000.326,-0000.265,+0000.326,-0000.265,+0000.326,-0000.246,+0000.369,-0000.246" />
<polygon id="255" points="+0000.396,-0000.123,+0000.402,-0000.168,+0000.388,-0000.168,+0000.370,-0000.168,+0000.370,-0000.154,+0000.370,-0000.154,+0000.370,-0000.123" />
<polygon id="257" points="+0000.236,-0000.020,+0000.282,-0000.020,+0000.282,-0000.036,+0000.258,-0000.036,+0000.236,-0000.036" />
<polygon id="258" points="+0000.107,-0000.038,+0000.107,-0000.048,+0000.046,-0000.048,+0000.046,-0000.056,+0000.045,-0000.056,+0000.045,-0000.070,+0000.021,-0000.070,+0000.021,-0000.020,+0000.075,-0000.020,+0000.075,-0000.038" />
<polygon id="259" points="+0000.144,-0000.188,+0000.144,-0000.164,+0000.174,-0000.164,+0000.174,-0000.188" />
<polygon id="260" points="+0000.233,-0000.164,+0000.233,-0000.188,+0000.229,-0000.188,+0000.208,-0000.188,+0000.204,-0000.188,+0000.204,-0000.164" />
<polygon id="261" points="+0000.174,-0000.164,+0000.204,-0000.164,+0000.204,-0000.188,+0000.174,-0000.188" />
<polygon id="262" points="+0000.144,-0000.107,+0000.174,-0000.107,+0000.174,-0000.131,+0000.144,-0000.131,+0000.144,-0000.118,+0000.144,-0000.113" />
<polygon id="263" points="+0000.174,-0000.107,+0000.203,-0000.107,+0000.204,-0000.131,+0000.174,-0000.131" />
<polygon id="264" points="+0000.233,-0000.107,+0000.233,-0000.131,+0000.204,-0000.131,+0000.203,-0000.107,+0000.208,-0000.107,+0000.229,-0000.107" />
<polygon id="265" points="+0000.114,-0000.131,+0000.114,-0000.122,+0000.121,-0000.122,+0000.121,-0000.112,+0000.121,-0000.103,+0000.134,-0000.103,+0000.134,-0000.107,+0000.134,-0000.113,+0000.134,-0000.119,+0000.141,-0000.119,+0000.141,-0000.131" />
<polygon id="266" points="+0000.114,-0000.112,+0000.114,-0000.103,+0000.120,-0000.103,+0000.120,-0000.112" />
<polygon id="267" points="+0000.114,-0000.121,+0000.114,-0000.112,+0000.120,-0000.112,+0000.120,-0000.121" />
<polygon id="268" points="+0000.107,-0000.183,+0000.107,-0000.206,+0000.107,-0000.212,+0000.085,-0000.212,+0000.085,-0000.226,+0000.081,-0000.226,+0000.081,-0000.225,+0000.064,-0000.225,+0000.064,-0000.194,+0000.064,-0000.192,+0000.064,-0000.191,+0000.064,-0000.183,+0000.090,-0000.183,+0000.090,-0000.206,+0000.091,-0000.206,+0000.091,-0000.183" />
<polygon id="269" points="+0000.107,-0000.212,+0000.107,-0000.226,+0000.108,-0000.226,+0000.108,-0000.225,+0000.085,-0000.226,+0000.085,-0000.212" />
<polygon id="270" points="+0000.046,-0000.227,+0000.064,-0000.227,+0000.064,-0000.226,+0000.075,-0000.226,+0000.085,-0000.226,+0000.095,-0000.226,+0000.107,-0000.226,+0000.107,-0000.230,+0000.107,-0000.247,+0000.085,-0000.247,+0000.085,-0000.247,+0000.070,-0000.247,+0000.055,-0000.247,+0000.055,-0000.247,+0000.046,-0000.247" />
<polygon id="271" points="+0000.198,-0000.069,+0000.144,-0000.069,+0000.111,-0000.069,+0000.111,-0000.069,+0000.109,-0000.069,+0000.108,-0000.069,+0000.108,-0000.065,+0000.109,-0000.065,+0000.108,-0000.048,+0000.140,-0000.048,+0000.141,-0000.048,+0000.141,-0000.048,+0000.148,-0000.048,+0000.157,-0000.048,+0000.166,-0000.048,+0000.166,-0000.048,+0000.175,-0000.048,+0000.184,-0000.048,+0000.193,-0000.048,+0000.197,-0000.048,+0000.197,-0000.065,+0000.198,-0000.065" />
<polygon id="273" points="+0000.282,-0000.275,+0000.237,-0000.275,+0000.236,-0000.258,+0000.236,-0000.247,+0000.241,-0000.247,+0000.241,-0000.247,+0000.257,-0000.247,+0000.257,-0000.259,+0000.282,-0000.259" />
<polygon id="274" points="+0000.362,-0000.106,+0000.370,-0000.106,+0000.370,-0000.110,+0000.370,-0000.111,+0000.370,-0000.112,+0000.370,-0000.113,+0000.370,-0000.122,+0000.362,-0000.122" />
<polygon id="275" points="+0000.402,-0000.168,+0000.415,-0000.274,+0000.369,-0000.274,+0000.369,-0000.248,+0000.369,-0000.246,+0000.370,-0000.244,+0000.370,-0000.183,+0000.370,-0000.183,+0000.370,-0000.168,+0000.388,-0000.168" />
<polygon id="276" points="+0000.021,-0000.106,+0000.021,-0000.070,+0000.045,-0000.070,+0000.045,-0000.088,+0000.045,-0000.091,+0000.045,-0000.101,+0000.045,-0000.112,+0000.038,-0000.112,+0000.038,-0000.106" />
<polygon id="277" points="+0000.107,-0000.138,+0000.107,-0000.158,+0000.090,-0000.158,+0000.021,-0000.158,+0000.021,-0000.138,+0000.038,-0000.138" />
<polygon id="414" points="+0000.114,-0000.137,+0000.114,-0000.133,+0000.143,-0000.133,+0000.174,-0000.133,+0000.204,-0000.133,+0000.233,-0000.133,+0000.233,-0000.162,+0000.204,-0000.162,+0000.174,-0000.162,+0000.143,-0000.162,+0000.114,-0000.162,+0000.114,-0000.158" />
<polygon id="415" points="+0000.114,-0000.183,+0000.114,-0000.164,+0000.141,-0000.164,+0000.141,-0000.189,+0000.141,-0000.203,+0000.114,-0000.203" />
<polygon id="416" points="+0000.284,-0000.206,+0000.260,-0000.206,+0000.260,-0000.186,+0000.284,-0000.186,+0000.284,-0000.196" />
<polygon id="417" points="+0000.310,-0000.212,+0000.310,-0000.224,+0000.285,-0000.224,+0000.260,-0000.224,+0000.260,-0000.212,+0000.285,-0000.212,+0000.296,-0000.212" />
<polygon id="418" points="+0000.310,-0000.070,+0000.310,-0000.082,+0000.260,-0000.083,+0000.260,-0000.071" />
<polygon id="419" points="+0000.257,-0000.209,+0000.257,-0000.224,+0000.236,-0000.224,+0000.236,-0000.223,+0000.236,-0000.200,+0000.236,-0000.189,+0000.236,-0000.163,+0000.236,-0000.132,+0000.236,-0000.106,+0000.236,-0000.094,+0000.236,-0000.072,+0000.236,-0000.071,+0000.257,-0000.071,+0000.257,-0000.071,+0000.257,-0000.086,+0000.257,-0000.117,+0000.257,-0000.132,+0000.257,-0000.141,+0000.257,-0000.157,+0000.257,-0000.186" />
<polygon id="420" points="+0000.114,-0000.071,+0000.141,-0000.071,+0000.141,-0000.072,+0000.141,-0000.089,+0000.114,-0000.089" />
<polygon id="421" points="+0000.114,-0000.212,+0000.114,-0000.209,+0000.141,-0000.209,+0000.141,-0000.223,+0000.141,-0000.224,+0000.114,-0000.224" />
<polygon id="422" points="+0000.295,-0000.206,+0000.285,-0000.206,+0000.285,-0000.197,+0000.295,-0000.197" />
<polygon id="423" points="+0000.285,-0000.195,+0000.285,-0000.186,+0000.295,-0000.186,+0000.295,-0000.195" />
<polygon id="424" points="+0000.310,-0000.186,+0000.310,-0000.206,+0000.297,-0000.206,+0000.297,-0000.196,+0000.297,-0000.186,+0000.301,-0000.186" />
<polygon id="425" points="+0000.310,-0000.179,+0000.310,-0000.185,+0000.302,-0000.185,+0000.302,-0000.179" />
<polygon id="426" points="+0000.233,-0000.190,+0000.233,-0000.200,+0000.230,-0000.200,+0000.230,-0000.190" />
<polygon id="427" points="+0000.207,-0000.220,+0000.144,-0000.220,+0000.144,-0000.206,+0000.144,-0000.190,+0000.174,-0000.190,+0000.204,-0000.190,+0000.207,-0000.190" />
<polygon id="428" points="+0000.227,-0000.220,+0000.209,-0000.220,+0000.209,-0000.190,+0000.228,-0000.190,+0000.228,-0000.201,+0000.233,-0000.201,+0000.233,-0000.220" />
<polygon id="429" points="+0000.144,-0000.075,+0000.198,-0000.075,+0000.207,-0000.075,+0000.207,-0000.105,+0000.203,-0000.105,+0000.174,-0000.105,+0000.144,-0000.105,+0000.144,-0000.092" />
<polygon id="430" points="+0000.233,-0000.095,+0000.233,-0000.105,+0000.230,-0000.105,+0000.230,-0000.095" />
<polygon id="431" points="+0000.233,-0000.075,+0000.233,-0000.094,+0000.228,-0000.094,+0000.228,-0000.105,+0000.209,-0000.105,+0000.208,-0000.075" />
<polygon id="432" points="+0000.310,-0000.088,+0000.310,-0000.097,+0000.310,-0000.105,+0000.310,-0000.116,+0000.287,-0000.116,+0000.278,-0000.116,+0000.269,-0000.116,+0000.260,-0000.116,+0000.260,-0000.089" />
<polygon id="433" points="+0000.310,-0000.133,+0000.310,-0000.141,+0000.287,-0000.141,+0000.278,-0000.141,+0000.269,-0000.141,+0000.260,-0000.141,+0000.260,-0000.133,+0000.269,-0000.133,+0000.278,-0000.133,+0000.287,-0000.133" />
<polygon id="434" points="+0000.310,-0000.157,+0000.310,-0000.177,+0000.302,-0000.177,+0000.302,-0000.176,+0000.301,-0000.176,+0000.301,-0000.178,+0000.301,-0000.185,+0000.296,-0000.185,+0000.285,-0000.185,+0000.260,-0000.185,+0000.260,-0000.157,+0000.269,-0000.157,+0000.278,-0000.157,+0000.287,-0000.157" />
<polygon id="435" points="+0000.260,-0000.132,+0000.260,-0000.117,+0000.269,-0000.117,+0000.269,-0000.132" />
<polygon id="436" points="+0000.269,-0000.117,+0000.278,-0000.117,+0000.278,-0000.132,+0000.269,-0000.132" />
<polygon id="437" points="+0000.278,-0000.117,+0000.287,-0000.117,+0000.287,-0000.132,+0000.279,-0000.132" />
<polygon id="438" points="+0000.310,-0000.117,+0000.310,-0000.132,+0000.288,-0000.132,+0000.288,-0000.117" />
<polygon id="439" points="+0000.260,-0000.157,+0000.260,-0000.141,+0000.269,-0000.141,+0000.269,-0000.156" />
<polygon id="440" points="+0000.278,-0000.156,+0000.269,-0000.156,+0000.269,-0000.141,+0000.278,-0000.141" />
<polygon id="441" points="+0000.310,-0000.141,+0000.310,-0000.154,+0000.310,-0000.156,+0000.288,-0000.156,+0000.288,-0000.141" />
<polygon id="442" points="+0000.287,-0000.156,+0000.279,-0000.156,+0000.279,-0000.141,+0000.287,-0000.141" />
<polygon id="443" points="+0000.317,-0000.157,+0000.317,-0000.154,+0000.355,-0000.154,+0000.355,-0000.136,+0000.355,-0000.136,+0000.355,-0000.126,+0000.355,-0000.121,+0000.355,-0000.111,+0000.355,-0000.106,+0000.360,-0000.106,+0000.360,-0000.123,+0000.370,-0000.123,+0000.370,-0000.154,+0000.370,-0000.154,+0000.370,-0000.167,+0000.370,-0000.170,+0000.370,-0000.183,+0000.370,-0000.183,+0000.370,-0000.244,+0000.369,-0000.246,+0000.368,-0000.246,+0000.367,-0000.246,+0000.327,-0000.246,+0000.326,-0000.246,+0000.326,-0000.247,+0000.326,-0000.247,+0000.317,-0000.247,+0000.317,-0000.225,+0000.317,-0000.209,+0000.317,-0000.186,+0000.317,-0000.178" />
<polygon id="444" points="+0000.317,-0000.069,+0000.317,-0000.069,+0000.327,-0000.069,+0000.355,-0000.069,+0000.355,-0000.097,+0000.346,-0000.097,+0000.346,-0000.097,+0000.337,-0000.097,+0000.317,-0000.097,+0000.317,-0000.085" />
<polygon id="445" points="+0000.317,-0000.117,+0000.317,-0000.106,+0000.355,-0000.106,+0000.355,-0000.111,+0000.355,-0000.121,+0000.355,-0000.126,+0000.355,-0000.136,+0000.355,-0000.136,+0000.355,-0000.154,+0000.353,-0000.154,+0000.317,-0000.154,+0000.317,-0000.141,+0000.317,-0000.132" />
<polygon id="446" points="+0000.107,-0000.069,+0000.107,-0000.092,+0000.107,-0000.098,+0000.099,-0000.098,+0000.090,-0000.098,+0000.084,-0000.098,+0000.084,-0000.088,+0000.084,-0000.079,+0000.084,-0000.069,+0000.094,-0000.069" />
<polygon id="447" points="+0000.063,-0000.089,+0000.063,-0000.069,+0000.074,-0000.069,+0000.084,-0000.069,+0000.084,-0000.079,+0000.084,-0000.088,+0000.084,-0000.098,+0000.063,-0000.098" />
<polygon id="448" points="+0000.114,-0000.098,+0000.114,-0000.095,+0000.141,-0000.095,+0000.141,-0000.106,+0000.141,-0000.107,+0000.135,-0000.107,+0000.135,-0000.102,+0000.121,-0000.102,+0000.114,-0000.102" />
<polygon id="449" points="+0000.141,-0000.113,+0000.141,-0000.118,+0000.135,-0000.118,+0000.135,-0000.113" />
<polygon id="450" points="+0000.141,-0000.107,+0000.141,-0000.112,+0000.135,-0000.112,+0000.135,-0000.107" />
<polygon id="451" points="+0000.144,-0000.188,+0000.144,-0000.164,+0000.174,-0000.164,+0000.174,-0000.188" />
<polygon id="452" points="+0000.233,-0000.164,+0000.233,-0000.188,+0000.229,-0000.188,+0000.208,-0000.188,+0000.204,-0000.188,+0000.204,-0000.164" />
<polygon id="453" points="+0000.174,-0000.164,+0000.204,-0000.164,+0000.204,-0000.188,+0000.174,-0000.188" />
<polygon id="454" points="+0000.144,-0000.107,+0000.174,-0000.107,+0000.174,-0000.131,+0000.144,-0000.131,+0000.144,-0000.118,+0000.144,-0000.113" />
<polygon id="455" points="+0000.174,-0000.107,+0000.203,-0000.107,+0000.204,-0000.131,+0000.174,-0000.131" />
<polygon id="456" points="+0000.233,-0000.107,+0000.233,-0000.131,+0000.204,-0000.131,+0000.203,-0000.107,+0000.208,-0000.107,+0000.229,-0000.107" />
<polygon id="457" points="+0000.114,-0000.131,+0000.114,-0000.122,+0000.121,-0000.122,+0000.121,-0000.112,+0000.121,-0000.103,+0000.134,-0000.103,+0000.134,-0000.107,+0000.134,-0000.113,+0000.134,-0000.119,+0000.141,-0000.119,+0000.141,-0000.131" />
<polygon id="458" points="+0000.114,-0000.112,+0000.114,-0000.103,+0000.120,-0000.103,+0000.120,-0000.112" />
<polygon id="459" points="+0000.114,-0000.121,+0000.114,-0000.112,+0000.120,-0000.112,+0000.120,-0000.121" />
<polygon id="460" points="+0000.107,-0000.183,+0000.107,-0000.206,+0000.107,-0000.212,+0000.085,-0000.212,+0000.085,-0000.226,+0000.081,-0000.226,+0000.081,-0000.225,+0000.064,-0000.225,+0000.064,-0000.194,+0000.064,-0000.192,+0000.064,-0000.191,+0000.064,-0000.183,+0000.090,-0000.183,+0000.090,-0000.206,+0000.091,-0000.206,+0000.091,-0000.183" />
<polygon id="461" points="+0000.107,-0000.212,+0000.107,-0000.226,+0000.108,-0000.226,+0000.108,-0000.225,+0000.085,-0000.226,+0000.085,-0000.212" />
<polygon id="462" points="+0000.046,-0000.227,+0000.064,-0000.227,+0000.064,-0000.226,+0000.075,-0000.226,+0000.085,-0000.226,+0000.095,-0000.226,+0000.107,-0000.226,+0000.107,-0000.230,+0000.107,-0000.247,+0000.085,-0000.247,+0000.085,-0000.247,+0000.070,-0000.247,+0000.055,-0000.247,+0000.055,-0000.247,+0000.046,-0000.247" />
<polygon id="463" points="+0000.198,-0000.069,+0000.144,-0000.069,+0000.111,-0000.069,+0000.111,-0000.069,+0000.109,-0000.069,+0000.108,-0000.069,+0000.108,-0000.065,+0000.109,-0000.065,+0000.108,-0000.048,+0000.140,-0000.048,+0000.141,-0000.048,+0000.141,-0000.048,+0000.148,-0000.048,+0000.157,-0000.048,+0000.166,-0000.048,+0000.166,-0000.048,+0000.175,-0000.048,+0000.184,-0000.048,+0000.193,-0000.048,+0000.197,-0000.048,+0000.197,-0000.065,+0000.198,-0000.065" />
<polygon id="464" points="+0000.236,-0000.020,+0000.282,-0000.020,+0000.282,-0000.036,+0000.258,-0000.036,+0000.236,-0000.036" />
<polygon id="465" points="+0000.141,-0000.020,+0000.197,-0000.020,+0000.197,-0000.048,+0000.193,-0000.048,+0000.184,-0000.048,+0000.175,-0000.048,+0000.166,-0000.048,+0000.166,-0000.048,+0000.157,-0000.048,+0000.148,-0000.048,+0000.141,-0000.048,+0000.141,-0000.047,+0000.141,-0000.037" />
<polygon id="466" points="+0000.204,-0000.275,+0000.141,-0000.275,+0000.140,-0000.258,+0000.109,-0000.258,+0000.109,-0000.247,+0000.212,-0000.247,+0000.212,-0000.247,+0000.223,-0000.247,+0000.226,-0000.247,+0000.226,-0000.257,+0000.204,-0000.257" />
<polygon id="467" points="+0000.317,-0000.020,+0000.325,-0000.020,+0000.354,-0000.028,+0000.354,-0000.046,+0000.354,-0000.047,+0000.317,-0000.047,+0000.317,-0000.036" />
<polygon id="468" points="+0000.107,-0000.038,+0000.107,-0000.048,+0000.046,-0000.048,+0000.046,-0000.056,+0000.045,-0000.056,+0000.045,-0000.070,+0000.021,-0000.070,+0000.021,-0000.020,+0000.075,-0000.020,+0000.075,-0000.038" />
<polygon id="469" points="+0000.326,-0000.275,+0000.298,-0000.275,+0000.298,-0000.259,+0000.317,-0000.259,+0000.317,-0000.247,+0000.326,-0000.247,+0000.326,-0000.248,+0000.326,-0000.265,+0000.326,-0000.265" />
<polygon id="470" points="+0000.402,-0000.168,+0000.415,-0000.274,+0000.369,-0000.274,+0000.369,-0000.248,+0000.369,-0000.246,+0000.370,-0000.244,+0000.370,-0000.183,+0000.370,-0000.183,+0000.370,-0000.168,+0000.388,-0000.168" />
<polygon id="471" points="+0000.071,-0000.275,+0000.021,-0000.275,+0000.021,-0000.227,+0000.046,-0000.227,+0000.046,-0000.247,+0000.055,-0000.247,+0000.055,-0000.247,+0000.070,-0000.247" />
<polygon id="472" points="+0000.107,-0000.138,+0000.107,-0000.158,+0000.090,-0000.158,+0000.021,-0000.158,+0000.021,-0000.138,+0000.038,-0000.138" />
<polygon id="473" points="+0000.021,-0000.106,+0000.021,-0000.070,+0000.045,-0000.070,+0000.045,-0000.088,+0000.045,-0000.091,+0000.045,-0000.101,+0000.045,-0000.112,+0000.038,-0000.112,+0000.038,-0000.106" />
<polygon id="474" points="+0000.369,-0000.274,+0000.326,-0000.275,+0000.326,-0000.265,+0000.326,-0000.265,+0000.326,-0000.246,+0000.369,-0000.246" />
<polygon id="475" points="+0000.282,-0000.275,+0000.237,-0000.275,+0000.236,-0000.258,+0000.236,-0000.247,+0000.241,-0000.247,+0000.241,-0000.247,+0000.257,-0000.247,+0000.257,-0000.259,+0000.282,-0000.259" />
<polygon id="476" points="+0000.396,-0000.123,+0000.402,-0000.168,+0000.388,-0000.168,+0000.370,-0000.168,+0000.370,-0000.154,+0000.370,-0000.154,+0000.370,-0000.123" />
<polygon id="478" points="+0000.376,-0000.047,+0000.391,-0000.086,+0000.394,-0000.104,+0000.370,-0000.104,+0000.370,-0000.047,+0000.374,-0000.047" />

</svg>