<!--
Created with Chapman Taylor Dynamo SVG exporter
byabear@chapmantaylor.com

Revit Source File:
C:\Users\KH5970\DC\ACCDocs\Engie Solutions\Tour Incity\Fichiers de projet\INCITY_EXP_ARC_ME_03112020.rvt

Date:
18/12/2023 16:10:34
-->

<svg xmlns="http://www.w3.org/2000/svg" class="gen-by-CTA-dyn-Synoptic-for-PowerBI" viewBox=" -1.0 -1.0 2.0 2.0 " transform="scale( 0.95 )">

<style>
polygon {
fill: gainsboro;
stroke: blue;
stroke-width: 0.0001px;
}
</style>

<polygon id="1064" points="+0000.114,-0000.162,+0000.114,-0000.133,+0000.143,-0000.133,+0000.174,-0000.133,+0000.204,-0000.133,+0000.233,-0000.133,+0000.233,-0000.162,+0000.204,-0000.162,+0000.174,-0000.162,+0000.143,-0000.162" />
<polygon id="1065" points="+0000.114,-0000.183,+0000.114,-0000.164,+0000.141,-0000.164,+0000.141,-0000.189,+0000.141,-0000.203,+0000.114,-0000.203" />
<polygon id="1066" points="+0000.284,-0000.206,+0000.260,-0000.206,+0000.260,-0000.186,+0000.284,-0000.186,+0000.284,-0000.196" />
<polygon id="1067" points="+0000.310,-0000.212,+0000.310,-0000.224,+0000.260,-0000.224,+0000.260,-0000.212,+0000.285,-0000.212,+0000.296,-0000.212" />
<polygon id="1068" points="+0000.310,-0000.070,+0000.310,-0000.082,+0000.260,-0000.083,+0000.260,-0000.071" />
<polygon id="1069" points="+0000.257,-0000.209,+0000.257,-0000.224,+0000.237,-0000.224,+0000.236,-0000.224,+0000.236,-0000.223,+0000.236,-0000.200,+0000.236,-0000.189,+0000.236,-0000.163,+0000.236,-0000.132,+0000.236,-0000.106,+0000.236,-0000.094,+0000.236,-0000.072,+0000.236,-0000.071,+0000.257,-0000.071,+0000.257,-0000.086,+0000.257,-0000.117,+0000.257,-0000.132,+0000.257,-0000.141,+0000.257,-0000.157,+0000.257,-0000.186" />
<polygon id="1070" points="+0000.114,-0000.071,+0000.141,-0000.071,+0000.141,-0000.072,+0000.141,-0000.089,+0000.114,-0000.089" />
<polygon id="1071" points="+0000.114,-0000.212,+0000.114,-0000.209,+0000.141,-0000.209,+0000.141,-0000.223,+0000.141,-0000.224,+0000.114,-0000.224" />
<polygon id="1072" points="+0000.295,-0000.206,+0000.285,-0000.206,+0000.285,-0000.197,+0000.295,-0000.197" />
<polygon id="1073" points="+0000.285,-0000.195,+0000.285,-0000.186,+0000.295,-0000.186,+0000.295,-0000.195" />
<polygon id="1074" points="+0000.310,-0000.186,+0000.310,-0000.206,+0000.297,-0000.206,+0000.297,-0000.196,+0000.297,-0000.186,+0000.301,-0000.186" />
<polygon id="1075" points="+0000.310,-0000.179,+0000.310,-0000.185,+0000.302,-0000.185,+0000.302,-0000.179" />
<polygon id="1076" points="+0000.233,-0000.190,+0000.233,-0000.200,+0000.230,-0000.200,+0000.230,-0000.190" />
<polygon id="1077" points="+0000.207,-0000.220,+0000.144,-0000.220,+0000.144,-0000.206,+0000.144,-0000.190,+0000.174,-0000.190,+0000.204,-0000.190,+0000.207,-0000.190" />
<polygon id="1078" points="+0000.227,-0000.220,+0000.209,-0000.220,+0000.209,-0000.190,+0000.228,-0000.190,+0000.228,-0000.201,+0000.233,-0000.201,+0000.233,-0000.220" />
<polygon id="1079" points="+0000.144,-0000.075,+0000.198,-0000.075,+0000.207,-0000.075,+0000.207,-0000.105,+0000.203,-0000.105,+0000.174,-0000.105,+0000.144,-0000.105,+0000.144,-0000.092" />
<polygon id="1080" points="+0000.233,-0000.095,+0000.233,-0000.105,+0000.230,-0000.105,+0000.230,-0000.095" />
<polygon id="1081" points="+0000.208,-0000.075,+0000.233,-0000.075,+0000.233,-0000.094,+0000.228,-0000.094,+0000.228,-0000.105,+0000.209,-0000.105" />
<polygon id="1082" points="+0000.310,-0000.088,+0000.310,-0000.097,+0000.310,-0000.116,+0000.287,-0000.116,+0000.278,-0000.116,+0000.269,-0000.116,+0000.260,-0000.116,+0000.260,-0000.089" />
<polygon id="1083" points="+0000.310,-0000.133,+0000.310,-0000.141,+0000.287,-0000.141,+0000.278,-0000.141,+0000.269,-0000.141,+0000.260,-0000.141,+0000.260,-0000.133,+0000.269,-0000.133,+0000.278,-0000.133,+0000.287,-0000.133" />
<polygon id="1084" points="+0000.310,-0000.157,+0000.310,-0000.177,+0000.302,-0000.177,+0000.302,-0000.176,+0000.301,-0000.176,+0000.301,-0000.178,+0000.301,-0000.185,+0000.296,-0000.185,+0000.285,-0000.185,+0000.260,-0000.185,+0000.260,-0000.157,+0000.269,-0000.157,+0000.278,-0000.157,+0000.287,-0000.157" />
<polygon id="1085" points="+0000.260,-0000.132,+0000.260,-0000.117,+0000.269,-0000.117,+0000.269,-0000.132" />
<polygon id="1086" points="+0000.269,-0000.117,+0000.278,-0000.117,+0000.278,-0000.132,+0000.269,-0000.132" />
<polygon id="1087" points="+0000.287,-0000.117,+0000.287,-0000.132,+0000.279,-0000.132,+0000.278,-0000.117" />
<polygon id="1088" points="+0000.310,-0000.117,+0000.310,-0000.132,+0000.288,-0000.132,+0000.288,-0000.117" />
<polygon id="1089" points="+0000.260,-0000.157,+0000.260,-0000.141,+0000.269,-0000.141,+0000.269,-0000.156" />
<polygon id="1090" points="+0000.278,-0000.156,+0000.269,-0000.156,+0000.269,-0000.141,+0000.278,-0000.141" />
<polygon id="1091" points="+0000.310,-0000.141,+0000.310,-0000.154,+0000.310,-0000.156,+0000.288,-0000.156,+0000.288,-0000.141" />
<polygon id="1092" points="+0000.287,-0000.141,+0000.287,-0000.156,+0000.279,-0000.156,+0000.279,-0000.141" />
<polygon id="1093" points="+0000.317,-0000.157,+0000.317,-0000.154,+0000.355,-0000.154,+0000.355,-0000.136,+0000.355,-0000.136,+0000.355,-0000.126,+0000.355,-0000.121,+0000.355,-0000.111,+0000.355,-0000.097,+0000.355,-0000.097,+0000.355,-0000.096,+0000.355,-0000.069,+0000.327,-0000.069,+0000.315,-0000.069,+0000.314,-0000.069,+0000.314,-0000.068,+0000.259,-0000.069,+0000.236,-0000.069,+0000.233,-0000.069,+0000.208,-0000.069,+0000.198,-0000.069,+0000.198,-0000.065,+0000.198,-0000.065,+0000.198,-0000.049,+0000.198,-0000.048,+0000.203,-0000.048,+0000.212,-0000.048,+0000.212,-0000.048,+0000.238,-0000.048,+0000.238,-0000.048,+0000.254,-0000.048,+0000.254,-0000.048,+0000.254,-0000.048,+0000.310,-0000.048,+0000.311,-0000.048,+0000.311,-0000.047,+0000.353,-0000.047,+0000.355,-0000.047,+0000.355,-0000.047,+0000.365,-0000.047,+0000.370,-0000.047,+0000.370,-0000.110,+0000.370,-0000.111,+0000.370,-0000.112,+0000.370,-0000.113,+0000.370,-0000.154,+0000.370,-0000.154,+0000.370,-0000.167,+0000.370,-0000.170,+0000.370,-0000.183,+0000.370,-0000.183,+0000.370,-0000.244,+0000.369,-0000.246,+0000.368,-0000.246,+0000.367,-0000.246,+0000.327,-0000.246,+0000.326,-0000.246,+0000.326,-0000.247,+0000.326,-0000.247,+0000.312,-0000.247,+0000.312,-0000.226,+0000.317,-0000.226,+0000.317,-0000.225,+0000.317,-0000.225,+0000.317,-0000.209,+0000.317,-0000.186,+0000.317,-0000.178" />
<polygon id="1094" points="+0000.317,-0000.085,+0000.317,-0000.069,+0000.327,-0000.069,+0000.355,-0000.069,+0000.355,-0000.097,+0000.346,-0000.097,+0000.346,-0000.097,+0000.337,-0000.097,+0000.317,-0000.097" />
<polygon id="1095" points="+0000.317,-0000.117,+0000.317,-0000.097,+0000.337,-0000.097,+0000.346,-0000.097,+0000.346,-0000.097,+0000.353,-0000.097,+0000.355,-0000.097,+0000.355,-0000.111,+0000.355,-0000.121,+0000.355,-0000.126,+0000.355,-0000.136,+0000.355,-0000.136,+0000.355,-0000.154,+0000.353,-0000.154,+0000.317,-0000.154,+0000.317,-0000.141,+0000.317,-0000.132" />
<polygon id="1096" points="+0000.107,-0000.069,+0000.107,-0000.092,+0000.107,-0000.098,+0000.099,-0000.098,+0000.090,-0000.098,+0000.084,-0000.098,+0000.084,-0000.088,+0000.084,-0000.079,+0000.084,-0000.069,+0000.094,-0000.069" />
<polygon id="1097" points="+0000.063,-0000.089,+0000.063,-0000.069,+0000.074,-0000.069,+0000.084,-0000.069,+0000.084,-0000.079,+0000.084,-0000.088,+0000.084,-0000.098,+0000.063,-0000.098" />
<polygon id="1098" points="+0000.114,-0000.098,+0000.114,-0000.095,+0000.141,-0000.095,+0000.141,-0000.106,+0000.141,-0000.107,+0000.135,-0000.107,+0000.135,-0000.102,+0000.121,-0000.102,+0000.114,-0000.102" />
<polygon id="1099" points="+0000.141,-0000.113,+0000.141,-0000.118,+0000.135,-0000.118,+0000.135,-0000.113" />
<polygon id="1100" points="+0000.141,-0000.107,+0000.141,-0000.112,+0000.135,-0000.112,+0000.135,-0000.107" />
<polygon id="1101" points="+0000.144,-0000.188,+0000.144,-0000.164,+0000.174,-0000.164,+0000.174,-0000.188" />
<polygon id="1102" points="+0000.233,-0000.164,+0000.233,-0000.188,+0000.229,-0000.188,+0000.208,-0000.188,+0000.204,-0000.188,+0000.204,-0000.164" />
<polygon id="1103" points="+0000.174,-0000.164,+0000.204,-0000.164,+0000.204,-0000.188,+0000.174,-0000.188" />
<polygon id="1104" points="+0000.144,-0000.107,+0000.174,-0000.107,+0000.174,-0000.131,+0000.144,-0000.131,+0000.144,-0000.118,+0000.144,-0000.113" />
<polygon id="1105" points="+0000.174,-0000.107,+0000.203,-0000.107,+0000.204,-0000.131,+0000.174,-0000.131" />
<polygon id="1106" points="+0000.233,-0000.107,+0000.233,-0000.131,+0000.204,-0000.131,+0000.203,-0000.107,+0000.208,-0000.107,+0000.229,-0000.107" />
<polygon id="1107" points="+0000.114,-0000.131,+0000.114,-0000.122,+0000.121,-0000.122,+0000.121,-0000.112,+0000.121,-0000.103,+0000.134,-0000.103,+0000.134,-0000.107,+0000.134,-0000.113,+0000.134,-0000.119,+0000.141,-0000.119,+0000.141,-0000.131" />
<polygon id="1108" points="+0000.114,-0000.112,+0000.114,-0000.103,+0000.120,-0000.103,+0000.120,-0000.112" />
<polygon id="1109" points="+0000.114,-0000.121,+0000.114,-0000.112,+0000.120,-0000.112,+0000.120,-0000.121" />
<polygon id="1110" points="+0000.107,-0000.183,+0000.107,-0000.206,+0000.107,-0000.212,+0000.085,-0000.212,+0000.085,-0000.226,+0000.075,-0000.226,+0000.075,-0000.226,+0000.064,-0000.226,+0000.064,-0000.194,+0000.064,-0000.192,+0000.064,-0000.191,+0000.064,-0000.183" />
<polygon id="1111" points="+0000.107,-0000.212,+0000.107,-0000.226,+0000.108,-0000.226,+0000.108,-0000.225,+0000.085,-0000.226,+0000.085,-0000.212" />
<polygon id="1112" points="+0000.144,-0000.226,+0000.208,-0000.226,+0000.226,-0000.226,+0000.226,-0000.247,+0000.223,-0000.247,+0000.212,-0000.247,+0000.212,-0000.247,+0000.085,-0000.247,+0000.085,-0000.247,+0000.070,-0000.247,+0000.055,-0000.247,+0000.055,-0000.247,+0000.046,-0000.247,+0000.046,-0000.212,+0000.046,-0000.212,+0000.046,-0000.192,+0000.064,-0000.192,+0000.064,-0000.226,+0000.075,-0000.226,+0000.085,-0000.226,+0000.095,-0000.226,+0000.108,-0000.226,+0000.108,-0000.226,+0000.111,-0000.226" />
<polygon id="1113" points="+0000.198,-0000.069,+0000.144,-0000.069,+0000.113,-0000.069,+0000.113,-0000.048,+0000.140,-0000.048,+0000.141,-0000.048,+0000.141,-0000.048,+0000.148,-0000.048,+0000.157,-0000.048,+0000.166,-0000.048,+0000.166,-0000.048,+0000.175,-0000.048,+0000.184,-0000.048,+0000.193,-0000.048,+0000.197,-0000.048,+0000.197,-0000.065,+0000.198,-0000.065" />
<polygon id="1114" points="+0000.198,+0000.004,+0000.311,+0000.005,+0000.311,-0000.048,+0000.254,-0000.048,+0000.254,-0000.048,+0000.254,-0000.048,+0000.238,-0000.048,+0000.238,-0000.048,+0000.212,-0000.048,+0000.212,-0000.048,+0000.203,-0000.048,+0000.198,-0000.048,+0000.198,-0000.046" />
<polygon id="1115" points="+0000.141,+0000.004,+0000.197,+0000.004,+0000.197,-0000.048,+0000.193,-0000.048,+0000.184,-0000.048,+0000.175,-0000.048,+0000.166,-0000.048,+0000.166,-0000.048,+0000.157,-0000.048,+0000.148,-0000.048,+0000.141,-0000.048,+0000.141,-0000.047,+0000.141,-0000.012" />
<polygon id="1116" points="+0000.226,-0000.299,+0000.071,-0000.299,+0000.071,-0000.293,+0000.071,-0000.284,+0000.071,-0000.275,+0000.070,-0000.247,+0000.085,-0000.247,+0000.085,-0000.247,+0000.212,-0000.247,+0000.212,-0000.247,+0000.223,-0000.247,+0000.226,-0000.247" />
<polygon id="1117" points="+0000.311,+0000.005,+0000.347,+0000.005,+0000.347,-0000.006,+0000.347,-0000.008,+0000.348,-0000.008,+0000.354,-0000.009,+0000.354,-0000.010,+0000.354,-0000.046,+0000.354,-0000.047,+0000.311,-0000.047,+0000.311,-0000.046" />
<polygon id="1118" points="+0000.107,-0000.005,+0000.112,-0000.010,+0000.112,-0000.048,+0000.046,-0000.048,+0000.046,-0000.056,+0000.045,-0000.056,+0000.045,-0000.070,+0000.009,-0000.070,-0000.004,-0000.070,-0000.004,-0000.013,+0000.001,-0000.001,+0000.013,+0000.004,+0000.112,+0000.004,+0000.112,+0000.000" />
<polygon id="1119" points="+0000.326,-0000.285,+0000.326,-0000.295,+0000.326,-0000.299,+0000.312,-0000.299,+0000.312,-0000.295,+0000.313,-0000.295,+0000.312,-0000.247,+0000.326,-0000.247,+0000.326,-0000.248,+0000.326,-0000.265,+0000.326,-0000.265" />
<polygon id="1120" points="+0000.419,-0000.299,+0000.369,-0000.299,+0000.369,-0000.292,+0000.369,-0000.283,+0000.369,-0000.274,+0000.369,-0000.248,+0000.369,-0000.246,+0000.370,-0000.244,+0000.370,-0000.183,+0000.370,-0000.183,+0000.370,-0000.168,+0000.388,-0000.168,+0000.424,-0000.168,+0000.426,-0000.168,+0000.440,-0000.282,+0000.441,-0000.287,+0000.427,-0000.287,+0000.420,-0000.287,+0000.419,-0000.287,+0000.419,-0000.288" />
<polygon id="1121" points="+0000.000,-0000.183,+0000.005,-0000.188,+0000.010,-0000.183,+0000.046,-0000.183,+0000.046,-0000.191,+0000.046,-0000.192,+0000.046,-0000.194,+0000.046,-0000.212,+0000.046,-0000.212,+0000.046,-0000.247,+0000.055,-0000.247,+0000.055,-0000.247,+0000.070,-0000.247,+0000.071,-0000.275,+0000.071,-0000.284,+0000.071,-0000.293,+0000.071,-0000.299,+0000.014,-0000.300,+0000.002,-0000.295,-0000.003,-0000.283,-0000.003,-0000.183" />
<polygon id="1122" points="+0000.005,-0000.178,+0000.000,-0000.183,-0000.003,-0000.183,-0000.003,-0000.112,+0000.000,-0000.112,+0000.005,-0000.117,+0000.010,-0000.112,+0000.018,-0000.112,+0000.044,-0000.112,+0000.045,-0000.112,+0000.045,-0000.111,+0000.045,-0000.101,+0000.045,-0000.089,+0000.063,-0000.089,+0000.063,-0000.097,+0000.063,-0000.098,+0000.065,-0000.098,+0000.083,-0000.098,+0000.086,-0000.098,+0000.090,-0000.098,+0000.099,-0000.098,+0000.107,-0000.098,+0000.107,-0000.102,+0000.107,-0000.112,+0000.107,-0000.122,+0000.107,-0000.132,+0000.107,-0000.163,+0000.107,-0000.183,+0000.064,-0000.183,+0000.064,-0000.192,+0000.046,-0000.192,+0000.046,-0000.183,+0000.010,-0000.183" />
<polygon id="1123" points="+0000.005,-0000.107,+0000.000,-0000.112,-0000.003,-0000.112,-0000.004,-0000.070,+0000.009,-0000.070,+0000.045,-0000.070,+0000.045,-0000.088,+0000.045,-0000.091,+0000.045,-0000.101,+0000.045,-0000.112,+0000.018,-0000.112,+0000.010,-0000.112" />
<polygon id="1124" points="+0000.326,-0000.295,+0000.326,-0000.285,+0000.326,-0000.265,+0000.326,-0000.265,+0000.326,-0000.246,+0000.369,-0000.246,+0000.369,-0000.274,+0000.369,-0000.283,+0000.369,-0000.292,+0000.369,-0000.299,+0000.326,-0000.299" />
<polygon id="1125" points="+0000.298,-0000.299,+0000.227,-0000.299,+0000.227,-0000.247,+0000.241,-0000.247,+0000.241,-0000.247,+0000.283,-0000.247,+0000.283,-0000.247,+0000.298,-0000.247,+0000.298,-0000.274,+0000.298,-0000.283,+0000.298,-0000.292" />
<polygon id="1126" points="+0000.405,-0000.111,+0000.415,-0000.111,+0000.419,-0000.111,+0000.426,-0000.168,+0000.388,-0000.168,+0000.370,-0000.168,+0000.370,-0000.154,+0000.370,-0000.154,+0000.370,-0000.112,+0000.388,-0000.111" />
<polygon id="1127" points="+0000.382,-0000.036,+0000.383,-0000.039,+0000.376,-0000.047,+0000.371,-0000.047,+0000.368,-0000.047,+0000.365,-0000.047,+0000.354,-0000.047,+0000.354,-0000.009,+0000.369,-0000.013,+0000.381,-0000.020,+0000.382,-0000.020,+0000.392,-0000.029,+0000.393,-0000.030,+0000.390,-0000.032" />
<polygon id="1128" points="+0000.383,-0000.039,+0000.392,-0000.036,+0000.390,-0000.032,+0000.393,-0000.030,+0000.393,-0000.030,+0000.403,-0000.041,+0000.409,-0000.055,+0000.414,-0000.069,+0000.415,-0000.083,+0000.419,-0000.111,+0000.415,-0000.111,+0000.405,-0000.111,+0000.388,-0000.111,+0000.370,-0000.112,+0000.370,-0000.047,+0000.376,-0000.047" />
<polygon id="917" points="+0000.114,-0000.162,+0000.114,-0000.133,+0000.143,-0000.133,+0000.174,-0000.133,+0000.204,-0000.133,+0000.233,-0000.133,+0000.233,-0000.162,+0000.204,-0000.162,+0000.174,-0000.162,+0000.143,-0000.162" />
<polygon id="918" points="+0000.114,-0000.183,+0000.114,-0000.164,+0000.141,-0000.164,+0000.141,-0000.189,+0000.141,-0000.203,+0000.114,-0000.203" />
<polygon id="919" points="+0000.284,-0000.206,+0000.260,-0000.206,+0000.260,-0000.186,+0000.284,-0000.186,+0000.284,-0000.196" />
<polygon id="920" points="+0000.310,-0000.212,+0000.310,-0000.224,+0000.260,-0000.224,+0000.260,-0000.212,+0000.285,-0000.212,+0000.296,-0000.212" />
<polygon id="921" points="+0000.310,-0000.070,+0000.310,-0000.082,+0000.260,-0000.083,+0000.260,-0000.071" />
<polygon id="922" points="+0000.257,-0000.209,+0000.257,-0000.224,+0000.237,-0000.224,+0000.236,-0000.224,+0000.236,-0000.223,+0000.236,-0000.200,+0000.236,-0000.189,+0000.236,-0000.163,+0000.236,-0000.132,+0000.236,-0000.106,+0000.236,-0000.094,+0000.236,-0000.072,+0000.236,-0000.071,+0000.257,-0000.071,+0000.257,-0000.086,+0000.257,-0000.117,+0000.257,-0000.132,+0000.257,-0000.141,+0000.257,-0000.157,+0000.257,-0000.186" />
<polygon id="923" points="+0000.114,-0000.071,+0000.141,-0000.071,+0000.141,-0000.072,+0000.141,-0000.089,+0000.114,-0000.089" />
<polygon id="924" points="+0000.114,-0000.212,+0000.114,-0000.209,+0000.141,-0000.209,+0000.141,-0000.223,+0000.141,-0000.224,+0000.114,-0000.224" />
<polygon id="925" points="+0000.295,-0000.206,+0000.285,-0000.206,+0000.285,-0000.197,+0000.295,-0000.197" />
<polygon id="926" points="+0000.285,-0000.195,+0000.285,-0000.186,+0000.295,-0000.186,+0000.295,-0000.195" />
<polygon id="927" points="+0000.310,-0000.186,+0000.310,-0000.206,+0000.297,-0000.206,+0000.297,-0000.196,+0000.297,-0000.186,+0000.301,-0000.186" />
<polygon id="928" points="+0000.310,-0000.179,+0000.310,-0000.185,+0000.302,-0000.185,+0000.302,-0000.179" />
<polygon id="929" points="+0000.233,-0000.190,+0000.233,-0000.200,+0000.230,-0000.200,+0000.230,-0000.190" />
<polygon id="930" points="+0000.207,-0000.220,+0000.144,-0000.220,+0000.144,-0000.206,+0000.144,-0000.190,+0000.174,-0000.190,+0000.204,-0000.190,+0000.207,-0000.190" />
<polygon id="931" points="+0000.227,-0000.220,+0000.209,-0000.220,+0000.209,-0000.190,+0000.228,-0000.190,+0000.228,-0000.201,+0000.233,-0000.201,+0000.233,-0000.220" />
<polygon id="932" points="+0000.144,-0000.075,+0000.198,-0000.075,+0000.207,-0000.075,+0000.207,-0000.105,+0000.203,-0000.105,+0000.174,-0000.105,+0000.144,-0000.105,+0000.144,-0000.092" />
<polygon id="933" points="+0000.233,-0000.095,+0000.233,-0000.105,+0000.230,-0000.105,+0000.230,-0000.095" />
<polygon id="934" points="+0000.208,-0000.075,+0000.233,-0000.075,+0000.233,-0000.094,+0000.228,-0000.094,+0000.228,-0000.105,+0000.209,-0000.105" />
<polygon id="935" points="+0000.310,-0000.088,+0000.310,-0000.097,+0000.310,-0000.116,+0000.287,-0000.116,+0000.278,-0000.116,+0000.269,-0000.116,+0000.260,-0000.116,+0000.260,-0000.089" />
<polygon id="936" points="+0000.310,-0000.133,+0000.310,-0000.141,+0000.287,-0000.141,+0000.278,-0000.141,+0000.269,-0000.141,+0000.260,-0000.141,+0000.260,-0000.133,+0000.269,-0000.133,+0000.278,-0000.133,+0000.287,-0000.133" />
<polygon id="937" points="+0000.310,-0000.157,+0000.310,-0000.177,+0000.302,-0000.177,+0000.302,-0000.176,+0000.301,-0000.176,+0000.301,-0000.178,+0000.301,-0000.185,+0000.296,-0000.185,+0000.285,-0000.185,+0000.260,-0000.185,+0000.260,-0000.157,+0000.269,-0000.157,+0000.278,-0000.157,+0000.287,-0000.157" />
<polygon id="940" points="+0000.260,-0000.132,+0000.260,-0000.117,+0000.269,-0000.117,+0000.269,-0000.132" />
<polygon id="941" points="+0000.269,-0000.117,+0000.278,-0000.117,+0000.278,-0000.132,+0000.269,-0000.132" />
<polygon id="942" points="+0000.287,-0000.117,+0000.287,-0000.132,+0000.279,-0000.132,+0000.278,-0000.117" />
<polygon id="943" points="+0000.310,-0000.117,+0000.310,-0000.132,+0000.288,-0000.132,+0000.288,-0000.117" />
<polygon id="944" points="+0000.260,-0000.157,+0000.260,-0000.141,+0000.269,-0000.141,+0000.269,-0000.156" />
<polygon id="945" points="+0000.278,-0000.156,+0000.269,-0000.156,+0000.269,-0000.141,+0000.278,-0000.141" />
<polygon id="946" points="+0000.310,-0000.141,+0000.310,-0000.154,+0000.310,-0000.156,+0000.288,-0000.156,+0000.288,-0000.141" />
<polygon id="947" points="+0000.287,-0000.141,+0000.287,-0000.156,+0000.279,-0000.156,+0000.279,-0000.141" />
<polygon id="948" points="+0000.317,-0000.157,+0000.317,-0000.154,+0000.355,-0000.154,+0000.355,-0000.136,+0000.355,-0000.136,+0000.355,-0000.126,+0000.355,-0000.121,+0000.355,-0000.111,+0000.355,-0000.097,+0000.355,-0000.097,+0000.355,-0000.096,+0000.355,-0000.069,+0000.327,-0000.069,+0000.315,-0000.069,+0000.314,-0000.069,+0000.314,-0000.068,+0000.259,-0000.069,+0000.236,-0000.069,+0000.233,-0000.069,+0000.208,-0000.069,+0000.198,-0000.069,+0000.198,-0000.065,+0000.198,-0000.065,+0000.198,-0000.049,+0000.198,-0000.048,+0000.203,-0000.048,+0000.212,-0000.048,+0000.212,-0000.048,+0000.238,-0000.048,+0000.238,-0000.048,+0000.254,-0000.048,+0000.254,-0000.048,+0000.254,-0000.048,+0000.310,-0000.048,+0000.311,-0000.048,+0000.311,-0000.047,+0000.353,-0000.047,+0000.355,-0000.047,+0000.355,-0000.047,+0000.365,-0000.047,+0000.370,-0000.047,+0000.370,-0000.110,+0000.370,-0000.111,+0000.370,-0000.112,+0000.370,-0000.113,+0000.370,-0000.154,+0000.370,-0000.154,+0000.370,-0000.167,+0000.370,-0000.170,+0000.370,-0000.183,+0000.370,-0000.183,+0000.370,-0000.244,+0000.369,-0000.246,+0000.368,-0000.246,+0000.367,-0000.246,+0000.327,-0000.246,+0000.326,-0000.246,+0000.326,-0000.247,+0000.326,-0000.247,+0000.312,-0000.247,+0000.312,-0000.226,+0000.317,-0000.226,+0000.317,-0000.225,+0000.317,-0000.225,+0000.317,-0000.209,+0000.317,-0000.186,+0000.317,-0000.178" />
<polygon id="950" points="+0000.317,-0000.085,+0000.317,-0000.069,+0000.327,-0000.069,+0000.355,-0000.069,+0000.355,-0000.097,+0000.346,-0000.097,+0000.346,-0000.097,+0000.337,-0000.097,+0000.317,-0000.097" />
<polygon id="951" points="+0000.317,-0000.117,+0000.317,-0000.097,+0000.337,-0000.097,+0000.346,-0000.097,+0000.346,-0000.097,+0000.353,-0000.097,+0000.355,-0000.097,+0000.355,-0000.111,+0000.355,-0000.121,+0000.355,-0000.126,+0000.355,-0000.136,+0000.355,-0000.136,+0000.355,-0000.154,+0000.353,-0000.154,+0000.317,-0000.154,+0000.317,-0000.141,+0000.317,-0000.132" />
<polygon id="952" points="+0000.311,+0000.005,+0000.347,+0000.005,+0000.347,-0000.006,+0000.347,-0000.008,+0000.348,-0000.008,+0000.354,-0000.009,+0000.354,-0000.010,+0000.354,-0000.046,+0000.354,-0000.047,+0000.311,-0000.047,+0000.311,-0000.046" />
<polygon id="953" points="+0000.141,+0000.004,+0000.197,+0000.004,+0000.197,-0000.048,+0000.193,-0000.048,+0000.184,-0000.048,+0000.175,-0000.048,+0000.166,-0000.048,+0000.166,-0000.048,+0000.157,-0000.048,+0000.148,-0000.048,+0000.141,-0000.048,+0000.141,-0000.047,+0000.141,-0000.012" />
<polygon id="954" points="+0000.107,-0000.069,+0000.107,-0000.092,+0000.107,-0000.098,+0000.099,-0000.098,+0000.090,-0000.098,+0000.084,-0000.098,+0000.084,-0000.088,+0000.084,-0000.079,+0000.084,-0000.069,+0000.094,-0000.069" />
<polygon id="955" points="+0000.063,-0000.089,+0000.063,-0000.069,+0000.074,-0000.069,+0000.084,-0000.069,+0000.084,-0000.079,+0000.084,-0000.088,+0000.084,-0000.098,+0000.063,-0000.098" />
<polygon id="956" points="+0000.326,-0000.285,+0000.326,-0000.295,+0000.326,-0000.299,+0000.312,-0000.299,+0000.312,-0000.295,+0000.313,-0000.295,+0000.312,-0000.247,+0000.326,-0000.247,+0000.326,-0000.248,+0000.326,-0000.265,+0000.326,-0000.265" />
<polygon id="957" points="+0000.382,-0000.036,+0000.383,-0000.039,+0000.376,-0000.047,+0000.371,-0000.047,+0000.368,-0000.047,+0000.365,-0000.047,+0000.354,-0000.047,+0000.354,-0000.009,+0000.369,-0000.013,+0000.381,-0000.020,+0000.382,-0000.020,+0000.392,-0000.029,+0000.393,-0000.030,+0000.390,-0000.032" />
<polygon id="958" points="+0000.114,-0000.098,+0000.114,-0000.095,+0000.141,-0000.095,+0000.141,-0000.106,+0000.141,-0000.107,+0000.135,-0000.107,+0000.135,-0000.102,+0000.121,-0000.102,+0000.114,-0000.102" />
<polygon id="959" points="+0000.141,-0000.113,+0000.141,-0000.118,+0000.135,-0000.118,+0000.135,-0000.113" />
<polygon id="960" points="+0000.141,-0000.107,+0000.141,-0000.112,+0000.135,-0000.112,+0000.135,-0000.107" />
<polygon id="962" points="+0000.000,-0000.183,+0000.005,-0000.188,+0000.010,-0000.183,+0000.046,-0000.183,+0000.046,-0000.191,+0000.046,-0000.192,+0000.046,-0000.194,+0000.046,-0000.212,+0000.046,-0000.212,+0000.046,-0000.247,+0000.055,-0000.247,+0000.055,-0000.247,+0000.070,-0000.247,+0000.071,-0000.275,+0000.071,-0000.284,+0000.071,-0000.293,+0000.071,-0000.299,+0000.014,-0000.300,+0000.002,-0000.295,-0000.003,-0000.283,-0000.003,-0000.183" />
<polygon id="963" points="+0000.226,-0000.299,+0000.071,-0000.299,+0000.071,-0000.293,+0000.071,-0000.284,+0000.071,-0000.275,+0000.070,-0000.247,+0000.085,-0000.247,+0000.085,-0000.247,+0000.212,-0000.247,+0000.212,-0000.247,+0000.223,-0000.247,+0000.226,-0000.247" />
<polygon id="964" points="+0000.326,-0000.295,+0000.326,-0000.285,+0000.326,-0000.265,+0000.326,-0000.265,+0000.326,-0000.246,+0000.369,-0000.246,+0000.369,-0000.274,+0000.369,-0000.283,+0000.369,-0000.292,+0000.369,-0000.299,+0000.326,-0000.299" />
<polygon id="965" points="+0000.405,-0000.111,+0000.415,-0000.111,+0000.419,-0000.111,+0000.426,-0000.168,+0000.388,-0000.168,+0000.370,-0000.168,+0000.370,-0000.154,+0000.370,-0000.154,+0000.370,-0000.112,+0000.388,-0000.111" />
<polygon id="966" points="+0000.383,-0000.039,+0000.392,-0000.036,+0000.390,-0000.032,+0000.393,-0000.030,+0000.393,-0000.030,+0000.403,-0000.041,+0000.409,-0000.055,+0000.414,-0000.069,+0000.415,-0000.083,+0000.419,-0000.111,+0000.415,-0000.111,+0000.405,-0000.111,+0000.388,-0000.111,+0000.370,-0000.112,+0000.370,-0000.047,+0000.376,-0000.047" />
<polygon id="967" points="+0000.198,+0000.004,+0000.311,+0000.005,+0000.311,-0000.048,+0000.254,-0000.048,+0000.254,-0000.048,+0000.254,-0000.048,+0000.238,-0000.048,+0000.238,-0000.048,+0000.212,-0000.048,+0000.212,-0000.048,+0000.203,-0000.048,+0000.198,-0000.048,+0000.198,-0000.046" />
<polygon id="968" points="+0000.107,-0000.005,+0000.112,-0000.010,+0000.112,-0000.048,+0000.046,-0000.048,+0000.046,-0000.056,+0000.045,-0000.056,+0000.045,-0000.070,+0000.009,-0000.070,-0000.004,-0000.070,-0000.004,-0000.013,+0000.001,-0000.001,+0000.013,+0000.004,+0000.112,+0000.004,+0000.112,+0000.000" />
<polygon id="969" points="+0000.144,-0000.188,+0000.144,-0000.164,+0000.174,-0000.164,+0000.174,-0000.188" />
<polygon id="970" points="+0000.233,-0000.164,+0000.233,-0000.188,+0000.229,-0000.188,+0000.208,-0000.188,+0000.204,-0000.188,+0000.204,-0000.164" />
<polygon id="971" points="+0000.174,-0000.164,+0000.204,-0000.164,+0000.204,-0000.188,+0000.174,-0000.188" />
<polygon id="972" points="+0000.144,-0000.107,+0000.174,-0000.107,+0000.174,-0000.131,+0000.144,-0000.131,+0000.144,-0000.118,+0000.144,-0000.113" />
<polygon id="973" points="+0000.174,-0000.107,+0000.203,-0000.107,+0000.204,-0000.131,+0000.174,-0000.131" />
<polygon id="974" points="+0000.233,-0000.107,+0000.233,-0000.131,+0000.204,-0000.131,+0000.203,-0000.107,+0000.208,-0000.107,+0000.229,-0000.107" />
<polygon id="975" points="+0000.114,-0000.131,+0000.114,-0000.122,+0000.121,-0000.122,+0000.121,-0000.112,+0000.121,-0000.103,+0000.134,-0000.103,+0000.134,-0000.107,+0000.134,-0000.113,+0000.134,-0000.119,+0000.141,-0000.119,+0000.141,-0000.131" />
<polygon id="976" points="+0000.114,-0000.112,+0000.114,-0000.103,+0000.120,-0000.103,+0000.120,-0000.112" />
<polygon id="977" points="+0000.114,-0000.121,+0000.114,-0000.112,+0000.120,-0000.112,+0000.120,-0000.121" />
<polygon id="978" points="+0000.107,-0000.183,+0000.107,-0000.206,+0000.107,-0000.212,+0000.085,-0000.212,+0000.085,-0000.226,+0000.075,-0000.226,+0000.075,-0000.226,+0000.064,-0000.226,+0000.064,-0000.194,+0000.064,-0000.192,+0000.064,-0000.191,+0000.064,-0000.183" />
<polygon id="979" points="+0000.107,-0000.212,+0000.107,-0000.226,+0000.108,-0000.226,+0000.108,-0000.225,+0000.085,-0000.226,+0000.085,-0000.212" />
<polygon id="980" points="+0000.144,-0000.226,+0000.208,-0000.226,+0000.226,-0000.226,+0000.226,-0000.247,+0000.223,-0000.247,+0000.212,-0000.247,+0000.212,-0000.247,+0000.085,-0000.247,+0000.085,-0000.247,+0000.070,-0000.247,+0000.055,-0000.247,+0000.055,-0000.247,+0000.046,-0000.247,+0000.046,-0000.212,+0000.046,-0000.212,+0000.046,-0000.192,+0000.064,-0000.192,+0000.064,-0000.226,+0000.075,-0000.226,+0000.085,-0000.226,+0000.095,-0000.226,+0000.108,-0000.226,+0000.108,-0000.226,+0000.111,-0000.226" />
<polygon id="981" points="+0000.198,-0000.069,+0000.144,-0000.069,+0000.113,-0000.069,+0000.113,-0000.048,+0000.140,-0000.048,+0000.141,-0000.048,+0000.141,-0000.048,+0000.148,-0000.048,+0000.157,-0000.048,+0000.166,-0000.048,+0000.166,-0000.048,+0000.175,-0000.048,+0000.184,-0000.048,+0000.193,-0000.048,+0000.197,-0000.048,+0000.197,-0000.065,+0000.198,-0000.065" />
<polygon id="983" points="+0000.298,-0000.299,+0000.227,-0000.299,+0000.227,-0000.247,+0000.241,-0000.247,+0000.241,-0000.247,+0000.283,-0000.247,+0000.283,-0000.247,+0000.298,-0000.247,+0000.298,-0000.274,+0000.298,-0000.283,+0000.298,-0000.292" />
<polygon id="985" points="+0000.419,-0000.299,+0000.369,-0000.299,+0000.369,-0000.292,+0000.369,-0000.283,+0000.369,-0000.274,+0000.369,-0000.248,+0000.369,-0000.246,+0000.370,-0000.244,+0000.370,-0000.183,+0000.370,-0000.183,+0000.370,-0000.168,+0000.388,-0000.168,+0000.424,-0000.168,+0000.426,-0000.168,+0000.440,-0000.282,+0000.441,-0000.287,+0000.427,-0000.287,+0000.420,-0000.287,+0000.419,-0000.287,+0000.419,-0000.288" />
<polygon id="986" points="+0000.005,-0000.107,+0000.000,-0000.112,-0000.003,-0000.112,-0000.004,-0000.070,+0000.009,-0000.070,+0000.045,-0000.070,+0000.045,-0000.088,+0000.045,-0000.091,+0000.045,-0000.101,+0000.045,-0000.112,+0000.018,-0000.112,+0000.010,-0000.112" />
<polygon id="987" points="+0000.005,-0000.178,+0000.000,-0000.183,-0000.003,-0000.183,-0000.003,-0000.112,+0000.000,-0000.112,+0000.005,-0000.117,+0000.010,-0000.112,+0000.018,-0000.112,+0000.044,-0000.112,+0000.045,-0000.112,+0000.045,-0000.111,+0000.045,-0000.101,+0000.045,-0000.089,+0000.063,-0000.089,+0000.063,-0000.097,+0000.063,-0000.098,+0000.065,-0000.098,+0000.083,-0000.098,+0000.086,-0000.098,+0000.090,-0000.098,+0000.099,-0000.098,+0000.107,-0000.098,+0000.107,-0000.102,+0000.107,-0000.112,+0000.107,-0000.122,+0000.107,-0000.132,+0000.107,-0000.163,+0000.107,-0000.183,+0000.064,-0000.183,+0000.064,-0000.192,+0000.046,-0000.192,+0000.046,-0000.183,+0000.010,-0000.183" />

</svg>