<!--
Created with Chapman Taylor Dynamo SVG exporter
byabear@chapmantaylor.com

Revit Source File:
C:\Users\KH5970\DC\ACCDocs\Engie Solutions\Tour Incity\Fichiers de projet\INCITY_EXP_ARC_ME_03112020.rvt

Date:
18/12/2023 16:10:42
-->

<svg xmlns="http://www.w3.org/2000/svg" class="gen-by-CTA-dyn-Synoptic-for-PowerBI" viewBox=" -1.0 -1.0 2.0 2.0 " transform="scale( 0.95 )">

<style>
polygon {
fill: gainsboro;
stroke: blue;
stroke-width: 0.0001px;
}
</style>

<polygon id="1272" points="+0000.114,-0000.162,+0000.114,-0000.133,+0000.143,-0000.133,+0000.174,-0000.133,+0000.204,-0000.133,+0000.233,-0000.133,+0000.233,-0000.162,+0000.204,-0000.162,+0000.174,-0000.162,+0000.143,-0000.162" />
<polygon id="1273" points="+0000.114,-0000.183,+0000.114,-0000.164,+0000.141,-0000.164,+0000.141,-0000.189,+0000.141,-0000.203,+0000.114,-0000.203" />
<polygon id="1274" points="+0000.284,-0000.206,+0000.260,-0000.206,+0000.260,-0000.186,+0000.284,-0000.186,+0000.284,-0000.196" />
<polygon id="1275" points="+0000.310,-0000.212,+0000.310,-0000.224,+0000.260,-0000.224,+0000.260,-0000.212,+0000.285,-0000.212,+0000.296,-0000.212" />
<polygon id="1276" points="+0000.310,-0000.070,+0000.310,-0000.082,+0000.260,-0000.083,+0000.260,-0000.071" />
<polygon id="1277" points="+0000.257,-0000.209,+0000.257,-0000.224,+0000.237,-0000.224,+0000.236,-0000.224,+0000.236,-0000.223,+0000.236,-0000.200,+0000.236,-0000.189,+0000.236,-0000.163,+0000.236,-0000.132,+0000.236,-0000.106,+0000.236,-0000.094,+0000.236,-0000.072,+0000.236,-0000.071,+0000.257,-0000.071,+0000.257,-0000.086,+0000.257,-0000.117,+0000.257,-0000.132,+0000.257,-0000.141,+0000.257,-0000.157,+0000.257,-0000.186" />
<polygon id="1278" points="+0000.114,-0000.071,+0000.141,-0000.071,+0000.141,-0000.072,+0000.141,-0000.089,+0000.114,-0000.089" />
<polygon id="1279" points="+0000.114,-0000.212,+0000.114,-0000.209,+0000.141,-0000.209,+0000.141,-0000.223,+0000.141,-0000.224,+0000.114,-0000.224,+0000.114,-0000.224" />
<polygon id="1280" points="+0000.295,-0000.206,+0000.285,-0000.206,+0000.285,-0000.197,+0000.295,-0000.197" />
<polygon id="1281" points="+0000.285,-0000.195,+0000.285,-0000.186,+0000.295,-0000.186,+0000.295,-0000.195" />
<polygon id="1282" points="+0000.310,-0000.186,+0000.310,-0000.206,+0000.297,-0000.206,+0000.297,-0000.196,+0000.297,-0000.186,+0000.301,-0000.186" />
<polygon id="1283" points="+0000.310,-0000.179,+0000.310,-0000.185,+0000.302,-0000.185,+0000.302,-0000.179" />
<polygon id="1284" points="+0000.233,-0000.190,+0000.233,-0000.200,+0000.230,-0000.200,+0000.230,-0000.190" />
<polygon id="1285" points="+0000.207,-0000.220,+0000.144,-0000.220,+0000.144,-0000.206,+0000.144,-0000.190,+0000.174,-0000.190,+0000.204,-0000.190,+0000.207,-0000.190" />
<polygon id="1286" points="+0000.227,-0000.220,+0000.209,-0000.220,+0000.209,-0000.190,+0000.228,-0000.190,+0000.228,-0000.201,+0000.233,-0000.201,+0000.233,-0000.220" />
<polygon id="1287" points="+0000.144,-0000.075,+0000.198,-0000.075,+0000.207,-0000.075,+0000.207,-0000.105,+0000.203,-0000.105,+0000.174,-0000.105,+0000.144,-0000.105,+0000.144,-0000.092" />
<polygon id="1288" points="+0000.233,-0000.095,+0000.233,-0000.105,+0000.230,-0000.105,+0000.230,-0000.095" />
<polygon id="1289" points="+0000.208,-0000.075,+0000.233,-0000.075,+0000.233,-0000.094,+0000.228,-0000.094,+0000.228,-0000.105,+0000.209,-0000.105" />
<polygon id="1290" points="+0000.310,-0000.088,+0000.310,-0000.097,+0000.310,-0000.116,+0000.287,-0000.116,+0000.278,-0000.116,+0000.269,-0000.116,+0000.260,-0000.116,+0000.260,-0000.089" />
<polygon id="1291" points="+0000.310,-0000.133,+0000.310,-0000.141,+0000.287,-0000.141,+0000.278,-0000.141,+0000.269,-0000.141,+0000.260,-0000.141,+0000.260,-0000.133,+0000.269,-0000.133,+0000.278,-0000.133,+0000.287,-0000.133" />
<polygon id="1292" points="+0000.310,-0000.157,+0000.310,-0000.177,+0000.302,-0000.177,+0000.302,-0000.176,+0000.301,-0000.176,+0000.301,-0000.178,+0000.301,-0000.185,+0000.296,-0000.185,+0000.285,-0000.185,+0000.260,-0000.185,+0000.260,-0000.157,+0000.269,-0000.157,+0000.278,-0000.157,+0000.287,-0000.157" />
<polygon id="1295" points="+0000.260,-0000.132,+0000.260,-0000.117,+0000.269,-0000.117,+0000.269,-0000.132" />
<polygon id="1296" points="+0000.269,-0000.117,+0000.278,-0000.117,+0000.278,-0000.132,+0000.269,-0000.132" />
<polygon id="1297" points="+0000.287,-0000.117,+0000.287,-0000.132,+0000.279,-0000.132,+0000.278,-0000.117" />
<polygon id="1298" points="+0000.310,-0000.117,+0000.310,-0000.132,+0000.288,-0000.132,+0000.288,-0000.117" />
<polygon id="1299" points="+0000.260,-0000.157,+0000.260,-0000.141,+0000.269,-0000.141,+0000.269,-0000.156" />
<polygon id="1300" points="+0000.278,-0000.156,+0000.269,-0000.156,+0000.269,-0000.141,+0000.278,-0000.141" />
<polygon id="1301" points="+0000.310,-0000.141,+0000.310,-0000.154,+0000.310,-0000.156,+0000.288,-0000.156,+0000.288,-0000.141" />
<polygon id="1302" points="+0000.287,-0000.141,+0000.287,-0000.156,+0000.279,-0000.156,+0000.279,-0000.141" />
<polygon id="1303" points="+0000.316,-0000.157,+0000.316,-0000.154,+0000.355,-0000.154,+0000.355,-0000.136,+0000.355,-0000.136,+0000.355,-0000.126,+0000.355,-0000.121,+0000.355,-0000.111,+0000.355,-0000.097,+0000.355,-0000.097,+0000.355,-0000.096,+0000.355,-0000.069,+0000.327,-0000.069,+0000.315,-0000.069,+0000.313,-0000.069,+0000.313,-0000.068,+0000.259,-0000.069,+0000.236,-0000.069,+0000.233,-0000.069,+0000.208,-0000.069,+0000.198,-0000.069,+0000.198,-0000.065,+0000.198,-0000.065,+0000.198,-0000.049,+0000.198,-0000.048,+0000.203,-0000.048,+0000.212,-0000.048,+0000.212,-0000.048,+0000.238,-0000.048,+0000.238,-0000.048,+0000.254,-0000.048,+0000.254,-0000.048,+0000.254,-0000.048,+0000.310,-0000.048,+0000.311,-0000.048,+0000.311,-0000.047,+0000.353,-0000.047,+0000.355,-0000.047,+0000.355,-0000.047,+0000.365,-0000.047,+0000.370,-0000.047,+0000.370,-0000.110,+0000.370,-0000.111,+0000.370,-0000.112,+0000.370,-0000.113,+0000.370,-0000.154,+0000.370,-0000.154,+0000.370,-0000.167,+0000.370,-0000.170,+0000.370,-0000.183,+0000.370,-0000.183,+0000.370,-0000.244,+0000.369,-0000.246,+0000.368,-0000.246,+0000.367,-0000.246,+0000.327,-0000.246,+0000.326,-0000.246,+0000.326,-0000.247,+0000.326,-0000.247,+0000.312,-0000.247,+0000.312,-0000.226,+0000.317,-0000.226,+0000.317,-0000.226,+0000.316,-0000.225,+0000.316,-0000.209,+0000.316,-0000.186,+0000.316,-0000.178" />
<polygon id="1305" points="+0000.316,-0000.085,+0000.316,-0000.069,+0000.327,-0000.069,+0000.355,-0000.069,+0000.355,-0000.097,+0000.346,-0000.097,+0000.346,-0000.097,+0000.337,-0000.097,+0000.316,-0000.097" />
<polygon id="1306" points="+0000.316,-0000.117,+0000.316,-0000.097,+0000.337,-0000.097,+0000.346,-0000.097,+0000.346,-0000.097,+0000.353,-0000.097,+0000.355,-0000.097,+0000.355,-0000.111,+0000.355,-0000.121,+0000.355,-0000.126,+0000.355,-0000.136,+0000.355,-0000.136,+0000.355,-0000.154,+0000.353,-0000.154,+0000.316,-0000.154,+0000.316,-0000.141,+0000.316,-0000.132" />
<polygon id="1307" points="+0000.311,+0000.005,+0000.347,+0000.005,+0000.347,-0000.006,+0000.347,-0000.008,+0000.348,-0000.008,+0000.354,-0000.009,+0000.354,-0000.010,+0000.354,-0000.046,+0000.354,-0000.047,+0000.311,-0000.047,+0000.311,-0000.046" />
<polygon id="1308" points="+0000.141,+0000.004,+0000.197,+0000.004,+0000.197,-0000.048,+0000.193,-0000.048,+0000.184,-0000.048,+0000.175,-0000.048,+0000.166,-0000.048,+0000.166,-0000.048,+0000.157,-0000.048,+0000.148,-0000.048,+0000.141,-0000.048,+0000.141,-0000.047,+0000.141,-0000.012" />
<polygon id="1309" points="+0000.108,-0000.069,+0000.108,-0000.092,+0000.108,-0000.098,+0000.099,-0000.098,+0000.090,-0000.098,+0000.084,-0000.098,+0000.084,-0000.088,+0000.084,-0000.079,+0000.084,-0000.069,+0000.094,-0000.069,+0000.107,-0000.069" />
<polygon id="1310" points="+0000.063,-0000.089,+0000.063,-0000.069,+0000.074,-0000.069,+0000.084,-0000.069,+0000.084,-0000.079,+0000.084,-0000.088,+0000.084,-0000.098,+0000.063,-0000.098" />
<polygon id="1311" points="+0000.326,-0000.287,+0000.326,-0000.295,+0000.326,-0000.299,+0000.312,-0000.299,+0000.312,-0000.295,+0000.313,-0000.295,+0000.312,-0000.247,+0000.326,-0000.247,+0000.326,-0000.248,+0000.326,-0000.265,+0000.326,-0000.265" />
<polygon id="1312" points="+0000.384,-0000.035,+0000.385,-0000.038,+0000.376,-0000.047,+0000.371,-0000.047,+0000.368,-0000.047,+0000.365,-0000.047,+0000.354,-0000.047,+0000.354,-0000.009,+0000.369,-0000.013,+0000.381,-0000.020,+0000.382,-0000.020,+0000.392,-0000.029,+0000.393,-0000.030,+0000.390,-0000.032" />
<polygon id="1313" points="+0000.114,-0000.098,+0000.114,-0000.095,+0000.141,-0000.095,+0000.141,-0000.106,+0000.141,-0000.107,+0000.135,-0000.107,+0000.135,-0000.102,+0000.121,-0000.102,+0000.114,-0000.102" />
<polygon id="1314" points="+0000.141,-0000.113,+0000.141,-0000.118,+0000.135,-0000.118,+0000.135,-0000.113" />
<polygon id="1315" points="+0000.141,-0000.107,+0000.141,-0000.112,+0000.135,-0000.112,+0000.135,-0000.107" />
<polygon id="1317" points="+0000.000,-0000.183,+0000.004,-0000.187,+0000.008,-0000.183,+0000.046,-0000.183,+0000.046,-0000.191,+0000.046,-0000.192,+0000.046,-0000.194,+0000.046,-0000.212,+0000.046,-0000.212,+0000.046,-0000.247,+0000.055,-0000.247,+0000.055,-0000.247,+0000.070,-0000.247,+0000.071,-0000.275,+0000.071,-0000.284,+0000.071,-0000.293,+0000.071,-0000.299,+0000.014,-0000.300,+0000.002,-0000.295,-0000.003,-0000.283,-0000.003,-0000.183" />
<polygon id="1318" points="+0000.226,-0000.299,+0000.071,-0000.299,+0000.071,-0000.293,+0000.071,-0000.284,+0000.071,-0000.275,+0000.070,-0000.247,+0000.085,-0000.247,+0000.085,-0000.247,+0000.212,-0000.247,+0000.212,-0000.247,+0000.223,-0000.247,+0000.226,-0000.247" />
<polygon id="1319" points="+0000.326,-0000.295,+0000.326,-0000.287,+0000.326,-0000.265,+0000.326,-0000.265,+0000.326,-0000.246,+0000.369,-0000.246,+0000.369,-0000.274,+0000.369,-0000.283,+0000.369,-0000.292,+0000.369,-0000.299,+0000.326,-0000.299" />
<polygon id="1320" points="+0000.407,-0000.111,+0000.415,-0000.111,+0000.419,-0000.111,+0000.426,-0000.168,+0000.388,-0000.168,+0000.370,-0000.168,+0000.370,-0000.154,+0000.370,-0000.154,+0000.370,-0000.112,+0000.388,-0000.111" />
<polygon id="1321" points="+0000.385,-0000.038,+0000.392,-0000.035,+0000.390,-0000.032,+0000.393,-0000.030,+0000.393,-0000.030,+0000.403,-0000.041,+0000.409,-0000.055,+0000.414,-0000.069,+0000.415,-0000.083,+0000.419,-0000.111,+0000.415,-0000.111,+0000.407,-0000.111,+0000.388,-0000.111,+0000.370,-0000.112,+0000.370,-0000.047,+0000.376,-0000.047" />
<polygon id="1322" points="+0000.198,+0000.004,+0000.311,+0000.005,+0000.311,-0000.048,+0000.254,-0000.048,+0000.254,-0000.048,+0000.254,-0000.048,+0000.238,-0000.048,+0000.238,-0000.048,+0000.212,-0000.048,+0000.212,-0000.048,+0000.203,-0000.048,+0000.198,-0000.048,+0000.198,-0000.046" />
<polygon id="1323" points="+0000.108,-0000.004,+0000.112,-0000.008,+0000.112,-0000.048,+0000.046,-0000.048,+0000.046,-0000.056,+0000.045,-0000.056,+0000.045,-0000.070,+0000.009,-0000.070,-0000.004,-0000.070,-0000.004,-0000.013,+0000.001,-0000.001,+0000.013,+0000.004,+0000.112,+0000.004,+0000.112,+0000.000,+0000.113,+0000.000,+0000.113,+0000.004,+0000.141,+0000.004,+0000.141,-0000.012,+0000.141,-0000.048,+0000.113,-0000.048,+0000.113,-0000.008,+0000.116,-0000.004" />
<polygon id="1324" points="+0000.144,-0000.188,+0000.144,-0000.164,+0000.174,-0000.164,+0000.174,-0000.188" />
<polygon id="1325" points="+0000.233,-0000.164,+0000.233,-0000.188,+0000.229,-0000.188,+0000.208,-0000.188,+0000.204,-0000.188,+0000.204,-0000.164" />
<polygon id="1326" points="+0000.174,-0000.164,+0000.204,-0000.164,+0000.204,-0000.188,+0000.174,-0000.188" />
<polygon id="1327" points="+0000.144,-0000.107,+0000.174,-0000.107,+0000.174,-0000.131,+0000.144,-0000.131,+0000.144,-0000.118,+0000.144,-0000.113" />
<polygon id="1328" points="+0000.174,-0000.107,+0000.203,-0000.107,+0000.204,-0000.131,+0000.174,-0000.131" />
<polygon id="1329" points="+0000.233,-0000.107,+0000.233,-0000.131,+0000.204,-0000.131,+0000.203,-0000.107,+0000.208,-0000.107,+0000.229,-0000.107" />
<polygon id="1330" points="+0000.114,-0000.131,+0000.114,-0000.122,+0000.121,-0000.122,+0000.121,-0000.112,+0000.121,-0000.103,+0000.134,-0000.103,+0000.134,-0000.107,+0000.134,-0000.113,+0000.134,-0000.119,+0000.141,-0000.119,+0000.141,-0000.131" />
<polygon id="1331" points="+0000.114,-0000.112,+0000.114,-0000.103,+0000.120,-0000.103,+0000.120,-0000.112" />
<polygon id="1332" points="+0000.114,-0000.121,+0000.114,-0000.112,+0000.120,-0000.112,+0000.120,-0000.121" />
<polygon id="1333" points="+0000.108,-0000.183,+0000.108,-0000.206,+0000.108,-0000.212,+0000.085,-0000.212,+0000.085,-0000.226,+0000.075,-0000.226,+0000.075,-0000.226,+0000.064,-0000.226,+0000.064,-0000.194,+0000.064,-0000.192,+0000.064,-0000.191,+0000.064,-0000.183" />
<polygon id="1334" points="+0000.108,-0000.212,+0000.108,-0000.226,+0000.085,-0000.226,+0000.085,-0000.212" />
<polygon id="1335" points="+0000.144,-0000.226,+0000.208,-0000.226,+0000.226,-0000.226,+0000.226,-0000.247,+0000.223,-0000.247,+0000.212,-0000.247,+0000.212,-0000.247,+0000.085,-0000.247,+0000.085,-0000.247,+0000.070,-0000.247,+0000.055,-0000.247,+0000.055,-0000.247,+0000.046,-0000.247,+0000.046,-0000.212,+0000.046,-0000.212,+0000.046,-0000.192,+0000.064,-0000.192,+0000.064,-0000.226,+0000.075,-0000.226,+0000.085,-0000.226,+0000.095,-0000.226,+0000.108,-0000.226,+0000.108,-0000.226,+0000.111,-0000.226" />
<polygon id="1336" points="+0000.198,-0000.069,+0000.144,-0000.069,+0000.113,-0000.069,+0000.113,-0000.048,+0000.140,-0000.048,+0000.141,-0000.048,+0000.141,-0000.048,+0000.148,-0000.048,+0000.157,-0000.048,+0000.166,-0000.048,+0000.166,-0000.048,+0000.175,-0000.048,+0000.184,-0000.048,+0000.193,-0000.048,+0000.197,-0000.048,+0000.197,-0000.065,+0000.198,-0000.065" />
<polygon id="1338" points="+0000.298,-0000.299,+0000.227,-0000.299,+0000.227,-0000.247,+0000.241,-0000.247,+0000.241,-0000.247,+0000.283,-0000.247,+0000.283,-0000.247,+0000.298,-0000.247,+0000.298,-0000.274,+0000.298,-0000.283,+0000.298,-0000.292" />
<polygon id="1340" points="+0000.426,-0000.168,+0000.440,-0000.282,+0000.441,-0000.287,+0000.427,-0000.287,+0000.420,-0000.287,+0000.419,-0000.287,+0000.419,-0000.288,+0000.419,-0000.299,+0000.369,-0000.299,+0000.369,-0000.292,+0000.369,-0000.283,+0000.369,-0000.274,+0000.369,-0000.248,+0000.369,-0000.246,+0000.370,-0000.244,+0000.370,-0000.183,+0000.370,-0000.183,+0000.370,-0000.168,+0000.388,-0000.168,+0000.424,-0000.168" />
<polygon id="1341" points="+0000.004,-0000.108,+0000.000,-0000.112,-0000.003,-0000.112,-0000.004,-0000.070,+0000.009,-0000.070,+0000.045,-0000.070,+0000.045,-0000.088,+0000.045,-0000.091,+0000.045,-0000.101,+0000.045,-0000.112,+0000.018,-0000.112,+0000.008,-0000.112" />
<polygon id="1342" points="+0000.004,-0000.179,+0000.000,-0000.183,-0000.003,-0000.183,-0000.003,-0000.112,+0000.000,-0000.112,+0000.004,-0000.116,+0000.008,-0000.112,+0000.018,-0000.112,+0000.044,-0000.112,+0000.045,-0000.112,+0000.045,-0000.111,+0000.045,-0000.101,+0000.045,-0000.089,+0000.063,-0000.089,+0000.063,-0000.097,+0000.063,-0000.098,+0000.065,-0000.098,+0000.083,-0000.098,+0000.086,-0000.098,+0000.090,-0000.098,+0000.099,-0000.098,+0000.108,-0000.098,+0000.108,-0000.102,+0000.108,-0000.112,+0000.108,-0000.122,+0000.108,-0000.132,+0000.108,-0000.163,+0000.108,-0000.183,+0000.064,-0000.183,+0000.064,-0000.192,+0000.046,-0000.192,+0000.046,-0000.183,+0000.008,-0000.183" />
<polygon id="1389" points="+0000.114,-0000.162,+0000.114,-0000.133,+0000.143,-0000.133,+0000.174,-0000.133,+0000.204,-0000.133,+0000.233,-0000.133,+0000.233,-0000.162,+0000.204,-0000.162,+0000.174,-0000.162,+0000.143,-0000.162" />
<polygon id="1390" points="+0000.114,-0000.183,+0000.114,-0000.164,+0000.141,-0000.164,+0000.141,-0000.189,+0000.141,-0000.203,+0000.114,-0000.203" />
<polygon id="1391" points="+0000.284,-0000.206,+0000.260,-0000.206,+0000.260,-0000.186,+0000.284,-0000.186,+0000.284,-0000.196" />
<polygon id="1392" points="+0000.310,-0000.212,+0000.310,-0000.224,+0000.260,-0000.224,+0000.260,-0000.212,+0000.285,-0000.212,+0000.296,-0000.212" />
<polygon id="1393" points="+0000.310,-0000.070,+0000.310,-0000.082,+0000.260,-0000.083,+0000.260,-0000.071" />
<polygon id="1394" points="+0000.257,-0000.209,+0000.257,-0000.224,+0000.237,-0000.224,+0000.236,-0000.224,+0000.236,-0000.223,+0000.236,-0000.200,+0000.236,-0000.189,+0000.236,-0000.163,+0000.236,-0000.132,+0000.236,-0000.106,+0000.236,-0000.094,+0000.236,-0000.072,+0000.236,-0000.071,+0000.257,-0000.071,+0000.257,-0000.086,+0000.257,-0000.117,+0000.257,-0000.132,+0000.257,-0000.141,+0000.257,-0000.157,+0000.257,-0000.186" />
<polygon id="1395" points="+0000.114,-0000.071,+0000.141,-0000.071,+0000.141,-0000.072,+0000.141,-0000.089,+0000.114,-0000.089" />
<polygon id="1396" points="+0000.114,-0000.212,+0000.114,-0000.209,+0000.141,-0000.209,+0000.141,-0000.223,+0000.141,-0000.224,+0000.114,-0000.224,+0000.114,-0000.224" />
<polygon id="1397" points="+0000.295,-0000.206,+0000.285,-0000.206,+0000.285,-0000.197,+0000.295,-0000.197" />
<polygon id="1398" points="+0000.285,-0000.195,+0000.285,-0000.186,+0000.295,-0000.186,+0000.295,-0000.195" />
<polygon id="1399" points="+0000.310,-0000.186,+0000.310,-0000.206,+0000.297,-0000.206,+0000.297,-0000.196,+0000.297,-0000.186,+0000.301,-0000.186" />
<polygon id="1400" points="+0000.310,-0000.179,+0000.310,-0000.185,+0000.302,-0000.185,+0000.302,-0000.179" />
<polygon id="1401" points="+0000.233,-0000.190,+0000.233,-0000.200,+0000.230,-0000.200,+0000.230,-0000.190" />
<polygon id="1402" points="+0000.207,-0000.220,+0000.144,-0000.220,+0000.144,-0000.206,+0000.144,-0000.190,+0000.174,-0000.190,+0000.204,-0000.190,+0000.207,-0000.190" />
<polygon id="1403" points="+0000.227,-0000.220,+0000.209,-0000.220,+0000.209,-0000.190,+0000.228,-0000.190,+0000.228,-0000.201,+0000.233,-0000.201,+0000.233,-0000.220" />
<polygon id="1404" points="+0000.144,-0000.075,+0000.198,-0000.075,+0000.207,-0000.075,+0000.207,-0000.105,+0000.203,-0000.105,+0000.174,-0000.105,+0000.144,-0000.105,+0000.144,-0000.092" />
<polygon id="1405" points="+0000.233,-0000.095,+0000.233,-0000.105,+0000.230,-0000.105,+0000.230,-0000.095" />
<polygon id="1406" points="+0000.208,-0000.075,+0000.233,-0000.075,+0000.233,-0000.094,+0000.228,-0000.094,+0000.228,-0000.105,+0000.209,-0000.105" />
<polygon id="1407" points="+0000.310,-0000.088,+0000.310,-0000.097,+0000.310,-0000.116,+0000.287,-0000.116,+0000.278,-0000.116,+0000.269,-0000.116,+0000.260,-0000.116,+0000.260,-0000.089" />
<polygon id="1408" points="+0000.310,-0000.133,+0000.310,-0000.141,+0000.287,-0000.141,+0000.278,-0000.141,+0000.269,-0000.141,+0000.260,-0000.141,+0000.260,-0000.133,+0000.269,-0000.133,+0000.278,-0000.133,+0000.287,-0000.133" />
<polygon id="1409" points="+0000.310,-0000.157,+0000.310,-0000.177,+0000.302,-0000.177,+0000.302,-0000.176,+0000.301,-0000.176,+0000.301,-0000.178,+0000.301,-0000.185,+0000.296,-0000.185,+0000.285,-0000.185,+0000.260,-0000.185,+0000.260,-0000.157,+0000.269,-0000.157,+0000.278,-0000.157,+0000.287,-0000.157" />
<polygon id="1410" points="+0000.260,-0000.132,+0000.260,-0000.117,+0000.269,-0000.117,+0000.269,-0000.132" />
<polygon id="1411" points="+0000.269,-0000.117,+0000.278,-0000.117,+0000.278,-0000.132,+0000.269,-0000.132" />
<polygon id="1412" points="+0000.287,-0000.117,+0000.287,-0000.132,+0000.279,-0000.132,+0000.278,-0000.117" />
<polygon id="1413" points="+0000.310,-0000.117,+0000.310,-0000.132,+0000.288,-0000.132,+0000.288,-0000.117" />
<polygon id="1414" points="+0000.260,-0000.157,+0000.260,-0000.141,+0000.269,-0000.141,+0000.269,-0000.156" />
<polygon id="1415" points="+0000.278,-0000.156,+0000.269,-0000.156,+0000.269,-0000.141,+0000.278,-0000.141" />
<polygon id="1416" points="+0000.310,-0000.141,+0000.310,-0000.154,+0000.310,-0000.156,+0000.288,-0000.156,+0000.288,-0000.141" />
<polygon id="1417" points="+0000.287,-0000.141,+0000.287,-0000.156,+0000.279,-0000.156,+0000.279,-0000.141" />
<polygon id="1418" points="+0000.316,-0000.157,+0000.316,-0000.154,+0000.355,-0000.154,+0000.355,-0000.136,+0000.355,-0000.136,+0000.355,-0000.126,+0000.355,-0000.121,+0000.355,-0000.111,+0000.355,-0000.097,+0000.355,-0000.097,+0000.355,-0000.096,+0000.355,-0000.069,+0000.327,-0000.069,+0000.315,-0000.069,+0000.313,-0000.069,+0000.313,-0000.068,+0000.259,-0000.069,+0000.236,-0000.069,+0000.233,-0000.069,+0000.208,-0000.069,+0000.198,-0000.069,+0000.198,-0000.065,+0000.198,-0000.065,+0000.198,-0000.049,+0000.198,-0000.048,+0000.203,-0000.048,+0000.212,-0000.048,+0000.212,-0000.048,+0000.238,-0000.048,+0000.238,-0000.048,+0000.254,-0000.048,+0000.254,-0000.048,+0000.254,-0000.048,+0000.310,-0000.048,+0000.311,-0000.048,+0000.311,-0000.047,+0000.353,-0000.047,+0000.355,-0000.047,+0000.355,-0000.047,+0000.365,-0000.047,+0000.370,-0000.047,+0000.370,-0000.110,+0000.370,-0000.111,+0000.370,-0000.112,+0000.370,-0000.113,+0000.370,-0000.154,+0000.370,-0000.154,+0000.370,-0000.167,+0000.370,-0000.170,+0000.370,-0000.183,+0000.370,-0000.183,+0000.370,-0000.244,+0000.369,-0000.246,+0000.368,-0000.246,+0000.367,-0000.246,+0000.327,-0000.246,+0000.326,-0000.246,+0000.326,-0000.247,+0000.326,-0000.247,+0000.312,-0000.247,+0000.312,-0000.226,+0000.317,-0000.226,+0000.317,-0000.226,+0000.316,-0000.225,+0000.316,-0000.209,+0000.316,-0000.186,+0000.316,-0000.178" />
<polygon id="1419" points="+0000.316,-0000.085,+0000.316,-0000.069,+0000.327,-0000.069,+0000.355,-0000.069,+0000.355,-0000.097,+0000.346,-0000.097,+0000.346,-0000.097,+0000.337,-0000.097,+0000.316,-0000.097" />
<polygon id="1420" points="+0000.316,-0000.117,+0000.316,-0000.097,+0000.337,-0000.097,+0000.346,-0000.097,+0000.346,-0000.097,+0000.353,-0000.097,+0000.355,-0000.097,+0000.355,-0000.111,+0000.355,-0000.121,+0000.355,-0000.126,+0000.355,-0000.136,+0000.355,-0000.136,+0000.355,-0000.154,+0000.353,-0000.154,+0000.316,-0000.154,+0000.316,-0000.141,+0000.316,-0000.132" />
<polygon id="1421" points="+0000.108,-0000.069,+0000.108,-0000.092,+0000.108,-0000.098,+0000.099,-0000.098,+0000.090,-0000.098,+0000.084,-0000.098,+0000.084,-0000.088,+0000.084,-0000.079,+0000.084,-0000.069,+0000.094,-0000.069,+0000.107,-0000.069" />
<polygon id="1422" points="+0000.063,-0000.089,+0000.063,-0000.069,+0000.074,-0000.069,+0000.084,-0000.069,+0000.084,-0000.079,+0000.084,-0000.088,+0000.084,-0000.098,+0000.063,-0000.098" />
<polygon id="1423" points="+0000.114,-0000.098,+0000.114,-0000.095,+0000.141,-0000.095,+0000.141,-0000.106,+0000.141,-0000.107,+0000.135,-0000.107,+0000.135,-0000.102,+0000.121,-0000.102,+0000.114,-0000.102" />
<polygon id="1424" points="+0000.141,-0000.113,+0000.141,-0000.118,+0000.135,-0000.118,+0000.135,-0000.113" />
<polygon id="1425" points="+0000.141,-0000.107,+0000.141,-0000.112,+0000.135,-0000.112,+0000.135,-0000.107" />
<polygon id="1426" points="+0000.144,-0000.188,+0000.144,-0000.164,+0000.174,-0000.164,+0000.174,-0000.188" />
<polygon id="1427" points="+0000.233,-0000.164,+0000.233,-0000.188,+0000.229,-0000.188,+0000.208,-0000.188,+0000.204,-0000.188,+0000.204,-0000.164" />
<polygon id="1428" points="+0000.174,-0000.164,+0000.204,-0000.164,+0000.204,-0000.188,+0000.174,-0000.188" />
<polygon id="1429" points="+0000.144,-0000.107,+0000.174,-0000.107,+0000.174,-0000.131,+0000.144,-0000.131,+0000.144,-0000.118,+0000.144,-0000.113" />
<polygon id="1430" points="+0000.174,-0000.107,+0000.203,-0000.107,+0000.204,-0000.131,+0000.174,-0000.131" />
<polygon id="1431" points="+0000.233,-0000.107,+0000.233,-0000.131,+0000.204,-0000.131,+0000.203,-0000.107,+0000.208,-0000.107,+0000.229,-0000.107" />
<polygon id="1432" points="+0000.114,-0000.131,+0000.114,-0000.122,+0000.121,-0000.122,+0000.121,-0000.112,+0000.121,-0000.103,+0000.134,-0000.103,+0000.134,-0000.107,+0000.134,-0000.113,+0000.134,-0000.119,+0000.141,-0000.119,+0000.141,-0000.131" />
<polygon id="1433" points="+0000.114,-0000.112,+0000.114,-0000.103,+0000.120,-0000.103,+0000.120,-0000.112" />
<polygon id="1434" points="+0000.114,-0000.121,+0000.114,-0000.112,+0000.120,-0000.112,+0000.120,-0000.121" />
<polygon id="1435" points="+0000.108,-0000.183,+0000.108,-0000.206,+0000.108,-0000.212,+0000.085,-0000.212,+0000.085,-0000.226,+0000.075,-0000.226,+0000.075,-0000.226,+0000.064,-0000.226,+0000.064,-0000.194,+0000.064,-0000.192,+0000.064,-0000.191,+0000.064,-0000.183" />
<polygon id="1436" points="+0000.108,-0000.212,+0000.108,-0000.226,+0000.085,-0000.226,+0000.085,-0000.212" />
<polygon id="1437" points="+0000.144,-0000.226,+0000.208,-0000.226,+0000.226,-0000.226,+0000.226,-0000.247,+0000.223,-0000.247,+0000.212,-0000.247,+0000.212,-0000.247,+0000.085,-0000.247,+0000.085,-0000.247,+0000.070,-0000.247,+0000.055,-0000.247,+0000.055,-0000.247,+0000.046,-0000.247,+0000.046,-0000.212,+0000.046,-0000.212,+0000.046,-0000.192,+0000.064,-0000.192,+0000.064,-0000.226,+0000.075,-0000.226,+0000.085,-0000.226,+0000.095,-0000.226,+0000.108,-0000.226,+0000.108,-0000.226,+0000.111,-0000.226" />
<polygon id="1438" points="+0000.198,-0000.069,+0000.144,-0000.069,+0000.113,-0000.069,+0000.113,-0000.048,+0000.140,-0000.048,+0000.141,-0000.048,+0000.141,-0000.048,+0000.148,-0000.048,+0000.157,-0000.048,+0000.166,-0000.048,+0000.166,-0000.048,+0000.175,-0000.048,+0000.184,-0000.048,+0000.193,-0000.048,+0000.197,-0000.048,+0000.197,-0000.065,+0000.198,-0000.065" />
<polygon id="1439" points="+0000.198,+0000.004,+0000.311,+0000.005,+0000.311,-0000.048,+0000.254,-0000.048,+0000.254,-0000.048,+0000.254,-0000.048,+0000.238,-0000.048,+0000.238,-0000.048,+0000.212,-0000.048,+0000.212,-0000.048,+0000.203,-0000.048,+0000.198,-0000.048,+0000.198,-0000.046" />
<polygon id="1440" points="+0000.141,+0000.004,+0000.197,+0000.004,+0000.197,-0000.048,+0000.193,-0000.048,+0000.184,-0000.048,+0000.175,-0000.048,+0000.166,-0000.048,+0000.166,-0000.048,+0000.157,-0000.048,+0000.148,-0000.048,+0000.141,-0000.048,+0000.141,-0000.047,+0000.141,-0000.012" />
<polygon id="1441" points="+0000.226,-0000.299,+0000.071,-0000.299,+0000.071,-0000.293,+0000.071,-0000.284,+0000.071,-0000.275,+0000.070,-0000.247,+0000.085,-0000.247,+0000.085,-0000.247,+0000.212,-0000.247,+0000.212,-0000.247,+0000.223,-0000.247,+0000.226,-0000.247" />
<polygon id="1442" points="+0000.311,+0000.005,+0000.347,+0000.005,+0000.347,-0000.006,+0000.347,-0000.008,+0000.348,-0000.008,+0000.354,-0000.009,+0000.354,-0000.010,+0000.354,-0000.046,+0000.354,-0000.047,+0000.311,-0000.047,+0000.311,-0000.046" />
<polygon id="1443" points="+0000.108,-0000.004,+0000.112,-0000.008,+0000.112,-0000.048,+0000.046,-0000.048,+0000.046,-0000.056,+0000.045,-0000.056,+0000.045,-0000.070,+0000.009,-0000.070,-0000.004,-0000.070,-0000.004,-0000.013,+0000.001,-0000.001,+0000.013,+0000.004,+0000.112,+0000.004,+0000.112,+0000.000,+0000.113,+0000.000,+0000.113,+0000.004,+0000.141,+0000.004,+0000.141,-0000.012,+0000.141,-0000.048,+0000.113,-0000.048,+0000.113,-0000.008,+0000.116,-0000.004" />
<polygon id="1444" points="+0000.326,-0000.287,+0000.326,-0000.295,+0000.326,-0000.299,+0000.312,-0000.299,+0000.312,-0000.295,+0000.313,-0000.295,+0000.312,-0000.247,+0000.326,-0000.247,+0000.326,-0000.248,+0000.326,-0000.265,+0000.326,-0000.265" />
<polygon id="1445" points="+0000.426,-0000.168,+0000.440,-0000.282,+0000.441,-0000.287,+0000.427,-0000.287,+0000.420,-0000.287,+0000.419,-0000.287,+0000.419,-0000.288,+0000.419,-0000.299,+0000.369,-0000.299,+0000.369,-0000.292,+0000.369,-0000.283,+0000.369,-0000.274,+0000.369,-0000.248,+0000.369,-0000.246,+0000.370,-0000.244,+0000.370,-0000.183,+0000.370,-0000.183,+0000.370,-0000.168,+0000.388,-0000.168,+0000.424,-0000.168" />
<polygon id="1446" points="+0000.000,-0000.183,+0000.004,-0000.187,+0000.008,-0000.183,+0000.046,-0000.183,+0000.046,-0000.191,+0000.046,-0000.192,+0000.046,-0000.194,+0000.046,-0000.212,+0000.046,-0000.212,+0000.046,-0000.247,+0000.055,-0000.247,+0000.055,-0000.247,+0000.070,-0000.247,+0000.071,-0000.275,+0000.071,-0000.284,+0000.071,-0000.293,+0000.071,-0000.299,+0000.014,-0000.300,+0000.002,-0000.295,-0000.003,-0000.283,-0000.003,-0000.183" />
<polygon id="1447" points="+0000.004,-0000.179,+0000.000,-0000.183,-0000.003,-0000.183,-0000.003,-0000.112,+0000.000,-0000.112,+0000.004,-0000.116,+0000.008,-0000.112,+0000.018,-0000.112,+0000.044,-0000.112,+0000.045,-0000.112,+0000.045,-0000.111,+0000.045,-0000.101,+0000.045,-0000.089,+0000.063,-0000.089,+0000.063,-0000.097,+0000.063,-0000.098,+0000.065,-0000.098,+0000.083,-0000.098,+0000.086,-0000.098,+0000.090,-0000.098,+0000.099,-0000.098,+0000.108,-0000.098,+0000.108,-0000.102,+0000.108,-0000.112,+0000.108,-0000.122,+0000.108,-0000.132,+0000.108,-0000.163,+0000.108,-0000.183,+0000.064,-0000.183,+0000.064,-0000.192,+0000.046,-0000.192,+0000.046,-0000.183,+0000.008,-0000.183" />
<polygon id="1448" points="+0000.004,-0000.108,+0000.000,-0000.112,-0000.003,-0000.112,-0000.004,-0000.070,+0000.009,-0000.070,+0000.045,-0000.070,+0000.045,-0000.088,+0000.045,-0000.091,+0000.045,-0000.101,+0000.045,-0000.112,+0000.018,-0000.112,+0000.008,-0000.112" />
<polygon id="1449" points="+0000.326,-0000.295,+0000.326,-0000.287,+0000.326,-0000.265,+0000.326,-0000.265,+0000.326,-0000.246,+0000.369,-0000.246,+0000.369,-0000.274,+0000.369,-0000.283,+0000.369,-0000.292,+0000.369,-0000.299,+0000.326,-0000.299" />
<polygon id="1450" points="+0000.298,-0000.299,+0000.227,-0000.299,+0000.227,-0000.247,+0000.241,-0000.247,+0000.241,-0000.247,+0000.283,-0000.247,+0000.283,-0000.247,+0000.298,-0000.247,+0000.298,-0000.274,+0000.298,-0000.283,+0000.298,-0000.292" />
<polygon id="1451" points="+0000.407,-0000.111,+0000.415,-0000.111,+0000.419,-0000.111,+0000.426,-0000.168,+0000.388,-0000.168,+0000.370,-0000.168,+0000.370,-0000.154,+0000.370,-0000.154,+0000.370,-0000.112,+0000.388,-0000.111" />
<polygon id="1452" points="+0000.384,-0000.035,+0000.385,-0000.038,+0000.376,-0000.047,+0000.371,-0000.047,+0000.368,-0000.047,+0000.365,-0000.047,+0000.354,-0000.047,+0000.354,-0000.009,+0000.369,-0000.013,+0000.381,-0000.020,+0000.382,-0000.020,+0000.392,-0000.029,+0000.393,-0000.030,+0000.390,-0000.032" />
<polygon id="1453" points="+0000.385,-0000.038,+0000.392,-0000.035,+0000.390,-0000.032,+0000.393,-0000.030,+0000.393,-0000.030,+0000.403,-0000.041,+0000.409,-0000.055,+0000.414,-0000.069,+0000.415,-0000.083,+0000.419,-0000.111,+0000.415,-0000.111,+0000.407,-0000.111,+0000.388,-0000.111,+0000.370,-0000.112,+0000.370,-0000.047,+0000.376,-0000.047" />

</svg>