<!--
Created with Chapman Taylor Dynamo SVG exporter
byabear@chapmantaylor.com

Revit Source File:
C:\Users\KH5970\DC\ACCDocs\Engie Solutions\ENGIE Solution\Project Files\1JA\82369.rvt

Date:
03/12/2023 15:03:10
-->

<svg xmlns="http://www.w3.org/2000/svg" class="gen-by-CTA-dyn-Synoptic-for-PowerBI" viewBox=" -157.0 -392.0 536.0 501.0 " transform="scale( 0.95 )">

<style>
polygon {
fill: gainsboro;
stroke: blue;
stroke-width: 0.0001px;
}
</style>

<polygon id="F1101" points="+0004.109,-0043.824,+0021.270,-0043.824,+0021.270,-0043.614,+0046.049,-0043.614,+0056.759,-0043.614,+0056.759,-0070.422,+0045.998,-0070.422,+0045.998,-0093.909,+0005.359,-0093.909,+0005.359,-0091.138,+0004.109,-0091.138" />
<polygon id="F1104" points="+0125.343,-0094.333,+0125.343,-0133.416,+0072.835,-0133.416,+0072.835,-0105.410,+0077.561,-0105.410,+0077.561,-0092.670,+0083.438,-0092.670,+0110.848,-0092.670,+0125.338,-0092.670" />
<polygon id="F1107" points="+0004.109,-0120.705,+0004.109,-0094.699,+0005.359,-0094.699,+0046.393,-0094.699,+0056.759,-0094.699,+0056.759,-0109.929,+0032.175,-0109.929,+0032.175,-0120.705" />
<polygon id="F1108" points="+0125.343,-0145.909,+0125.343,-0194.524,+0123.093,-0194.524,+0077.593,-0194.524,+0077.593,-0195.024,+0072.835,-0195.024,+0072.835,-0145.909,+0077.009,-0145.909,+0077.009,-0142.909,+0072.835,-0142.909,+0072.835,-0134.206,+0125.343,-0134.206,+0125.343,-0142.909,+0123.093,-0142.909,+0123.093,-0145.909" />
<polygon id="F1111" points="+0056.759,-0110.719,+0056.759,-0133.416,+0032.965,-0133.416,+0032.965,-0121.100,+0032.965,-0110.719" />
<polygon id="F1113" points="+0004.109,-0143.138,+0004.109,-0121.495,+0032.175,-0121.495,+0032.175,-0134.206,+0056.759,-0134.206,+0056.759,-0142.909,+0054.509,-0142.909,+0054.509,-0146.396,+0005.359,-0146.396,+0005.359,-0143.138" />
<polygon id="F1115" points="+0004.109,-0195.138,+0004.109,-0147.186,+0005.359,-0147.186,+0054.509,-0147.186,+0056.759,-0147.186,+0056.759,-0195.024,+0053.093,-0195.024,+0053.093,-0198.024,+0056.759,-0198.024,+0056.759,-0199.194,+0005.359,-0199.194,+0005.359,-0195.138" />
<polygon id="F1118" points="+0125.343,-0250.138,+0125.343,-0266.050,+0072.835,-0266.050,+0072.835,-0250.138,+0076.561,-0250.138,+0076.561,-0247.138,+0072.835,-0247.138,+0072.835,-0198.024,+0077.593,-0198.024,+0077.593,-0196.524,+0123.093,-0196.524,+0123.093,-0198.024,+0125.343,-0198.024,+0125.343,-0247.138,+0123.093,-0247.138,+0123.093,-0250.138" />
<polygon id="F1121" points="+0004.109,-0247.138,+0004.109,-0199.984,+0005.359,-0199.984,+0056.759,-0199.984,+0056.759,-0251.688,+0004.109,-0251.688,+0004.109,-0250.138,+0005.359,-0250.138,+0005.359,-0247.138" />
<polygon id="F1131" points="+0004.109,-0299.252,+0004.109,-0252.478,+0056.759,-0252.478,+0056.759,-0299.252,+0054.509,-0299.252,+0054.509,-0302.252,+0056.759,-0302.252,+0056.759,-0304.741,+0004.109,-0304.741,+0004.109,-0302.252,+0005.359,-0302.252,+0005.359,-0299.252" />
<polygon id="F1136" points="+0125.343,-0302.252,+0125.343,-0330.156,+0072.835,-0330.156,+0072.835,-0302.252,+0075.085,-0302.252,+0075.085,-0299.252,+0072.835,-0299.252,+0072.835,-0266.840,+0125.343,-0266.840,+0125.343,-0299.252,+0123.093,-0299.252,+0123.093,-0302.252" />
<polygon id="F1138" points="+0125.343,-0391.467,+0072.835,-0391.467,+0072.835,-0383.887,+0072.835,-0354.367,+0076.285,-0354.367,+0076.285,-0351.367,+0072.835,-0351.367,+0072.835,-0330.946,+0125.343,-0330.946,+0125.343,-0351.367,+0123.093,-0351.367,+0123.093,-0354.367,+0125.343,-0354.367,+0125.343,-0389.616" />
<polygon id="F1145" points="+0004.109,-0358.981,+0004.109,-0305.531,+0056.759,-0305.531,+0056.759,-0358.981" />
<polygon id="F1201" points="-0156.820,+0055.548,-0156.820,+0108.434,-0135.828,+0108.434,-0135.828,+0105.898,-0135.828,+0055.548" />
<polygon id="F1204" points="-0156.820,-0013.566,-0156.820,+0039.873,-0136.933,+0039.873,-0136.933,+0036.184,-0133.933,+0036.184,-0133.933,+0039.873,-0122.018,+0039.873,-0122.018,-0013.566,-0133.660,-0013.566,-0133.660,-0010.516,-0136.660,-0010.516,-0136.660,-0013.566" />
<polygon id="F1205" points="-0133.538,+0108.434,-0109.038,+0108.434,-0109.038,+0055.548,-0135.038,+0055.548,-0135.038,+0105.898,-0133.538,+0105.898" />
<polygon id="F1207" points="-0108.248,+0108.434,-0083.624,+0108.434,-0083.624,+0055.548,-0108.248,+0055.548" />
<polygon id="F1208" points="-0096.604,-0013.566,-0121.228,-0013.566,-0121.228,+0039.873,-0096.604,+0039.873" />
<polygon id="F1210" points="-0084.729,-0013.566,-0095.814,-0013.566,-0095.814,+0039.873,-0084.729,+0039.873,-0084.729,+0036.184,-0081.729,+0036.184,-0081.729,+0039.873,-0069.649,+0039.873,-0069.649,-0013.566,-0081.291,-0013.566,-0081.291,-0010.916,-0081.729,-0010.916,-0084.291,-0010.916,-0084.729,-0010.916" />
<polygon id="F1216" points="-0044.780,-0013.566,-0068.859,-0013.566,-0068.859,+0039.873,-0044.780,+0039.873" />
<polygon id="F1217" points="-0082.834,+0108.434,-0032.918,+0108.434,-0032.918,+0106.184,-0030.418,+0106.184,-0030.418,+0059.798,-0032.918,+0059.798,-0032.918,+0055.548,-0082.834,+0055.548" />
<polygon id="F1219" points="-0029.628,+0108.434,-0004.458,+0108.434,-0004.458,+0055.548,-0029.628,+0055.548,-0029.628,+0059.798,-0029.628,+0106.184" />
<polygon id="F1220" points="-0032.918,-0013.566,-0043.990,-0013.566,-0043.990,+0039.873,-0032.918,+0039.873,-0032.918,+0036.184,-0029.918,+0036.184,-0029.918,+0039.873,-0016.057,+0039.873,-0016.057,-0013.566,-0029.918,-0013.566,-0029.918,-0010.916,-0032.918,-0010.916" />
<polygon id="F1222" points="+0020.270,-0013.566,-0015.267,-0013.566,-0015.267,+0039.873,+0019.727,+0039.873,+0020.270,+0039.873,+0020.270,+0009.848" />
<polygon id="F1223" points="-0003.668,+0108.434,+0020.033,+0108.434,+0020.033,+0101.933,+0020.033,+0055.548,+0019.727,+0055.548,-0003.668,+0055.548" />
<polygon id="FX101" points="+0022.270,+0040.663,+0022.270,+0054.758,+0035.218,+0054.758,+0046.803,+0054.758,+0046.803,+0060.014,+0082.223,+0060.014,+0082.223,+0054.500,+0128.643,+0054.500,+0152.643,+0054.500,+0152.643,+0040.263,+0141.585,+0040.263,+0123.066,+0040.263,+0097.000,+0040.263,+0081.805,+0040.263,+0081.805,-0039.614,+0072.440,-0039.614,+0057.154,-0039.614,+0046.749,-0039.614,+0046.749,-0014.566,+0046.749,+0009.848,+0046.749,+0013.986,+0045.149,+0013.986,+0045.149,+0017.268,+0045.213,+0017.268,+0045.213,+0023.663,+0036.013,+0023.663,+0036.013,+0039.873,+0037.551,+0039.873,+0037.551,+0040.663,+0035.618,+0040.663,+0030.223,+0040.663" />
<polygon id="FX102" points="+0045.349,-0013.566,+0022.270,-0013.566,+0022.270,+0009.453,+0045.349,+0009.453" />
<polygon id="FX103" points="+0022.270,-0015.566,+0045.349,-0015.566,+0045.349,-0039.614,+0022.270,-0039.614" />
<polygon id="FX104" points="+0084.405,-0013.221,+0106.519,-0013.221,+0106.519,-0039.614,+0084.405,-0039.614" />
<polygon id="FX105" points="+0106.519,-0010.221,+0084.405,-0010.221,+0084.405,+0010.993,+0097.000,+0010.993,+0106.519,+0010.993,+0106.519,+0007.092" />
<polygon id="FX106" points="+0022.033,+0055.548,+0022.033,+0100.433,+0082.223,+0100.433,+0082.223,+0062.014,+0046.408,+0062.014,+0035.218,+0062.014,+0031.223,+0062.014,+0031.223,+0060.014,+0034.541,+0060.014,+0034.541,+0055.548" />
<polygon id="FX107" points="+0046.013,+0055.548,+0035.896,+0055.548,+0035.896,+0060.014,+0046.013,+0060.014" />
<polygon id="FX108" points="+0030.618,+0039.873,+0035.223,+0039.873,+0035.223,+0023.663,+0030.618,+0023.663" />
<polygon id="FX109" points="+0036.013,+0017.663,+0036.013,+0022.873,+0044.423,+0022.873,+0044.423,+0017.663" />
<polygon id="FX1100" points="+0072.835,-0067.295,+0072.835,-0043.614,+0082.805,-0043.614,+0082.905,-0043.614,+0106.519,-0043.614,+0106.519,-0044.214,+0110.453,-0044.214,+0110.453,-0054.251,+0110.453,-0064.199,+0110.453,-0067.295,+0083.438,-0067.295" />
<polygon id="FX1105" points="+0110.453,-0091.880,+0083.833,-0091.880,+0083.833,-0068.085,+0110.453,-0068.085,+0110.453,-0072.744,+0110.453,-0083.258" />
<polygon id="FX1107" points="+0072.045,-0391.467,+0057.549,-0391.467,+0057.549,-0384.282,+0072.045,-0384.282" />
<polygon id="FX111" points="+0004.109,-0391.467,+0004.109,-0360.981,+0056.759,-0360.981,+0056.759,-0383.887,+0056.759,-0391.467" />
<polygon id="FX1114" points="+0378.412,-0013.729,+0378.412,-0030.093,+0359.412,-0030.093,+0359.412,-0013.746" />
<polygon id="FX1115" points="+0358.622,-0030.093,+0331.140,-0030.093,+0331.140,-0013.770,+0358.622,-0013.746" />
<polygon id="FX1116" points="+0378.412,-0030.883,+0378.412,-0055.507,+0331.140,-0055.507,+0331.140,-0030.883,+0359.017,-0030.883" />
<polygon id="FX1117" points="+0072.835,-0104.620,+0072.835,-0092.670,+0076.771,-0092.670,+0076.771,-0104.620" />
<polygon id="FX112" points="+0125.338,-0091.880,+0111.243,-0091.880,+0111.243,-0083.653,+0125.338,-0083.653" />
<polygon id="FX113" points="+0111.243,-0082.863,+0111.243,-0073.139,+0125.338,-0073.139,+0125.338,-0082.863" />
<polygon id="FX114" points="+0111.243,-0067.690,+0111.243,-0064.594,+0125.338,-0064.594,+0125.338,-0072.349,+0111.243,-0072.349" />
<polygon id="FX115" points="+0111.243,-0063.804,+0111.243,-0054.646,+0125.338,-0054.646,+0125.338,-0063.804" />
<polygon id="FX116" points="+0111.243,-0053.856,+0111.243,-0044.214,+0125.338,-0044.214,+0125.338,-0053.856" />
<polygon id="FX117" points="+0057.549,-0383.492,+0057.549,-0359.981,+0057.549,-0305.136,+0057.549,-0302.252,+0059.009,-0302.252,+0059.009,-0299.252,+0057.549,-0299.252,+0057.549,-0252.083,+0057.549,-0199.589,+0057.549,-0198.024,+0057.549,-0195.024,+0057.549,-0146.791,+0057.549,-0145.909,+0059.009,-0145.909,+0059.009,-0142.909,+0057.549,-0142.909,+0057.549,-0133.811,+0057.549,-0110.324,+0057.549,-0093.909,+0046.788,-0093.909,+0046.788,-0071.212,+0057.549,-0071.212,+0057.549,-0043.614,+0072.045,-0043.614,+0072.045,-0067.690,+0072.045,-0092.275,+0072.045,-0105.015,+0072.045,-0133.811,+0072.045,-0142.909,+0072.045,-0145.909,+0072.045,-0195.024,+0072.045,-0198.024,+0072.045,-0247.138,+0072.045,-0250.138,+0072.045,-0266.445,+0072.045,-0299.252,+0070.585,-0299.252,+0070.585,-0302.252,+0072.045,-0302.252,+0072.045,-0330.551,+0072.045,-0351.367,+0072.045,-0354.367,+0072.045,-0383.492" />
<polygon id="FX118" points="+0072.835,-0091.880,+0072.835,-0068.085,+0083.043,-0068.085,+0083.043,-0091.880,+0077.166,-0091.880" />
<polygon id="FX121" points="-0156.820,+0040.663,-0156.820,+0054.758,-0135.433,+0054.758,-0108.643,+0054.758,-0083.229,+0054.758,-0032.918,+0054.758,-0030.023,+0054.758,-0004.063,+0054.758,+0019.332,+0054.758,+0019.332,+0040.663,-0015.662,+0040.663,-0029.918,+0040.663,-0032.918,+0040.663,-0044.385,+0040.663,-0069.254,+0040.663,-0081.729,+0040.663,-0084.729,+0040.663,-0096.209,+0040.663,-0121.623,+0040.663,-0133.933,+0040.663,-0136.933,+0040.663" />
<polygon id="FX131" points="+0116.604,-0010.221,+0109.519,-0010.221,+0109.519,+0006.697,+0116.604,+0006.697,+0116.604,-0003.408" />
<polygon id="FX132" points="+0129.400,-0010.221,+0117.394,-0010.221,+0117.394,-0003.803,+0129.400,-0003.803" />
<polygon id="FX133" points="+0117.394,+0006.697,+0123.066,+0006.697,+0129.400,+0006.697,+0129.400,-0003.013,+0117.394,-0003.013" />
<polygon id="FX134" points="+0097.395,+0035.177,+0097.395,+0039.473,+0122.066,+0039.473,+0122.066,+0007.487,+0116.999,+0007.487,+0109.519,+0007.487,+0109.519,+0013.993,+0097.395,+0013.993,+0097.395,+0024.379" />
<polygon id="FX135" points="+0124.066,+0039.473,+0141.190,+0039.473,+0141.190,-0012.185,+0130.190,-0012.194,+0130.190,-0011.721,+0130.190,-0003.408,+0130.190,+0007.487,+0124.066,+0007.487" />
<polygon id="FX136" points="+0084.405,+0034.782,+0096.605,+0034.782,+0096.605,+0024.774,+0084.405,+0024.774" />
<polygon id="FX137" points="+0096.605,+0023.984,+0096.605,+0013.993,+0084.405,+0013.993,+0084.405,+0023.984" />
<polygon id="FX138" points="+0096.605,+0035.572,+0084.405,+0035.572,+0084.405,+0039.473,+0096.605,+0039.473" />

</svg>