<!--
Created with Chapman Taylor Dynamo SVG exporter
byabear@chapmantaylor.com

Revit Source File:
C:\Users\KH5970\DC\ACCDocs\Engie Solutions\ENGIE Solution\Project Files\1JA\82369.rvt

Date:
03/12/2023 15:02:59
-->

<svg xmlns="http://www.w3.org/2000/svg" class="gen-by-CTA-dyn-Synoptic-for-PowerBI" viewBox=" 215.0 -374.0 412.0 484.0 " transform="scale( 0.95 )">

<style>
polygon {
fill: gainsboro;
stroke: blue;
stroke-width: 0.0001px;
}
</style>

<polygon id="FX1141" points="+0444.072,-0373.169,+0411.762,-0373.169,+0411.762,-0329.829,+0426.117,-0329.829,+0430.617,-0329.829,+0444.072,-0329.829" />
<polygon id="FX1142" points="+0495.972,-0373.169,+0444.862,-0373.169,+0444.862,-0329.829,+0475.517,-0329.829,+0480.017,-0329.829,+0495.972,-0329.829" />
<polygon id="FX1143" points="+0331.140,-0373.169,+0331.140,-0247.713,+0406.567,-0247.713,+0406.567,-0232.313,+0428.367,-0232.313,+0428.367,-0261.063,+0426.204,-0261.063,+0426.204,-0265.563,+0428.367,-0265.563,+0428.367,-0277.013,+0428.367,-0325.939,+0426.117,-0325.939,+0426.117,-0329.039,+0410.972,-0329.039,+0410.972,-0373.169" />
<polygon id="FX1144" points="+0429.767,-0232.313,+0458.467,-0232.313,+0458.467,-0276.313,+0429.767,-0276.313,+0429.767,-0265.563,+0429.767,-0261.063" />
<polygon id="FX1145" points="+0331.140,-0246.313,+0331.140,-0155.134,+0382.840,-0155.134,+0396.140,-0155.134,+0405.167,-0167.113,+0405.167,-0231.613,+0405.167,-0246.313" />
<polygon id="FX1146" points="+0459.167,-0230.913,+0429.767,-0230.913,+0429.767,-0170.763,+0429.767,-0166.263,+0429.767,-0165.134,+0475.467,-0165.134,+0475.467,-0167.663,+0475.467,-0172.163,+0475.467,-0205.213,+0475.467,-0213.663,+0475.467,-0218.163,+0475.467,-0230.913" />
<polygon id="FX1147" points="+0475.467,-0156.034,+0475.467,-0163.734,+0429.767,-0163.734,+0429.767,-0139.734,+0475.467,-0139.734" />
<polygon id="FX1148" points="+0361.955,-0108.134,+0382.140,-0108.134,+0382.140,-0139.034,+0382.140,-0153.734,+0331.140,-0153.734,+0331.140,-0108.134,+0353.350,-0108.134" />
<polygon id="FX1149" points="+0626.140,-0373.169,+0496.762,-0373.169,+0496.762,-0329.039,+0480.017,-0329.039,+0480.017,-0325.939,+0475.517,-0325.939,+0475.517,-0329.039,+0444.467,-0329.039,+0430.617,-0329.039,+0430.617,-0325.939,+0429.767,-0325.939,+0429.767,-0277.713,+0458.467,-0277.713,+0458.467,-0296.013,+0458.467,-0304.713,+0459.867,-0304.713,+0459.867,-0296.713,+0589.167,-0296.713,+0589.167,-0314.013,+0589.167,-0317.713,+0590.567,-0317.713,+0590.567,-0314.713,+0626.140,-0314.713" />
<polygon id="FX1150" points="+0396.838,-0153.734,+0383.540,-0153.734,+0383.540,-0139.734,+0399.440,-0139.734,+0428.367,-0139.734,+0428.367,-0164.434,+0428.367,-0166.263,+0426.204,-0166.263,+0426.204,-0170.763,+0428.367,-0170.763,+0428.367,-0230.913,+0406.567,-0230.913,+0406.567,-0166.645" />
<polygon id="FX1151" points="+0345.267,-0060.134,+0379.567,-0060.134,+0389.267,-0060.134,+0397.740,-0060.134,+0398.740,-0060.134,+0398.740,-0138.334,+0383.540,-0138.334,+0383.540,-0107.134,+0383.540,-0097.919,+0383.540,-0074.334,+0361.955,-0074.334,+0331.140,-0074.334,+0331.140,-0014.472,+0331.140,-0012.771,+0331.140,+0009.266,+0309.940,+0009.266,+0309.940,+0032.628,+0309.940,+0050.328,+0329.004,+0050.328,+0329.004,+0042.950,+0345.267,+0026.687" />
<polygon id="FX1152" points="+0452.167,-0016.569,+0452.167,-0031.034,+0414.867,-0031.034,+0414.867,-0015.734,+0414.867,+0025.866,+0424.590,+0025.866,+0424.590,+0023.331,+0428.840,+0023.331,+0428.840,-0011.284,+0424.704,-0011.284,+0424.704,-0018.784,+0430.704,-0018.784,+0430.704,-0016.569" />
<polygon id="FX1153" points="+0526.740,+0051.031,+0530.740,+0051.031,+0547.440,+0051.031,+0575.324,+0051.031,+0578.340,+0051.031,+0578.340,+0040.417,+0536.140,+0040.417,+0536.140,+0032.017,+0526.740,+0032.017" />
<polygon id="FX1154" points="+0502.240,-0015.169,+0480.704,-0015.169,+0480.704,-0009.416,+0474.704,-0009.416,+0474.704,-0015.169,+0467.406,-0015.169,+0467.406,+0027.617,+0466.006,+0027.617,+0466.006,-0015.169,+0452.867,-0015.169,+0430.704,-0015.169,+0430.240,-0015.169,+0430.240,-0011.284,+0430.240,+0023.331,+0430.240,+0026.566,+0430.240,+0050.681,+0430.240,+0055.831,+0430.704,+0055.831,+0474.704,+0055.831,+0474.704,+0050.681,+0480.704,+0050.681,+0480.704,+0055.831,+0502.240,+0055.831,+0502.240,+0051.731,+0502.240,+0031.317" />
<polygon id="FX1155" points="+0536.140,-0015.169,+0530.740,-0015.169,+0530.740,-0009.016,+0524.740,-0009.016,+0524.740,-0015.169,+0503.640,-0015.169,+0503.640,+0030.617,+0512.040,+0030.617,+0526.040,+0030.617,+0536.140,+0030.617" />
<polygon id="FX1156" points="+0503.640,+0056.531,+0503.640,+0102.611,+0524.740,+0102.611,+0530.740,+0102.611,+0546.740,+0102.611,+0546.740,+0052.431,+0530.740,+0052.431,+0530.740,+0058.181,+0524.740,+0058.181,+0524.740,+0052.431,+0512.040,+0052.431,+0503.640,+0052.431" />
<polygon id="FX1157" points="+0578.340,+0109.031,+0578.340,+0081.831,+0575.340,+0081.831,+0575.340,+0080.331,+0575.340,+0059.417,+0575.340,+0052.431,+0548.140,+0052.431,+0548.140,+0102.611,+0566.740,+0102.611,+0566.740,+0109.031" />
<polygon id="FX1158" points="+0503.640,+0032.017,+0503.640,+0051.031,+0511.645,+0051.031,+0511.645,+0032.017" />
<polygon id="FX1159" points="+0380.267,+0025.866,+0388.222,+0025.866,+0388.222,+0009.752,+0380.267,+0009.752" />
<polygon id="FX1160" points="+0380.267,+0001.357,+0380.267,+0008.962,+0388.617,+0008.962,+0397.272,+0008.962,+0397.272,+0001.357,+0389.017,+0001.357" />
<polygon id="FX1161" points="+0380.267,-0011.284,+0380.267,+0000.567,+0388.622,+0000.567,+0388.622,-0015.034,+0380.267,-0015.034" />
<polygon id="FX1162" points="+0382.140,-0106.134,+0362.350,-0106.134,+0362.350,-0097.709,+0375.140,-0097.709,+0375.140,-0098.919,+0382.140,-0098.919" />
<polygon id="FX1163" points="+0352.955,-0106.134,+0331.140,-0106.134,+0331.140,-0097.709,+0352.955,-0097.709" />
<polygon id="FX1164" points="+0214.692,+0047.723,+0214.692,+0062.828,+0230.297,+0062.828,+0230.297,+0047.723" />
<polygon id="FX1165" points="+0231.087,+0062.828,+0239.977,+0062.828,+0239.977,+0047.723,+0231.087,+0047.723" />
<polygon id="FX1166" points="+0240.767,+0062.828,+0248.372,+0062.828,+0248.372,+0047.723,+0240.767,+0047.723" />
<polygon id="FX1167" points="+0249.612,+0062.828,+0258.217,+0062.828,+0258.217,+0047.723,+0249.612,+0047.723" />
<polygon id="FX1168" points="+0259.007,+0062.828,+0267.612,+0062.828,+0267.612,+0047.723,+0259.007,+0047.723" />
<polygon id="FX1169" points="+0214.692,+0025.928,+0214.692,+0046.933,+0230.692,+0046.933,+0240.372,+0046.933,+0248.372,+0046.933,+0248.372,+0025.928" />
<polygon id="FX1170" points="+0277.251,+0046.933,+0277.251,+0032.628,+0277.251,+0013.928,+0249.567,+0013.928,+0249.567,+0023.912,+0249.567,+0024.928,+0249.612,+0024.928,+0249.612,+0046.933,+0258.612,+0046.933,+0268.007,+0046.933" />
<polygon id="FX1171" points="+0389.012,+0025.866,+0413.467,+0025.866,+0413.467,-0015.034,+0389.412,-0015.034,+0389.412,+0000.567,+0398.062,+0000.567,+0398.062,+0009.357,+0398.062,+0017.962,+0397.272,+0017.962,+0397.272,+0009.752,+0389.012,+0009.752" />
<polygon id="FX1173" points="+0331.140,-0075.734,+0361.560,-0075.734,+0361.560,-0096.919,+0353.350,-0096.919,+0331.140,-0096.919" />
<polygon id="FX1175" points="+0362.350,-0075.734,+0382.140,-0075.734,+0382.140,-0096.919,+0375.140,-0096.919,+0362.350,-0096.919" />
<polygon id="FX1176" points="+0388.872,-0058.734,+0380.267,-0058.734,+0380.267,-0041.229,+0388.872,-0041.229" />
<polygon id="FX1177" points="+0397.345,-0058.734,+0389.662,-0058.734,+0389.662,-0041.229,+0397.345,-0041.229" />
<polygon id="FX1178" points="+0399.440,-0058.734,+0398.135,-0058.734,+0398.135,-0041.229,+0413.467,-0041.229,+0413.467,-0058.734" />
<polygon id="FX1179" points="+0512.435,+0051.031,+0524.740,+0051.031,+0525.340,+0051.031,+0525.340,+0032.017,+0512.435,+0032.017" />

</svg>