<!--
Created with Chapman Taylor Dynamo SVG exporter
byabear@chapmantaylor.com

Revit Source File:
C:\Users\KH5970\DC\ACCDocs\Engie Solutions\ENGIE Solution\Project Files\1JA\82369.rvt

Date:
03/12/2023 15:02:58
-->

<svg xmlns="http://www.w3.org/2000/svg" class="gen-by-CTA-dyn-Synoptic-for-PowerBI" viewBox=" -157.0 -392.0 736.0 503.0 " transform="scale( 0.95 )">

<style>
polygon {
fill: gainsboro;
stroke: blue;
stroke-width: 0.0001px;
}
</style>

<polygon id="F9105" points="+0004.109,-0043.824,+0021.270,-0043.824,+0021.270,-0043.614,+0043.759,-0043.614,+0043.759,-0092.033,+0005.359,-0092.033,+0005.359,-0091.138,+0004.109,-0091.138" />
<polygon id="F9107" points="+0004.109,-0118.428,+0004.109,-0094.138,+0005.359,-0094.138,+0005.359,-0092.823,+0044.154,-0092.823,+0056.759,-0092.823,+0056.759,-0118.428" />
<polygon id="F9108" points="+0125.343,-0145.909,+0125.343,-0171.218,+0072.835,-0171.218,+0072.835,-0145.909,+0077.009,-0145.909,+0077.009,-0142.909,+0072.835,-0142.909,+0072.835,-0092.670,+0083.438,-0092.670,+0110.848,-0092.670,+0125.338,-0092.670,+0125.343,-0094.333,+0125.343,-0142.909,+0123.093,-0142.909,+0123.093,-0145.909" />
<polygon id="F9111" points="+0004.109,-0143.138,+0004.109,-0119.218,+0056.759,-0119.218,+0056.759,-0142.909,+0054.509,-0142.909,+0054.509,-0144.033,+0005.359,-0144.033,+0005.359,-0143.138" />
<polygon id="F9115" points="+0004.109,-0195.138,+0004.109,-0146.138,+0005.359,-0146.138,+0005.359,-0144.823,+0054.509,-0144.823,+0054.509,-0145.909,+0056.759,-0145.909,+0056.759,-0195.024,+0053.093,-0195.024,+0053.093,-0196.033,+0005.359,-0196.033,+0005.359,-0195.138" />
<polygon id="F9116" points="+0125.343,-0172.008,+0125.343,-0195.024,+0123.093,-0195.024,+0123.093,-0195.919,+0077.593,-0195.919,+0077.593,-0195.024,+0072.835,-0195.024,+0072.835,-0172.008" />
<polygon id="F9120" points="+0125.343,-0198.024,+0125.343,-0222.613,+0072.835,-0222.613,+0072.835,-0198.024,+0077.593,-0198.024,+0077.593,-0196.709,+0123.093,-0196.709,+0123.093,-0198.024" />
<polygon id="F9123" points="+0004.109,-0222.428,+0004.109,-0198.138,+0005.359,-0198.138,+0005.359,-0196.823,+0053.093,-0196.823,+0053.093,-0198.024,+0056.759,-0198.024,+0056.759,-0222.428" />
<polygon id="F9124" points="+0125.343,-0223.403,+0125.343,-0247.138,+0123.093,-0247.138,+0123.093,-0248.033,+0076.561,-0248.033,+0076.561,-0247.138,+0072.835,-0247.138,+0072.835,-0223.403" />
<polygon id="F9126" points="+0125.343,-0250.138,+0125.343,-0299.252,+0123.093,-0299.252,+0123.093,-0300.147,+0075.085,-0300.147,+0075.085,-0299.252,+0072.835,-0299.252,+0072.835,-0250.138,+0076.561,-0250.138,+0076.561,-0248.823,+0123.093,-0248.823,+0123.093,-0250.138" />
<polygon id="F9127" points="+0004.109,-0247.138,+0004.109,-0223.218,+0056.759,-0223.218,+0056.759,-0248.033,+0005.359,-0248.033,+0005.359,-0247.138" />
<polygon id="F9131" points="+0004.109,-0275.279,+0004.109,-0250.138,+0005.359,-0250.138,+0005.359,-0248.823,+0056.759,-0248.823,+0056.759,-0275.279" />
<polygon id="F9134" points="+0125.343,-0302.252,+0125.343,-0351.367,+0123.093,-0351.367,+0123.093,-0352.262,+0076.285,-0352.262,+0076.285,-0351.367,+0072.835,-0351.367,+0072.835,-0302.252,+0075.085,-0302.252,+0075.085,-0300.937,+0123.093,-0300.937,+0123.093,-0302.252" />
<polygon id="F9135" points="+0004.109,-0299.252,+0004.109,-0276.069,+0056.759,-0276.069,+0056.759,-0299.252,+0054.509,-0299.252,+0054.509,-0300.147,+0005.359,-0300.147,+0005.359,-0299.252" />
<polygon id="F9139" points="+0004.109,-0324.147,+0004.109,-0302.252,+0005.359,-0302.252,+0005.359,-0300.937,+0054.509,-0300.937,+0054.509,-0302.252,+0056.759,-0302.252,+0056.759,-0324.147" />
<polygon id="F9142" points="+0125.343,-0391.467,+0072.835,-0391.467,+0072.835,-0383.887,+0072.835,-0354.367,+0076.285,-0354.367,+0076.285,-0353.052,+0123.093,-0353.052,+0123.093,-0354.367,+0125.343,-0354.367" />
<polygon id="F9143" points="+0004.109,-0358.981,+0004.109,-0324.937,+0056.759,-0324.937,+0056.759,-0358.981" />
<polygon id="F9202" points="-0156.820,-0013.566,-0156.820,+0039.873,-0136.933,+0039.873,-0136.933,+0036.184,-0135.618,+0036.184,-0135.618,-0010.516,-0135.618,-0010.816,-0136.660,-0010.816,-0136.660,-0013.566" />
<polygon id="F9205" points="-0156.820,+0055.548,-0156.820,+0108.434,-0136.538,+0108.434,-0136.538,+0105.898,-0133.538,+0105.898,-0133.538,+0108.434,-0109.345,+0108.434,-0109.345,+0055.548" />
<polygon id="F9206" points="-0084.729,-0013.566,-0133.660,-0013.566,-0133.660,-0010.516,-0134.828,-0010.516,-0134.828,+0036.184,-0133.933,+0036.184,-0133.933,+0039.873,-0084.729,+0039.873,-0084.729,+0036.184,-0081.729,+0036.184,-0081.729,+0039.873,-0057.358,+0039.873,-0057.358,-0013.566,-0081.291,-0013.566,-0081.291,-0010.916,-0081.729,-0010.916,-0084.291,-0010.916,-0084.729,-0010.916" />
<polygon id="F9213" points="-0108.555,+0108.434,-0084.729,+0108.434,-0084.729,+0105.898,-0081.729,+0105.898,-0081.729,+0108.434,-0056.173,+0108.434,-0056.173,+0055.548,-0081.729,+0055.548,-0081.729,+0059.798,-0084.729,+0059.798,-0084.729,+0055.548,-0108.555,+0055.548" />
<polygon id="F9215" points="-0055.383,+0108.434,-0032.918,+0108.434,-0032.918,+0106.184,-0029.918,+0106.184,-0029.918,+0108.434,-0005.572,+0108.434,-0005.572,+0066.903,-0032.023,+0066.903,-0032.023,+0059.798,-0032.023,+0055.548,-0055.383,+0055.548" />
<polygon id="F9216" points="-0032.918,-0013.566,-0056.568,-0013.566,-0056.568,+0039.873,-0032.918,+0039.873,-0032.918,+0036.184,-0031.603,+0036.184,-0031.603,-0010.916,-0032.918,-0010.916" />
<polygon id="F9222" points="-0004.967,-0013.566,-0029.918,-0013.566,-0029.918,-0010.916,-0030.813,-0010.916,-0030.813,+0036.184,-0029.918,+0036.184,-0029.918,+0039.873,-0004.967,+0039.873" />
<polygon id="F9223" points="-0004.782,+0108.434,+0020.033,+0108.434,+0020.033,+0101.933,+0020.033,+0055.548,-0004.782,+0055.548,-0004.782,+0066.508" />
<polygon id="F9224" points="+0020.270,-0013.566,-0004.177,-0013.566,-0004.177,+0039.873,+0020.270,+0039.873,+0020.270,+0011.586" />
<polygon id="F9301" points="+0084.223,+0101.933,+0083.442,+0101.933,+0083.442,+0110.231,+0127.143,+0110.231,+0127.143,+0105.898,+0128.038,+0105.898,+0128.038,+0058.540,+0127.143,+0058.540,+0127.143,+0055.290,+0084.223,+0055.290,+0084.223,+0061.014,+0084.223,+0100.417" />
<polygon id="F9307" points="+0130.143,+0110.231,+0152.464,+0110.231,+0152.464,+0055.290,+0130.143,+0055.290,+0130.143,+0058.540,+0128.828,+0058.540,+0128.828,+0105.898,+0130.143,+0105.898" />
<polygon id="F9311" points="+0153.254,+0110.231,+0176.455,+0110.231,+0176.455,+0105.898,+0177.770,+0105.898,+0177.770,+0059.540,+0177.770,+0058.898,+0177.328,+0058.898,+0177.328,+0055.290,+0153.254,+0055.290" />
<polygon id="F9315" points="+0179.455,+0110.231,+0226.723,+0110.231,+0226.723,+0105.898,+0228.038,+0105.898,+0228.038,+0055.290,+0180.328,+0055.290,+0180.328,+0059.540,+0178.560,+0059.540,+0178.560,+0105.898,+0179.455,+0105.898" />
<polygon id="F9322" points="+0226.723,-0012.112,+0179.754,-0012.152,+0179.754,-0010.935,+0178.859,-0010.924,+0179.065,+0005.748,+0179.103,+0008.809,+0179.267,+0022.129,+0179.304,+0025.189,+0179.433,+0035.643,+0179.433,+0035.653,+0180.328,+0035.653,+0180.328,+0039.473,+0226.723,+0039.473,+0226.723,+0036.184,+0229.723,+0036.184,+0229.723,+0039.473,+0277.770,+0039.473,+0277.770,-0010.527,+0276.692,-0010.527,+0276.692,-0012.070,+0229.723,-0012.109,+0229.723,-0010.916,+0226.723,-0010.916" />
<polygon id="F9328" points="+0279.692,-0011.811,+0279.692,-0010.527,+0278.560,-0010.527,+0278.560,+0039.473,+0278.955,+0039.473,+0328.300,+0039.473,+0328.300,-0011.811" />
<polygon id="F9329" points="+0229.723,+0110.231,+0276.692,+0110.231,+0276.692,+0106.184,+0277.587,+0106.184,+0277.587,+0055.290,+0228.828,+0055.290,+0228.828,+0105.898,+0229.723,+0105.898" />
<polygon id="F9331" points="+0279.692,+0106.184,+0279.692,+0110.231,+0326.300,+0110.231,+0326.300,+0059.685,+0326.300,+0055.290,+0278.377,+0055.290,+0278.377,+0106.184" />
<polygon id="F9405" points="+0328.300,+0110.231,+0377.695,+0110.231,+0377.695,+0055.290,+0341.880,+0055.290,+0341.880,+0060.080,+0328.300,+0060.080" />
<polygon id="F9408" points="+0379.300,-0011.811,+0330.300,-0011.811,+0330.300,+0039.473,+0379.300,+0039.473" />
<polygon id="F9414" points="+0427.065,-0011.811,+0380.090,-0011.811,+0380.090,+0039.473,+0427.065,+0039.473" />
<polygon id="F9415" points="+0378.485,+0110.231,+0426.880,+0110.231,+0426.880,+0055.290,+0378.485,+0055.290" />
<polygon id="F9419" points="+0427.670,+0110.231,+0453.065,+0110.231,+0453.065,+0055.290,+0427.670,+0055.290" />
<polygon id="F9420" points="+0453.670,-0011.811,+0427.855,-0011.811,+0427.855,+0039.473,+0453.670,+0039.473" />
<polygon id="F9421" points="+0453.855,+0110.231,+0477.250,+0110.231,+0477.250,+0055.290,+0453.855,+0055.290" />
<polygon id="F9422" points="+0478.855,-0011.811,+0454.460,-0011.811,+0454.460,+0039.473,+0478.855,+0039.473" />
<polygon id="F9427" points="+0478.040,+0110.231,+0503.435,+0110.231,+0503.435,+0055.290,+0478.040,+0055.290" />
<polygon id="F9431" points="+0504.225,+0110.231,+0527.620,+0110.231,+0527.620,+0055.290,+0504.225,+0055.290" />
<polygon id="F9432" points="+0526.955,-0010.811,+0526.955,-0011.811,+0479.645,-0011.811,+0479.645,+0039.473,+0528.225,+0039.473,+0528.225,+0029.288,+0545.805,+0029.288,+0545.805,-0003.206,+0529.805,-0003.206,+0529.805,-0010.811" />
<polygon id="F9437" points="+0578.340,+0109.031,+0578.340,+0080.331,+0577.955,+0080.331,+0577.955,+0056.690,+0572.130,+0056.690,+0561.223,+0056.690,+0561.223,+0055.290,+0528.410,+0055.290,+0528.410,+0110.231,+0565.240,+0110.231,+0565.240,+0109.031" />
<polygon id="FX9" points="+0328.300,+0055.290,+0328.300,+0059.290,+0341.090,+0059.290,+0341.090,+0055.290" />
<polygon id="FX901" points="+0022.270,+0040.663,+0022.270,+0054.758,+0035.218,+0054.758,+0046.803,+0054.758,+0046.803,+0060.014,+0082.223,+0060.014,+0082.223,+0054.895,+0081.805,+0054.895,+0081.805,+0039.868,+0081.805,+0035.177,+0081.805,+0024.379,+0081.805,+0013.420,+0081.805,-0010.205,+0081.805,-0013.237,+0081.805,-0039.614,+0072.440,-0039.614,+0046.749,-0039.614,+0046.749,-0014.566,+0046.749,+0013.986,+0045.149,+0013.986,+0045.149,+0017.268,+0045.213,+0017.268,+0045.213,+0023.663,+0036.013,+0023.663,+0036.013,+0039.873,+0037.551,+0039.873,+0037.551,+0040.663,+0035.618,+0040.663,+0030.223,+0040.663" />
<polygon id="FX902" points="+0022.270,-0015.566,+0045.349,-0015.566,+0045.349,-0039.614,+0044.154,-0039.614,+0022.270,-0039.614" />
<polygon id="FX903" points="+0083.805,-0013.221,+0106.519,-0013.221,+0106.519,-0039.614,+0083.805,-0039.614" />
<polygon id="FX904" points="+0030.618,+0039.873,+0035.223,+0039.873,+0035.223,+0023.663,+0030.618,+0023.663" />
<polygon id="FX905" points="+0036.013,+0017.663,+0036.013,+0022.873,+0044.423,+0022.873,+0044.423,+0017.663" />
<polygon id="FX906" points="+0022.033,+0055.548,+0022.033,+0100.433,+0082.223,+0100.433,+0082.223,+0062.014,+0046.408,+0062.014,+0035.218,+0062.014,+0031.223,+0062.014,+0031.223,+0060.014,+0034.541,+0060.014,+0034.541,+0055.548" />
<polygon id="FX907" points="+0035.896,+0055.548,+0035.896,+0060.014,+0046.013,+0060.014,+0046.013,+0055.548" />
<polygon id="FX908" points="+0106.519,-0010.221,+0083.805,-0010.221,+0083.805,+0012.420,+0097.000,+0012.420,+0106.519,+0012.420,+0106.519,+0007.092" />
<polygon id="FX909" points="+0045.349,-0013.566,+0022.270,-0013.566,+0022.270,+0010.586,+0043.749,+0010.586,+0044.449,+0012.586,+0045.349,+0012.586" />
<polygon id="FX911" points="+0106.519,-0043.614,+0106.519,-0044.214,+0110.453,-0044.214,+0110.453,-0054.251,+0110.453,-0064.199,+0110.453,-0067.295,+0083.438,-0067.295,+0072.835,-0067.295,+0072.835,-0043.614,+0082.805,-0043.614" />
<polygon id="FX9110" points="+0004.109,-0391.467,+0004.109,-0360.981,+0056.759,-0360.981,+0056.759,-0383.887,+0056.759,-0391.467" />
<polygon id="FX9111" points="+0072.045,-0391.467,+0057.549,-0391.467,+0057.549,-0384.282,+0072.045,-0384.282" />
<polygon id="FX912" points="+0110.453,-0091.880,+0083.833,-0091.880,+0083.833,-0068.085,+0110.453,-0068.085,+0110.453,-0072.744,+0110.453,-0083.258" />
<polygon id="FX913" points="+0125.338,-0083.653,+0125.338,-0091.880,+0111.243,-0091.880,+0111.243,-0083.653" />
<polygon id="FX914" points="+0125.338,-0073.139,+0125.338,-0082.863,+0111.243,-0082.863,+0111.243,-0073.139" />
<polygon id="FX915" points="+0125.338,-0064.594,+0125.338,-0072.349,+0111.243,-0072.349,+0111.243,-0067.690,+0111.243,-0064.594" />
<polygon id="FX916" points="+0125.338,-0054.646,+0125.338,-0063.804,+0111.243,-0063.804,+0111.243,-0054.646" />
<polygon id="FX917" points="+0072.045,-0383.492,+0057.549,-0383.492,+0057.549,-0359.981,+0057.549,-0324.542,+0057.549,-0302.252,+0059.009,-0302.252,+0059.009,-0299.252,+0057.549,-0299.252,+0057.549,-0275.674,+0057.549,-0248.428,+0057.549,-0222.823,+0057.549,-0198.024,+0057.549,-0195.024,+0057.549,-0145.909,+0059.009,-0145.909,+0059.009,-0142.909,+0057.549,-0142.909,+0057.549,-0118.823,+0057.549,-0092.033,+0044.549,-0092.033,+0044.549,-0043.614,+0046.049,-0043.614,+0072.045,-0043.614,+0072.045,-0067.690,+0072.045,-0092.275,+0072.045,-0142.909,+0072.045,-0145.909,+0072.045,-0171.613,+0072.045,-0195.024,+0072.045,-0198.024,+0072.045,-0223.008,+0072.045,-0247.138,+0072.045,-0250.138,+0072.045,-0299.252,+0070.585,-0299.252,+0070.585,-0302.252,+0072.045,-0302.252,+0072.045,-0351.367,+0072.045,-0354.367" />
<polygon id="FX918" points="+0111.243,-0044.214,+0125.338,-0044.214,+0125.338,-0053.856,+0111.243,-0053.856" />
<polygon id="FX919" points="+0072.835,-0091.880,+0072.835,-0068.085,+0083.043,-0068.085,+0083.043,-0091.880" />
<polygon id="FX921" points="-0156.820,+0040.663,-0156.820,+0054.758,-0108.950,+0054.758,-0084.729,+0054.758,-0081.729,+0054.758,-0055.778,+0054.758,-0031.233,+0054.758,-0031.233,+0055.298,-0029.918,+0055.298,-0029.918,+0059.798,-0031.233,+0059.798,-0031.233,+0066.113,-0005.572,+0066.113,-0005.572,+0054.758,+0020.848,+0054.758,+0020.848,+0040.663,-0004.572,+0040.663,-0029.918,+0040.663,-0032.918,+0040.663,-0056.963,+0040.663,-0081.729,+0040.663,-0084.729,+0040.663,-0133.933,+0040.663,-0136.933,+0040.663" />
<polygon id="FX931" points="+0116.604,-0010.221,+0109.519,-0010.221,+0109.519,+0006.697,+0116.604,+0006.697,+0116.604,-0003.408" />
<polygon id="FX9310" points="+0177.328,+0039.473,+0177.328,+0035.653,+0178.643,+0035.653,+0178.501,+0024.078,+0177.342,+0024.078,+0163.859,+0024.078,+0163.859,+0039.473" />
<polygon id="FX9311" points="+0097.000,+0040.263,+0083.805,+0040.263,+0083.805,+0054.500,+0127.143,+0054.500,+0130.143,+0054.500,+0152.859,+0054.500,+0177.328,+0054.500,+0180.328,+0054.500,+0228.433,+0054.500,+0277.982,+0054.500,+0327.300,+0054.500,+0327.905,+0054.500,+0327.905,+0040.263,+0278.955,+0040.263,+0278.165,+0040.263,+0229.723,+0040.263,+0226.723,+0040.263,+0180.328,+0040.263,+0177.328,+0040.263,+0163.464,+0040.263,+0141.585,+0040.263,+0123.066,+0040.263" />
<polygon id="FX932" points="+0129.400,-0010.221,+0117.394,-0010.221,+0117.394,-0003.803,+0129.400,-0003.803" />
<polygon id="FX933" points="+0117.394,+0006.697,+0123.066,+0006.697,+0129.400,+0006.697,+0129.400,-0003.013,+0117.394,-0003.013" />
<polygon id="FX934" points="+0109.519,+0007.487,+0109.519,+0014.420,+0097.395,+0014.420,+0097.395,+0024.379,+0097.395,+0035.177,+0097.395,+0039.473,+0122.066,+0039.473,+0122.066,+0007.487,+0116.999,+0007.487" />
<polygon id="FX9345" points="+0083.805,+0034.782,+0096.605,+0034.782,+0096.605,+0024.774,+0083.805,+0024.774" />
<polygon id="FX9346" points="+0096.605,+0023.984,+0096.605,+0014.420,+0083.805,+0014.420,+0083.805,+0023.984" />
<polygon id="FX9347" points="+0096.605,+0035.572,+0083.805,+0035.572,+0083.805,+0039.473,+0096.605,+0039.473" />
<polygon id="FX935" points="+0141.190,-0012.185,+0130.190,-0012.194,+0130.190,-0011.721,+0130.190,-0003.408,+0130.190,+0007.487,+0124.066,+0007.487,+0124.066,+0039.473,+0141.190,+0039.473,+0141.190,+0023.683,+0141.190,+0007.302" />
<polygon id="FX936" points="+0176.754,-0012.155,+0141.980,-0012.184,+0141.980,+0006.907,+0163.464,+0006.907,+0178.289,+0006.907,+0178.069,-0010.916,+0176.754,-0010.916" />
<polygon id="FX937" points="+0141.980,+0007.697,+0141.980,+0023.288,+0163.069,+0023.288,+0163.069,+0007.697" />
<polygon id="FX938" points="+0141.980,+0039.473,+0163.069,+0039.473,+0163.069,+0024.078,+0141.980,+0024.078" />
<polygon id="FX939" points="+0178.491,+0023.288,+0178.299,+0007.697,+0177.140,+0007.697,+0163.859,+0007.697,+0163.859,+0023.288" />
<polygon id="FX941" points="+0577.955,+0039.863,+0577.955,-0010.811,+0547.805,-0010.811,+0547.805,-0003.601,+0547.805,+0029.683,+0547.805,+0039.863,+0572.130,+0039.863" />
<polygon id="FX942" points="+0545.805,-0010.811,+0530.595,-0010.811,+0530.595,-0003.996,+0545.805,-0003.996" />
<polygon id="FX943" points="+0529.015,+0039.473,+0539.455,+0039.473,+0545.805,+0039.473,+0545.805,+0030.078,+0529.015,+0030.078" />
<polygon id="FX944" points="+0577.955,+0055.290,+0577.955,+0041.863,+0572.525,+0041.863,+0572.525,+0055.290" />
<polygon id="FX945" points="+0329.300,+0040.263,+0328.695,+0040.263,+0328.695,+0054.500,+0341.485,+0054.500,+0378.090,+0054.500,+0427.275,+0054.500,+0453.460,+0054.500,+0477.645,+0054.500,+0503.830,+0054.500,+0528.015,+0054.500,+0561.223,+0054.500,+0561.223,+0055.290,+0571.735,+0055.290,+0571.735,+0041.863,+0547.821,+0041.863,+0539.455,+0041.863,+0539.455,+0040.263,+0528.620,+0040.263,+0479.250,+0040.263,+0454.065,+0040.263,+0427.460,+0040.263,+0379.695,+0040.263" />

</svg>