<!--
Created with Chapman Taylor Dynamo SVG exporter
byabear@chapmantaylor.com

Revit Source File:
C:\Users\KH5970\OneDrive - ENGIE\Documents\ENGIE_TOUR_T1_ARC_camille.aubert.rvt

Date:
18/12/2023 15:40:51
-->

<svg xmlns="http://www.w3.org/2000/svg" class="gen-by-CTA-dyn-Synoptic-for-PowerBI" viewBox=" 1.0 -1.0 1.0 2.0 " transform="scale( 0.95 )">

<style>
polygon {
fill: gainsboro;
stroke: blue;
stroke-width: 0.0001px;
}
</style>

<polygon id="1" points="+0000.842,+0000.048,+0000.845,+0000.046,+0000.829,+0000.017,+0000.849,+0000.006,+0000.848,+0000.006,+0000.857,+0000.001,+0000.867,-0000.004,+0000.884,-0000.013,+0000.884,-0000.013,+0000.911,-0000.027,+0000.913,-0000.028,+0000.926,-0000.035,+0000.941,-0000.005,+0000.956,-0000.013,+0000.974,+0000.021,+0000.990,+0000.051,+0000.998,+0000.067,+0000.989,+0000.072,+0000.971,+0000.081,+0000.984,+0000.105,+0000.984,+0000.106,+0001.012,+0000.091,+0001.014,+0000.096,+0001.019,+0000.144,+0001.001,+0000.153,+0001.002,+0000.155,+0001.021,+0000.190,+0001.021,+0000.198,+0001.003,+0000.208,+0001.019,+0000.238,+0001.001,+0000.248,+0001.002,+0000.248,+0000.992,+0000.253,+0000.982,+0000.259,+0000.982,+0000.258,+0000.963,+0000.268,+0000.947,+0000.237,+0000.942,+0000.240,+0000.938,+0000.242,+0000.938,+0000.242,+0000.934,+0000.244,+0000.928,+0000.248,+0001.018,+0000.416,+0001.063,+0000.361,+0001.086,+0000.189,+0001.036,+0000.190,+0001.036,+0000.166,+0001.031,+0000.114,+0001.027,+0000.074,+0001.023,+0000.033,+0001.018,-0000.021,+0001.018,-0000.021,+0001.002,-0000.020,+0001.003,-0000.009,+0001.007,+0000.029,+0000.998,+0000.033,+0001.006,+0000.048,+0001.005,+0000.048,+0000.997,+0000.034,+0000.972,-0000.015,+0000.977,-0000.018,+0001.002,-0000.020,+0001.018,-0000.021,+0001.018,-0000.021,+0001.068,-0000.025,+0001.054,-0000.171,+0000.967,-0000.163,+0000.964,-0000.169,+0000.763,-0000.061,+0000.826,+0000.057,+0000.839,+0000.050,+0000.838,+0000.048,+0000.841,+0000.047" />
<polygon id="10" points="+0000.759,+0000.174,+0000.755,+0000.166,+0000.741,+0000.174,+0000.745,+0000.181" />
<polygon id="11" points="+0000.764,+0000.188,+0000.769,+0000.185,+0000.763,+0000.173,+0000.760,+0000.174,+0000.745,+0000.182,+0000.740,+0000.185,+0000.740,+0000.186,+0000.746,+0000.197" />
<polygon id="11.013B01" points="+0000.858,+0000.285,+0000.852,+0000.288,+0000.868,+0000.319,+0000.887,+0000.309,+0000.886,+0000.309,+0000.897,+0000.303,+0000.880,+0000.273,+0000.869,+0000.279" />
<polygon id="11.062C" points="+0000.785,+0000.081,+0000.784,+0000.079,+0000.764,+0000.090,+0000.758,+0000.093,+0000.759,+0000.095,+0000.796,+0000.165,+0000.803,+0000.162,+0000.806,+0000.168,+0000.820,+0000.161,+0000.816,+0000.155,+0000.823,+0000.151" />
<polygon id="11.063B" points="+0000.889,+0000.268,+0000.880,+0000.273,+0000.897,+0000.303,+0000.906,+0000.298,+0000.906,+0000.299,+0000.924,+0000.289,+0000.908,+0000.258" />
<polygon id="11.063C" points="+0000.929,+0000.017,+0000.933,+0000.024,+0000.948,+0000.016,+0000.944,+0000.008" />
<polygon id="11.063D" points="+0000.805,+0000.068,+0000.809,+0000.065,+0000.809,+0000.064,+0000.812,+0000.063,+0000.812,+0000.064,+0000.826,+0000.057,+0000.763,-0000.060,+0000.763,-0000.061,+0000.561,+0000.046,+0000.564,+0000.052,+0000.509,+0000.120,+0000.622,+0000.212,+0000.674,+0000.146,+0000.686,+0000.140,+0000.699,+0000.133,+0000.696,+0000.126,+0000.708,+0000.119,+0000.692,+0000.089,+0000.701,+0000.084,+0000.702,+0000.085,+0000.721,+0000.075,+0000.738,+0000.065,+0000.740,+0000.064,+0000.747,+0000.060,+0000.748,+0000.060,+0000.774,+0000.046,+0000.775,+0000.046,+0000.775,+0000.045,+0000.775,+0000.045,+0000.785,+0000.040,+0000.785,+0000.040,+0000.789,+0000.038" />
<polygon id="11.063E" points="+0000.916,+0000.254,+0000.913,+0000.255,+0000.908,+0000.258,+0000.924,+0000.289,+0000.906,+0000.299,+0000.906,+0000.299,+0000.897,+0000.304,+0000.887,+0000.310,+0000.887,+0000.309,+0000.868,+0000.319,+0000.852,+0000.288,+0000.834,+0000.297,+0000.829,+0000.294,+0000.828,+0000.294,+0000.826,+0000.293,+0000.810,+0000.281,+0000.795,+0000.269,+0000.781,+0000.258,+0000.779,+0000.257,+0000.779,+0000.257,+0000.738,+0000.306,+0000.758,+0000.323,+0000.947,+0000.423,+0001.018,+0000.416,+0001.017,+0000.415,+0000.928,+0000.248,+0000.919,+0000.252" />
<polygon id="11.063H" points="+0000.729,+0000.110,+0000.729,+0000.109,+0000.712,+0000.118,+0000.719,+0000.132,+0000.733,+0000.125,+0000.736,+0000.123" />
<polygon id="11.063I" points="+0000.737,+0000.134,+0000.733,+0000.126,+0000.720,+0000.133,+0000.724,+0000.141" />
<polygon id="11.063J" points="+0000.762,+0000.172,+0000.737,+0000.124,+0000.734,+0000.125,+0000.738,+0000.134,+0000.743,+0000.142,+0000.747,+0000.150,+0000.751,+0000.158,+0000.755,+0000.165,+0000.760,+0000.173" />
<polygon id="11.063K" points="+0000.948,+0000.053,+0000.952,+0000.060,+0000.967,+0000.052,+0000.964,+0000.045" />
<polygon id="11.063L" points="+0000.995,+0000.202,+0000.997,+0000.207,+0001.001,+0000.204,+0000.999,+0000.200" />
<polygon id="11.063M" points="+0000.939,+0000.237,+0000.934,+0000.229,+0000.930,+0000.231,+0000.935,+0000.240,+0000.936,+0000.239" />
<polygon id="11.063N" points="+0000.908,+0000.243,+0000.912,+0000.251,+0000.913,+0000.250,+0000.917,+0000.248,+0000.913,+0000.240" />
<polygon id="11.063O" points="+0000.827,+0000.292,+0000.827,+0000.292,+0000.819,+0000.276,+0000.812,+0000.280" />
<polygon id="11.063P" points="+0000.897,+0000.019,+0000.897,+0000.019,+0000.900,+0000.017,+0000.884,-0000.013,+0000.867,-0000.004,+0000.867,-0000.004,+0000.857,+0000.002,+0000.873,+0000.031" />
<polygon id="11.063Q" points="+0000.863,+0000.035,+0000.866,+0000.033,+0000.867,+0000.034,+0000.873,+0000.031,+0000.857,+0000.002,+0000.849,+0000.006,+0000.849,+0000.006,+0000.829,+0000.017,+0000.845,+0000.046,+0000.864,+0000.036" />
<polygon id="11.071C" points="+0000.952,+0000.123,+0000.962,+0000.141,+0000.977,+0000.168,+0000.999,+0000.157,+0000.998,+0000.155,+0000.974,+0000.111" />
<polygon id="11.096" points="+0001.073,+0000.028,+0001.068,-0000.025,+0001.018,-0000.021,+0001.023,+0000.033" />
<polygon id="11.098B" points="+0000.973,-0000.015,+0000.998,+0000.033,+0001.007,+0000.029,+0001.003,-0000.009,+0001.002,-0000.020,+0000.977,-0000.018" />
<polygon id="11.101" points="+0001.077,+0000.069,+0001.073,+0000.028,+0001.023,+0000.033,+0001.027,+0000.074,+0001.075,+0000.069" />
<polygon id="11.103" points="+0001.080,+0000.109,+0001.077,+0000.069,+0001.027,+0000.074,+0001.031,+0000.114" />
<polygon id="11.106B" points="+0000.977,+0000.110,+0001.001,+0000.154,+0001.019,+0000.144,+0001.014,+0000.096,+0001.012,+0000.091,+0000.984,+0000.106,+0000.984,+0000.106" />
<polygon id="11.109C" points="+0000.977,+0000.169,+0000.994,+0000.201,+0000.999,+0000.199,+0001.002,+0000.204,+0001.003,+0000.207,+0001.020,+0000.198,+0001.020,+0000.191,+0001.002,+0000.156" />
<polygon id="11.TR110MEN" points="+0000.957,+0000.069,+0000.964,+0000.081,+0000.969,+0000.078,+0000.988,+0000.068,+0000.989,+0000.071,+0000.997,+0000.067,+0000.989,+0000.052,+0000.973,+0000.061" />
<polygon id="11.TR112SAN" points="+0000.923,+0000.006,+0000.924,+0000.007,+0000.928,+0000.016,+0000.944,+0000.008,+0000.941,+0000.003,+0000.942,+0000.003,+0000.945,+0000.008,+0000.949,+0000.016,+0000.956,+0000.030,+0000.972,+0000.021,+0000.955,-0000.011,+0000.942,-0000.004,+0000.928,+0000.003" />
<polygon id="11.TR114CIR" points="+0000.798,+0000.173,+0000.799,+0000.173,+0000.773,+0000.187,+0000.766,+0000.191,+0000.779,+0000.215,+0000.786,+0000.211,+0000.790,+0000.209,+0000.810,+0000.198,+0000.811,+0000.197,+0000.838,+0000.183,+0000.841,+0000.181,+0000.868,+0000.167,+0000.907,+0000.242,+0000.913,+0000.239,+0000.919,+0000.251,+0000.927,+0000.247,+0000.935,+0000.243,+0000.929,+0000.231,+0000.934,+0000.228,+0000.894,+0000.153,+0000.921,+0000.139,+0000.922,+0000.138,+0000.950,+0000.123,+0000.975,+0000.110,+0000.983,+0000.106,+0000.970,+0000.082,+0000.963,+0000.086,+0000.936,+0000.100,+0000.898,+0000.029,+0000.895,+0000.022,+0000.894,+0000.021,+0000.874,+0000.032,+0000.868,+0000.035,+0000.868,+0000.036,+0000.910,+0000.114,+0000.881,+0000.129,+0000.840,+0000.051,+0000.839,+0000.050,+0000.826,+0000.057,+0000.813,+0000.065,+0000.813,+0000.066,+0000.855,+0000.143,+0000.828,+0000.158,+0000.828,+0000.157,+0000.827,+0000.158,+0000.821,+0000.161,+0000.806,+0000.169,+0000.800,+0000.172" />
<polygon id="11.TR116SAN" points="+0000.714,+0000.158,+0000.730,+0000.189,+0000.737,+0000.185,+0000.738,+0000.185,+0000.739,+0000.184,+0000.744,+0000.181,+0000.740,+0000.174,+0000.736,+0000.166,+0000.732,+0000.158,+0000.728,+0000.150" />
<polygon id="11.TR117SAN" points="+0000.697,+0000.126,+0000.700,+0000.133,+0000.713,+0000.157,+0000.727,+0000.149,+0000.723,+0000.142,+0000.719,+0000.133,+0000.711,+0000.119,+0000.709,+0000.120" />
<polygon id="11.TR14PAL" points="+0000.815,+0000.209,+0000.810,+0000.199,+0000.791,+0000.210,+0000.792,+0000.212,+0000.790,+0000.213,+0000.803,+0000.238,+0000.806,+0000.245,+0000.804,+0000.246,+0000.809,+0000.255,+0000.811,+0000.254,+0000.814,+0000.258,+0000.814,+0000.260,+0000.830,+0000.251,+0000.831,+0000.251,+0000.826,+0000.241,+0000.821,+0000.231,+0000.816,+0000.221,+0000.810,+0000.211" />
<polygon id="12" points="+0000.728,+0000.149,+0000.742,+0000.142,+0000.738,+0000.134,+0000.724,+0000.142" />
<polygon id="13" points="+0000.742,+0000.143,+0000.729,+0000.150,+0000.732,+0000.157,+0000.746,+0000.150" />
<polygon id="14" points="+0000.750,+0000.158,+0000.746,+0000.150,+0000.733,+0000.158,+0000.737,+0000.165" />
<polygon id="15" points="+0000.754,+0000.165,+0000.751,+0000.158,+0000.737,+0000.166,+0000.741,+0000.173" />
<polygon id="16" points="+0000.837,+0000.248,+0000.831,+0000.238,+0000.827,+0000.241,+0000.832,+0000.250" />
<polygon id="17" points="+0000.831,+0000.238,+0000.826,+0000.229,+0000.822,+0000.231,+0000.827,+0000.240" />
<polygon id="18" points="+0000.826,+0000.228,+0000.821,+0000.219,+0000.817,+0000.221,+0000.821,+0000.230" />
<polygon id="19" points="+0000.819,+0000.215,+0000.816,+0000.209,+0000.812,+0000.212,+0000.816,+0000.220,+0000.821,+0000.218" />
<polygon id="2" points="+0000.793,+0000.079,+0000.789,+0000.081,+0000.826,+0000.150,+0000.828,+0000.154,+0000.850,+0000.142,+0000.811,+0000.069,+0000.807,+0000.072" />
<polygon id="20" points="+0000.802,+0000.240,+0000.777,+0000.253,+0000.779,+0000.255,+0000.779,+0000.255,+0000.781,+0000.257,+0000.803,+0000.245,+0000.805,+0000.244,+0000.803,+0000.240" />
<polygon id="22" points="+0000.819,+0000.275,+0000.812,+0000.263,+0000.812,+0000.263,+0000.811,+0000.260,+0000.796,+0000.268,+0000.811,+0000.280" />
<polygon id="23" points="+0000.933,+0000.025,+0000.940,+0000.038,+0000.956,+0000.030,+0000.948,+0000.016" />
<polygon id="25" points="+0000.941,+0000.039,+0000.948,+0000.052,+0000.963,+0000.044,+0000.956,+0000.031" />
<polygon id="26" points="+0000.989,+0000.051,+0000.973,+0000.022,+0000.957,+0000.030,+0000.964,+0000.044,+0000.968,+0000.052,+0000.973,+0000.060" />
<polygon id="27" points="+0000.953,+0000.061,+0000.957,+0000.068,+0000.972,+0000.060,+0000.968,+0000.053" />
<polygon id="28" points="+0000.885,+0000.268,+0000.849,+0000.200,+0000.822,+0000.214,+0000.824,+0000.217,+0000.829,+0000.227,+0000.834,+0000.236,+0000.840,+0000.248,+0000.858,+0000.281,+0000.868,+0000.276,+0000.869,+0000.278,+0000.880,+0000.272,+0000.886,+0000.269" />
<polygon id="29" points="+0000.848,+0000.199,+0000.841,+0000.185,+0000.839,+0000.186,+0000.838,+0000.184,+0000.813,+0000.197,+0000.819,+0000.207,+0000.822,+0000.213" />
<polygon id="3" points="+0000.773,+0000.183,+0000.795,+0000.171,+0000.794,+0000.167,+0000.757,+0000.098,+0000.738,+0000.108,+0000.734,+0000.110,+0000.741,+0000.121,+0000.767,+0000.170" />
<polygon id="30" points="+0000.923,+0000.139,+0000.932,+0000.157,+0000.959,+0000.142,+0000.949,+0000.125" />
<polygon id="31" points="+0000.933,+0000.157,+0000.967,+0000.222,+0000.974,+0000.219,+0000.994,+0000.208,+0000.991,+0000.203,+0000.974,+0000.171,+0000.959,+0000.143" />
<polygon id="34" points="+0000.967,+0000.226,+0000.947,+0000.237,+0000.963,+0000.268,+0000.982,+0000.258,+0000.982,+0000.258,+0000.992,+0000.252,+0000.976,+0000.222" />
<polygon id="35" points="+0000.732,+0000.106,+0000.732,+0000.106,+0000.736,+0000.104,+0000.721,+0000.075,+0000.702,+0000.085,+0000.702,+0000.085,+0000.693,+0000.090,+0000.708,+0000.119,+0000.711,+0000.118" />
<polygon id="36" points="+0000.787,+0000.077,+0000.791,+0000.075,+0000.776,+0000.045,+0000.748,+0000.060,+0000.748,+0000.060,+0000.763,+0000.090,+0000.787,+0000.077" />
<polygon id="37" points="+0000.791,+0000.075,+0000.805,+0000.068,+0000.789,+0000.038,+0000.785,+0000.040,+0000.785,+0000.041,+0000.776,+0000.046,+0000.776,+0000.046" />
<polygon id="38" points="+0000.925,+0000.018,+0000.921,+0000.011,+0000.902,+0000.021,+0000.899,+0000.023,+0000.901,+0000.027,+0000.938,+0000.095,+0000.960,+0000.084,+0000.953,+0000.071,+0000.948,+0000.062,+0000.944,+0000.055,+0000.937,+0000.041,+0000.929,+0000.026" />
<polygon id="39" points="+0000.919,+0000.007,+0000.928,+0000.002,+0000.912,-0000.028,+0000.884,-0000.013,+0000.900,+0000.017" />
<polygon id="4" points="+0000.844,+0000.184,+0000.852,+0000.198,+0000.887,+0000.264,+0000.906,+0000.254,+0000.909,+0000.252,+0000.905,+0000.244,+0000.866,+0000.172" />
<polygon id="40" points="+0000.844,+0000.052,+0000.883,+0000.125,+0000.905,+0000.113,+0000.866,+0000.040,+0000.847,+0000.050" />
<polygon id="44" points="+0001.085,+0000.159,+0001.080,+0000.109,+0001.031,+0000.114,+0001.036,+0000.166,+0001.036,+0000.190,+0001.085,+0000.189,+0001.086,+0000.189,+0001.085,+0000.159" />
<polygon id="45" points="+0000.765,+0000.191,+0000.747,+0000.201,+0000.747,+0000.201,+0000.747,+0000.201,+0000.746,+0000.202,+0000.738,+0000.206,+0000.730,+0000.190,+0000.713,+0000.158,+0000.700,+0000.134,+0000.686,+0000.141,+0000.713,+0000.191,+0000.714,+0000.193,+0000.714,+0000.194,+0000.712,+0000.191,+0000.686,+0000.141,+0000.675,+0000.147,+0000.624,+0000.211,+0000.623,+0000.212,+0000.737,+0000.306,+0000.778,+0000.256,+0000.776,+0000.254,+0000.774,+0000.253,+0000.774,+0000.253,+0000.760,+0000.225,+0000.778,+0000.215" />
<polygon id="48" points="+0000.736,+0000.104,+0000.754,+0000.094,+0000.763,+0000.090,+0000.748,+0000.061,+0000.740,+0000.065,+0000.738,+0000.065,+0000.721,+0000.075" />
<polygon id="49" points="+0000.997,+0000.211,+0000.976,+0000.222,+0000.992,+0000.252,+0001.001,+0000.247,+0001.001,+0000.248,+0001.019,+0000.238,+0001.003,+0000.207,+0001.003,+0000.208,+0001.003,+0000.208" />
<polygon id="5" points="+0000.921,+0000.143,+0000.899,+0000.155,+0000.937,+0000.227,+0000.942,+0000.236,+0000.945,+0000.234,+0000.964,+0000.224,+0000.929,+0000.159" />
<polygon id="6" points="+0000.786,+0000.215,+0000.780,+0000.218,+0000.764,+0000.227,+0000.776,+0000.250,+0000.799,+0000.238" />
<polygon id="7" points="+0000.855,+0000.282,+0000.838,+0000.251,+0000.833,+0000.253,+0000.832,+0000.254,+0000.832,+0000.254,+0000.816,+0000.262,+0000.822,+0000.274,+0000.830,+0000.290,+0000.831,+0000.291,+0000.835,+0000.293,+0000.850,+0000.285" />

</svg>