<!--
Created with Chapman Taylor Dynamo SVG exporter
byabear@chapmantaylor.com

Revit Source File:
C:\Users\KH5970\DC\ACCDocs\Engie Solutions\ENGIE Solution\Project Files\1JA\82369.rvt

Date:
03/12/2023 15:03:09
-->

<svg xmlns="http://www.w3.org/2000/svg" class="gen-by-CTA-dyn-Synoptic-for-PowerBI" viewBox=" -157.0 -392.0 736.0 503.0 " transform="scale( 0.95 )">

<style>
polygon {
fill: gainsboro;
stroke: blue;
stroke-width: 0.0001px;
}
</style>

<polygon id="F2101" points="+0004.109,-0043.824,+0021.270,-0043.824,+0021.270,-0043.614,+0046.049,-0043.614,+0056.759,-0043.614,+0056.759,-0092.033,+0005.359,-0092.033,+0005.359,-0091.138,+0004.109,-0091.138" />
<polygon id="F2107" points="+0004.109,-0119.224,+0004.109,-0094.138,+0005.359,-0094.138,+0005.359,-0092.823,+0056.759,-0092.823,+0056.759,-0119.224" />
<polygon id="F2111" points="+0004.109,-0143.138,+0004.109,-0120.014,+0056.759,-0120.014,+0056.759,-0142.909,+0054.509,-0142.909,+0054.509,-0144.033,+0005.359,-0144.033,+0005.359,-0143.138" />
<polygon id="F2115" points="+0004.109,-0170.218,+0004.109,-0146.138,+0005.359,-0146.138,+0005.359,-0144.823,+0054.509,-0144.823,+0054.509,-0145.909,+0056.759,-0145.909,+0056.759,-0170.218" />
<polygon id="F2118" points="+0125.343,-0198.024,+0125.343,-0208.919,+0072.835,-0208.919,+0072.835,-0198.024,+0077.593,-0198.024,+0077.593,-0195.024,+0072.835,-0195.024,+0072.835,-0145.909,+0077.009,-0145.909,+0077.009,-0142.909,+0072.835,-0142.909,+0072.835,-0092.670,+0083.438,-0092.670,+0110.848,-0092.670,+0125.338,-0092.670,+0125.343,-0094.333,+0125.343,-0142.909,+0123.093,-0142.909,+0123.093,-0145.909,+0125.343,-0145.909,+0125.343,-0195.024,+0123.093,-0195.024,+0123.093,-0198.024" />
<polygon id="F2127" points="+0004.109,-0195.138,+0004.109,-0171.008,+0056.759,-0171.008,+0056.759,-0195.024,+0053.093,-0195.024,+0053.093,-0198.024,+0056.759,-0198.024,+0056.759,-0248.033,+0005.359,-0248.033,+0005.359,-0247.138,+0004.109,-0247.138,+0004.109,-0198.138,+0005.359,-0198.138,+0005.359,-0195.138" />
<polygon id="F2131" points="+0004.109,-0274.218,+0004.109,-0250.138,+0005.359,-0250.138,+0005.359,-0248.823,+0056.759,-0248.823,+0056.759,-0274.218" />
<polygon id="F2136" points="+0125.343,-0302.252,+0125.343,-0327.262,+0072.835,-0327.262,+0072.835,-0302.252,+0075.085,-0302.252,+0075.085,-0299.252,+0072.835,-0299.252,+0072.835,-0250.138,+0076.561,-0250.138,+0076.561,-0247.138,+0072.835,-0247.138,+0072.835,-0209.709,+0125.343,-0209.709,+0125.343,-0247.138,+0123.093,-0247.138,+0123.093,-0250.138,+0125.343,-0250.138,+0125.343,-0299.252,+0123.093,-0299.252,+0123.093,-0302.252" />
<polygon id="F2138" points="+0125.343,-0328.052,+0125.343,-0351.367,+0123.285,-0351.367,+0123.285,-0352.262,+0123.093,-0352.262,+0076.285,-0352.262,+0076.285,-0351.367,+0072.835,-0351.367,+0072.835,-0328.052" />
<polygon id="F2142" points="+0125.343,-0391.467,+0072.835,-0391.467,+0072.835,-0383.887,+0072.835,-0354.367,+0076.285,-0354.367,+0076.285,-0353.052,+0123.093,-0353.052,+0123.093,-0354.367,+0125.343,-0354.367" />
<polygon id="F2145" points="+0004.109,-0299.252,+0004.109,-0275.008,+0056.759,-0275.008,+0056.759,-0299.252,+0054.509,-0299.252,+0054.509,-0302.252,+0056.759,-0302.252,+0056.759,-0358.981,+0004.109,-0358.981,+0004.109,-0302.252,+0005.359,-0302.252,+0005.359,-0299.252" />
<polygon id="F2205" points="-0156.820,+0055.548,-0156.820,+0108.434,-0136.538,+0108.434,-0136.538,+0105.898,-0133.538,+0105.898,-0133.538,+0108.434,-0108.976,+0108.434,-0108.976,+0055.548" />
<polygon id="F2206" points="-0156.820,-0013.566,-0156.820,+0039.873,-0136.933,+0039.873,-0136.933,+0036.184,-0133.933,+0036.184,-0133.933,+0039.873,-0109.345,+0039.873,-0109.345,-0013.566,-0133.660,-0013.566,-0133.660,-0010.516,-0136.660,-0010.516,-0136.660,-0013.566" />
<polygon id="F2207" points="-0108.186,+0108.434,-0084.729,+0108.434,-0084.729,+0105.898,-0083.834,+0105.898,-0083.834,+0059.798,-0084.729,+0059.798,-0084.729,+0055.548,-0108.186,+0055.548" />
<polygon id="F2210" points="-0084.729,-0013.566,-0108.555,-0013.566,-0108.555,+0039.873,-0084.729,+0039.873,-0084.729,+0036.184,-0083.414,+0036.184,-0083.414,-0010.916,-0084.729,-0010.916" />
<polygon id="F2213" points="-0081.729,+0108.434,-0032.918,+0108.434,-0032.918,+0106.184,-0029.918,+0106.184,-0029.918,+0108.434,-0006.233,+0108.434,-0006.233,+0071.403,-0032.023,+0071.403,-0032.023,+0059.798,-0032.918,+0059.798,-0032.918,+0055.548,-0081.729,+0055.548,-0081.729,+0059.798,-0083.044,+0059.798,-0083.044,+0105.898,-0081.729,+0105.898" />
<polygon id="F2216" points="-0032.918,-0013.566,-0081.291,-0013.566,-0081.291,-0010.916,-0082.624,-0010.916,-0082.624,+0036.184,-0081.729,+0036.184,-0081.729,+0039.873,-0032.918,+0039.873,-0032.918,+0036.184,-0031.603,+0036.184,-0031.603,-0010.916,-0032.918,-0010.916" />
<polygon id="F2218" points="+0130.143,+0110.231,+0176.455,+0110.231,+0176.455,+0105.898,+0179.455,+0105.898,+0179.455,+0110.231,+0203.618,+0110.231,+0203.618,+0055.290,+0180.328,+0055.290,+0180.328,+0059.540,+0177.328,+0059.540,+0177.328,+0055.290,+0130.143,+0055.290,+0130.143,+0058.540,+0128.070,+0058.540,+0128.070,+0105.898,+0130.143,+0105.898" />
<polygon id="F2220" points="+0020.270,-0013.566,-0029.918,-0013.566,-0029.918,-0010.916,-0030.813,-0010.916,-0030.813,+0036.184,-0029.918,+0036.184,-0029.918,+0039.873,+0020.270,+0039.873,+0020.270,+0013.586" />
<polygon id="F2222" points="+0276.692,-0012.070,+0253.013,-0012.090,+0253.013,+0032.394,+0253.013,+0039.473,+0278.770,+0039.473,+0278.770,-0010.516,+0276.692,-0010.516" />
<polygon id="F2228" points="+0279.692,-0011.811,+0279.560,-0011.811,+0279.560,-0010.516,+0279.560,+0039.473,+0327.505,+0039.473,+0327.505,-0011.811" />
<polygon id="F2301" points="+0084.223,+0101.933,+0083.442,+0101.933,+0083.442,+0110.231,+0103.580,+0110.231,+0103.580,+0084.038,+0096.790,+0084.038,+0084.223,+0084.038,+0084.223,+0100.417" />
<polygon id="F2302" points="+0084.223,+0061.014,+0084.223,+0083.248,+0096.395,+0083.248,+0096.395,+0069.479,+0096.395,+0055.290,+0084.223,+0055.290" />
<polygon id="F2303" points="+0116.038,+0055.290,+0097.185,+0055.290,+0097.185,+0069.084,+0116.038,+0069.084" />
<polygon id="F2304" points="+0097.185,+0083.248,+0103.975,+0083.248,+0116.038,+0083.248,+0116.038,+0069.874,+0097.185,+0069.874" />
<polygon id="F2305" points="+0104.370,+0110.231,+0127.143,+0110.231,+0127.143,+0105.898,+0127.280,+0105.898,+0127.280,+0058.540,+0127.143,+0058.540,+0127.143,+0055.290,+0116.828,+0055.290,+0116.828,+0069.479,+0116.828,+0084.038,+0104.370,+0084.038" />
<polygon id="F2310" points="+0203.433,-0012.132,+0179.754,-0012.152,+0179.754,-0010.916,+0178.859,-0010.916,+0178.859,+0008.263,+0178.859,+0035.653,+0180.328,+0035.653,+0180.328,+0039.473,+0203.433,+0039.473" />
<polygon id="F2318" points="+0226.723,-0012.112,+0204.223,-0012.131,+0204.223,+0039.473,+0226.723,+0039.473,+0226.723,+0036.184,+0228.838,+0036.184,+0228.838,+0031.999,+0252.223,+0031.999,+0252.223,-0012.090,+0229.723,-0012.109,+0229.723,-0010.916,+0226.723,-0010.916" />
<polygon id="F2321" points="+0204.408,+0110.231,+0226.723,+0110.231,+0226.723,+0105.898,+0227.618,+0105.898,+0227.618,+0055.290,+0204.408,+0055.290" />
<polygon id="F2325" points="+0229.723,+0110.231,+0276.692,+0110.231,+0276.692,+0106.184,+0279.692,+0106.184,+0279.692,+0110.231,+0327.675,+0110.231,+0327.675,+0055.290,+0228.408,+0055.290,+0228.408,+0105.898,+0229.723,+0105.898" />
<polygon id="F2403" points="+0329.675,+0110.231,+0356.295,+0110.231,+0356.295,+0055.290,+0329.675,+0055.290" />
<polygon id="F2410" points="+0428.250,-0011.811,+0328.295,-0011.811,+0328.295,+0039.473,+0328.675,+0039.473,+0428.250,+0039.473" />
<polygon id="F2417" points="+0357.085,+0110.231,+0528.620,+0110.231,+0528.620,+0055.290,+0357.085,+0055.290" />
<polygon id="F2420" points="+0478.435,-0011.811,+0429.040,-0011.811,+0429.040,+0039.473,+0478.435,+0039.473" />
<polygon id="F2430" points="+0526.955,-0010.811,+0526.955,-0011.811,+0479.225,-0011.811,+0479.225,+0039.473,+0539.455,+0039.473,+0545.805,+0039.473,+0545.805,-0010.811" />
<polygon id="F2433" points="+0578.340,+0109.031,+0578.340,+0080.331,+0577.955,+0080.331,+0577.955,+0056.690,+0565.240,+0056.690,+0561.223,+0056.690,+0561.223,+0055.290,+0529.410,+0055.290,+0529.410,+0110.231,+0565.240,+0110.231,+0565.240,+0109.031" />
<polygon id="FX201" points="+0022.270,+0040.663,+0022.270,+0054.758,+0035.218,+0054.758,+0046.803,+0054.758,+0046.803,+0060.014,+0082.223,+0060.014,+0082.223,+0054.895,+0081.805,+0054.895,+0081.805,+0041.068,+0081.805,+0039.868,+0081.805,+0035.177,+0081.805,+0024.379,+0081.805,+0011.586,+0081.805,-0010.205,+0081.805,-0013.237,+0081.805,-0039.614,+0072.440,-0039.614,+0057.154,-0039.614,+0046.749,-0039.614,+0046.749,-0014.566,+0046.749,+0013.286,+0046.749,+0014.586,+0045.149,+0014.586,+0045.149,+0017.268,+0045.213,+0017.268,+0045.213,+0023.663,+0036.013,+0023.663,+0036.013,+0039.873,+0037.551,+0039.873,+0037.551,+0040.663,+0035.618,+0040.663,+0030.223,+0040.663" />
<polygon id="FX202" points="+0022.270,-0015.566,+0045.349,-0015.566,+0045.349,-0039.614,+0022.270,-0039.614" />
<polygon id="FX203" points="+0083.805,-0013.221,+0106.519,-0013.221,+0106.519,-0039.614,+0083.805,-0039.614" />
<polygon id="FX204" points="+0045.349,-0013.566,+0022.270,-0013.566,+0022.270,+0012.586,+0044.449,+0012.586,+0045.349,+0012.586" />
<polygon id="FX205" points="+0106.519,-0010.221,+0083.805,-0010.221,+0083.805,+0010.586,+0097.000,+0010.586,+0106.519,+0010.586,+0106.519,+0007.092" />
<polygon id="FX206" points="+0035.896,+0055.548,+0035.896,+0060.014,+0046.013,+0060.014,+0046.013,+0055.548" />
<polygon id="FX207" points="+0030.618,+0039.873,+0035.223,+0039.873,+0035.223,+0023.663,+0030.618,+0023.663" />
<polygon id="FX208" points="+0036.013,+0017.663,+0036.013,+0022.873,+0044.423,+0022.873,+0044.423,+0017.663" />
<polygon id="FX209" points="+0022.033,+0055.548,+0022.033,+0100.433,+0082.223,+0100.433,+0082.223,+0083.643,+0082.223,+0062.014,+0046.408,+0062.014,+0035.218,+0062.014,+0031.223,+0062.014,+0031.223,+0060.014,+0034.541,+0060.014,+0034.541,+0055.548" />
<polygon id="FX211" points="+0106.519,-0043.614,+0106.519,-0044.214,+0110.453,-0044.214,+0110.453,-0054.251,+0110.453,-0064.199,+0110.453,-0067.295,+0083.438,-0067.295,+0072.835,-0067.295,+0072.835,-0043.614,+0082.805,-0043.614" />
<polygon id="FX2110" points="+0111.243,-0044.214,+0125.338,-0044.214,+0125.338,-0053.856,+0111.243,-0053.856" />
<polygon id="FX2111" points="+0072.835,-0091.880,+0072.835,-0068.085,+0083.043,-0068.085,+0083.043,-0091.880" />
<polygon id="FX2112" points="+0072.045,-0391.467,+0057.549,-0391.467,+0057.549,-0384.282,+0072.045,-0384.282" />
<polygon id="FX212" points="+0110.453,-0091.880,+0083.833,-0091.880,+0083.833,-0068.085,+0110.453,-0068.085,+0110.453,-0072.744,+0110.453,-0083.258" />
<polygon id="FX213" points="+0125.338,-0083.653,+0125.338,-0091.880,+0111.243,-0091.880,+0111.243,-0083.653" />
<polygon id="FX214" points="+0125.338,-0073.139,+0125.338,-0082.863,+0111.243,-0082.863,+0111.243,-0073.139" />
<polygon id="FX215" points="+0125.338,-0064.594,+0125.338,-0072.349,+0111.243,-0072.349,+0111.243,-0067.690,+0111.243,-0064.594" />
<polygon id="FX216" points="+0125.338,-0054.646,+0125.338,-0063.804,+0111.243,-0063.804,+0111.243,-0054.646" />
<polygon id="FX217" points="+0072.045,-0383.492,+0057.549,-0383.492,+0057.549,-0359.981,+0057.549,-0302.252,+0059.009,-0302.252,+0059.009,-0299.252,+0057.549,-0299.252,+0057.549,-0274.613,+0057.549,-0248.428,+0057.549,-0198.024,+0057.549,-0195.024,+0057.549,-0170.613,+0057.549,-0145.909,+0059.009,-0145.909,+0059.009,-0142.909,+0057.549,-0142.909,+0057.549,-0119.619,+0057.549,-0092.428,+0057.549,-0043.614,+0072.045,-0043.614,+0072.045,-0067.690,+0072.045,-0092.275,+0072.045,-0142.909,+0072.045,-0145.909,+0072.045,-0195.024,+0072.045,-0198.024,+0072.045,-0209.314,+0072.045,-0247.138,+0072.045,-0250.138,+0072.045,-0299.252,+0070.585,-0299.252,+0070.585,-0302.252,+0072.045,-0302.252,+0072.045,-0327.657,+0072.045,-0351.367,+0072.045,-0354.367" />
<polygon id="FX218" points="+0004.109,-0391.467,+0004.109,-0360.981,+0056.759,-0360.981,+0056.759,-0383.887,+0056.759,-0391.467" />
<polygon id="FX219" points="-0156.820,+0040.663,-0156.820,+0054.758,-0108.581,+0054.758,-0084.729,+0054.758,-0081.729,+0054.758,-0032.918,+0054.758,-0030.197,+0054.758,-0030.197,+0055.298,-0029.918,+0055.298,-0029.918,+0059.798,-0031.233,+0059.798,-0031.233,+0070.613,-0006.233,+0070.613,-0006.233,+0054.758,+0020.848,+0054.758,+0020.848,+0040.663,-0029.918,+0040.663,-0032.918,+0040.663,-0081.729,+0040.663,-0084.729,+0040.663,-0108.950,+0040.663,-0133.933,+0040.663,-0136.933,+0040.663" />
<polygon id="FX2214" points="-0005.443,+0108.434,+0020.033,+0108.434,+0020.033,+0101.933,+0020.033,+0055.548,-0005.443,+0055.548,-0005.443,+0071.008" />
<polygon id="FX231" points="+0116.604,-0010.221,+0109.519,-0010.221,+0109.519,+0006.697,+0116.604,+0006.697,+0116.604,-0003.408" />
<polygon id="FX2310" points="+0096.605,+0023.984,+0096.605,+0012.586,+0083.805,+0012.586,+0083.805,+0023.984" />
<polygon id="FX2311" points="+0096.605,+0035.572,+0083.805,+0035.572,+0083.805,+0039.473,+0096.605,+0039.473" />
<polygon id="FX2312" points="+0177.328,+0039.473,+0177.328,+0035.653,+0178.069,+0035.653,+0178.069,+0008.658,+0164.585,+0008.658,+0164.585,+0024.209,+0164.585,+0039.473" />
<polygon id="FX2313" points="+0229.628,+0036.184,+0229.723,+0036.184,+0229.723,+0039.473,+0229.805,+0039.473,+0229.805,+0040.263,+0229.723,+0040.263,+0226.723,+0040.263,+0203.828,+0040.263,+0180.328,+0040.263,+0177.328,+0040.263,+0164.190,+0040.263,+0141.585,+0040.263,+0123.066,+0040.263,+0097.000,+0040.263,+0083.805,+0040.263,+0083.805,+0041.068,+0083.805,+0054.500,+0096.790,+0054.500,+0116.433,+0054.500,+0127.143,+0054.500,+0130.143,+0054.500,+0177.328,+0054.500,+0180.328,+0054.500,+0204.013,+0054.500,+0228.013,+0054.500,+0327.675,+0054.500,+0327.675,+0040.263,+0279.165,+0040.263,+0278.955,+0040.263,+0252.223,+0040.263,+0252.223,+0032.789,+0229.628,+0032.789" />
<polygon id="FX232" points="+0129.400,-0010.221,+0117.394,-0010.221,+0117.394,-0003.803,+0129.400,-0003.803" />
<polygon id="FX233" points="+0117.394,+0006.697,+0123.066,+0006.697,+0129.400,+0006.697,+0129.400,-0003.013,+0117.394,-0003.013" />
<polygon id="FX234" points="+0109.519,+0013.420,+0106.519,+0013.420,+0106.519,+0012.586,+0097.395,+0012.586,+0097.395,+0024.379,+0097.395,+0035.177,+0097.395,+0039.473,+0122.066,+0039.473,+0122.066,+0007.487,+0116.999,+0007.487,+0109.519,+0007.487,+0109.519,+0011.586" />
<polygon id="FX235" points="+0141.190,-0012.185,+0130.190,-0012.194,+0130.190,-0011.721,+0130.190,-0003.408,+0130.190,+0007.487,+0124.066,+0007.487,+0124.066,+0039.473,+0141.190,+0039.473,+0141.190,+0024.209,+0141.190,+0008.263" />
<polygon id="FX236" points="+0083.805,+0034.782,+0096.605,+0034.782,+0096.605,+0024.774,+0083.805,+0024.774" />
<polygon id="FX237" points="+0176.754,-0012.155,+0141.980,-0012.184,+0141.980,+0007.868,+0164.190,+0007.868,+0178.069,+0007.868,+0178.069,-0010.916,+0176.754,-0010.916" />
<polygon id="FX238" points="+0141.980,+0039.473,+0163.795,+0039.473,+0163.795,+0024.604,+0141.980,+0024.604" />
<polygon id="FX239" points="+0141.980,+0008.658,+0141.980,+0023.814,+0163.795,+0023.814,+0163.795,+0008.658" />
<polygon id="FX2414" points="+0577.955,+0055.290,+0577.955,+0041.863,+0547.821,+0041.863,+0539.455,+0041.863,+0539.455,+0040.263,+0478.830,+0040.263,+0428.645,+0040.263,+0329.675,+0040.263,+0329.675,+0054.500,+0356.690,+0054.500,+0529.015,+0054.500,+0561.223,+0054.500,+0565.240,+0054.500,+0565.240,+0055.290" />
<polygon id="FX2415" points="+0577.955,+0039.863,+0577.955,-0010.811,+0547.805,-0010.811,+0547.805,+0039.863" />

</svg>
